<svg width="90" height="106" viewBox="0 0 90 106" fill="none" xmlns="http://www.w3.org/2000/svg">
<g clip-path="url(#clip0_59_31)">
<path d="M85.9866 71.0506C84.0245 69.0807 81.4812 68.0504 78.9056 67.9482C77.271 67.8783 75.0228 67.2959 73.8644 66.1336L54.2691 46.493L53.3488 45.5714L52.382 44.602L65.5202 31.4315C67.1419 29.8136 70.1977 29.2545 72.486 29.4693C76.7804 29.8757 81.269 28.3899 84.6186 25.039C88.337 21.318 89.753 16.1888 88.8301 11.4841C88.7654 11.1631 88.5143 11.088 88.2827 11.3249L80.794 18.82C80.3345 19.2821 79.4971 19.3934 78.9302 19.0608L73.3014 15.7772L70.0308 10.1807C69.7033 9.60995 69.8094 8.77773 70.2754 8.31567L77.7667 0.81404C77.997 0.582364 77.9271 0.328686 77.6049 0.269149C72.9028 -0.648493 67.7723 0.767446 64.0564 4.48979C61.1663 7.38379 59.6688 11.1268 59.5782 14.8544C59.4928 18.1328 58.7408 22.5346 56.4189 24.8578L44.5529 36.7509L32.687 24.8578C30.3651 22.5346 29.6131 18.1328 29.5277 14.8544C29.4371 11.1268 27.9396 7.38379 25.0495 4.48979C21.3323 0.76874 16.2018 -0.645905 11.4997 0.270443C11.1774 0.32998 11.1075 0.583659 11.3379 0.815334L18.8292 8.31697C19.2951 8.77902 19.4012 9.61124 19.0738 10.182L15.8031 15.7785L10.1743 19.0621C9.60744 19.3947 8.77133 19.2834 8.31057 18.8213L0.821884 11.3249C0.588914 11.088 0.337824 11.1631 0.274405 11.4841C-0.649709 16.1888 0.76623 21.318 4.48598 25.039C7.83557 28.3886 12.3241 29.8744 16.6185 29.4693C18.9055 29.2532 21.9626 29.8136 23.5843 31.4315L36.7225 44.602L35.7557 45.5714L34.8355 46.493L15.2401 66.1336C14.0818 67.2959 11.8336 67.8783 10.1989 67.9482C7.62331 68.0517 5.08006 69.0807 3.11793 71.0506C-1.04058 75.2143 -1.03799 81.9497 3.1257 86.1069C7.28421 90.2615 14.0235 90.2538 18.1833 86.0966C20.148 84.1331 21.1718 81.5873 21.2792 79.0143C21.3426 77.377 21.9225 75.1301 23.0873 73.9692L42.5791 54.4295L43.5214 53.4846L44.5516 52.4518L45.5819 53.4846L46.5241 54.4295L66.0159 73.9692C67.1808 75.1301 67.7606 77.377 67.824 79.0143C67.9302 81.5873 68.9552 84.1331 70.9199 86.0966C75.0797 90.2551 81.819 90.2628 85.9776 86.1069C90.1412 81.9497 90.1451 75.2143 85.9853 71.0506H85.9866ZM61.2996 14.9928C61.3086 14.5942 61.3772 14.1684 61.4161 13.7141C61.4872 13.2702 61.5468 12.79 61.6749 12.3124C61.7332 12.0743 61.7966 11.8296 61.8587 11.5772C61.9338 11.3378 62.0101 11.0867 62.0878 10.8408C62.2522 10.349 62.4528 9.85457 62.6573 9.36662C62.8838 8.88774 63.1167 8.41015 63.3782 7.96104C63.6215 7.50028 63.9386 7.0887 64.2091 6.67453C64.5081 6.28236 64.7876 5.89278 65.1073 5.56533C65.2575 5.39837 65.4102 5.2327 65.55 5.07998C65.7066 4.93114 65.858 4.78359 65.9978 4.64898C66.2735 4.36683 66.5673 4.14422 66.821 3.95266C67.0721 3.74558 67.2947 3.58638 67.4927 3.46601C67.8797 3.22528 68.0984 3.08032 68.0984 3.08032C68.0984 3.08032 67.9043 3.25505 67.5639 3.55791C67.3827 3.6951 67.1808 3.88795 66.962 4.11833C66.7407 4.34224 66.4922 4.58686 66.2372 4.87936C66.1078 5.02562 65.9719 5.17317 65.8321 5.33236C65.7027 5.49026 65.5772 5.66111 65.4413 5.83842C65.1552 6.17623 64.9197 6.57487 64.6375 6.97221C64.3851 7.37991 64.1146 7.79408 63.8804 8.2406C63.6332 8.68454 63.4105 9.13754 63.2022 9.60865C62.9951 10.0798 62.7932 10.5496 62.6327 11.0285C62.5498 11.2627 62.4683 11.5035 62.3829 11.7364C62.3156 11.9759 62.2457 12.2089 62.181 12.4431C62.0464 12.9026 61.9428 13.3608 61.8445 13.7879C61.7655 14.2202 61.6684 14.6304 61.6296 15.0123C61.5261 15.7836 61.4665 16.4321 61.4523 16.8864C61.4316 17.3445 61.4238 17.6034 61.4238 17.6034C61.4238 17.6034 61.3902 17.3407 61.3319 16.8864C61.306 16.6663 61.2983 16.3829 61.2879 16.058C61.262 15.7396 61.2737 15.3837 61.2983 14.9916L61.2996 14.9928ZM27.814 16.0593C27.8037 16.3842 27.7959 16.6676 27.77 16.8877C27.7118 17.342 27.6781 17.6047 27.6781 17.6047C27.6781 17.6047 27.6704 17.3458 27.6497 16.8877C27.6341 16.4334 27.5759 15.7862 27.4723 15.0136C27.4348 14.6317 27.3364 14.2215 27.2575 13.7892C27.1604 13.3621 27.0556 12.9039 26.921 12.4444C26.8563 12.2102 26.7864 11.9772 26.7191 11.7377C26.6337 11.5035 26.5521 11.264 26.4693 11.0298C26.3088 10.5509 26.1069 10.0811 25.8998 9.60995C25.6901 9.13754 25.4688 8.68454 25.2216 8.2419C24.9873 7.79408 24.7168 7.37991 24.4644 6.97351C24.181 6.57616 23.9467 6.17752 23.6607 5.83972C23.5235 5.6624 23.398 5.49156 23.2698 5.33366C23.13 5.17446 22.9929 5.02691 22.8647 4.88066C22.611 4.58815 22.3612 4.34353 22.1399 4.11962C21.9212 3.88924 21.7193 3.6951 21.5381 3.5592C21.1977 3.25505 21.0035 3.08161 21.0035 3.08161C21.0035 3.08161 21.2236 3.22657 21.6093 3.46731C21.806 3.58768 22.0286 3.74687 22.281 3.95396C22.5334 4.14422 22.8285 4.36812 23.1042 4.65028C23.2426 4.78488 23.3941 4.93243 23.552 5.08127C23.6918 5.234 23.8445 5.39966 23.9946 5.56663C24.3156 5.89278 24.5952 6.28366 24.8929 6.67582C25.1634 7.08999 25.4805 7.50157 25.7238 7.96233C25.9865 8.41145 26.2182 8.89033 26.4447 9.36792C26.6492 9.85586 26.8498 10.3503 27.0142 10.8421C27.0918 11.088 27.1682 11.3404 27.2433 11.5785C27.3054 11.8309 27.3688 12.0743 27.427 12.3137C27.5552 12.7913 27.6147 13.2715 27.6859 13.7154C27.7247 14.1697 27.7933 14.5955 27.8024 14.9941C27.827 15.3863 27.8386 15.7422 27.8127 16.0606L27.814 16.0593ZM57.44 27.3014L46.3856 38.5914L46.1643 38.3701L57.44 27.3027V27.3014ZM31.6632 27.3014L42.939 38.3688L42.7176 38.5901L31.6632 27.3001V27.3014ZM17.0392 85.3459C16.9033 85.5051 16.7182 85.6785 16.4917 85.8623C16.2691 86.0513 16.0296 86.27 15.7151 86.4525C15.565 86.5444 15.4045 86.6518 15.2388 86.7579C15.068 86.8472 14.8894 86.9352 14.7082 87.0362C14.3471 87.2381 13.9277 87.3727 13.5045 87.5436C13.0657 87.6497 12.6166 87.8024 12.1403 87.849C11.6679 87.9448 11.18 87.9564 10.6972 87.9797C10.2145 87.9487 9.72781 87.9487 9.25151 87.8516C8.7791 87.8024 8.32999 87.6484 7.89252 87.5371C7.4667 87.3766 7.04606 87.2459 6.68496 87.0388C6.50376 86.9404 6.32386 86.8485 6.15172 86.7631C5.98864 86.6518 5.82815 86.5547 5.67931 86.4538C5.37127 86.2739 5.11759 86.0551 4.89886 85.8636C4.66718 85.6785 4.48598 85.5038 4.35267 85.3485C4.06664 85.0534 3.90874 84.8761 3.90874 84.8761C3.90874 84.8761 4.0977 85.0158 4.42645 85.2669C4.50799 85.329 4.59858 85.4067 4.69954 85.4792C4.80437 85.5452 4.91827 85.6099 5.03734 85.6876C5.27549 85.8416 5.54082 86.0124 5.85662 86.1664C6.00676 86.248 6.16466 86.336 6.33033 86.4214C6.50764 86.4939 6.68496 86.5677 6.86875 86.6414C7.22467 86.8136 7.63496 86.8964 8.04266 87.0388C8.4633 87.1268 8.893 87.2459 9.34211 87.2847C9.78605 87.3662 10.2442 87.3624 10.7011 87.3831C11.158 87.3662 11.6123 87.3624 12.0588 87.2808C12.5066 87.2407 12.9376 87.1255 13.357 87.0336C13.7621 86.8874 14.1749 86.8019 14.5348 86.6363C14.7147 86.5586 14.8946 86.4861 15.0693 86.4162C15.2362 86.3282 15.3942 86.2389 15.5456 86.1574C15.8588 86.0047 16.1228 85.8338 16.3649 85.6798C16.6095 85.5374 16.8114 85.3938 16.9719 85.2566C17.2967 85.0081 17.487 84.8696 17.487 84.8696C17.487 84.8696 17.3317 85.043 17.0444 85.342L17.0392 85.3459ZM16.5072 80.1429L17.0172 81.5394L15.6206 82.0468V83.5416L14.1271 83.5365L13.6223 84.9408L12.2245 84.4295L11.2693 85.5724L10.1251 84.6185L8.83216 85.3601L8.08925 84.0736L6.61895 84.326L6.36527 82.866L4.89756 82.6124L5.15254 81.1382L3.86344 80.3914L4.60764 79.1049L3.64859 77.9646L4.79273 77.0094L4.2789 75.6077L5.67801 75.1004L5.67542 73.612H7.16902L7.67638 72.2128L9.07808 72.7176L10.032 71.5799L11.1735 72.5351L12.4613 71.7883L13.2081 73.08L14.6745 72.8134L14.936 74.2863L16.4011 74.5464L16.1435 76.0077L17.4326 76.7467L16.6858 78.0397L17.641 79.1812L16.5046 80.1416L16.5072 80.1429ZM15.8497 69.7757C15.8834 69.7938 15.917 69.8145 15.9507 69.8327C16.2756 70.0177 16.5409 70.2727 16.8179 70.4733C17.1013 70.6662 17.2954 70.9315 17.5077 71.1347C17.7096 71.3457 17.905 71.5398 18.0306 71.7417C18.1704 71.9372 18.2882 72.1054 18.3878 72.2491C18.5807 72.5273 18.6868 72.6956 18.6868 72.6956C18.6868 72.6956 18.5392 72.5662 18.2959 72.3267C18.1794 72.2012 18.0358 72.0601 17.8714 71.8893C17.7174 71.712 17.4909 71.5696 17.2773 71.3767C17.0469 71.2098 16.8308 70.9833 16.5474 70.8189C16.2652 70.6494 15.9973 70.4358 15.6828 70.2805C15.3605 70.1381 15.0538 69.9453 14.703 69.8275C14.3548 69.7045 14.0106 69.5635 13.6404 69.5C13.4631 69.4573 13.2858 69.4069 13.1007 69.3771L12.5442 69.3033C12.1818 69.2399 11.8181 69.2567 11.4673 69.2295C11.114 69.258 10.7684 69.236 10.4474 69.2852C10.1239 69.3111 9.81582 69.3551 9.53496 69.4081C8.96677 69.5026 8.49695 69.6101 8.17079 69.7084C7.8511 69.8003 7.66214 69.8728 7.66214 69.8728C7.66214 69.8728 7.82522 69.7537 8.13196 69.6023C8.28598 69.5207 8.47365 69.4431 8.69627 69.346C8.92018 69.2658 9.16738 69.148 9.45212 69.0755C9.73557 68.9875 10.0462 68.906 10.384 68.8503C10.7179 68.7752 11.0777 68.7532 11.4492 68.7131C11.8219 68.7196 12.2154 68.6717 12.6076 68.7325C12.8017 68.7519 12.9984 68.7752 13.1965 68.7998C13.3906 68.8361 13.5886 68.884 13.7815 68.9267C14.1128 68.9862 14.4196 69.1066 14.7263 69.2269L38.2524 46.1344L38.629 46.5111L15.851 69.7731L15.8497 69.7757ZM70.806 72.328C70.5627 72.5662 70.4152 72.6969 70.4152 72.6969C70.4152 72.6969 70.5213 72.5286 70.7141 72.2504C70.8125 72.1067 70.9316 71.9385 71.0714 71.743C71.1982 71.5411 71.3936 71.3483 71.5942 71.136C71.8065 70.9315 72.0007 70.6675 72.2841 70.4746C72.5611 70.2727 72.8264 70.0177 73.1513 69.834C73.1849 69.8158 73.2186 69.7964 73.2522 69.777L50.4742 46.515L50.8509 46.1383L74.3769 69.2308C74.6837 69.1118 74.9904 68.9901 75.3218 68.9306C75.5159 68.8878 75.7126 68.84 75.9068 68.8037C76.1048 68.7791 76.3015 68.7558 76.4957 68.7364C76.8878 68.6756 77.28 68.7248 77.6541 68.717C78.0255 68.7584 78.3853 68.7791 78.7193 68.8542C79.0558 68.9098 79.3677 68.9901 79.6511 69.0794C79.9346 69.1519 80.1831 69.2697 80.407 69.3499C80.6296 69.447 80.8173 69.5246 80.9713 69.6062C81.2793 69.7576 81.4411 69.8767 81.4411 69.8767C81.4411 69.8767 81.2521 69.8055 80.9325 69.7123C80.6063 69.6139 80.1378 69.5065 79.5683 69.412C79.2887 69.359 78.9794 69.3162 78.6558 69.2891C78.3335 69.2399 77.9893 69.2606 77.6359 69.2334C77.2852 69.2606 76.9215 69.2438 76.5591 69.3072L76.0026 69.381C75.8175 69.412 75.6402 69.4612 75.4628 69.5039C75.0914 69.566 74.7471 69.7071 74.4002 69.8314C74.0495 69.9479 73.744 70.1407 73.4205 70.2844C73.106 70.4397 72.8381 70.6532 72.5559 70.8228C72.2725 70.9859 72.0576 71.2137 71.8259 71.3806C71.6124 71.5735 71.3859 71.7158 71.2318 71.8932C71.0662 72.064 70.9225 72.2064 70.8073 72.3306L70.806 72.328ZM84.7532 85.3511C84.6199 85.5064 84.4374 85.6811 84.207 85.8662C83.9882 86.0577 83.7333 86.2765 83.4265 86.4564C83.2777 86.556 83.1172 86.6544 82.9541 86.7657C82.7833 86.8511 82.6034 86.943 82.4209 87.0414C82.0598 87.2472 81.6391 87.3792 81.2133 87.5397C80.7758 87.651 80.3267 87.805 79.8543 87.8542C79.378 87.9512 78.8914 87.9513 78.4086 87.9823C77.9259 87.9577 77.4379 87.9461 76.9655 87.8516C76.4892 87.805 76.0401 87.651 75.6013 87.5461C75.1781 87.3753 74.7575 87.2407 74.3977 87.0388C74.2165 86.9365 74.0391 86.8485 73.867 86.7605C73.7013 86.6531 73.5408 86.547 73.3907 86.4551C73.0762 86.2726 72.8368 86.0538 72.6141 85.8649C72.3863 85.6811 72.2026 85.5077 72.0667 85.3485C71.778 85.0495 71.624 84.8761 71.624 84.8761C71.624 84.8761 71.8143 85.0145 72.1391 85.263C72.2996 85.3989 72.5015 85.5439 72.7462 85.6863C72.9882 85.839 73.2522 86.0111 73.5654 86.1638C73.7169 86.2454 73.8748 86.3334 74.0417 86.4227C74.2165 86.4926 74.3964 86.5651 74.5763 86.6427C74.9361 86.8084 75.3489 86.8938 75.7541 87.0401C76.1734 87.132 76.6044 87.2472 77.0522 87.2873C77.4987 87.3688 77.9543 87.3727 78.4099 87.3895C78.8668 87.3688 79.325 87.3727 79.7689 87.2912C80.218 87.2523 80.6477 87.1333 81.0684 87.0453C81.4748 86.9016 81.8863 86.8188 82.2423 86.6479C82.4261 86.5741 82.6047 86.5017 82.7807 86.4279C82.9464 86.3425 83.1043 86.2545 83.2544 86.1729C83.5702 86.0189 83.8342 85.848 84.0737 85.694C84.1927 85.6177 84.3066 85.553 84.4115 85.4856C84.5124 85.4132 84.603 85.3355 84.6846 85.2734C85.012 85.0223 85.2023 84.8825 85.2023 84.8825C85.2023 84.8825 85.0444 85.0598 84.7583 85.3549L84.7532 85.3511ZM85.2398 80.3927L83.9507 81.1395L84.2057 82.6136L82.738 82.8673L82.4843 84.3273L81.014 84.0749L80.2711 85.3614L78.9781 84.6198L77.834 85.5737L76.8788 84.4308L75.481 84.9421L74.9762 83.5378L73.4813 83.5429V82.048L72.0861 81.5407L72.596 80.1442L71.4596 79.1838L72.4148 78.0423L71.668 76.7493L72.9571 76.0103L72.6996 74.549L74.1647 74.2889L74.4261 72.816L75.8925 73.0826L76.6393 71.7909L77.9272 72.5377L79.0687 71.5825L80.0226 72.7202L81.4243 72.2154L81.9316 73.6133H83.4252L83.4227 75.103L84.8218 75.6103L84.3079 77.012L85.4521 77.9672L84.493 79.1075L85.2372 80.394L85.2398 80.3927Z" fill="black"/>
<path d="M44.5516 63.8467C55.1758 63.8467 63.7884 55.234 63.7884 44.6098C63.7884 33.9856 55.1758 25.373 44.5516 25.373C33.9274 25.373 25.3148 33.9856 25.3148 44.6098C25.3148 55.234 33.9274 63.8467 44.5516 63.8467Z" stroke="black" stroke-width="5.23147" stroke-miterlimit="10"/>
<path d="M3.37547 103.634H1.82622V98.3288H0.018116V97.2999C0.495704 97.2792 0.829628 97.2468 1.02118 97.2041C1.32534 97.1368 1.57254 97.0022 1.7641 96.8016C1.89482 96.6631 1.99448 96.4793 2.06178 96.2502C2.10061 96.1117 2.12002 96.0095 2.12002 95.9422H3.37677V103.634H3.37547Z" fill="black"/>
<path d="M9.99699 98.1166C10.45 98.4065 10.7101 98.9048 10.7774 99.6127H9.26573C9.24372 99.4186 9.18936 99.2646 9.10135 99.1507C8.93568 98.9462 8.65224 98.8426 8.25231 98.8426C7.92356 98.8426 7.6893 98.8944 7.54951 98.9967C7.40973 99.0989 7.33984 99.2193 7.33984 99.3578C7.33984 99.5312 7.41362 99.6567 7.56246 99.7344C7.7113 99.8159 8.23678 99.9557 9.13759 100.154C9.73814 100.295 10.1898 100.51 10.4901 100.796C10.7878 101.086 10.9353 101.448 10.9353 101.883C10.9353 102.456 10.7218 102.924 10.296 103.286C9.87015 103.648 9.21137 103.829 8.31961 103.829C7.42785 103.829 6.7393 103.638 6.30571 103.254C5.87213 102.869 5.65599 102.381 5.65599 101.787H7.18971C7.22206 102.056 7.29066 102.247 7.39679 102.36C7.58446 102.562 7.93133 102.663 8.43609 102.663C8.73378 102.663 8.96934 102.619 9.14406 102.53C9.31879 102.442 9.4068 102.309 9.4068 102.133C9.4068 101.957 9.33562 101.834 9.19454 101.746C9.05346 101.658 8.52799 101.505 7.61941 101.289C6.9645 101.126 6.50374 100.923 6.23453 100.679C5.96532 100.438 5.83201 100.092 5.83201 99.6399C5.83201 99.1054 6.04168 98.6472 6.46103 98.2628C6.88037 97.8784 7.46927 97.6869 8.2303 97.6869C8.99134 97.6869 9.54011 97.8305 9.99699 98.1166Z" fill="black"/>
<path d="M14.7017 102.557V103.687L13.986 103.713C13.2715 103.738 12.7836 103.615 12.5221 103.342C12.3526 103.168 12.2672 102.902 12.2672 102.54V98.9811H11.4608V97.9043H12.2672V96.2916H13.7633V97.9043H14.7017V98.9811H13.7633V102.037C13.7633 102.274 13.7931 102.421 13.8539 102.48C13.9135 102.538 14.0973 102.568 14.4053 102.568C14.4519 102.568 14.4998 102.568 14.5516 102.565C14.6033 102.564 14.6538 102.561 14.703 102.557H14.7017Z" fill="black"/>
<path d="M21.652 102.504C22.0377 102.504 22.3509 102.461 22.5903 102.377C23.0459 102.214 23.275 101.913 23.275 101.47C23.275 101.211 23.1624 101.012 22.9359 100.871C22.7094 100.732 22.3535 100.611 21.8694 100.505L21.0424 100.319C20.2295 100.136 19.6665 99.935 19.3559 99.7202C18.8291 99.3591 18.5651 98.7948 18.5651 98.0273C18.5651 97.3271 18.8201 96.7446 19.3287 96.2813C19.8374 95.8179 20.5855 95.5863 21.573 95.5863C22.3975 95.5863 23.1003 95.805 23.6814 96.2412C24.2625 96.6773 24.568 97.3115 24.5964 98.1425H23.0265C22.998 97.6726 22.7935 97.3374 22.4117 97.1394C22.1567 97.0087 21.8409 96.9427 21.4617 96.9427C21.0411 96.9427 20.7045 97.0281 20.4535 97.1976C20.2024 97.3672 20.0768 97.604 20.0768 97.9082C20.0768 98.1877 20.2011 98.3961 20.4483 98.5346C20.6075 98.6265 20.9466 98.7339 21.4669 98.8582L22.8142 99.1818C23.4044 99.3228 23.8509 99.5131 24.1512 99.7499C24.6184 100.118 24.8514 100.649 24.8514 101.347C24.8514 102.045 24.5783 102.654 24.0321 103.127C23.4859 103.599 22.7133 103.835 21.7167 103.835C20.7201 103.835 19.8969 103.602 19.3132 103.137C18.7295 102.672 18.4383 102.033 18.4383 101.219H19.9979C20.0471 101.576 20.1441 101.843 20.2891 102.02C20.5544 102.342 21.0087 102.503 21.652 102.503V102.504Z" fill="black"/>
<path d="M28.5854 102.557V103.687L27.8697 103.713C27.1552 103.738 26.6673 103.615 26.4058 103.342C26.2363 103.168 26.1509 102.902 26.1509 102.54V98.9811H25.3445V97.9043H26.1509V96.2916H27.647V97.9043H28.5854V98.9811H27.647V102.037C27.647 102.274 27.6768 102.421 27.7376 102.48C27.7972 102.538 27.981 102.568 28.289 102.568C28.3356 102.568 28.3835 102.568 28.4353 102.565C28.487 102.564 28.5375 102.561 28.5867 102.557H28.5854Z" fill="black"/>
<path d="M32.4643 99.2478C31.856 99.2478 31.447 99.4458 31.2387 99.8418C31.1222 100.064 31.0639 100.407 31.0639 100.871V103.634H29.5419V97.8512H30.985V98.8595C31.218 98.4738 31.4212 98.211 31.5946 98.0687C31.878 97.8318 32.2456 97.7128 32.6986 97.7128C32.7271 97.7128 32.7504 97.7127 32.7698 97.7153C32.7892 97.7166 32.8332 97.7192 32.8992 97.7231V99.2724C32.8034 99.262 32.7193 99.2542 32.6443 99.2516C32.5705 99.2478 32.5096 99.2465 32.4643 99.2465V99.2478Z" fill="black"/>
<path d="M38.7351 101.937C38.6963 102.28 38.5177 102.628 38.1993 102.983C37.7036 103.545 37.0111 103.827 36.1194 103.827C35.3842 103.827 34.7345 103.59 34.1728 103.116C33.6111 102.643 33.3289 101.871 33.3289 100.803C33.3289 99.803 33.5826 99.0355 34.09 98.501C34.5973 97.9664 35.2561 97.6998 36.0663 97.6998C36.5478 97.6998 36.9801 97.7904 37.3658 97.9703C37.7515 98.1502 38.0699 98.4349 38.321 98.8245C38.5474 99.1675 38.6937 99.5649 38.761 100.018C38.7998 100.283 38.8154 100.665 38.8089 101.163H34.851C34.8717 101.743 35.0542 102.15 35.3972 102.384C35.6056 102.529 35.8566 102.601 36.1504 102.601C36.4611 102.601 36.7148 102.513 36.9089 102.336C37.015 102.24 37.1082 102.108 37.1898 101.939H38.7338L38.7351 101.937ZM37.2389 100.165C37.2143 99.7655 37.0927 99.4626 36.8752 99.2555C36.6578 99.0484 36.3886 98.9449 36.0663 98.9449C35.7156 98.9449 35.4451 99.0549 35.2522 99.2736C35.0594 99.4924 34.939 99.7901 34.8885 100.165H37.2389Z" fill="black"/>
<path d="M44.7768 101.937C44.738 102.28 44.5594 102.628 44.241 102.983C43.7453 103.545 43.0528 103.827 42.1611 103.827C41.4259 103.827 40.7762 103.59 40.2145 103.116C39.6528 102.643 39.3706 101.871 39.3706 100.803C39.3706 99.803 39.6243 99.0355 40.1316 98.501C40.639 97.9664 41.2978 97.6998 42.108 97.6998C42.5895 97.6998 43.0218 97.7904 43.4075 97.9703C43.7932 98.1502 44.1116 98.4349 44.3626 98.8245C44.5891 99.1675 44.7354 99.5649 44.8027 100.018C44.8415 100.283 44.8571 100.665 44.8506 101.163H40.8927C40.9134 101.743 41.0959 102.15 41.4389 102.384C41.6472 102.529 41.8983 102.601 42.1921 102.601C42.5028 102.601 42.7564 102.513 42.9506 102.336C43.0567 102.24 43.1499 102.108 43.2314 101.939H44.7755L44.7768 101.937ZM43.2819 100.165C43.2573 99.7655 43.1357 99.4626 42.9182 99.2555C42.7008 99.0484 42.4316 98.9449 42.1093 98.9449C41.7586 98.9449 41.488 99.0549 41.2952 99.2736C41.1024 99.4924 40.982 99.7901 40.9315 100.165H43.2819Z" fill="black"/>
<path d="M48.5173 102.557V103.687L47.8015 103.713C47.0871 103.738 46.5991 103.615 46.3377 103.342C46.1682 103.168 46.0827 102.902 46.0827 102.54V98.9811H45.2764V97.9043H46.0827V96.2916H47.5789V97.9043H48.5173V98.9811H47.5789V102.037C47.5789 102.274 47.6087 102.421 47.6695 102.48C47.7291 102.538 47.9128 102.568 48.2209 102.568C48.2675 102.568 48.3154 102.568 48.3671 102.565C48.4189 102.564 48.4694 102.561 48.5186 102.557H48.5173Z" fill="black"/>
<path d="M57.4245 103.444C56.9935 103.709 56.4628 103.841 55.8325 103.841C54.7958 103.841 53.9468 103.483 53.2854 102.764C52.5955 102.043 52.2513 101.056 52.2513 99.8043C52.2513 98.5527 52.5994 97.5225 53.2957 96.7589C53.9921 95.9952 54.9136 95.6134 56.0603 95.6134C57.0543 95.6134 57.8529 95.8658 58.456 96.3693C59.0591 96.8728 59.4047 97.5018 59.4927 98.255H57.8852C57.761 97.7205 57.4594 97.3478 56.978 97.1355C56.7087 97.019 56.4098 96.9608 56.081 96.9608C55.452 96.9608 54.9343 97.1989 54.5292 97.6739C54.1241 98.1502 53.9222 98.8646 53.9222 99.8198C53.9222 100.775 54.1409 101.462 54.5797 101.862C55.0184 102.262 55.5167 102.461 56.0758 102.461C56.635 102.461 57.0737 102.304 57.4232 101.986C57.7739 101.671 57.9888 101.255 58.0703 100.743H56.2609V99.438H59.5186V103.634H58.4366L58.2722 102.658C57.9577 103.03 57.6743 103.291 57.4232 103.444H57.4245Z" fill="black"/>
<path d="M61.1753 98.4777C61.5752 97.969 62.2612 97.714 63.2332 97.714C63.8661 97.714 64.4291 97.8396 64.9196 98.0907C65.4115 98.3418 65.6574 98.8155 65.6574 99.5131V102.165C65.6574 102.349 65.6613 102.571 65.6677 102.833C65.6781 103.031 65.7079 103.166 65.7583 103.237C65.8075 103.308 65.8826 103.366 65.981 103.411V103.634H64.3359C64.2893 103.518 64.2583 103.408 64.2401 103.305C64.222 103.203 64.2078 103.087 64.1974 102.955C63.9891 103.181 63.7483 103.374 63.4752 103.533C63.1504 103.721 62.7815 103.814 62.3712 103.814C61.8483 103.814 61.416 103.664 61.0743 103.366C60.7327 103.067 60.5618 102.644 60.5618 102.095C60.5618 101.385 60.8362 100.869 61.3837 100.551C61.6839 100.378 62.1266 100.253 62.7103 100.18L63.2254 100.116C63.505 100.081 63.7043 100.037 63.8247 99.9829C64.0408 99.891 64.1483 99.7473 64.1483 99.5532C64.1483 99.3164 64.0667 99.1533 63.9023 99.0627C63.738 98.9721 63.4959 98.9281 63.1775 98.9281C62.8203 98.9281 62.5679 99.0161 62.4191 99.1934C62.313 99.3241 62.2418 99.5014 62.2068 99.7241H60.7482C60.7805 99.218 60.9216 98.8025 61.1727 98.4777H61.1753ZM62.3 102.542C62.4411 102.658 62.6145 102.716 62.8203 102.716C63.1452 102.716 63.4455 102.621 63.7198 102.43C63.9942 102.239 64.1366 101.891 64.147 101.385V100.823C64.0512 100.884 63.9554 100.932 63.8583 100.969C63.7613 101.007 63.628 101.04 63.4584 101.073L63.1193 101.136C62.8009 101.193 62.5731 101.262 62.4346 101.343C62.2017 101.482 62.0839 101.695 62.0839 101.985C62.0839 102.244 62.1564 102.429 62.3013 102.542H62.3Z" fill="black"/>
<path d="M69.9078 99.2478C69.2995 99.2478 68.8905 99.4458 68.6821 99.8418C68.5656 100.064 68.5074 100.407 68.5074 100.871V103.634H66.9853V97.8512H68.4284V98.8595C68.6614 98.4738 68.8646 98.211 69.038 98.0687C69.3215 97.8318 69.6891 97.7128 70.142 97.7128C70.1705 97.7128 70.1938 97.7127 70.2132 97.7153C70.2326 97.7166 70.2767 97.7192 70.3427 97.7231V99.2724C70.2469 99.262 70.1628 99.2542 70.0877 99.2516C70.0139 99.2478 69.9531 99.2465 69.9078 99.2465V99.2478Z" fill="black"/>
<path d="M71.4467 98.4777C71.8466 97.969 72.5326 97.714 73.5046 97.714C74.1375 97.714 74.7005 97.8396 75.191 98.0907C75.6828 98.3418 75.9288 98.8155 75.9288 99.5131V102.165C75.9288 102.349 75.9326 102.571 75.9391 102.833C75.9495 103.031 75.9792 103.166 76.0297 103.237C76.0789 103.308 76.154 103.366 76.2523 103.411V103.634H74.6073C74.5607 103.518 74.5296 103.408 74.5115 103.305C74.4934 103.203 74.4792 103.087 74.4688 102.955C74.2604 103.181 74.0197 103.374 73.7466 103.533C73.4217 103.721 73.0529 103.814 72.6426 103.814C72.1197 103.814 71.6874 103.664 71.3457 103.366C71.004 103.067 70.8332 102.644 70.8332 102.095C70.8332 101.385 71.1076 100.869 71.6551 100.551C71.9553 100.378 72.398 100.253 72.9817 100.18L73.4968 100.116C73.7764 100.081 73.9757 100.037 74.0961 99.9829C74.3122 99.891 74.4196 99.7473 74.4196 99.5532C74.4196 99.3164 74.3381 99.1533 74.1737 99.0627C74.0093 98.9721 73.7673 98.9281 73.4489 98.9281C73.0917 98.9281 72.8393 99.0161 72.6905 99.1934C72.5843 99.3241 72.5132 99.5014 72.4782 99.7241H71.0196C71.0519 99.218 71.193 98.8025 71.4441 98.4777H71.4467ZM72.5714 102.542C72.7125 102.658 72.8859 102.716 73.0917 102.716C73.4166 102.716 73.7168 102.621 73.9912 102.43C74.2656 102.239 74.408 101.891 74.4183 101.385V100.823C74.3226 100.884 74.2268 100.932 74.1297 100.969C74.0326 101.007 73.8993 101.04 73.7298 101.073L73.3907 101.136C73.0723 101.193 72.8445 101.262 72.706 101.343C72.473 101.482 72.3553 101.695 72.3553 101.985C72.3553 102.244 72.4277 102.429 72.5727 102.542H72.5714Z" fill="black"/>
<path d="M78.9056 104.647C79.0687 104.786 79.3418 104.855 79.7275 104.855C80.2724 104.855 80.636 104.672 80.8198 104.308C80.9402 104.075 80.9997 103.682 80.9997 103.131V102.759C80.8548 103.006 80.6995 103.193 80.5325 103.316C80.2322 103.546 79.8414 103.66 79.3599 103.66C78.617 103.66 78.0242 103.4 77.5803 102.877C77.1363 102.355 76.915 101.649 76.915 100.758C76.915 99.8677 77.1286 99.1766 77.557 98.5916C77.9854 98.0065 78.5911 97.714 79.3767 97.714C79.6666 97.714 79.919 97.758 80.1352 97.8461C80.5027 97.9988 80.8004 98.277 81.0269 98.6847V97.8512H82.4959V103.336C82.4959 104.083 82.3704 104.645 82.1193 105.023C81.6883 105.674 80.86 105.999 79.6369 105.999C78.8978 105.999 78.2947 105.854 77.8275 105.564C77.3602 105.274 77.1027 104.84 77.0535 104.264H78.6985C78.7412 104.442 78.8098 104.569 78.9056 104.646V104.647ZM78.6506 101.662C78.8551 102.15 79.224 102.394 79.7546 102.394C80.108 102.394 80.407 102.261 80.6516 101.993C80.8962 101.726 81.0179 101.3 81.0179 100.717C81.0179 100.168 80.9014 99.7512 80.671 99.4652C80.4393 99.1792 80.1287 99.0355 79.7404 99.0355C79.2097 99.0355 78.8435 99.2853 78.6416 99.7836C78.5354 100.049 78.4824 100.376 78.4824 100.765C78.4824 101.101 78.5393 101.4 78.6519 101.662H78.6506Z" fill="black"/>
<path d="M88.8573 101.937C88.8185 102.28 88.6399 102.628 88.3215 102.983C87.8258 103.545 87.1333 103.827 86.2416 103.827C85.5064 103.827 84.8567 103.59 84.295 103.116C83.7333 102.643 83.4511 101.871 83.4511 100.803C83.4511 99.803 83.7048 99.0355 84.2121 98.501C84.7195 97.9664 85.3783 97.6998 86.1885 97.6998C86.67 97.6998 87.1023 97.7904 87.488 97.9703C87.8736 98.1502 88.192 98.4349 88.4431 98.8245C88.6696 99.1675 88.8159 99.5649 88.8832 100.018C88.922 100.283 88.9375 100.665 88.9311 101.163H84.9732C84.9939 101.743 85.1764 102.15 85.5194 102.384C85.7277 102.529 85.9788 102.601 86.2726 102.601C86.5833 102.601 86.8369 102.513 87.0311 102.336C87.1372 102.24 87.2304 102.108 87.3119 101.939H88.856L88.8573 101.937ZM87.3611 100.165C87.3365 99.7655 87.2149 99.4626 86.9974 99.2555C86.78 99.0484 86.5108 98.9449 86.1885 98.9449C85.8377 98.9449 85.5672 99.0549 85.3744 99.2736C85.1815 99.4924 85.0612 99.7901 85.0107 100.165H87.3611Z" fill="black"/>
</g>
<defs>
<clipPath id="clip0_59_31">
<rect width="89.1032" height="106" fill="white"/>
</clipPath>
</defs>
</svg>
