<?xml version="1.0" encoding="UTF-8"?>
<svg id="Layer_1" data-name="Layer 1" xmlns="http://www.w3.org/2000/svg" viewBox="0 0 1080 1080">
  <defs>
    <style>
      .cls-1 {
        fill: #070707;
      }
    </style>
  </defs>
  <g>
    <path class="cls-1" d="M531.187,891.037c-.321,2.411-.736,4.246-1.244,5.504-.511,1.258-1.327,2.101-2.451,2.529-1.124.43-2.785.644-4.982.644h-24.26c-2.785,0-4.848-.121-6.186-.363-1.338-.239-2.237-.734-2.69-1.485-.455-.75-.682-1.902-.682-3.455v-7.068h24.017v-26.51h-29.996c1.378-1.617,2.716-3.301,4.008-5.06h37.375c-.067,2.442-.14,4.664-.22,6.666-.161,4.017-.335,7.311-.522,9.882-.189,2.571-.417,4.538-.683,5.905-.268,1.365-.562,2.29-.883,2.77-.377.537-.751.885-1.124,1.044-.377.161-.832.216-1.367.161-.696.054-1.581.054-2.65,0-1.073-.053-2.25-.132-3.535-.241.803,1.394,1.458,3.04,1.969,4.94.508,1.902.789,3.602.843,5.102,1.873.109,3.615.12,5.221.04,1.608-.08,2.971-.201,4.097-.361,1.231-.268,2.33-.683,3.294-1.245.964-.562,1.9-1.459,2.81-2.69.591-.805,1.073-2.061,1.447-3.776.373-1.713.696-4.017.964-6.909.268-2.892.495-6.559.682-11.006.189-4.443.363-9.771.522-15.984.054-.43.082-.992.082-1.688s.027-1.579.082-2.65h-41.944c1.389-2.471,2.662-4.959,3.786-7.471l-11.006-3.294c-1.445,3.483-3.269,6.909-5.462,10.283-2.197,3.374-4.619,6.481-7.27,9.318-2.65,2.839-5.424,5.276-8.314,7.31.801.591,1.766,1.394,2.89,2.411,1.126,1.017,2.21,2.036,3.254,3.051,1.044,1.019,1.887,1.902,2.531,2.652,1.533-1.283,3.058-2.691,4.578-4.213v28.794c0,3.963.577,7.029,1.729,9.199,1.149,2.168,3.183,3.68,6.104,4.538,2.919.856,6.949,1.285,12.09,1.285h25.224c4.229,0,7.551-.43,9.96-1.285,2.411-.857,4.231-2.384,5.464-4.579,1.229-2.195,2.114-5.194,2.65-8.996-1.501-.268-3.254-.763-5.263-1.487-2.007-.723-3.655-1.459-4.94-2.21ZM502.348,870.151v7.794h-13.655v-7.794h13.655Z"/>
    <path class="cls-1" d="M598.709,893.581c2.763-2.979,5.234-6.307,7.387-10.015,2.705-4.659,4.833-9.987,6.387-15.986l-7.311-3.133-1.927.482h-27.206c.128-.644.26-1.289.376-1.927.356-1.974.668-3.902.941-5.785h41.394v-10.283h-40.244c.133-1.572.239-3.058.319-4.458.161-2.812.294-5.181.402-7.108h-11.086c-.053,1.499-.134,3.468-.241,5.903-.077,1.725-.194,3.618-.35,5.663h-19.09v10.283h17.947c-.112.741-.228,1.487-.355,2.25-.589,3.535-1.394,7.15-2.409,10.845-1.019,3.695-2.357,7.349-4.017,10.964-1.661,3.615-3.684,7.058-6.066,10.323-2.382,3.269-5.207,6.267-8.473,8.997,1.875,1.073,3.615,2.264,5.221,3.575,1.606,1.313,2.944,2.663,4.017,4.057,3.319-3.053,6.196-6.399,8.635-10.042,2.437-3.642,4.525-7.431,6.265-11.367,1.008-2.279,1.91-4.577,2.729-6.892,2.081,3.909,4.423,7.481,7.032,10.708.923,1.142,1.897,2.235,2.908,3.29-1.672,1.133-3.41,2.187-5.238,3.137-4.017,2.088-8.354,3.749-13.013,4.98,1.07,1.071,2.181,2.502,3.332,4.298,1.153,1.793,2.049,3.386,2.692,4.779,5.248-1.661,10.121-3.749,14.621-6.265,2.093-1.171,4.087-2.46,6-3.846,1.125.766,2.278,1.505,3.477,2.198,5.783,3.347,12.56,5.905,20.324,7.672.482-.964,1.111-2.076,1.887-3.334s1.606-2.449,2.491-3.575c.885-1.124,1.726-2.088,2.531-2.892-8.684-1.495-16.103-4.003-22.289-7.498ZM580.411,875.213h17.708c-.669,1.424-1.381,2.815-2.187,4.137-1.735,2.846-3.746,5.463-6.029,7.852-3.829-3.481-6.995-7.476-9.492-11.989Z"/>
  </g>
  <path class="cls-1" d="M427.074,471.051c-3.237,0-6.105-.638-8.609-1.919-2.505-1.277-4.514-2.986-6.026-5.126-1.514-2.137-2.426-4.59-2.739-7.355-.313-2.765.105-5.635,1.253-8.611l59.088-206.376c1.146-2.764,2.413-5.087,3.794-6.966,1.382-1.877,2.922-3.404,4.618-4.577,1.695-1.174,3.573-2.008,5.634-2.504s4.266-.745,6.613-.745h83.585c2.451,0,4.707.249,6.768.745,2.061.496,3.953,1.317,5.673,2.464,1.724,1.148,3.29,2.662,4.697,4.539,1.408,1.877,2.66,4.175,3.755,6.888l60.106,206.376c1.198,3.025,1.642,5.923,1.332,8.687-.313,2.767-1.213,5.231-2.703,7.396-1.487,2.166-3.481,3.887-5.987,5.164-2.502,1.28-5.4,1.919-8.687,1.919h-63.548c-3.445,0-6.379-.979-8.805-2.934-2.426-1.958-4.004-4.605-4.734-7.945l-1.174-17.218c-.678-2.034-1.815-3.639-3.405-4.813-1.59-1.174-3.481-1.76-5.673-1.76h-41.713c-2.087,0-3.913.562-5.479,1.683-1.564,1.123-2.712,2.622-3.443,4.5l-1.564,18.001c-.783,3.183-2.375,5.725-4.775,7.63-2.4,1.905-5.295,2.856-8.687,2.856h-59.165ZM537.422,380.267c.939,0,1.8-.182,2.581-.547.784-.365,1.411-.86,1.879-1.487.471-.626.784-1.356.939-2.192.158-.833.079-1.721-.234-2.66l-5.947-44.609c-.368-1.356-.939-2.373-1.724-3.053-.781-.676-1.602-1.029-2.463-1.055-.863-.027-1.672.313-2.426,1.017-.757.704-1.344,1.735-1.763,3.091l-6.728,44.375c-.313.939-.404,1.839-.274,2.7.128.86.441,1.618.939,2.27.493.652,1.134,1.174,1.915,1.564.784.392,1.669.587,2.66.587h10.645Z"/>
  <path class="cls-1" d="M406.134,801.731c-3.235,0-6.104-.638-8.607-1.919-2.505-1.277-4.514-2.986-6.026-5.126-1.514-2.137-2.426-4.59-2.739-7.355-.313-2.765.105-5.635,1.251-8.611l59.088-206.376c1.148-2.764,2.413-5.087,3.796-6.966,1.382-1.877,2.922-3.404,4.618-4.577,1.694-1.174,3.573-2.008,5.634-2.504,2.06-.496,4.266-.745,6.613-.745h83.585c2.451,0,4.707.249,6.77.745,2.06.496,3.951,1.317,5.673,2.464,1.721,1.148,3.287,2.662,4.696,4.539,1.408,1.877,2.66,4.175,3.756,6.888l60.105,206.376c1.199,3.025,1.643,5.923,1.33,8.687-.313,2.767-1.213,5.231-2.7,7.396-1.487,2.166-3.483,3.887-5.987,5.164-2.505,1.28-5.4,1.919-8.688,1.919h-63.548c-3.443,0-6.379-.979-8.804-2.934-2.426-1.958-4.006-4.605-4.735-7.945l-1.174-17.218c-.68-2.034-1.814-3.639-3.405-4.813-1.592-1.174-3.481-1.76-5.673-1.76h-41.713c-2.087,0-3.913.562-5.479,1.683-1.564,1.123-2.714,2.622-3.443,4.5l-1.566,18.001c-.781,3.183-2.375,5.725-4.773,7.63-2.4,1.905-5.296,2.856-8.687,2.856h-59.167ZM516.484,710.947c.939,0,1.8-.182,2.583-.547.783-.365,1.409-.86,1.879-1.487.468-.626.781-1.356.938-2.192.157-.833.079-1.721-.234-2.66l-5.949-44.609c-.365-1.356-.938-2.373-1.721-3.053-.783-.676-1.605-1.029-2.466-1.055-.86-.027-1.671.313-2.426,1.017-.757.704-1.344,1.735-1.76,3.091l-6.73,44.375c-.313.939-.406,1.839-.275,2.7s.444,1.618.939,2.27c.496.652,1.136,1.174,1.917,1.564.783.392,1.669.587,2.662.587h10.643Z"/>
  <path class="cls-1" d="M570.123,517.345c-.252-1.486-.659-3.042-1.221-4.67l-6.49-18.789c-.562-1.627-1.204-3.103-1.922-4.428-.72-1.324-1.453-2.409-2.199-3.255-.749-.848-1.508-1.454-2.284-1.82-.776-.369-1.497-.435-2.168-.203l-42.058,14.529-42.062-14.53c-.67-.232-1.394-.163-2.169.205-.775.366-1.536.973-2.283,1.819-.748.847-1.481,1.932-2.199,3.256-.719,1.324-1.359,2.8-1.922,4.428l-6.491,18.789c-.562,1.627-.969,3.184-1.221,4.67-.252,1.486-.346,2.792-.279,3.918.065,1.129.29,2.075.673,2.841.383.769.911,1.267,1.581,1.498l53.461,18.468c.665.218,1.66.46,2.884.464,1.248.004,2.262-.243,2.934-.463l53.461-18.468c.671-.232,1.197-.732,1.58-1.5.385-.767.608-1.714.675-2.84.065-1.127-.028-2.433-.279-3.92Z"/>
  <path class="cls-1" d="M484.246,212.706c-1.219,0-2.356-.298-3.41-.9-1.053-.599-1.95-1.42-2.689-2.466-.74-1.043-1.321-2.308-1.746-3.794-.425-1.487-.638-3.092-.638-4.813v-19.878c0-1.722.212-3.326.638-4.813.424-1.487,1.006-2.752,1.746-3.796.739-1.043,1.636-1.865,2.689-2.464,1.053-.6,2.191-.901,3.41-.901h97.246c1.221,0,2.356.301,3.41.901,1.055.599,1.949,1.421,2.69,2.464.739,1.044,1.32,2.309,1.747,3.796.424,1.487.638,3.091.638,4.813v19.878c0,1.721-.213,3.326-.638,4.813-.426,1.487-1.008,2.752-1.747,3.794-.741,1.046-1.635,1.867-2.69,2.466-1.053.602-2.188.9-3.41.9h-97.246Z"/>
  <path class="cls-1" d="M410.076,376.589c-.444-3.547-1.265-6.873-2.464-9.979-1.201-3.103-2.87-5.921-5.009-8.452-2.141-2.53-4.904-4.736-8.296-6.613-3.235-1.722-4.866-3.522-4.892-5.4-.026-1.877,1.5-3.756,4.579-5.635,3.078-1.878,5.556-4.068,7.435-6.573,1.878-2.505,3.352-5.269,4.421-8.296,1.069-3.025,1.788-6.247,2.153-9.666.365-3.416.547-6.976.547-10.683v-21.522c0-6.678-.664-12.717-1.995-18.118-1.33-5.4-3.614-10.199-6.849-14.401-3.235-4.199-7.578-7.838-13.03-10.917-5.453-3.078-12.276-5.608-20.467-7.59s-17.922-3.457-29.191-4.422-24.339-1.449-39.21-1.449h-105.809c-4.853,0-8.571,1.266-11.152,3.797-2.583,2.53-3.875,6.272-3.875,11.23v214.125c0,4.904,1.292,8.635,3.875,11.192,2.581,2.557,6.3,3.834,11.152,3.834h105.809c14.871,0,27.992-.482,39.366-1.447,11.374-.965,21.248-2.438,29.623-4.422,8.373-1.982,15.365-4.512,20.973-7.59,5.608-3.08,10.122-6.718,13.539-10.918,3.417-4.199,5.844-9,7.279-14.4,1.435-5.401,2.153-11.44,2.153-18.118v-26.453c0-3.86-.224-7.565-.666-11.113ZM275.114,287.293c0-2.296.587-4.032,1.76-5.205,1.175-1.174,2.882-1.76,5.126-1.76h14.479c2.452,0,4.605.105,6.456.313,1.852.208,3.392.587,4.618,1.134,1.225.547,2.163,1.332,2.817,2.347.652,1.019.979,2.337.979,3.953v27.236c0,1.618-.327,2.922-.979,3.913-.654.991-1.592,1.76-2.817,2.308-1.227.547-2.767.927-4.618,1.136-1.852.208-4.004.312-6.456.312h-14.479c-2.244,0-3.951-.587-5.126-1.76-1.174-1.174-1.76-2.882-1.76-5.126v-28.799ZM200.947,444.325c0,3.379-2.739,6.119-6.119,6.119s-6.119-2.74-6.119-6.119v-192.042c0-3.379,2.739-6.119,6.119-6.119s6.119,2.74,6.119,6.119v192.042ZM312.68,409.85c0,1.618-.327,2.922-.979,3.913-.652.991-1.604,1.76-2.857,2.309-1.253.547-2.805.938-4.656,1.174-1.853.236-3.978.351-6.379.351h-15.809c-2.244,0-3.951-.599-5.126-1.8-1.174-1.198-1.76-2.92-1.76-5.164v-33.731c0-2.296.587-4.03,1.76-5.204,1.175-1.175,2.882-1.762,5.126-1.762h15.809c2.4,0,4.526.105,6.379.313,1.852.208,3.404.587,4.656,1.136,1.253.547,2.204,1.329,2.857,2.347.652,1.017.979,2.335.979,3.953v32.165Z"/>
  <path class="cls-1" d="M404.105,559.638c-1.514-2.426-3.639-4.395-6.377-5.909-2.739-1.513-5.936-2.27-9.588-2.27h-54c-4.383,0-8.258,1.148-11.622,3.443-3.366,2.297-5.806,5.427-7.318,9.392l-14.635,58.696c-.521,1.304-1.201,2.283-2.034,2.936-.836.652-1.722.978-2.66.978s-1.814-.325-2.622-.978c-.81-.652-1.475-1.656-1.996-3.013l-13.93-58.462c-1.566-4.018-4.019-7.186-7.358-9.509-3.338-2.321-7.226-3.483-11.66-3.483h-57.914c-2.452,0-4.708.351-6.77,1.057s-3.887,1.671-5.479,2.896c-1.592,1.227-2.894,2.688-3.913,4.383-1.017,1.697-1.707,3.509-2.074,5.439-.363,1.931-.377,3.965-.039,6.104.341,2.14,1.082,4.279,2.232,6.417l59.088,148.463c.938,1.358,1.616,2.765,2.034,4.226.417,1.461.626,3.001.626,4.617v45.315c0,2.192.391,4.226,1.174,6.105.783,1.877,1.839,3.495,3.17,4.851,1.33,1.358,2.948,2.414,4.853,3.17,1.903.757,3.953,1.134,6.143,1.134h67.461c2.244,0,4.292-.377,6.145-1.134,1.85-.756,3.469-1.812,4.851-3.17,1.382-1.356,2.452-2.974,3.209-4.851.756-1.879,1.136-3.913,1.136-6.105v-45.47c0-1.514.195-2.986.587-4.422.391-1.434,1.003-2.805,1.838-4.109l57.601-149.088c1.617-3.183,2.375-6.312,2.27-9.392-.105-3.077-.914-5.832-2.426-8.256ZM262.907,730.598c-.746.298-1.515.439-2.272.439-2.428,0-4.725-1.455-5.682-3.847l-60.907-152.159c-1.256-3.137.27-6.698,3.406-7.954,3.138-1.253,6.699.271,7.954,3.407l60.907,152.159c1.256,3.137-.27,6.698-3.406,7.954Z"/>
  <path class="cls-1" d="M883.515,565.213c-2.557-2.531-6.288-3.798-11.19-3.798h-68.089c-4.851,0-8.57,1.266-11.152,3.798-2.581,2.53-3.874,6.272-3.874,11.23v166.697c0,1.931-.327,3.522-.977,4.775-.654,1.251-1.683,2.218-3.092,2.896-1.409.678-3.221,1.148-5.439,1.408-2.218.261-4.865.392-7.943.392s-5.727-.131-7.943-.392c-2.218-.26-4.032-.73-5.439-1.408-1.409-.678-2.44-1.645-3.092-2.896-.652-1.253-.978-2.844-.978-4.775v-166.697c0-4.957-1.28-8.7-3.836-11.23-2.557-2.531-6.288-3.798-11.192-3.798h-68.088c-4.851,0-8.57,1.266-11.152,3.798-2.581,2.53-3.874,6.272-3.874,11.23v171.472c0,6.678.756,12.847,2.27,18.509,1.513,5.661,4.03,10.788,7.552,15.379s8.179,8.647,13.969,12.169c5.792,3.522,12.964,6.47,21.522,8.843,8.557,2.375,18.627,4.175,30.21,5.4,11.583,1.225,24.938,1.839,40.07,1.839s28.487-.614,40.07-1.839,21.651-3.025,30.21-5.4c8.556-2.373,15.73-5.321,21.522-8.843,5.791-3.522,10.447-7.578,13.969-12.169,3.522-4.591,6.038-9.717,7.552-15.379,1.513-5.661,2.27-11.83,2.27-18.509v-171.472c0-4.957-1.28-8.7-3.836-11.23ZM875.611,749.672c0,3.379-2.739,6.118-6.118,6.118s-6.118-2.739-6.118-6.118v-164.196c0-3.379,2.739-6.118,6.118-6.118s6.118,2.739,6.118,6.118v164.196Z"/>
  <path class="cls-1" d="M895.011,266.044c-1.514-5.66-4.057-10.786-7.63-15.379-3.576-4.59-8.31-8.647-14.205-12.168-5.897-3.522-13.226-6.47-21.992-8.845-8.766-2.373-19.083-4.175-30.953-5.4-11.87-1.225-25.579-1.839-41.127-1.839s-29.27.614-41.166,1.839c-11.896,1.225-22.226,3.027-30.991,5.4-8.766,2.375-16.082,5.322-21.952,8.845-5.87,3.521-10.593,7.578-14.165,12.168-3.576,4.593-6.119,9.719-7.632,15.379-1.513,5.663-2.27,11.832-2.27,18.51v128.819c0,6.678.757,12.847,2.27,18.509s4.056,10.787,7.632,15.379c3.573,4.591,8.296,8.647,14.165,12.169s13.186,6.47,21.952,8.843c8.766,2.375,19.096,4.174,30.991,5.4,11.896,1.225,25.617,1.839,41.166,1.839s29.257-.614,41.127-1.839c11.87-1.225,22.188-3.025,30.953-5.4,8.766-2.373,16.095-5.321,21.992-8.843,5.895-3.522,10.629-7.578,14.205-12.169,3.573-4.591,6.116-9.717,7.63-15.379,1.513-5.661,2.27-11.83,2.27-18.509v-128.819c0-6.678-.757-12.847-2.27-18.51ZM799.14,409.069c0,1.931-.339,3.481-1.017,4.655-.68,1.174-1.8,2.089-3.366,2.739-1.564.654-3.639,1.084-6.221,1.292-2.583.21-5.727.313-9.431.313-3.756,0-6.914-.103-9.469-.313-2.557-.208-4.617-.638-6.183-1.292-1.566-.651-2.7-1.566-3.404-2.739-.705-1.174-1.057-2.724-1.057-4.655v-120.211c0-1.929.351-3.495,1.057-4.696.704-1.199,1.838-2.113,3.404-2.739,1.566-.626,3.626-1.043,6.183-1.251,2.555-.208,5.713-.313,9.469-.313,3.705,0,6.849.105,9.431.313,2.581.208,4.656.625,6.221,1.251,1.566.626,2.686,1.54,3.366,2.739.678,1.201,1.017,2.767,1.017,4.696v120.211ZM885.409,418.069c0,3.379-2.739,6.119-6.118,6.119s-6.118-2.74-6.118-6.119v-134.842c0-3.379,2.739-6.119,6.118-6.119s6.118,2.74,6.118,6.119v134.842Z"/>
</svg>