<?xml version="1.0" encoding="UTF-8"?>
<svg id="Layer_1" xmlns="http://www.w3.org/2000/svg" version="1.1" viewBox="0 0 1080 1080">
  <!-- Generator: Adobe Illustrator 30.1.0, SVG Export Plug-In . SVG Version: 2.1.1 Build 136)  -->
  <defs>
    <style>
      .st0 {
        fill: #070707;
      }

      .st1 {
        font-family: MyriadPro-Regular, 'Myriad Pro';
        font-size: 12px;
      }

      .st2 {
        opacity: 1;
      }
    </style>
  </defs>
  <g>
    <g class="st2">
      <path class="st0" d="M202.5,681.4c-12.4,0-23.3-2.2-32.9-6.6-9.5-4.4-17-10.8-22.4-19.2-5.4-8.4-8.1-18.6-8.1-30.6v-6h27.6v6c0,10.7,3.3,18.7,9.8,23.9,6.5,5.3,15.2,7.9,26,7.9s19.3-2.2,24.8-6.7c5.6-4.5,8.4-10.3,8.4-17.4s-1.3-8.7-3.9-11.7c-2.6-3-6.5-5.5-11.5-7.3-5-1.9-11.1-3.6-18.2-5.3l-7-1.4c-10.7-2.5-19.9-5.6-27.7-9.4-7.8-3.8-13.8-8.7-18-14.7-4.2-6-6.3-13.9-6.3-23.7s2.3-18.1,7-25.1c4.6-7,11.2-12.3,19.7-16,8.5-3.7,18.5-5.6,29.9-5.6s21.7,1.9,30.6,5.8c9,3.9,16.1,9.7,21.2,17.4,5.2,7.7,7.8,17.4,7.8,29v7.7h-27.6v-7.7c0-6.7-1.3-12-3.9-16-2.6-4-6.3-7-11.1-8.8-4.8-1.9-10.4-2.8-16.9-2.8-9.6,0-16.9,1.9-21.8,5.6-5,3.7-7.4,9-7.4,15.8s1.1,8,3.4,11c2.2,3,5.6,5.5,10,7.4,4.4,1.9,9.9,3.6,16.6,5l7,1.6c11.1,2.5,20.9,5.6,29.3,9.4,8.4,3.8,14.9,8.8,19.6,15,4.7,6.2,7.1,14.2,7.1,24.1s-2.5,18.3-7.5,25.8c-5,7.4-12.1,13.2-21.1,17.4-9.1,4.2-19.8,6.3-32.2,6.3Z"/>
      <path class="st0" d="M272.8,678.1v-162.5h28.1v68.3h64.1v-68.3h28.1v162.5h-28.1v-68.7h-64.1v68.7h-28.1Z"/>
      <path class="st0" d="M398.9,678.1l44.6-162.5h48.5l44.6,162.5h-28.8l-9.8-37.1h-60.6l-9.8,37.1h-28.8ZM443.9,615.5h47.6l-21.8-82.4h-3.9l-21.8,82.4Z"/>
      <path class="st0" d="M537,678.1v-24.6h21.8v-113.3h-21.8v-24.6h66.2c21.7,0,38.2,5.5,49.7,16.5,11.5,11,17.2,27.5,17.2,49.4v30.6c0,22-5.7,38.5-17.2,49.5-11.5,11-28,16.5-49.7,16.5h-66.2ZM586.7,652.8h16.7c13.2,0,22.9-3.4,29.3-10.2,6.3-6.8,9.5-16.6,9.5-29.5v-32.3c0-13.2-3.2-23.1-9.5-29.8-6.3-6.7-16.1-10.1-29.3-10.1h-16.7v111.9Z"/>
      <path class="st0" d="M681.9,678.1v-162.5h103.5v25.3h-75.5v42.7h69v25.3h-69v43.9h76.6v25.3h-104.7Z"/>
      <path class="st0" d="M790.8,678.1v-24.6h21.8v-113.3h-21.8v-24.6h66.2c21.7,0,38.2,5.5,49.7,16.5,11.5,11,17.2,27.5,17.2,49.4v30.6c0,22-5.7,38.5-17.2,49.5-11.5,11-28,16.5-49.7,16.5h-66.2ZM840.5,652.8h16.7c13.2,0,22.9-3.4,29.3-10.2,6.3-6.8,9.5-16.6,9.5-29.5v-32.3c0-13.2-3.2-23.1-9.5-29.8-6.3-6.7-16.1-10.1-29.3-10.1h-16.7v111.9Z"/>
      <path class="st0" d="M.3,909.7v-214.3h68.9l41.6,189.5h5.2l41.9-189.5h68.6v214.3h-35.5v-187.6h-5.2l-41.6,187.6h-61.2l-41.6-187.6h-5.2v187.6H.3Z"/>
      <path class="st0" d="M234.5,909.7l58.8-214.3h64l58.8,214.3h-38l-12.9-49h-79.9l-12.9,49h-38ZM293.9,827h62.8l-28.8-108.7h-5.2l-28.8,108.7Z"/>
      <path class="st0" d="M453.7,909.7v-180.9h-64v-33.4h164.7v33.4h-64v180.9h-36.7Z"/>
      <path class="st0" d="M635.2,914c-26.1,0-46.9-7.4-62.4-22.2-15.5-14.8-23.3-36.1-23.3-63.8v-50.8c0-27.7,7.8-49,23.3-63.8,15.5-14.8,36.3-22.2,62.4-22.2s46.3,7.1,60.5,21.4c14.2,14.3,21.3,33.9,21.3,58.8v1.8h-36.1v-2.8c0-13.5-3.7-24.5-11.2-33.2-7.4-8.7-18.9-13-34.4-13s-27,4.6-35.7,13.9c-8.7,9.3-13,22.1-13,38.4v52c0,16.1,4.3,28.9,13,38.3,8.7,9.4,20.6,14.1,35.7,14.1s27-4.3,34.4-13c7.4-8.7,11.2-19.7,11.2-33.2v-5.2h36.1v4.3c0,24.9-7.1,44.5-21.3,58.8-14.2,14.3-34.3,21.4-60.5,21.4Z"/>
      <path class="st0" d="M731.9,909.7v-214.3h37v90h84.5v-90h37v214.3h-37v-90.6h-84.5v90.6h-37Z"/>
      <path class="st0" d="M898.1,909.7l58.8-214.3h64l58.8,214.3h-38l-12.9-49h-79.9l-12.9,49h-38ZM957.5,827h62.8l-28.8-108.7h-5.2l-28.8,108.7Z"/>
    </g>
    <g>
      <path class="st0" d="M863.4,312.6c-5-8.9-12.2-15.9-21.5-20.8-9.1-4.8-19.7-7.2-31.6-7.2h-33.1c-1.8,0-3.4.8-4.5,2,0,0-.2.2-.3.3,0,0-.2.2-.3.3,0,0-.2.2-.3.3,0,0-.2.2-.3.3,0,0-.2.2-.3.3,0,0-.2.2-.3.3,0,0-.2.2-.3.3,0,0-.2.2-.3.3,0,0-.2.2-.3.3,0,0-.2.2-.3.3,0,0-.2.2-.3.3,0,0-.2.2-.3.3,0,0-.2.2-.3.3,0,0-.2.2-.3.3,0,0-.2.2-.3.3,0,0-.2.2-.3.3,0,0-.2.2-.3.3,0,0-.2.2-.3.3,0,0-.2.2-.3.3,0,0-.2.2-.3.3-.6.5-1,1.1-1.3,1.8v-1.3c0-3.1-2.5-5.6-5.6-5.6h-63.1c-1.6,0-3.1.7-4.1,1.8,0,0-.2.2-.3.3,0,0-.2.2-.3.3,0,0-.2.2-.3.3,0,0-.2.2-.3.3,0,0-.2.2-.3.3,0,0-.2.2-.3.3,0,0-.2.2-.3.3,0,0-.2.2-.3.3,0,0-.2.2-.3.3,0,0-.2.2-.3.3,0,0-.2.2-.3.3,0,0-.2.2-.3.3,0,0-.2.2-.3.3,0,0-.2.2-.3.3,0,0-.2.2-.3.3,0,0-.2.2-.3.3,0,0-.2.2-.3.3,0,0-.2.2-.3.3,0,0-.2.2-.3.3,0,0-.2.2-.3.3-1.1,1-1.8,2.5-1.8,4.1v91.2l-23.5-40.4c-.9-1.5-.7-3.5.6-4.8.9-.9,1.8-1.9,2.6-3,2.6-3.5,5-7.7,6.9-12.6l13.8-36.1c1-2.6-.9-5.4-3.7-5.4h-15.3c-1.3,0-2.4.6-3.2,1.6,0,0-.2.2-.3.3,0,0-.2.2-.3.3,0,0-.2.2-.3.3,0,0-.2.2-.3.3,0,0-.2.2-.3.3,0,0-.2.2-.3.3,0,0-.2.2-.3.3,0,0-.2.2-.3.3,0,0-.2.2-.3.3,0,0-.2.2-.3.3,0,0-.2.2-.3.3,0,0-.2.2-.3.3,0,0-.2.2-.3.3,0,0-.2.2-.3.3,0,0-.2.2-.3.3,0,0-.2.2-.3.3,0,0-.2.2-.3.3,0,0-.2.2-.3.3,0,0-.2.2-.3.3,0,0-.2.2-.3.3-.3.4-.6.8-.8,1.3l-11.6,30.5c-.8,2.2-1.8,4-2.8,5.7-2.9,1.6-7.4,2.4-13.2,2.4h-5.7c-2.2,0-4-1.8-4-4v-38.6c0-2.2-1.8-4-4-4h-14.4c-1.2,0-2.2.5-2.9,1.3,0,0-.2.2-.3.3,0,0-.2.2-.3.3,0,0-.2.2-.3.3,0,0-.2.2-.3.3,0,0-.2.2-.3.3,0,0-.2.2-.3.3,0,0-.2.2-.3.3,0,0-.2.2-.3.3,0,0-.2.2-.3.3,0,0-.2.2-.3.3,0,0-.2.2-.3.3,0,0-.2.2-.3.3,0,0-.2.2-.3.3,0,0-.2.2-.3.3,0,0-.2.2-.3.3,0,0-.2.2-.3.3,0,0-.2.2-.3.3,0,0-.2.2-.3.3,0,0-.2.2-.3.3,0,0-.2.2-.3.3-.8.7-1.3,1.8-1.3,2.9v85.8l-38.2-92.3c-.7-1.8-2.5-2.9-4.4-2.9h-11.2c-1.5,0-2.8.7-3.7,1.8,0,0-.2.2-.3.3,0,0-.2.2-.3.3,0,0-.2.2-.3.3,0,0-.2.2-.3.3,0,0-.2.2-.3.3,0,0-.2.2-.3.3,0,0-.2.2-.3.3,0,0-.2.2-.3.3,0,0-.2.2-.3.3,0,0-.2.2-.3.3,0,0-.2.2-.3.3,0,0-.2.2-.3.3,0,0-.2.2-.3.3,0,0-.2.2-.3.3,0,0-.2.2-.3.3,0,0-.2.2-.3.3,0,0-.2.2-.3.3,0,0-.2.2-.3.3,0,0-.2.2-.3.3,0,0-.2.2-.3.3-.4.4-.7.9-.9,1.4l-39.7,95.8-17.3-24.4c-1-1.5-1.3-3.2-.8-4.8,1.2-1,2.4-2,3.5-3.1,0,0,.2-.2.3-.3,0,0,.2-.2.3-.3,0,0,.2-.2.3-.3,0,0,.2-.2.3-.3,0,0,.2-.2.3-.3,0,0,.2-.2.3-.3,0,0,.2-.2.3-.3,0,0,.2-.2.3-.3,0,0,.2-.2.3-.3,0,0,.2-.2.3-.3,0,0,.2-.2.3-.3,0,0,.2-.2.3-.3,0,0,.2-.2.3-.3,0,0,.2-.2.3-.3,0,0,.2-.2.3-.3,0,0,.2-.2.3-.3,0,0,.2-.2.3-.3,0,0,.2-.2.3-.3,0,0,.2-.2.3-.3,0,0,.2-.2.3-.3.7-.7,1.4-1.4,2-2.2,5.8-6.8,8.7-15.4,8.7-25.5s-1.8-14.6-5.2-20.4c-3.5-5.9-8.5-10.5-14.8-13.8-6.1-3.1-13.2-4.7-21.2-4.7h-39.3c-1.6,0-3.1.7-4.1,1.8,0,0-.2.2-.3.3,0,0-.2.2-.3.3,0,0-.2.2-.3.3,0,0-.2.2-.3.3,0,0-.2.2-.3.3,0,0-.2.2-.3.3,0,0-.2.2-.3.3,0,0-.2.2-.3.3,0,0-.2.2-.3.3,0,0-.2.2-.3.3,0,0-.2.2-.3.3,0,0-.2.2-.3.3,0,0-.2.2-.3.3,0,0-.2.2-.3.3,0,0-.2.2-.3.3,0,0-.2.2-.3.3,0,0-.2.2-.3.3,0,0-.2.2-.3.3,0,0-.2.2-.3.3,0,0-.2.2-.3.3-1.1,1-1.8,2.5-1.8,4.1v72.9l-33.6-81.2c-.8-2-2.8-3.3-5-3.3h-10.2c-1.5,0-2.9.6-3.9,1.7,0,0-.2.2-.3.3,0,0-.2.2-.3.3,0,0-.2.2-.3.3,0,0-.2.2-.3.3,0,0-.2.2-.3.3,0,0-.2.2-.3.3,0,0-.2.2-.3.3,0,0-.2.2-.3.3,0,0-.2.2-.3.3,0,0-.2.2-.3.3,0,0-.2.2-.3.3,0,0-.2.2-.3.3,0,0-.2.2-.3.3,0,0-.2.2-.3.3,0,0-.2.2-.3.3,0,0-.2.2-.3.3,0,0-.2.2-.3.3,0,0-.2.2-.3.3,0,0-.2.2-.3.3,0,0-.2.2-.3.3-.6.6-1.1,1.3-1.4,2.1l-38,103.9-23.7-51.6c-.7-1.6-.3-3.4.9-4.6,1-1,1.9-2.1,2.8-3.2,2.6-3.4,4.9-7.7,6.9-12.6l13.8-36c1-2.6-.9-5.5-3.8-5.5h-15.2c-1.3,0-2.4.6-3.2,1.6,0,0-.2.2-.3.3,0,0-.2.2-.3.3,0,0-.2.2-.3.3,0,0-.2.2-.3.3,0,0-.2.2-.3.3,0,0-.2.2-.3.3,0,0-.2.2-.3.3,0,0-.2.2-.3.3,0,0-.2.2-.3.3,0,0-.2.2-.3.3,0,0-.2.2-.3.3,0,0-.2.2-.3.3,0,0-.2.2-.3.3,0,0-.2.2-.3.3,0,0-.2.2-.3.3,0,0-.2.2-.3.3,0,0-.2.2-.3.3,0,0-.2.2-.3.3,0,0-.2.2-.3.3,0,0-.2.2-.3.3-.3.4-.7.8-.8,1.3l-11.6,30.5c-.8,2.2-1.8,4-2.8,5.7-2.9,1.6-7.4,2.4-13.2,2.4h-5.7c-2.2,0-4-1.8-4-4v-38.5c0-2.2-1.8-4-4-4h-14.4c-1.2,0-2.2.5-3,1.3,0,0-.2.2-.3.3,0,0-.2.2-.3.3,0,0-.2.2-.3.3,0,0-.2.2-.3.3,0,0-.2.2-.3.3,0,0-.2.2-.3.3,0,0-.2.2-.3.3,0,0-.2.2-.3.3,0,0-.2.2-.3.3,0,0-.2.2-.3.3,0,0-.2.2-.3.3,0,0-.2.2-.3.3,0,0-.2.2-.3.3,0,0-.2.2-.3.3,0,0-.2.2-.3.3,0,0-.2.2-.3.3,0,0-.2.2-.3.3,0,0-.2.2-.3.3,0,0-.2.2-.3.3,0,0-.2.2-.3.3-.8.7-1.3,1.8-1.3,3v146.7c0,2.2,1.8,4,4,4h14.4c1.2,0,2.2-.5,3-1.3,0,0,.2-.2.3-.3,0,0,.2-.2.3-.3,0,0,.2-.2.3-.3,0,0,.2-.2.3-.3,0,0,.2-.2.3-.3,0,0,.2-.2.3-.3,0,0,.2-.2.3-.3,0,0,.2-.2.3-.3,0,0,.2-.2.3-.3,0,0,.2-.2.3-.3,0,0,.2-.2.3-.3,0,0,.2-.2.3-.3,0,0,.2-.2.3-.3,0,0,.2-.2.3-.3,0,0,.2-.2.3-.3,0,0,.2-.2.3-.3,0,0,.2-.2.3-.3,0,0,.2-.2.3-.3,0,0,.2-.2.3-.3,0,0,.2-.2.3-.3.8-.7,1.3-1.8,1.3-3v-76.8h4.3c2.3,0,4.5,0,6.6-.3,1.7-.2,3.4.8,4.1,2.4l26.1,58.6c.6,1.5,2.1,2.4,3.7,2.4h16.6c.1,0,.2,0,.4,0,.7.3,1.5.4,2.3.4l10.2-.7c1.2,0,2.3-.6,3.2-1.4,0,0,.2-.2.3-.3,0,0,.2-.2.3-.3,0,0,.2-.2.3-.3,0,0,.2-.2.3-.3,0,0,.2-.2.3-.3,0,0,.2-.2.3-.3,0,0,.2-.2.3-.3,0,0,.2-.2.3-.3,0,0,.2-.2.3-.3,0,0,.2-.2.3-.3,0,0,.2-.2.3-.3,0,0,.2-.2.3-.3,0,0,.2-.2.3-.3,0,0,.2-.2.3-.3,0,0,.2-.2.3-.3,0,0,.2-.2.3-.3,0,0,.2-.2.3-.3,0,0,.2-.2.3-.3,0,0,.2-.2.3-.3,0,0,.2-.2.3-.3.8-.7,1.5-1.6,1.8-2.6l9.8-30.6c0,0,.2,0,.3,0h37.1c2.2,0,4.2,1.3,5,3.3l8,19.4c.8,2,2.8,3.3,5,3.3h12.3c.9,0,1.6-.2,2.4-.6.9.7,2.1,1.2,3.4,1.2h11.1c1.6,0,3.1-.7,4.1-1.8,0,0,.2-.2.3-.3,0,0,.2-.2.3-.3,0,0,.2-.2.3-.3,0,0,.2-.2.3-.3,0,0,.2-.2.3-.3,0,0,.2-.2.3-.3,0,0,.2-.2.3-.3,0,0,.2-.2.3-.3,0,0,.2-.2.3-.3,0,0,.2-.2.3-.3,0,0,.2-.2.3-.3,0,0,.2-.2.3-.3,0,0,.2-.2.3-.3,0,0,.2-.2.3-.3,0,0,.2-.2.3-.3,0,0,.2-.2.3-.3,0,0,.2-.2.3-.3,0,0,.2-.2.3-.3,0,0,.2-.2.3-.3,0,0,.2-.2.3-.3,1.1-1,1.8-2.5,1.8-4.1v-27.5c0,0,0-.2,0-.2,0,0,.2,0,.2,0h8c1.8,0,3.5.9,4.6,2.4l24.4,34.1c1.1,1.5,2.8,2.4,4.6,2.4h13.3c1.4,0,2.6-.5,3.6-1.3.8.8,2,1.3,3.3,1.3h13.9c1.5,0,2.8-.7,3.7-1.8,0,0,.2-.2.3-.3,0,0,.2-.2.3-.3,0,0,.2-.2.3-.3,0,0,.2-.2.3-.3,0,0,.2-.2.3-.3,0,0,.2-.2.3-.3,0,0,.2-.2.3-.3,0,0,.2-.2.3-.3,0,0,.2-.2.3-.3,0,0,.2-.2.3-.3,0,0,.2-.2.3-.3,0,0,.2-.2.3-.3,0,0,.2-.2.3-.3,0,0,.2-.2.3-.3,0,0,.2-.2.3-.3,0,0,.2-.2.3-.3,0,0,.2-.2.3-.3,0,0,.2-.2.3-.3,0,0,.2-.2.3-.3,0,0,.2-.2.3-.3.4-.4.7-.9.9-1.4l7.2-17.7h38.5c1.9,0,3.6,1.1,4.4,2.9l8.4,20.2c.7,1.8,2.5,2.9,4.4,2.9h13.8c1.4,0,2.5-.6,3.4-1.4,0,0,.2-.2.3-.3,0,0,.2-.2.3-.3,0,0,0,0,.1,0,.7,1.2,2,2,3.5,2h14.4c1.2,0,2.2-.5,2.9-1.3,0,0,.2-.2.3-.3,0,0,.2-.2.3-.3,0,0,.2-.2.3-.3,0,0,.2-.2.3-.3,0,0,.2-.2.3-.3,0,0,.2-.2.3-.3,0,0,.2-.2.3-.3,0,0,.2-.2.3-.3,0,0,.2-.2.3-.3,0,0,.2-.2.3-.3,0,0,.2-.2.3-.3,0,0,.2-.2.3-.3,0,0,.2-.2.3-.3,0,0,.2-.2.3-.3,0,0,.2-.2.3-.3,0,0,.2-.2.3-.3,0,0,.2-.2.3-.3,0,0,.2-.2.3-.3,0,0,.2-.2.3-.3,0,0,.2-.2.3-.3.8-.7,1.3-1.8,1.3-2.9v-39h4.3c2.5,0,5-.1,7.2-.3,1.6-.2,3.1.6,3.9,2l25.9,44.7c.7,1.2,2,2,3.5,2h16.6c1.2,0,2.2-.5,3-1.3,0,0,.2-.2.3-.3,0,0,.2-.2.3-.3,0,0,.2-.2.3-.3,0,0,0,0,0,0v11.2c0,3.1,2.5,5.6,5.6,5.6h64.8c1.6,0,3.1-.7,4.1-1.8,0,0,.2-.2.3-.3,0,0,.2-.2.3-.3,0,0,.2-.2.3-.3,0,0,.2-.2.3-.3,0,0,.2-.2.3-.3,0,0,.2-.2.3-.3,0,0,.2-.2.3-.3,0,0,.2-.2.3-.3,0,0,.2-.2.3-.3,0,0,.2-.2.3-.3,0,0,.2-.2.3-.3,0,0,.2-.2.3-.3,0,0,.2-.2.3-.3,0,0,.2-.2.3-.3,0,0,.2-.2.3-.3,0,0,.2-.2.3-.3,0,0,.2-.2.3-.3,0,0,.2-.2.3-.3,0,0,0,0,0,0v21.3c0,3.5,2.8,6.3,6.3,6.3h28.9c11.9,0,22.5-2.4,31.6-7.2,4.7-2.5,8.9-5.5,12.5-9.1,0,0,.2-.2.3-.3,0,0,.2-.2.3-.3,0,0,.2-.2.3-.3,0,0,.2-.2.3-.3,0,0,.2-.2.3-.3,0,0,.2-.2.3-.3,0,0,.2-.2.3-.3,0,0,.2-.2.3-.3,0,0,.2-.2.3-.3,0,0,.2-.2.3-.3,0,0,.2-.2.3-.3,0,0,.2-.2.3-.3,0,0,.2-.2.3-.3,0,0,.2-.2.3-.3,0,0,.2-.2.3-.3,0,0,.2-.2.3-.3,0,0,.2-.2.3-.3,0,0,.2-.2.3-.3,0,0,.2-.2.3-.3,0,0,.2-.2.3-.3,3.6-3.5,6.7-7.5,9.2-11.9,4.9-8.8,7.4-19,7.4-30.5s0-4.6.1-8.2c.5-25.4.6-53.1-3.4-60.1ZM764.4,307c.5-.4.8-1,1.1-1.5v92.1c-.9-.7-2.1-1.1-3.3-1.1h-46.3c-.9,0-1.6-.7-1.6-1.6v-26.1h37.1c1.6,0,3.1-.7,4.1-1.8,0,0,.2-.2.3-.3,0,0,.2-.2.3-.3,0,0,.2-.2.3-.3,0,0,.2-.2.3-.3,0,0,.2-.2.3-.3,0,0,.2-.2.3-.3,0,0,.2-.2.3-.3,0,0,.2-.2.3-.3,0,0,.2-.2.3-.3,0,0,.2-.2.3-.3,0,0,.2-.2.3-.3,0,0,.2-.2.3-.3,0,0,.2-.2.3-.3,0,0,.2-.2.3-.3,0,0,.2-.2.3-.3,0,0,.2-.2.3-.3,0,0,.2-.2.3-.3,0,0,.2-.2.3-.3,0,0,.2-.2.3-.3,0,0,.2-.2.3-.3,1.1-1,1.8-2.5,1.8-4.1v-10.5c0-3.1-2.5-5.6-5.6-5.6h-40.8c-.9,0-1.6-.7-1.6-1.6v-26.1h40.9c1.6,0,3.1-.7,4.1-1.8,0,0,.2-.2.3-.3,0,0,.2-.2.3-.3,0,0,.2-.2.3-.3,0,0,.2-.2.3-.3,0,0,.2-.2.3-.3,0,0,.2-.2.3-.3,0,0,.2-.2.3-.3,0,0,.2-.2.3-.3,0,0,.2-.2.3-.3,0,0,.2-.2.3-.3,0,0,.2-.2.3-.3,0,0,.2-.2.3-.3,0,0,.2-.2.3-.3,0,0,.2-.2.3-.3,0,0,.2-.2.3-.3,0,0,.2-.2.3-.3,0,0,.2-.2.3-.3,0,0,.2-.2.3-.3,0,0,.2-.2.3-.3,0,0,.2-.2.3-.3ZM535,355.9c-1.4,0-2.4-1.5-1.9-2.8l8.4-20.4c.1.2.3.3.3.6l9.4,22.7h-16.2ZM352.4,332.2l9.6,23.1h-16.5c-1.3,0-2.2-1.3-1.7-2.5l8.5-20.8c0,0,0,.1.1.2ZM427.7,314.1h16.3c6.4,0,11.4,1.5,14.7,4.6,3.3,3,4.8,6.9,4.8,12.4s-.7,6.6-2,9c-3.1,1.8-7.2,2.7-12.1,2.7h-19.4c-1.3,0-2.3-1-2.3-2.3v-26.4ZM826.8,412.9c-5.7,3-12.7,4.6-20.6,4.6h-6.5c-3.5,0-6.3-2.8-6.3-6.3v-98.3c0-.3,0-.5,0-.8.3,0,.5,0,.8,0h10.4c8,0,15,1.5,20.8,4.6,5.6,2.9,9.9,7.1,12.9,12.4,2.2,4.1,1.1,35.6.7,47.5-.2,4.5-.3,8-.3,9.8,0,7.5-1.5,14.1-4.6,19.5-.7,1.3-1.5,2.5-2.4,3.7-1.5,1.2-3.2,2.3-5,3.3Z"/>
      <g>
        <g>
          <g>
            <path class="st0" d="M416,459.8c-.3-.3-.5-.9-.5-1.7v-18.2h-4.6s0,0,0,0h0s0,0,0,0h0s0,0,0,0h0s0,0,0,0h0s0,0,0,0h0s0,0,0,0h0s0,0,0,0h0s0,0,0,0h0s0,0,0,0h0s0,0,0,0h0s0,0,0,0h0s0,0,0,0h0s0,0,0,0h0s0,0,0,0h0s0,0,0,0h0s0,0,0,0h0s0,0,0,0h0s0,0,0,0h0s0,0,0,0h0s0,0,0,0h0s0,0,0,0v19.4c0,1.5.4,2.7,1.2,3.5.8.8,1.9,1.2,3.4,1.2h3.9s0,0,0,0h0s0,0,0,0h0s0,0,0,0h0s0,0,0,0h0s0,0,0,0h0s0,0,0,0h0s0,0,0,0h0s0,0,0,0h0s0,0,0,0h0s0,0,0,0h0s0,0,0,0h0s0,0,0,0h0s0,0,0,0h0s0,0,0,0h0s0,0,0,0h0s0,0,0,0h0s0,0,0,0h0s0,0,0,0h0s0,0,0,0h0s0,0,0,0h0s0,0,0,0v-3.8h-1.6c-.8,0-1.4-.2-1.7-.5Z"/>
            <path class="st0" d="M436.7,439.2c-2.7,0-5.1.5-7.1,1.6-1,.5-1.9,1.2-2.7,2,0,0,0,0,0,0,0,0,0,0,0,0,0,0,0,0,0,0,0,0,0,0,0,0,0,0,0,0,0,0,0,0,0,0,0,0,0,0,0,0,0,0,0,0,0,0,0,0,0,0,0,0,0,0,0,0,0,0,0,0,0,0,0,0,0,0,0,0,0,0,0,0,0,0,0,0,0,0,0,0,0,0,0,0,0,0,0,0,0,0,0,0,0,0,0,0,0,0,0,0,0,0,0,0,0,0,0,0,0,0,0,0,0,0,0,0,0,0,0,0-.8.8-1.4,1.7-2,2.7-1.1,2-1.6,4.4-1.6,7.2,0,4,1,7,3.1,9,2.1,2.1,4.9,3.1,8.5,3.1s2.9-.2,3.9-.5h0s0,0,0,0h0s0,0,0,0h0s0,0,0,0h0s0,0,0,0h0s0,0,0,0h0s0,0,0,0h0s0,0,0,0h0s0,0,0,0h0s0,0,0,0h0s0,0,0,0h0s0,0,0,0h0s0,0,0,0h0s0,0,0,0h0s0,0,0,0h0s0,0,0,0h0s0,0,0,0h0s0,0,0,0h0s0,0,0,0h0s0,0,0,0h0s0,0,0,0h0s0,0,0,0v-3.6c-1,.3-2,.5-3.2.5-2.6,0-4.5-.7-5.8-2.1-1.3-1.4-1.9-3.5-1.9-6.4s.7-5.2,2.1-6.9c1.5-1.2,3.3-1.9,5.6-1.9,5.1,0,7.6,2.3,7.6,7v14.2h4.6s0,0,0,0h0s0,0,0,0h0s0,0,0,0h0s0,0,0,0h0s0,0,0,0h0s0,0,0,0h0s0,0,0,0h0s0,0,0,0h0s0,0,0,0h0s0,0,0,0h0s0,0,0,0h0s0,0,0,0h0s0,0,0,0h0s0,0,0,0h0s0,0,0,0h0s0,0,0,0h0s0,0,0,0h0s0,0,0,0h0s0,0,0,0h0s0,0,0,0h0s0,0,0,0v-14.2c0-3.1-1-5.7-2.9-7.7-2-2-5.1-3-9.3-3Z"/>
            <path class="st0" d="M463.4,439.2c-1.8,0-3.6.2-5.2.5-1.6.3-3,.8-4.2,1.5h0s0,0,0,0h0s0,0,0,0h0s0,0,0,0h0s0,0,0,0h0s0,0,0,0h0s0,0,0,0h0s0,0,0,0h0s0,0,0,0h0s0,0,0,0h0s0,0,0,0h0s0,0,0,0h0s0,0,0,0h0s0,0,0,0h0s0,0,0,0h0s0,0,0,0h0s0,0,0,0h0s0,0,0,0h0s0,0,0,0h0s0,0,0,0h0s0,0,0,0h0s0,0,0,0v3.7c1.1-.7,2.4-1.2,3.9-1.5,1.5-.3,3.1-.5,4.7-.5,3.5,0,6.1.7,7.6,2.2,1.6,1.4,2.3,3.7,2.3,6.7s-.7,4.9-2,6.5c-1.5,1.2-3.5,1.9-6,1.9s-3.9-.4-5.2-1.2v-5h4.5s0,0,0,0h0s0,0,0,0h0s0,0,0,0h0s0,0,0,0h0s0,0,0,0h0s0,0,0,0h0s0,0,0,0h0s0,0,0,0h0s0,0,0,0h0s0,0,0,0h0s0,0,0,0h0s0,0,0,0h0s0,0,0,0h0s0,0,0,0h0s0,0,0,0h0s0,0,0,0h0s0,0,0,0h0s0,0,0,0h0s0,0,0,0h0s0,0,0,0h0s0,0,0,0v-3.7h-10s0,0,0,0h0s0,0,0,0h0s0,0,0,0h0s0,0,0,0h0s0,0,0,0h0s0,0,0,0h0s0,0,0,0h0s0,0,0,0h0s0,0,0,0h0s0,0,0,0h0s0,0,0,0h0s0,0,0,0h0s0,0,0,0h0s0,0,0,0h0s0,0,0,0h0s0,0,0,0h0s0,0,0,0h0s0,0,0,0h0s0,0,0,0h0s0,0,0,0h0s0,0,0,0v12c1.2.8,2.7,1.4,4.4,1.8,1.7.4,3.6.7,5.4.7,4.3,0,7.7-1.2,10.1-3.5,0,0,0,0,0,0,0,0,0,0,0,0,0,0,0,0,0,0,0,0,0,0,0,0,0,0,0,0,0,0,0,0,0,0,0,0,0,0,0,0,0,0,0,0,0,0,0,0,0,0,0,0,0,0,0,0,0,0,0,0,0,0,0,0,0,0,0,0,0,0,0,0,0,0,0,0,0,0,0,0,0,0,0,0,0,0,0,0,0,0,0,0,0,0,0,0,0,0,0,0,0,0,0,0,0,0,0,0,0,0,0,0,0,0,0,0,0,0,0,0,0,0,0,0,0,0,0,0,0,0,0,0,0,0,0,0,0,0,0,0,0,0,0,0,0,0,0,0,0,0,0,0,0,0,0,0,0,0,0,0,0,0,0,0,0,0,0,0,0,0,0,0,0,0,0,0,0,0,0,0,0,0,0,0,0,0,0,0,0,0,0,0,0,0,0,0,0,0,0,0,0,0,0,0,0,0,0,0,0,0,0,0,0,0,0,0,0,0,0,0,0,0,0,0,0,0,0,0,0,0,0,0,0,0,0,0,0,0,0,0,0,0,0,0,0,0,0,0,0,0,0,0,2.4-2.3,3.6-5.5,3.6-9.5s-1.2-7.1-3.6-9.3c-2.4-2.2-5.8-3.3-10.4-3.3Z"/>
            <path class="st0" d="M485.9,458.3c-.2-.2-.3-.5-.3-1v-1.7h-4.2s0,0,0,0h0s0,0,0,0h0s0,0,0,0h0s0,0,0,0h0s0,0,0,0h0s0,0,0,0h0s0,0,0,0h0s0,0,0,0h0s0,0,0,0h0s0,0,0,0h0s0,0,0,0h0s0,0,0,0h0s0,0,0,0h0s0,0,0,0h0s0,0,0,0h0s0,0,0,0h0s0,0,0,0h0s0,0,0,0h0s0,0,0,0h0s0,0,0,0h0s0,0,0,0v2.6c0,1.2.3,2.2.8,2.8.5.6,1.5.9,2.8.9h7.3s0,0,0,0h0s0,0,0,0h0s0,0,0,0h0s0,0,0,0h0s0,0,0,0h0s0,0,0,0h0s0,0,0,0h0s0,0,0,0h0s0,0,0,0h0s0,0,0,0h0s0,0,0,0h0s0,0,0,0h0s0,0,0,0h0s0,0,0,0h0s0,0,0,0h0s0,0,0,0h0s0,0,0,0h0s0,0,0,0h0s0,0,0,0h0s0,0,0,0h0s0,0,0,0v-3.2h-5.3c-.5,0-.9,0-1.1-.3Z"/>
            <path class="st0" d="M485.9,445.9c-.2-.2-.3-.5-.3-1v-1.7h-4.2s0,0,0,0h0s0,0,0,0h0s0,0,0,0h0s0,0,0,0h0s0,0,0,0h0s0,0,0,0h0s0,0,0,0h0s0,0,0,0h0s0,0,0,0h0s0,0,0,0h0s0,0,0,0h0s0,0,0,0h0s0,0,0,0h0s0,0,0,0h0s0,0,0,0h0s0,0,0,0h0s0,0,0,0h0s0,0,0,0h0s0,0,0,0h0s0,0,0,0h0s0,0,0,0v2.6c0,1.2.3,2.2.8,2.8.5.6,1.5.9,2.8.9h7.3s0,0,0,0h0s0,0,0,0h0s0,0,0,0h0s0,0,0,0h0s0,0,0,0h0s0,0,0,0h0s0,0,0,0h0s0,0,0,0h0s0,0,0,0h0s0,0,0,0h0s0,0,0,0h0s0,0,0,0h0s0,0,0,0h0s0,0,0,0h0s0,0,0,0h0s0,0,0,0h0s0,0,0,0h0s0,0,0,0h0s0,0,0,0h0s0,0,0,0h0s0,0,0,0v-3.2h-5.3c-.5,0-.9,0-1.1-.3Z"/>
            <path class="st0" d="M525.9,439.2c-2.8,0-5.2.5-7.3,1.6-1.5.8-3,1.8-4.2,3.2,0,0,0,0,0,0,0,0,0,0,0,0,0,0,0,0,0,0,0,0,0,0,0,0,0,0,0,0,0,0s0,0,0,0c0,0,0,0,0,0s0,0,0,0c0,0,0,0,0,0s0,0,0,0c0,0,0,0,0,0s0,0,0,0c0,0,0,0,0,0,0,0,0,0,0,0,0,0,0,0,0,0,0,0,0,0,0,0,0,0,0,0,0,0,0,0,0,0,0,0,0,0,0,0,0,0,0,0,0,0,0,0-.4.5-.9.9-1.3,1.5l2.3,3.7v15.1h4.6s0,0,0,0h0s0,0,0,0h0s0,0,0,0h0s0,0,0,0h0s0,0,0,0h0s0,0,0,0h0s0,0,0,0h0s0,0,0,0h0s0,0,0,0h0s0,0,0,0h0s0,0,0,0h0s0,0,0,0h0s0,0,0,0h0s0,0,0,0h0s0,0,0,0h0s0,0,0,0h0s0,0,0,0h0s0,0,0,0h0s0,0,0,0h0s0,0,0,0h0s0,0,0,0v-15.1l-1.9-2.9c.8-.6,1.5-1.1,2.4-1.5,1.3-.5,2.7-.7,4.4-.7s3.8.5,5,1.5c1.1,1,1.7,2.5,1.7,4.6v15.1h4.6s0,0,0,0h0s0,0,0,0h0s0,0,0,0h0s0,0,0,0h0s0,0,0,0h0s0,0,0,0h0s0,0,0,0h0s0,0,0,0h0s0,0,0,0h0s0,0,0,0h0s0,0,0,0h0s0,0,0,0h0s0,0,0,0h0s0,0,0,0h0s0,0,0,0h0s0,0,0,0h0s0,0,0,0h0s0,0,0,0h0s0,0,0,0h0s0,0,0,0h0s0,0,0,0v-15.5c0-3-1-5.3-2.9-6.9-1.9-1.6-4.7-2.5-8.3-2.5Z"/>
            <path class="st0" d="M547,439.2c-1.1,0-2.3.1-3.5.4-1.2.3-2.1.6-2.8.9h0s0,0,0,0h0s0,0,0,0h0s0,0,0,0h0s0,0,0,0h0s0,0,0,0h0s0,0,0,0h0s0,0,0,0h0s0,0,0,0h0s0,0,0,0h0s0,0,0,0h0s0,0,0,0h0s0,0,0,0h0s0,0,0,0h0s0,0,0,0h0s0,0,0,0h0s0,0,0,0h0s0,0,0,0h0s0,0,0,0h0s0,0,0,0h0s0,0,0,0h0s0,0,0,0v3.6c1.7-.8,3.5-1.3,5.4-1.3s3.4.4,4.2,1.3c.8.9,1.2,2.3,1.2,4.2v15.6h4.6s0,0,0,0h0s0,0,0,0h0s0,0,0,0h0s0,0,0,0h0s0,0,0,0h0s0,0,0,0h0s0,0,0,0h0s0,0,0,0h0s0,0,0,0h0s0,0,0,0h0s0,0,0,0h0s0,0,0,0h0s0,0,0,0h0s0,0,0,0h0s0,0,0,0h0s0,0,0,0h0s0,0,0,0h0s0,0,0,0h0s0,0,0,0h0s0,0,0,0h0s0,0,0,0v-15.3c0-3.1-.8-5.4-2.3-7.1-1.5-1.6-3.8-2.5-6.8-2.5Z"/>
            <path class="st0" d="M577.1,452.5c-1.1-.7-2.6-1.3-4.5-1.9-2-.6-3.4-1-4.2-1.3-.8-.3-1.5-.7-2-1.2-.5-.5-.7-1.1-.7-1.9s.1-1,.4-1.4c.9-.6,2.3-.8,4.1-.8s2.7.2,4.1.5c1.3.4,2.5.9,3.5,1.5h0c0,0,0,0,0,0h0c0,0,0,0,0,0h0c0,0,0,0,0,0h0c0,0,0,0,0,0h0c0,0,0,0,0,0h0c0,0,0,0,0,0h0c0,0,0,0,0,0h0c0,0,0,0,0,0h0c0,0,0,0,0,0h0c0,0,0,0,0,0h0c0,0,0,0,0,0h0c0,0,0,0,0,0h0c0,0,0,0,0,0h0c0,0,0,0,0,0h0c0,0,0,0,0,0h0c0,0,0,0,0,0h0c0,0,0,0,0,0h0c0,0,0,0,0,0h0c0,0,0,0,0,0h0c0,0,0,0,0,0h0c0,0,0,0,0,0v-3.8c-.9-.6-2.1-1-3.5-1.4-1.4-.3-2.9-.5-4.5-.5-3,0-5.3.6-7.1,1.8-.4.3-.8.6-1.1,1,0,0,0,0,0,0,0,0,0,0,0,0,0,0,0,0,0,0,0,0,0,0,0,0,0,0,0,0,0,0,0,0,0,0,0,0,0,0,0,0,0,0,0,0,0,0,0,0,0,0,0,0,0,0,0,0,0,0,0,0,0,0,0,0,0,0,0,0,0,0,0,0,0,0,0,0,0,0,0,0,0,0,0,0,0,0,0,0,0,0,0,0,0,0,0,0,0,0,0,0,0,0,0,0,0,0,0,0,0,0,0,0,0,0,0,0,0,0,0,0-1,1.1-1.5,2.5-1.5,4.2s.6,3.5,1.9,4.6c1.3,1.1,3.3,2.1,5.9,2.9,1.8.5,3.2,1,4,1.4.9.4,1.5.8,1.9,1.3.4.5.6,1.1.6,1.9s-.1,1-.3,1.4c0,0,0,0,0,0-.9.5-2.3.7-4.3.7s-2.9-.2-4.5-.6c-1.6-.4-3-1-4.3-1.8h0c0,0,0,0,0,0h0c0,0,0,0,0,0h0c0,0,0,0,0,0h0c0,0,0,0,0,0h0c0,0,0,0,0,0h0c0,0,0,0,0,0h0c0,0,0,0,0,0h0c0,0,0,0,0,0h0c0,0,0,0,0,0h0c0,0,0,0,0,0h0c0,0,0,0,0,0h0c0,0,0,0,0,0h0c0,0,0,0,0,0h0c0,0,0,0,0,0h0c0,0,0,0,0,0h0c0,0,0,0,0,0h0c0,0,0,0,0,0h0c0,0,0,0,0,0h0c0,0,0,0,0,0h0c0,0,0,0,0,0h0c0,0,0,0,0,0v3.7c1,.7,2.3,1.3,4,1.7,1.7.4,3.4.6,5.1.6,3.3,0,5.7-.6,7.4-1.8.4-.3.8-.6,1.1-1,0,0,0,0,0,0,0,0,0,0,0,0,0,0,0,0,0,0,0,0,0,0,0,0,0,0,0,0,0,0,0,0,0,0,0,0,0,0,0,0,0,0,0,0,0,0,0,0,0,0,0,0,0,0,0,0,0,0,0,0,0,0,0,0,0,0,0,0,0,0,0,0,0,0,0,0,0,0,0,0,0,0,0,0,0,0,0,0,0,0,0,0,0,0,0,0,0,0,0,0,0,0,0,0,0,0,0,0,0,0,0,0,0,0,0,0,0,0,0,0,.9-1.1,1.4-2.3,1.4-3.9s-.2-2.4-.7-3.3c-.5-.9-1.2-1.7-2.3-2.3Z"/>
            <path class="st0" d="M588.7,458.3c-.2-.2-.3-.5-.3-1v-1.7h-4.2s0,0,0,0h0s0,0,0,0h0s0,0,0,0h0s0,0,0,0h0s0,0,0,0h0s0,0,0,0h0s0,0,0,0h0s0,0,0,0h0s0,0,0,0h0s0,0,0,0h0s0,0,0,0h0s0,0,0,0h0s0,0,0,0h0s0,0,0,0h0s0,0,0,0h0s0,0,0,0h0s0,0,0,0h0s0,0,0,0h0s0,0,0,0h0s0,0,0,0h0s0,0,0,0v2.6c0,1.2.3,2.2.8,2.8.5.6,1.5.9,2.8.9h7.3s0,0,0,0h0s0,0,0,0h0s0,0,0,0h0s0,0,0,0h0s0,0,0,0h0s0,0,0,0h0s0,0,0,0h0s0,0,0,0h0s0,0,0,0h0s0,0,0,0h0s0,0,0,0h0s0,0,0,0h0s0,0,0,0h0s0,0,0,0h0s0,0,0,0h0s0,0,0,0h0s0,0,0,0h0s0,0,0,0h0s0,0,0,0h0s0,0,0,0h0s0,0,0,0v-3.2h-5.3c-.5,0-.9,0-1.1-.3Z"/>
            <path class="st0" d="M588.7,445.9c-.2-.2-.3-.5-.3-1v-1.7h-4.2s0,0,0,0h0s0,0,0,0h0s0,0,0,0h0s0,0,0,0h0s0,0,0,0h0s0,0,0,0h0s0,0,0,0h0s0,0,0,0h0s0,0,0,0h0s0,0,0,0h0s0,0,0,0h0s0,0,0,0h0s0,0,0,0h0s0,0,0,0h0s0,0,0,0h0s0,0,0,0h0s0,0,0,0h0s0,0,0,0h0s0,0,0,0h0s0,0,0,0h0s0,0,0,0v2.6c0,1.2.3,2.2.8,2.8.5.6,1.5.9,2.8.9h7.3s0,0,0,0h0s0,0,0,0h0s0,0,0,0h0s0,0,0,0h0s0,0,0,0h0s0,0,0,0h0s0,0,0,0h0s0,0,0,0h0s0,0,0,0h0s0,0,0,0h0s0,0,0,0h0s0,0,0,0h0s0,0,0,0h0s0,0,0,0h0s0,0,0,0h0s0,0,0,0h0s0,0,0,0h0s0,0,0,0h0s0,0,0,0h0s0,0,0,0h0s0,0,0,0v-3.2h-5.3c-.5,0-.9,0-1.1-.3Z"/>
            <path class="st0" d="M605.2,459.8c-.3-.3-.5-.9-.5-1.7v-18.2h-4.6s0,0,0,0h0s0,0,0,0h0s0,0,0,0h0s0,0,0,0h0s0,0,0,0h0s0,0,0,0h0s0,0,0,0h0s0,0,0,0h0s0,0,0,0h0s0,0,0,0h0s0,0,0,0h0s0,0,0,0h0s0,0,0,0h0s0,0,0,0h0s0,0,0,0h0s0,0,0,0h0s0,0,0,0h0s0,0,0,0h0s0,0,0,0h0s0,0,0,0h0s0,0,0,0v19.4c0,1.5.4,2.7,1.2,3.5.8.8,1.9,1.2,3.4,1.2h3.9s0,0,0,0h0s0,0,0,0h0s0,0,0,0h0s0,0,0,0h0s0,0,0,0h0s0,0,0,0h0s0,0,0,0h0s0,0,0,0h0s0,0,0,0h0s0,0,0,0h0s0,0,0,0h0s0,0,0,0h0s0,0,0,0h0s0,0,0,0h0s0,0,0,0h0s0,0,0,0h0s0,0,0,0h0s0,0,0,0h0s0,0,0,0h0s0,0,0,0h0s0,0,0,0v-3.8h-1.6c-.8,0-1.4-.2-1.7-.5Z"/>
            <path class="st0" d="M625.3,439.2c-2.8,0-5.2.5-7.3,1.6-1.5.8-3,1.8-4.2,3.2,0,0,0,0,0,0s0,0,0,0c0,0,0,0,0,0s0,0,0,0c0,0,0,0,0,0s0,0,0,0c0,0,0,0,0,0,0,0,0,0,0,0,0,0,0,0,0,0,0,0,0,0,0,0,0,0,0,0,0,0,0,0,0,0,0,0,0,0,0,0,0,0,0,0,0,0,0,0s0,0,0,0c0,0,0,0,0,0s0,0,0,0c0,0,0,0,0,0s0,0,0,0c0,0,0,0,0,0-.4.5-.9.9-1.3,1.5l2.3,3.7v15.1h4.6s0,0,0,0h0s0,0,0,0h0s0,0,0,0h0s0,0,0,0h0s0,0,0,0h0s0,0,0,0h0s0,0,0,0h0s0,0,0,0h0s0,0,0,0h0s0,0,0,0h0s0,0,0,0h0s0,0,0,0h0s0,0,0,0h0s0,0,0,0h0s0,0,0,0h0s0,0,0,0h0s0,0,0,0h0s0,0,0,0h0s0,0,0,0h0s0,0,0,0h0s0,0,0,0v-15.1l-1.9-2.9c.8-.6,1.5-1.1,2.4-1.5,1.3-.5,2.7-.7,4.4-.7s3.8.5,5,1.5c1.1,1,1.7,2.5,1.7,4.6v15.1h4.6s0,0,0,0h0s0,0,0,0h0s0,0,0,0h0s0,0,0,0h0s0,0,0,0h0s0,0,0,0h0s0,0,0,0h0s0,0,0,0h0s0,0,0,0h0s0,0,0,0h0s0,0,0,0h0s0,0,0,0h0s0,0,0,0h0s0,0,0,0h0s0,0,0,0h0s0,0,0,0h0s0,0,0,0h0s0,0,0,0h0s0,0,0,0h0s0,0,0,0h0s0,0,0,0v-15.5c0-3-1-5.3-2.9-6.9-1.9-1.6-4.7-2.5-8.3-2.5Z"/>
            <path class="st0" d="M667.1,449.9c0-3.1-1-5.7-2.9-7.7-2-2-5.1-3-9.3-3s-5.1.5-7.1,1.6c-1,.5-1.9,1.2-2.7,2,0,0,0,0,0,0,0,0,0,0,0,0,0,0,0,0,0,0,0,0,0,0,0,0,0,0,0,0,0,0,0,0,0,0,0,0,0,0,0,0,0,0,0,0,0,0,0,0,0,0,0,0,0,0,0,0,0,0,0,0,0,0,0,0,0,0,0,0,0,0,0,0,0,0,0,0,0,0,0,0,0,0,0,0,0,0,0,0,0,0,0,0,0,0,0,0,0,0,0,0,0,0,0,0,0,0,0,0,0,0,0,0,0,0,0,0,0,0,0,0-.8.8-1.4,1.7-2,2.7-1.1,2-1.6,4.4-1.6,7.2,0,4,1,7,3.1,9,2.1,2.1,4.9,3.1,8.5,3.1s2.9-.2,3.9-.5h0s0,0,0,0h0s0,0,0,0h0s0,0,0,0h0s0,0,0,0h0s0,0,0,0h0s0,0,0,0h0s0,0,0,0h0s0,0,0,0h0s0,0,0,0h0s0,0,0,0h0s0,0,0,0h0s0,0,0,0h0s0,0,0,0h0s0,0,0,0h0s0,0,0,0h0s0,0,0,0h0s0,0,0,0h0s0,0,0,0h0s0,0,0,0h0s0,0,0,0h0s0,0,0,0v-3.6c-1,.3-2,.5-3.2.5-2.6,0-4.5-.7-5.8-2.1-1.3-1.4-1.9-3.5-1.9-6.4s.7-5.2,2.1-6.9c1.5-1.2,3.3-1.9,5.6-1.9,5.1,0,7.6,2.3,7.6,7v14.2h4.6s0,0,0,0h0s0,0,0,0h0s0,0,0,0h0s0,0,0,0h0s0,0,0,0h0s0,0,0,0h0s0,0,0,0h0s0,0,0,0h0s0,0,0,0h0s0,0,0,0h0s0,0,0,0h0s0,0,0,0h0s0,0,0,0h0s0,0,0,0h0s0,0,0,0h0s0,0,0,0h0s0,0,0,0h0s0,0,0,0h0s0,0,0,0h0s0,0,0,0h0s0,0,0,0v-14.2Z"/>
          </g>
          <g>
            <path class="st0" d="M411,463.9c-.8-.8-1.2-2-1.2-3.5v-19.4h4.6v18.2c0,.8.2,1.4.5,1.7.3.3.9.5,1.7.5h1.6v3.8h-3.9c-1.5,0-2.6-.4-3.4-1.2Z"/>
            <path class="st0" d="M425.5,462.7c-2.1-2.1-3.1-5.1-3.1-9s.5-5.2,1.6-7.2c1.1-2,2.6-3.6,4.6-4.6,2-1.1,4.4-1.6,7.1-1.6,4.3,0,7.4,1,9.3,3,2,2,2.9,4.6,2.9,7.7v14.2h-4.6v-14.2c0-4.6-2.5-7-7.6-7s-4.8.8-6.3,2.5c-1.5,1.7-2.3,4.1-2.3,7.2s.6,5,1.9,6.4c1.3,1.4,3.2,2.1,5.8,2.1s2.2-.2,3.2-.5v3.6c-1.1.3-2.4.5-3.9.5-3.6,0-6.5-1-8.5-3.1Z"/>
            <path class="st0" d="M457.4,465.2c-1.7-.4-3.2-1-4.4-1.8v-12h10v3.7h-5.4v6c1.3.8,3,1.2,5.2,1.2s5.1-.8,6.6-2.4c1.5-1.6,2.3-3.9,2.3-7s-.8-5.3-2.3-6.7c-1.6-1.4-4.1-2.2-7.6-2.2s-3.2.2-4.7.5c-1.5.3-2.8.8-3.9,1.5v-3.7c1.2-.7,2.6-1.2,4.2-1.5,1.6-.3,3.3-.5,5.2-.5,4.5,0,8,1.1,10.4,3.3,2.4,2.2,3.6,5.3,3.6,9.3s-1.2,7.2-3.6,9.5c-2.4,2.3-5.7,3.5-10.1,3.5s-3.7-.2-5.4-.7Z"/>
            <path class="st0" d="M481.3,449.5c-.5-.6-.8-1.5-.8-2.8v-2.6h4.2v1.7c0,.5.1.8.3,1,.2.2.6.3,1.1.3h5.3v3.2h-7.3c-1.3,0-2.3-.3-2.8-.9ZM481.3,461.9c-.5-.6-.8-1.5-.8-2.8v-2.6h4.2v1.7c0,.5.1.8.3,1,.2.2.6.3,1.1.3h5.3v3.2h-7.3c-1.3,0-2.3-.3-2.8-.9Z"/>
            <path class="st0" d="M514.4,450.1l-2.3-3.7c1.6-2,3.4-3.5,5.5-4.6,2-1,4.5-1.6,7.3-1.6s6.4.8,8.3,2.5c1.9,1.6,2.9,3.9,2.9,6.9v15.5h-4.6v-15.1c0-2.1-.6-3.6-1.7-4.6-1.1-1-2.8-1.5-5-1.5s-3.1.2-4.4.7c-1.3.5-2.4,1.3-3.4,2.4l1.9,3v15.1h-4.6v-15.1Z"/>
            <path class="st0" d="M550.5,449.5c0-1.9-.4-3.3-1.2-4.2-.8-.9-2.2-1.3-4.2-1.3s-3.7.4-5.4,1.3v-3.6c.7-.4,1.7-.7,2.8-.9,1.2-.3,2.3-.4,3.5-.4,3,0,5.3.8,6.8,2.5,1.5,1.6,2.3,4,2.3,7.1v15.3h-4.6v-15.6Z"/>
            <path class="st0" d="M564.3,465.2c-1.7-.4-3.1-.9-4-1.7v-3.7c1.3.8,2.7,1.4,4.3,1.8,1.6.4,3,.6,4.5.6s3.4-.2,4.3-.7c.9-.5,1.3-1.3,1.3-2.4s-.2-1.4-.6-1.9c-.4-.5-1.1-.9-1.9-1.3-.9-.4-2.2-.8-4-1.4-2.7-.8-4.6-1.8-5.9-2.9-1.3-1.1-1.9-2.6-1.9-4.6s.9-3.9,2.6-5.1c1.7-1.2,4.1-1.8,7.1-1.8s3,.2,4.5.5c1.4.3,2.6.8,3.5,1.4v3.8c-1-.6-2.2-1.1-3.5-1.5-1.3-.4-2.7-.5-4.1-.5-3.6,0-5.4,1.1-5.4,3.3s.2,1.5.7,1.9c.5.5,1.2.9,2,1.2.8.3,2.2.8,4.2,1.3,1.9.6,3.4,1.2,4.5,1.9,1.1.7,1.9,1.4,2.3,2.3.5.9.7,2,.7,3.3,0,2-.8,3.6-2.4,4.8-1.6,1.2-4.1,1.8-7.4,1.8s-3.3-.2-5.1-.6Z"/>
            <path class="st0" d="M584,449.5c-.5-.6-.8-1.5-.8-2.8v-2.6h4.2v1.7c0,.5.1.8.3,1,.2.2.6.3,1.1.3h5.3v3.2h-7.3c-1.3,0-2.3-.3-2.8-.9ZM584,461.9c-.5-.6-.8-1.5-.8-2.8v-2.6h4.2v1.7c0,.5.1.8.3,1,.2.2.6.3,1.1.3h5.3v3.2h-7.3c-1.3,0-2.3-.3-2.8-.9Z"/>
            <path class="st0" d="M600.2,463.9c-.8-.8-1.2-2-1.2-3.5v-19.4h4.6v18.2c0,.8.2,1.4.5,1.7.3.3.9.5,1.7.5h1.6v3.8h-3.9c-1.5,0-2.6-.4-3.4-1.2Z"/>
            <path class="st0" d="M613.9,450.1l-2.3-3.7c1.6-2,3.4-3.5,5.5-4.6,2-1,4.5-1.6,7.3-1.6s6.4.8,8.3,2.5c1.9,1.6,2.9,3.9,2.9,6.9v15.5h-4.6v-15.1c0-2.1-.6-3.6-1.7-4.6-1.1-1-2.8-1.5-5-1.5s-3.1.2-4.4.7c-1.3.5-2.4,1.3-3.4,2.4l1.9,3v15.1h-4.6v-15.1Z"/>
            <path class="st0" d="M643.6,462.7c-2.1-2.1-3.1-5.1-3.1-9s.5-5.2,1.6-7.2c1.1-2,2.6-3.6,4.6-4.6,2-1.1,4.4-1.6,7.1-1.6,4.3,0,7.4,1,9.3,3,2,2,2.9,4.6,2.9,7.7v14.2h-4.6v-14.2c0-4.6-2.5-7-7.6-7s-4.8.8-6.3,2.5c-1.5,1.7-2.3,4.1-2.3,7.2s.6,5,1.9,6.4c1.3,1.4,3.2,2.1,5.8,2.1s2.2-.2,3.2-.5v3.6c-1.1.3-2.4.5-3.9.5-3.6,0-6.5-1-8.5-3.1Z"/>
          </g>
        </g>
        <g>
          <path class="st0" d="M209.9,441.9v-146.7c0-2.2,1.8-4,4-4h14.4c2.2,0,4,1.8,4,4v38.5c0,2.2,1.8,4,4,4h5.7c6.4,0,11.3-1,14.1-3,2.9-2,5.3-5.5,7.3-10.5l11.6-30.5c.6-1.6,2.1-2.6,3.8-2.6h15.2c2.8,0,4.8,2.8,3.8,5.5l-13.8,36c-1.9,4.9-4.2,9.2-6.9,12.6-.9,1.1-1.8,2.2-2.8,3.2-1.2,1.2-1.6,3-.9,4.6l29.5,64c1.2,2.7-.7,5.7-3.7,5.7h-16.6c-1.6,0-3-.9-3.7-2.4l-26.1-58.6c-.7-1.6-2.4-2.5-4.1-2.4-2.1.2-4.3.3-6.6.3h-5.7c-2.2,0-4,1.8-4,4v78.1c0,2.2-1.8,4-4,4h-14.4c-2.2,0-4-1.8-4-4Z"/>
          <path class="st0" d="M345.6,291.7h10.2c2.2,0,4.2,1.3,5,3.3l44,106.1c1.5,3.6-1.1,7.5-5,7.5h-12.3c-2.2,0-4.2-1.3-5-3.3l-8-19.4c-.8-2-2.8-3.3-5-3.3h-37.1c-2.4,0-4.4,1.5-5.2,3.8l-10.4,32.3c-.7,2.1-2.6,3.6-4.8,3.7l-10.2.7c-3.9.3-6.8-3.6-5.5-7.3l44.1-120.6c.8-2.1,2.8-3.6,5.1-3.6ZM363.1,358.4l-10.7-26c-.6-1.5-2.8-1.5-3.4,0l-10.7,26c-.5,1.2.4,2.5,1.7,2.5h21.4c1.3,0,2.2-1.3,1.7-2.5Z"/>
          <path class="st0" d="M465,406.9l-24.4-34.1c-1.1-1.5-2.8-2.4-4.6-2.4h-8c-3.1,0-5.7,2.5-5.7,5.7v27.5c0,3.1-2.5,5.7-5.7,5.7h-11.1c-3.1,0-5.7-2.5-5.7-5.7v-105.6c0-3.1,2.5-5.7,5.7-5.7h39.3c7.9,0,15.1,1.6,21.2,4.7,6.3,3.2,11.3,7.9,14.8,13.8,3.5,5.9,5.2,12.7,5.2,20.4s-2.9,18.6-8.7,25.5c-2.4,2.8-5.1,5.2-8.2,7.2-2.8,1.7-3.5,5.4-1.6,8.1l20.1,28.3c2.7,3.8,0,9-4.6,9h-13.3c-1.8,0-3.5-.9-4.6-2.4ZM444,348.4c6.4,0,11.4-1.5,14.7-4.6,3.3-3,4.8-7,4.8-12.5s-1.5-9.4-4.8-12.4c-3.3-3.1-8.3-4.6-14.7-4.6h-19.4c-1.3,0-2.3,1-2.3,2.3v29.5c0,1.3,1,2.3,2.3,2.3h19.4Z"/>
          <path class="st0" d="M571.9,406.3l-8.4-20.2c-.7-1.8-2.5-2.9-4.4-2.9h-38.5c-1.9,0-3.6,1.2-4.4,2.9l-8.2,20.2c-.7,1.8-2.5,2.9-4.4,2.9h-13.9c-3.4,0-5.6-3.4-4.4-6.5l44.5-107.5c.7-1.8,2.5-2.9,4.4-2.9h11.2c1.9,0,3.6,1.1,4.4,2.9l44.5,107.5c1.3,3.1-1,6.5-4.4,6.5h-13.8c-1.9,0-3.6-1.1-4.4-2.9ZM552.2,358.7l-10.4-25.3c-.7-1.7-3.1-1.7-3.8,0l-10.4,25.3c-.5,1.3.4,2.8,1.9,2.8h20.8c1.4,0,2.4-1.5,1.9-2.8Z"/>
          <path class="st0" d="M662.6,407.2l-25.9-44.7c-.8-1.4-2.3-2.1-3.9-2-2.3.2-4.7.3-7.2.3h-5.7c-2.2,0-4,1.8-4,4v40.4c0,2.2-1.8,4-4,4h-14.4c-2.2,0-4-1.8-4-4v-108.9c0-2.2,1.8-4,4-4h14.4c2.2,0,4,1.8,4,4v38.6c0,2.2,1.8,4,4,4h5.7c6.4,0,11.3-1,14.1-3,2.9-2,5.3-5.5,7.3-10.5l11.6-30.5c.6-1.6,2.1-2.6,3.7-2.6h15.3c2.8,0,4.7,2.8,3.7,5.4l-13.8,36.1c-1.9,4.9-4.2,9.2-6.9,12.6-.8,1-1.7,2-2.6,3s-1.4,3.2-.6,4.8l28.6,49.1c1.6,2.7-.4,6-3.5,6h-16.6c-1.4,0-2.7-.8-3.5-2Z"/>
          <path class="st0" d="M686.4,418.3v-120.4c0-3.1,2.5-5.6,5.6-5.6h63.1c3.1,0,5.6,2.5,5.6,5.6v10.6c0,3.1-2.5,5.6-5.6,5.6h-44.7c-.9,0-1.6.7-1.6,1.6v29.9c0,.9.7,1.6,1.6,1.6h40.8c3.1,0,5.6,2.5,5.6,5.6v10.5c0,3.1-2.5,5.6-5.6,5.6h-40.8c-.9,0-1.6.7-1.6,1.6v29.9c0,.9.7,1.6,1.6,1.6h46.3c3.1,0,5.6,2.5,5.6,5.6v10.6c0,3.1-2.5,5.6-5.6,5.6h-64.8c-3.1,0-5.6-2.5-5.6-5.6Z"/>
          <path class="st0" d="M765.5,438.8v-142.2c0-3.5,2.8-6.3,6.3-6.3h33.1c11.9,0,22.5,2.4,31.6,7.2,9.2,4.9,16.5,11.9,21.5,20.8,4,7.1,3.8,34.7,3.4,60.1,0,3.6-.1,6.4-.1,8.2,0,11.5-2.5,21.7-7.4,30.5-5,8.9-12.2,15.9-21.5,20.8-9.1,4.8-19.7,7.2-31.6,7.2h-28.9c-3.5,0-6.3-2.8-6.3-6.3ZM800.7,423.1c4.5,0,20.5.5,29.5-11.4,8.7-11.5,8.7-23.1,8.7-33.1v-21.6c0-9.2,0-15.8,0-22.4,0-4.1-1.9-7.9-4.6-10.9,0,0,0,0,0,0-2.5-2.7-5.4-5-8.8-6.7-5.8-3-12.7-4.6-20.8-4.6h-10.4c-3.5,0-6.3,2.8-6.3,6.3v98.3c0,3.5,2.8,6.3,6.3,6.3h6.5Z"/>
        </g>
        <g>
          <g>
            <path class="st0" d="M617.1,193.3s-.7.2-1.3.9c0,0,0,0,0,0,0,0,0,0,0,0,0,0,0,0,0,0,0,0,0,0,0,0,0,0,0,0,0,0,0,0,0,0,0,0,0,0,0,0,0,0,0,0,0,0,0,0,0,0,0,0,0,0,0,0,0,0,0,0,0,0,0,0,0,0,0,0,0,0,0,0,0,0,0,0,0,0,0,0,0,0,0,0,0,0,0,0,0,0,0,0,0,0,0,0,0,0,0,0,0,0,0,0,0,0,0,0,0,0,0,0,0,0,0,0,0,0,0,0,0,0,0,0,0,0,0,0,0,0,0,0,0,0,0,0,0,0,0,0,0,0,0,0,0,0,0,0,0,0,0,0,0,0,0,0,0,0,0,0,0,0,0,0,0,0,0,0,0,0,0,0,0,0,0,0,0,0,0,0,0,0,0,0,0,0,0,0,0,0,0,0,0,0,0,0,0,0,0,0,0,0,0,0,0,0,0,0,0,0,0,0,0,0,0,0,0,0,0,0,0,0,0,0,0,0,0,0,0,0,0,0,0,0,0,0,0,0,0,0,0,0,0,0,0,0,0,0,0,0,0,0,0,0,0,0,0,0,0,0,0,0,0,0,0,0,0,0,0,0,0,0,0,0,0,0,0,0,0,0,0,0,0,0,0,0,0,0,0,0,0,0,0,0,0,0,0,0,0,0,0,0,0,0,0,0,0,0,0,0,0,0,0,0,0,0,0,0,0,0,0,0,0,0,0,0,0,0,0,0,0,0,0,0,0,0,0,0,0,0,0,0,0,0,0,0,0,0,0,0,0,0,0,0,0,0,0,0,0,0,0,0,0,0,0,0,0,0,0,0,0,0,0,0,0,0,0,0,0,0,0,0,0,0,0,0,0,0,0,0,0,0,0,0,0,0,0,0,0,0,0,0,0,0,0,0,0,0,0,0,0,0,0,0,0,0,0,0,0,0,0,0,0,0,0,0,0,0,0,0,0,0,0,0,0,0,0,0,0,0,0,0,0,0,0,0,0,0,0,0,0,0,0,0,0,0,0,0,0,0,0,0,0,0,0,0,0,0,0,0,0,0,0,0,0,0,0,0,0,0,0,0,0,0,0,0,0,0,0,0,0,0,0,0,0,0,0,0,0,0,0,0,0,0,0,0,0,0,0,0,0,0,0,0,0,0,0,0,0,0,0,0,0,0,0,0,0,0,0,0,0,0,0,0,0,0,0,0,0,0,0,0,0,0,0,0,0,0,0,0,0,0,0,0,0,0,0,0,0,0,0,0,0,0,0,0,0,0,0,0,0,0,0,0,0,0,0,0,0,0,0,0,0,0,0,0,0,0,0,0,0,0,0,0,0,0,0,0,0,0-.6.7-1.2,1.9-.9,3.9,0,0,3.4,1.1,4.5.3,0,0,0,0,0,0,0,0,0,0,0,0,0,0,0,0,0,0,0,0,0,0,0,0,0,0,0,0,0,0,0,0,0,0,0,0,0,0,0,0,0,0,0,0,0,0,0,0,0,0,0,0,0,0,0,0,0,0,0,0,0,0,0,0,0,0,0,0,0,0,0,0,0,0,0,0,0,0,0,0,0,0,0,0,0,0,0,0,0,0,0,0,0,0,0,0,0,0,0,0,0,0,0,0,0,0,0,0,0,0,0,0,0,0,0,0,0,0,0,0,0,0,0,0,0,0,0,0,0,0,0,0,0,0,0,0,0,0,0,0,0,0,0,0,0,0,0,0,0,0,0,0,0,0,0,0,0,0,0,0,0,0,0,0,0,0,0,0,0,0,0,0,0,0,0,0,0,0,0,0,0,0,0,0,0,0,0,0,0,0,0,0,0,0,0,0,0,0,0,0,0,0,0,0,0,0,0,0,0,0,0,0,0,0,0,0,0,0,0,0,0,0,0,0,0,0,0,0,0,0,0,0,0,0,0,0,0,0,0,0,0,0,0,0,0,0,0,0,0,0,0,0,0,0,0,0,0,0,0,0,0,0,0,0,0,0,0,0,0,0,0,0,0,0,0,0,0,0,0,0,0,0,0,0,0,0,0,0,0,0,0,0,0,0,0,0,0,0,0,0,0,0,0,0,0,0,0,0,0,0,0,0,0,0,0,0,0,0,0,0,0,0,0,0,0,0,0,0,0,0,0,0,0,0,0,0,0,0,0,0,0,0,0,0,0,0,0,0,0,0,0,0,0,0,0,0,0,0,0,0,0,0,0,0,0,0,0,0,0,0,0,0,0,0,0,0,0,0,0,0,0,0,0,0,0,0,0,0,0,0,0,0,0,0,0,0,0,0,0,0,0,0,0,0,0,0,0,0,0,0,0,0,0,0,0,0,0,0,0,0,0,0,0,0,0,0,0,0,0,0,0,0,0,0,0,0,0,0,0,0,0,0,0,0,0,0,0,0,0,0,0,0,0,0,0,0,0,0,0,0,0,0,0,0,0,0,0,0,0,0,0,0,0,0,0,0,0,0,0,0,0,0,0,0,0,0,0,0,0,0,0,0,0,0,0,0,0,0,0,0,0,0,0,0,0,0,0,0,0,0,0,0,0,0,0,0,0,0,0,0,0,0,0,0,0,0,0,0,0,0,0,0,0,0,0,0,0,0,0,0,0,0,0,0,0,0,0,0,0,0,0,0,0,0,0,0,0,0,0,0,0,0,0,0,0,0,0,0,0,0,0,0,0,0,0,0,0,0,0,0,0,0,0,0,0,0,0,0,0,0,0,0,0,0,0,0,0,0,0,0,.2-.1.3-.3.3-.5,0,0,0-3.7-2.5-4.6Z"/>
            <path class="st0" d="M650,246s0,0,0,0c-2-3.6-8.2-7.5-8.2-7.5,0,0,0,0,0,0,0,0-.1-.1-.2-.2-6-6.2-8.2-7.6-7.3-13.2.2-1,.5-1.8,1-2.7,1.1-.9,2.5-1.8,4.4-3.1.5-.3,1-.7,1.5-1.1,0,0,0,0,0,0,0,0,0,0,0,0,0,0,0,0,0,0s0,0,0,0c0,0,0,0,0,0,0,0,0,0,0,0,0,0,0,0,0,0,0,0,0,0,0,0,0,0,0,0,0,0s0,0,0,0c0,0,0,0,0,0,0,0,0,0,0,0,0,0,0,0,0,0s0,0,0,0c0,0,0,0,0,0,0,0,0,0,0,0s0,0,0,0c0,0,0,0,0,0,0,0,0,0,0,0s0,0,0,0c0,0,0,0,0,0,0,0,0,0,0,0,0,0,0,0,0,0,0,0,0,0,0,0,0,0,0,0,0,0s0,0,0,0c0,0,0,0,0,0,0,0,0,0,0,0,0,0,0,0,0,0s0,0,0,0c0,0,0,0,0,0,0,0,0,0,0,0s0,0,0,0c0,0,0,0,0,0,0,0,0,0,0,0,0,0,0,0,0,0,0,0,0,0,0,0,0,0,0,0,0,0s0,0,0,0c0,0,0,0,0,0,0,0,0,0,0,0,0,0,0,0,0,0s0,0,0,0c0,0,0,0,0,0,0,0,0,0,0,0s0,0,0,0c0,0,0,0,0,0,0,0,0,0,0,0s0,0,0,0c0,0,0,0,0,0,0,0,0,0,0,0,0,0,0,0,0,0,0,0,0,0,0,0,0,0,0,0,0,0,0,0,0,0,0,0s0,0,0,0c0,0,0,0,0,0,0,0,0,0,0,0s0,0,0,0c0,0,0,0,0,0,0,0,0,0,0,0s0,0,0,0c0,0,0,0,0,0,0,0,0,0,0,0,0,0,0,0,0,0,0,0,0,0,0,0,0,0,0,0,0,0s0,0,0,0c0,0,0,0,0,0,0,0,0,0,0,0,0,0,0,0,0,0s0,0,0,0c0,0,0,0,0,0,0,0,0,0,0,0s0,0,0,0c0,0,0,0,0,0,0,0,0,0,0,0,0,0,0,0,0,0,0,0,0,0,0,0,0,0,0,0,0,0s0,0,0,0c0,0,0,0,0,0,0,0,0,0,0,0,0,0,0,0,0,0s0,0,0,0c0,0,0,0,0,0,0,0,0,0,0,0s0,0,0,0c0,0,0,0,0,0,0,0,0,0,0,0s0,0,0,0c0,0,0,0,0,0,0,0,0,0,0,0,0,0,0,0,0,0,0,0,0,0,0,0,0,0,0,0,0,0,0,0,0,0,0,0s0,0,0,0c0,0,0,0,0,0,0,0,0,0,0,0,6.5-5.7,3.5-15.3,3.5-15.3,0,0,0,0,0,0,0,0,0,0,0,0,0,0,0,0,0,0,0,0,0,0,0,0,0,0,0,0,0,0,0,0,0,0,0,0,0,0,0,0,0,0,0,0,0,0,0,0,0,0,0,0,0,0,0,0,0,0,0,0,0,0,0,0,0,0,0,0,0,0,0,0,0,0,0,0,0,0,0,0,0,0,0,0,0,0,0,0,0,0,0,0,0,0,0,0,0,0,0,0,0,0,0,0,0,0,0,0,0,0,0,0,0,0,0,0,0,0,0,0,0,0,0,0,0,0,0,0,0,0,0,0,0,0,0,0,0,0,0,0,0,0,0,0,0,0,0,0,0,0,0,0,0,0,0,0,0,0,0,0,0,0,0,0,0,0,0,0,0,0,0,0,0,0,0,0,0,0,0,0,0,0,0,0,0,0,0,0,0,0,0,0,0,0,0,0,0,0,0,0,0,0,0,0,0,0,0,0,0,0,0,0,0,0,0,0,0,0,0,0,0,0,0,0,0,0,0,0,0,0,0,0,0,0,0,0,0,0,0,0,0,0,0,0,0,0,0,0,0,0,0,0,0,0,0,0,0,0,0,0,0,0,0,0,0,0,0,0,0,0,0,0,0,0,0,0,0,0,0,0,0,0,0,0,0,0,0,0,0,0,0,0,0,0,0,0,0,0,0,0,0,0,0,0,0,0,0,0,0,0,0,0,0,0,0,0,0,0,0,0,0,0,0,0,0,0,0,0,0,0,0,0,0,0,0,0,0,0,0,0,0,0,0,0,0,0,0,0,0,0,0,0,0,0,0,0,0,0,0,0,0,0,0,0,0,0,0,0,0,0,0,0,0,0,0,0,0,0,0,0,0,0,0,0,0,0,0,0,0,0,0,0,0,0,0,0,0,0,0,0,0,0,0,0,0,0,0,0,0,0,0,0,0,0,0,0,0,0,0,0,0,0,0,0,0,0,0,0,0,0,0,0,0,0,0,0,0,0,0,0,0,0,0,0,0,0,0,0,0,0,0,0,0,0,0,0,0,0,0,0,0,0,0,0,0,0,0,0,0,0,0,0,0,0,0,0,0,0,0,0,0,0,0,0,0,0,0,0,0,0,0,0,0,0,0,0,0,0,0,0,0,0,0,0,0,0,0,0,0,0,0,0,0,0,0,0,0,0,0,0,0,0,0,0,0,0,0,0,0,0,0,0,0,0,0,0,0,0,0,0,0,0,0,0,0,0,0,0,0,0,0,0,0,0,0,0,0,0,0,0,0,0,0,0,0,0,0,0,0,0,0,0,0,0,0,0,0,0,0,0,0,0,0,0,0,0,0,0,0,0,0,0,0,0,0,0,0,0,0,0,0,0,0,0,0,0,0,0,0,0,0,0,0,0,0,0,0,0,0,0,0,0,0,0,0,0,0,0,0,0,0,0,0,0,0,0,0,0,0,0,0,0,0,0,0,0,0,0,0,0,0,0,0,0,0,0,0,0,0,0,0,0,0,0,0,0,0,0,0,0,0,0,0,0,0,0,0,0,0,0,0,0,0,0,0,0,0,0,0,0,0,0,0,0,0,0,0,0,0,0,0,0,0,0,0,0,0,0,0,0,0,0,0,0,0,0,0,0,0,0,0,0,0,0,0,0,0,0,0,0,0,0,0,0,0,0,0,0,0,0,0,0,0,0,0,0,0,0,0,0,0,0,0,0,0,0,0,0,0,0,0,0,0,0,0,0,0,0,0,0,0,0,0,0,0,0,0,0,0,0,0,0,0,0,0,0,0,0,0,0,0,0,0,0,0,0,0,0,0,0,0,0,0,0,0,0,0,0,0,0,0,0,0,0,0,0,0,0,0,0,0,0,0,0,0,0,0,0,0,0,0,0,0,0,0,0,0,0,0,0,0,0,0,0,0,0,0,0,0,0,0,0,0,0,0,0,0,0,0,0,0,0,0,0,0,0,0,0,0,0,0,0,0,0,0,0,0,0,0,0,0,0,0,0,0,0,0,0,0,0,0,0,0,0,0,0,0,0,0,0,0,0,0,0,0,0,0,0,0,0,0,0,0,0,0,0,0,0,0,0,0,0,0,0,0,0,0,0,0,0,0,0,0,0,0,0,0,0,0,0,0,0,0,0,0,0,0,0,0,0,0,0,0,0,0,0,0,0,0,0,0,0,0,0,0,0,0,0,0,0,0,0,0,0,0,0,0,0,0,0,0,0,0,0,0,0,0,0,0,0,0,0,0,0,0,0,0,0,0,0,0,0,0,0,0,0,0,0,0,0,0,0,0,0,0,0,0,0,0,0,0,0,0,0,0,0,0,0,0,0,0,0,0,0,0,0,0,0,0,0,0,0,0,0,0,0,0,0,0,0,0,0,0,0,0,0,0,0,0,0,0,0,0,0,0,0,0,0,0,0,0,0,0,0,0,0,0,0,0,0,0,0,0,0,0,0,0,0,0,0,0,0,0,0,0,0,0,0,0,0,0,0,0,0,0,0,0,0,0,0,0,0,0,0,0,0,0,0,0,0,0,0,0,0,0,0,0,0,0,0,0,0,0,0,0,0,0,0,0,0,0,0,0,0,0,0,0,0,0,0,0,0,0,0,0,0,0,0,0,0,0,0,0,0,0,0,0,0,0,0,0,0,0,0,0,0,0,0,0,0,0,0,0,0,0,0,0,0,0,0,0,0,0,0,0,0,0,0,0,0,0,0,0,0,0,0,0,0,0,0,0,0-.4,5.5-1.9,8.9-3.7,11.2-.5.4-1,.7-1.4,1-1.5.9-3.5,2.2-5.3,4h0s0,0,0,0c0,0,0,0,0,0h0s0,0,0,0c0,0,0,0,0,0h0s0,0,0,0c0,0,0,0,0,0h0s0,0,0,0,0,0,0,0c0,0,0,0,0,0h0s0,0,0,0c0,0,0,0,0,0h0s0,0,0,0c0,0,0,0,0,0h0s0,0,0,0c0,0,0,0,0,0h0s0,0,0,0c0,0,0,0,0,0,0,0,0,0,0,0h0s0,0,0,0c0,0,0,0,0,0h0s0,0,0,0c0,0,0,0,0,0h0s0,0,0,0c0,0,0,0,0,0h0s0,0,0,0c0,0,0,0,0,0,0,0,0,0,0,0h0s0,0,0,0c0,0,0,0,0,0h0s0,0,0,0c0,0,0,0,0,0h0s0,0,0,0c0,0,0,0,0,0h0s0,0,0,0c0,0,0,0,0,0h0s0,0,0,0,0,0,0,0c0,0,0,0,0,0h0s0,0,0,0c0,0,0,0,0,0h0s0,0,0,0c0,0,0,0,0,0h0s0,0,0,0c0,0,0,0,0,0h0s0,0,0,0c0,0,0,0,0,0,0,0,0,0,0,0h0s0,0,0,0c0,0,0,0,0,0h0s0,0,0,0c0,0,0,0,0,0h0s0,0,0,0c0,0,0,0,0,0h0s0,0,0,0c0,0,0,0,0,0,0,0,0,0,0,0h0s0,0,0,0c0,0,0,0,0,0h0s0,0,0,0c0,0,0,0,0,0h0s0,0,0,0c0,0,0,0,0,0h0s0,0,0,0c0,0,0,0,0,0h0s0,0,0,0,0,0,0,0c0,0,0,0,0,0h0s0,0,0,0c0,0,0,0,0,0-1.8,1.7-3.2,3.9-3.4,6.6,0,0-1.6,6.5,7.9,13.8l4.7,3s0,0,0,0c0,0,0,0,0,0,0,0,0,0,0,0,0,0,0,0,0,0,0,0,0,0,0,0,0,0,0,0,0,0,0,0,0,0,0,0,0,0,0,0,0,0,0,0,0,0,0,0,0,0,0,0,0,0,0,0,0,0,0,0,0,0,0,0,0,0,0,0,0,0,0,0,0,0,0,0,0,0,0,0,0,0,0,0,0,0,0,0,0,0,0,0,0,0,0,0,0,0,0,0,0,0,0,0,0,0,0,0,0,0,0,0,0,0,0,0,0,0,0,0,0,0,0,0,0,0,0,0,0,0,0,0,0,0,0,0,0,0,0,0,0,0,0,0,0,0,0,0,0,0,0,0,0,0,0,0,0,0,0,0,0,0,0,0,0,0,0,0,0,0,0,0,0,0,0,0,0,0,0,0,0,0,0,0,0,0,0,0,0,0,0,0,0,0,0,0,0,0,0,0,0,0,0,0,0,0,0,0,0,0,0,0,0,0,0,0,0,0,0,0,0,0,0,0,0,0,0,0,0,0,0,0,0,0,0,0,0,0,0,0,0,0,0,0,0,0,0,0,0,0,0,0,0,0,0,0,0,0,7.3,7.7,5.8,18,3.6,24.4,0,0,0,0,0,0,0,0,0,0,0,0,0,0,0,0,0,0,0,0,0,0,0,0,0,0,0,0,0,0,0,0,0,0,0,0,0,0,0,0,0,0,0,0,0,0,0,0,0,0,0,0,0,0,0,0,0,0,0,0,0,0,0,0,0,0,0,0,0,0,0,0,0,0,0,0,0,0,0,0,0,0,0,0,0,0,0,0,0,0,0,0,0,0,0,0,0,0,0,0,0,0,0,0,0,0,0,0,0,0,0,0,0,0,0,0,0,0,0,0,0,0,0,0,0,0,0,0,0,0,0,0,0,0,0,0,0,0,0,0,0,0,0,0,0,0,0,0,0,0,0,0,0,0,0,0,0,0,0,0,0,0,0,0,0,0,0,0,0,0,0,0,0,0,0,0,0,0,0,0,0,0,0,0,0,0,0,0,0,0,0,0,0,0,0,0,0,0,0,0,0,0,0,0,0,0,0,0,0,0,0,0,0,0,0,0,0,0,0,0,0,0,0,0,0,0,0,0,0,0,0,0,0,0,0,0,0,0,0,0,0,0,0,0,0,0,0,0,0,0,0,0,0,0,0,0,0,0,0,0,0,0,0,0,0,0,0,0,0,0,0,0,0,0,0,0,0,0,0,0,0,0,0,0,0,0,0,0,0,0,0,0,0,0,0,0,0,0,0,0,0,0,0,0,0,0,0,0,0,0,0,0,0,0,0,0,0,0,0,0,0,0,0,0,0,0,0,0,0,0,0,0,0,0,0,0,0,0,0,0,0,0,0,0,0,0,0,0,0,0,0,0,0,0,0,0,0,0,0,0,0,0,0,0,0,0,0,0,0,0,0,0,0,0,0,0,0,0,0,0,0,0,0,0,0,0,0,0,0,0,0,0,0,0,0,0,0,0,0,0,0,0,0,0,0,0,0,0,0,0,0,0,0,0,0,0,0,0,0,0,0,0,0,0,0,0,0,0,0,0,0,0,0,0,0,0,0,0,0,0,0,0,0,0,0,0,0,0,0,0,0,0,0,0,0,0,0,0,0,0,0,0,0,0,0,0,0,0,0,0,0,0,0,0,0,0,0,0,0,0,0,0,0,0,0,0,0,0,0,0,0,0,0,0,0,0,0,0,0,0,0,0,0,0,0,0,0,0,0,0,0,0,0,0,0,0,0,0,0,0,0,0,0,0,0,0,0,0,0,0,0,0,0,0,0,0,0,0,0,0,0,0,0,0,0,0,0,0,0,0,0,0,0,0,0,0,0,0,0,0,0,0,0,0,0,0,0,0,0,0,0,0,0,0,0,0,0,0,0,0,0,0,0,0,0,0,0,0,0,0,0,0,0,0,0,0,0,0,0,0,0,0,0,0,0,0,0,0,0,0,0,0,0,0,0,0,0,0,0,0,0,0,0,0,0,0,0,0,0,0,0,0,0,0,0,0,0,0,0,0,0,0,0,0,0,0,0,0,0,0,0,0,0,0,0,0,0,0,0,0,0,0,0,0,0,0,0,0,0,0,0,0,0,0,0,0,0,0,0,0,0,0,0,0,0,0,0,0,0,0,0,0,0,0,0,0,0,0,0,0,0,0,0,0,0,0,0,0,0,0,0,0,0,0,0,0,0,0,0,0,0,0,0,0,0,0,0,0,0,0,0,0,0,0,0,0,0,0,0,0,0,0,0,0,0,0,0,0,0,0,0,0,0,0,0,0,0,0,0,0,0,0,0,0,0,0,0,0,0,0,0,0,0,0,0,0,0,0,0,0,0,0,0,0,0,0,0,0,0,0,0,0,0,0,0,0,0,0,0,0,0,0,0,0,0,0,0,0,0,0,0,0,0,0,0,0,0,0,0,0,0,0,0,0,0,0,0,0,0,0,0,0,0,0,0,0,0,0,0,0,0,0,0,0,0,0,0,0,0,0,0,0,0,0,0,0,0,0,0,0,0,0,0,0,0,0,0,0,0,0,0,0,0,0,0,0,0,0,0,0,0,0,0,0,0,0,0,0,0,0,0,0,0,0,0,0,0,0,0,0,0,0,0,0,0,0,0,0,0,0,0,0,0,0,0,0,0,0,0,0,0,0,0,0,0,0,0,0,0,0,0,0,0,0,0,0,0,0,0,0,0,0,0,0,0,0,0,0,0,0,0,0,0,0,0,0,0,0,0,0,0,0,0,0,0,0,0,0,0,0,0,0,0,0,0,0,0,0,0,0,0,0,0,0,0,0,0,0,0,0,0,0,0,0,0,0,0,0,0,0,0,0,0,0,0,0,0,0,0,0,0,0,0,0,0,0,0,0,0,0,0,0,0,0,0,0,0,0,0,0,0,0,0,0,0,0,0,0,0,0,0,0,0,0,0,0,0,0,0,0,0,0,0,0,0,0,0,0,0,0,0,0,0,0,0,0,0,0,0,0,0,0,0,0,0,0,0,0,0,0,0,0,0,0,0,0,0,0,0,0,0,0,0,0,0,0,0,0,0,0,0,0,0,0,0,0,0,0,0,0,0,0,0,0,0,0,0,0,0,0,0,0,0,0,0,0,0,0,0,0,0,0,0,0,0,0,0,0,0,0,0,0,0,0,0,0,0,0,0,0,0,0,0,0,0,0,0,0,0,0,0,0,0,0,0,0,0,0,0,0,0,0,0,0,0,0,0,0,0,0,0,0,0,0,0,0,0,0,0,0,0,0,0,0,0,0,0,0,0,0,0,0,0,0,0,0,0,0,0,0,0,0,0,0,5.3-9.3,1.6-19.5h0s0,0,0,0c0,0,0,0,0,0,0,0,0,0,0,0,0,0,0,0,0,0,0,0,0,0,0,0,0,0,0,0,0,0,0,0,0,0,0,0,0,0,0,0,0,0,0,0,0,0,0,0,0,0,0,0,0,0,0,0,0,0,0,0,0,0,0,0,0,0,0,0,0,0,0,0,0,0,0,0,0,0,0,0,0,0,0,0,0,0,0,0,0,0,0,0,0,0,0,0,0,0,0,0,0,0,0,0,0,0,0,0,0,0,0,0,0,0,0,0,0,0,0,0,0,0,0,0,0,0,0,0,0,0,0,0,0,0,0,0,0,0,0,0,0,0,0,0,0,0,0,0,0,0,0,0,0,0,0,0,0,0,0,0,0,0,0,0,0,0,0,0,0,0,0,0,0,0,0,0,0,0,0,0,0,0,0,0,0,0,0,0,0,0,0,0,0,0,0,0,0,0,0,0,0,0,0,0,0,0,0,0,0,0,0,0,0,0,0,0,0,0,0,0,0,0,0,0,0,0,0,0,0,0,0,0,0,0,0,0,0,0,0,0,0,0,0,0,0,0,0,0,0,0,0,0,0,0,0,0,0,0,0,0,0,0,0,0,0,0,0,0,0,0,0,0,0,0,0,0,0,0,0,0,0,0,0,0,0,0,0,0,0,0,0,0,0,0,0,0,0,0,0,0,0,0,0,0,0,0,0,0,0,0,0,0,0,0,0,0,0,0,0,0,0,0,0,0,0,0,0,0,0,0,0,0,0,0,0,0,0,0,0,0,0,0,0,0,0,0,0,0,0,0,0,0,0,0,0,0,0,0,0,0,0,0,0,0,0,0,0,0,0,0,0,0,0,0,0,0,0,0,0,0,0,0,0,0,0,0,0,0,0,0,0,0,0,0,0,0,0,0,0,0,0,0,0,0,0,0,0,0,0,0,0,0,0,0,0,0,0,0,0,0,0,0,0,0,0,0,0,0,0,0,0,0,0,0,0,0,0,0,0,0,0,0,0,0,0,0,0,0,0,0,0,0,0,0,0,0,0,0,0,0,0,0,0,0,0,0,0,0,0,0,0,0,0,0,0,0,0,0,0,0,0,0,0,0,0,0,0,0,0,0,0,0,0,0,0,0,0,0,0,0,0,0,0,0,0,0,0,0,0,0,0,0,0,0,0,0,0,0,0,0,0,0,0,0,0,0,0,0,0,0,0,0,0,0,0,0,0,0,0,0,0,0,0,0,0,0,0,0,0,0,0,0,0,0,0,0,0,0,0,0,0,0,0,0,0,0,0,0,0,0,0,0,0,0,0,0,0,0,0,0,0,0,0,0,0,0,0,0,0,0,0,0,0,0,0,0,0,0,0,0,0,0,0,0,0,0,0,0,0,0,0,0,0,0,0,0,0,0,0,0,0,0,0,0,0,0,0,0,0,0,0,0,0,0,0,0,0,0,0,0,0,0,0,0,0,0,0,0,0,0,0,0,0,0,0,0,0,0,0,0,0,0,0,0,0,0,0,0,0,0,0,0,0,0,0,0,0,0,0,0,0,0,0,0,0,0,0,0,0,0,0,0,0,0,0,0,0,0,0,0,0,0,0,0,0,0,0,0,0,0,0,0,0,0,0,0,0,0,0,0,0,0,0,0,0,0,0,0,0,0,0,0,0,0,0,0,0,0,0,0,0,0,0,0,0,0,0,0,0,0,0,0,0,0,0,0,0,0,0,0,0,0,0,0,0,0,0,0,0,0,0,0,0,0,0,0,0,0,0,0,0,0,0,0,0,0,0,0,0,0,0,0,0,0,0,0,0,0,0,0,0,0,0,0,0,0,0,0,0,0,0,0,0,0,0,0,0,0,0,0,0,0,0,0,0,0,0,0,0,0,0,0,0,0,0,0,0,0,0,0,0,0,0,0,0,0,0,0,0,0,0,0,0,0,0,0,0,0,0,0,0,0,0,0,0,0,0,0,0,0,0,0,0,0,0,0,0,0,0,0,0,0,0,0,0,0,0,0,0,0,0,0,0,0,0,0,0,0,0,0,0,0,0,0,0,0,0,0,0,0,0,0,0,0,0,0,0,0,0,0,0,0,0,0,0,0,0,0,0,0,0,0,0,0,0,0,0,0,0,0,0,0,0,0,0,0,0,0Z"/>
            <path class="st0" d="M559.8,232.9s0,0,0,0c0,0,0,0,0,0,0,0,0,0,0,0,0,0,0,0,0,0,0,0,0,0,0,0,0,0,0,0,0,0,0,0,0,0,0,0,0,0,0,0,0,0,0,0,0,0,0,0,0,0,0,0,0,0,0,0,0,0,0,0,0,0,0,0,0,0,0,0,0,0,0,0,0,0,0,0,0,0,0,0,0,0,0,0,0,0,0,0,0,0,0,0,0,0,0,0,0,0,0,0,0,0,0,0,0,0,0,0,0,0,0,0,0,0,0,0,0,0,0,0,0,0,0,0,0,0,0,0,0,0,0,0,0,0,0,0,0,0,0,0,0,0,0,0,0,0,0,0,0,0,0,0,0,0,0,0,0,0,0,0,0,0,0,0,0,0,0,0,0,0,0,0,0,0,0,0,0,0,0,0,0,0,0,0,0,0,0,0,0,0,0,0,0,0,0,0,0,0,0,0,0,0,0,0,0,0,0,0,0,0,0,0,0,0,0,0,0,0,0,0,0,0,0,0,0,0,0,0,0,0,0,0,0,0,0,0,0,0,0,0,0,0,0,0,0,0,0,0,0,0,0,0,0,0,0,0,0,0,0,0,0,0,0,0,0,0,0,0,0,0,0,0,0,0,0,0,0,0,0,0,0,0,0,0,0,0,0,0,0,0,0,0,0,0,0,0,0,0,0,0,0,0,0,0,0,0,0,0,0,0,0,0,0,0,0,0,0,0,0,0,0,0,0,0,0,0,0,0,0,0,0,0,0,0,0,0,0,0,0,0,0,0,0,0,0,0,0,0,0,0,0,0,0,0,0,0,0,0,0,0,0,0,0,0,0,0,0,0,0,0,0,0,0,0,0,0,0,0,0,0,0,0,0,0,0,0,0,0,0,0,0,0,0,0,0,0,0,0,0,0,0,0,0,0,0,0,0,0,0,0,0,0,0,0,0,0,0,0,0,0,0,0,0,0,0,0,0,0,0,0,0,0,0,0,0,0,0,0,0,0,0,0,0,0,0,0,0,0,0,0,0,0,0,0,0,0,0,0,0,0,0,0,0,0,0,0,0,0,0,0,0,0,0,0,0,0,0,0,0,0,0,0,0,0,0,0,0,0,0,0,0,0,0,0,0,0,0,0,0,0,0,0,0,0,0,0,0,0,0,0,0,0,0,0,0,0,0,0,0,0,0,0,0,0,0,0,0,0,0,0,0,0,0,0,0,0,0,0,0,0,0,0,0,0,0,0,0,0,0,0,0,0,0,0,0,0,0,0,0,0,0,0,0,0,0,0,0,0,0,0,0,0,0,0,0,0,0,0,0,0,0,0,0,0,0,0,0,0,0,0,0,0,0,0,0,0,0,0,0,0,0,0,0,0,0,0,0,0,0,0,0,0,0,0,0,0,0,0,0,0,0,0,0,0,0,0,0,0,0,0,0,0,0,0,0,0,0,0,0,0,0,0,0,0,0,0,0,0,0,0,0,0,0,0,0,0,0,0,0,0,0,0,0,0,0,0,0,0,0,0,0,0,0,0,0,0,0,0,0,0,0,0,0,0,0,0,0,0,0,0,0,0,0,0,0,0,0,0,0,0,0,0,0,0,0,0,0,0,0,0,0,0,0,0,0,0,0,0,0,0,0,0,0,0,0,0,0,0,0,0,0,0,0,0,0,0,0,0,0,0,0,0,0,0,0,0,0,0,0,0,0,0,0,0,0,0,0,0,0,0,0,0,0,0,0,0,0,0,0,0,0,0,0,0,0,0,0,0,0,0,0,0,0,0,0,0,0,0,0,0,0,0,0,0,0,0,0,0,0,0,0,0,0,0,0,0,0,0,0,0,0,0,0,0,0,0,0,0,0,0,0,0,0,0,0,0,0,0,0,0,0,0,0,0,0,0,0,0,0,0,0,0,0,0,0,0,0,0,0,0,0,0,0,0,0,0,0,0,0,0,0,0,0,0,0,0,0,0,0,0,0,0,0,0,0,0,0,0,0,0,0,0,0,0,0,0,0,0,0,0,0,0,0,0,0,0,0,0,0,0,0,0,0,0,0,0,0,0,0,0,0,0,0,0,0,0,0,0,0,0,0,0,0,0,0,0,0,0,0,0,0,0,0,0,0,0,0,0,0,0,0,0,0,0,0,0,0,0,0,0,0,0,0,0,0,0,0,0,0,0,0,0,0,0,0,0,0,0,0,0,0,0,0,0,0,0,0,0,0,0,0,0,0,0,0,0,0,0,0,0,0,0,0,0,0,0,0,0,0,0,0,0,0,0,0,0,0,0,0,0,0,0,0,0,0,0,0,0,0,0,0,0,0,0,0,0,0,0,0,0,0,0,0,0,0,0,0,0,0,0,0,0,0,0,0,0,0,0,0,0,0,0,0,0,0,0,0,0,0,0,0,0,0,0,0,0,0,0,0,0,0,0,0,0,0,0,0,0,0,0,0,0,0,0,0,0,0,0,0,0,0,0,0,0,0,0,0,0,0,0,0,0,0,0,0,0,0,0,0,0,0,0,0,0,0,0,0,0,0,0,0,0,0,0,0,0,0,0,0,0,0,0,0,0,0,0,0,0,0,0,0,0,0,0,0,0,0,0,0,0,0,0,0,0,0,0,0,0,0,0,0,0,0,0,0,0,0,0,0,0,0,0,0,0,0,0,0,0,0,0,0,0,0,0,0,0,0,0,0,0,0,0,0,0-1.5,2.4-3.6,5.3-6.5,8.4-3.9,3.6-7.3,5.7-8.1,6.1-8.7,5.1-17,5.8-18.9,6-11,.8-21.6-3-21.9-6,0-.2,0-.5,0-.8.8,0,3.5,0,5.6-1.9,0,0,0,0,0,0,0,0,0,0,0,0,0,0,0,0,0,0,0,0,0,0,0,0,0,0,0,0,0,0,0,0,0,0,0,0,0,0,0,0,0,0,0,0,0,0,0,0,0,0,0,0,0,0,0,0,0,0,0,0,0,0,0,0,0,0,0,0,0,0,0,0,0,0,0,0,0,0,0,0,0,0,0,0,0,0,0,0,0,0,0,0,0,0,0,0,0,0,0,0,0,0,0,0,0,0,0,0,0,0,0,0,0,0,0,0,0,0,0,0,0,0,0,0,0,0,0,0,0,0,0,0,0,0,0,0,0,0,0,0,0,0,0,0,0,0,0,0,0,0,0,0,0,0,0,0,0,0,0,0,0,0,0,0,0,0,0,0,0,0,0,0,0,0,0,0,0,0,0,0,0,0,0,0,0,0,0,0,0,0,0,0,0,0,0,0,0,0,0,0,0,0,0,0,0,0,0,0,0,0,0,0,0,0,0,0,0,0,0,0,0,0,0,0,0,0,0,0,0,0,0,0,0,0,0,0,0,0,0,0,0,0,0,0,0,0,0,0,0,0,0,0,0,0,0,0,0,0,0,0,0,0,0,0,0,0,0,0,0,0,0,0,0,0,0,0,0,0,0,0,0,0,0,0,0,0,0,0,0,0,0,0,0,0,0,0,0,0,0,0,0,0,0,0,0,0,0,0,0,0,0,0,0,0,0,0,0,0,0,0,0,0,0,0,0,0,0,0,0,0,0,0,0,0,0,0,0,0,0,0,0,0,0,0,0,0,0,0,0,0,0,0,0,0,0,0,0,0,0,0,0,0,0,0,0,0,0,0,0,0,0,0,0,0,0,0,0,0,0,0,0,0,0,0,0,0,0,0,0,0,0,0,0,0,0,0,0,0,0,0,0,0,0,0,0,0,0,0,0,0,0,0,0,0,0,0,0,0,0,0,0,0,0,0,0,0,0,0,0,0,0,0,0,0,0,0,0,0,0,0,0,0,0,0,0,0,0,0,0,0,0,0,0,0,0,0,0,0,0,0,0,0,0,0,0,0,0,0,0,0,0,0,0,0,0,0,0,0,0,0,0,0,0,0,0,0,0,0,0,0,0,0,0,0,0,0,0,0,0,0,0,0,0,0,0,0,0,0,0,0,0,0,0,0,0,0,0,0,0,0,0,0,0,0,0,0,0,0,0,0,0,0,0,0,0,0,0,0,0,0,0,0,0,0,0,0,0,0,0,0,0,0,0,0,0,0,0,0,0,0,0,0,0,0,0,0,0,0,0,0,0,0,0,0,0,0,0,0,0,0,0,0,0,0,0,0,0,0,0,0,0,0,0,0,0,0,0,0,0,0,0,0,0,0,0,0,.2-.2,1.5-1.6,1.9-3.5,0-.4,0-.8,0-.8,0-.7-.2-1.7-1.3-2.6-1.1-.8-2.3-1.3-3.5-1.3s-.9,0-1.4.2c0,0-.2,0-.3,0-.8.2-1.6.5-2.3.9,0,0,0,0,0,0-1.2.6-2.2,1.4-3.1,2.4,0,0,0,0,0,0,0,0,0,0,0,0,0,0,0,0,0,0,0,0,0,0,0,0,0,0,0,0,0,0,0,0,0,0,0,0,0,0,0,0,0,0,0,0,0,0,0,0,0,0,0,0,0,0,0,0,0,0,0,0,0,0,0,0,0,0,0,0,0,0,0,0,0,0,0,0,0,0,0,0,0,0,0,0,0,0,0,0,0,0,0,0,0,0,0,0,0,0,0,0,0,0,0,0,0,0,0,0,0,0,0,0,0,0,0,0,0,0,0,0,0,0,0,0,0,0,0,0,0,0,0,0,0,0,0,0,0,0,0,0,0,0,0,0,0,0,0,0,0,0,0,0,0,0,0,0,0,0,0,0,0,0,0,0,0,0,0,0,0,0,0,0,0,0,0,0,0,0,0,0,0,0,0,0,0,0,0,0,0,0,0,0,0,0,0,0,0,0,0,0,0,0,0,0,0,0,0,0,0,0,0,0,0,0,0,0,0,0,0,0,0,0,0,0,0,0,0,0,0,0,0,0,0,0,0,0,0,0,0,0,0,0,0,0,0,0,0,0,0,0,0,0,0,0,0,0,0,0,0,0,0,0,0,0,0,0,0,0,0,0,0,0,0,0,0,0,0,0,0,0,0,0,0,0,0,0,0,0,0,0,0,0,0,0,0,0,0,0,0,0,0,0,0,0,0,0,0,0,0,0,0,0,0,0,0,0,0,0,0,0,0,0,0,0,0,0,0,0,0,0,0,0,0,0,0,0,0,0,0,0,0,0,0,0,0,0,0,0,0,0,0,0,0,0,0,0,0,0,0,0,0,0,0,0,0,0,0,0,0,0,0,0,0,0,0,0,0,0,0,0,0,0,0,0,0,0,0,0,0,0,0,0,0,0,0,0,0,0,0,0,0,0-.6.7-1.1,1.4-1.5,2.2-1,.7-2,1.4-2.9,2.3,0,0,0,0,0,0,0,0,0,0-.1.1-1.2,1.1-2.4,2.3-3.5,3.5,0,0,0,0,0,0,0,0,0,0,0,0s0,0,0,0c0,0,0,0,0,0,0,0,0,0,0,0,0,0,0,0,0,0,0,0,0,0,0,0,0,0,0,0,0,0,0,0,0,0,0,0,0,0,0,0,0,0,0,0,0,0,0,0,0,0,0,0,0,0,0,0,0,0,0,0s0,0,0,0,0,0,0,0,0,0,0,0c0,0,0,0,0,0,0,0,0,0,0,0,0,0,0,0,0,0,0,0,0,0,0,0,0,0,0,0,0,0,0,0,0,0,0,0,0,0,0,0,0,0,0,0,0,0,0,0,0,0,0,0,0,0,0,0,0,0,0,0,0,0,0,0,0,0,0,0,0,0,0,0,0,0,0,0,0,0s0,0,0,0c0,0,0,0,0,0s0,0,0,0c0,0,0,0,0,0,0,0,0,0,0,0,0,0,0,0,0,0,0,0,0,0,0,0,0,0,0,0,0,0,0,0,0,0,0,0,0,0,0,0,0,0,0,0,0,0,0,0,0,0,0,0,0,0,0,0,0,0,0,0s0,0,0,0c0,0,0,0,0,0s0,0,0,0c0,0,0,0,0,0,0,0,0,0,0,0,0,0,0,0,0,0,0,0,0,0,0,0,0,0,0,0,0,0,0,0,0,0,0,0,0,0,0,0,0,0,0,0,0,0,0,0,0,0,0,0,0,0,0,0,0,0,0,0s0,0,0,0,0,0,0,0,0,0,0,0c0,0,0,0,0,0,0,0,0,0,0,0,0,0,0,0,0,0,0,0,0,0,0,0,0,0,0,0,0,0,0,0,0,0,0,0,0,0,0,0,0,0,0,0,0,0,0,0,0,0,0,0,0,0,0,0,0,0,0,0,0,0,0,0,0,0,0,0,0,0,0,0,0,0,0,0,0,0s0,0,0,0c0,0,0,0,0,0s0,0,0,0c0,0,0,0,0,0,0,0,0,0,0,0,0,0,0,0,0,0,0,0,0,0,0,0,0,0,0,0,0,0,0,0,0,0,0,0,0,0,0,0,0,0,0,0,0,0,0,0,0,0,0,0,0,0,0,0,0,0,0,0s0,0,0,0,0,0,0,0,0,0,0,0c0,0,0,0,0,0,0,0,0,0,0,0,0,0,0,0,0,0,0,0,0,0,0,0,0,0,0,0,0,0,0,0,0,0,0,0,0,0,0,0,0,0,0,0,0,0,0,0,0,0,0,0,0,0,0,0,0,0,0,0s0,0,0,0c-.7.7-1.4,1.5-2.1,2.3.3-.7.6-1.5.9-2.2.1-.3.3-.6.4-.8.3-.7.7-1.4,1-2.1.5-1.1,1.1-2.1,1.6-3.1.5-1,1.1-2.1,1.7-3.1.6-1.1,1-2.3,1.2-3.5h0c0-.1,0-.8,0-.8h0c0-1.8-1.1-3.5-3.6-3.5h-.2c-1,.1-2,.6-3.3,1.4-1.2.8-2.6,2-4.2,3.6,0,0,0,0-.1.1,0,0,0,0,0,0,1.1-4.4,2.8-8.7,5.2-13,2.4-4.3,5.2-8,8.2-11.3.5-.5,1-1,1.5-1.5,0,0,0,0,.1,0,5.2.8,10.5,1.6,15.7,2.3,2.9.4,5.9.5,8.9.5s.8,0,1.2,0c1.2,0,2.5,0,3.7-.1.4,0,.8,0,1.1,0,2.9-.2,5.5-1.1,7.9-2.7h0c0,0,0-.1,0-.1,0,0,0,0,0,0h0s0,0,0,0h0s0,0,0,0h0s0,0,0,0h0s0,0,0,0h0s0,0,0,0h0s0,0,0,0h0s0,0,0,0h0s0,0,0,0h0s0,0,0,0h0s0,0,0,0h0s0,0,0,0h0s0,0,0,0h0s0,0,0,0h0s0,0,0,0h0s0,0,0,0h0s0,0,0,0h0s0,0,0,0h0s0,0,0,0h0s0,0,0,0h0s0,0,0,0h0s0,0,0,0h0s0,0,0,0h0s0,0,0,0h0s0,0,0,0h0s0,0,0,0h0s0,0,0,0h0s0,0,0,0h0s0,0,0,0h0s0,0,0,0h0s0,0,0,0h0s0,0,0,0h0s0,0,0,0h0s0,0,0,0h0s0,0,0,0h0s0,0,0,0h0s0,0,0,0h0s0,0,0,0h0s0,0,0,0h0s0,0,0,0h0s0,0,0,0h0s0,0,0,0h0s0,0,0,0h0s0,0,0,0h0s0,0,0,0h0s0,0,0,0h0s0,0,0,0h0s0,0,0,0h0s0,0,0,0h0s0,0,0,0h0s0,0,0,0h0s0,0,0,0h0s0,0,0,0h0s0,0,0,0h0s0,0,0,0h0s0,0,0,0h0s0,0,0,0h0s0,0,0,0h0s0,0,0,0h0s0,0,0,0h0s0,0,0,0h0s0,0,0,0h0s0,0,0,0h0s0,0,0,0h0s0,0,0,0h0s0,0,0,0h0s0,0,0,0h0s0,0,0,0h0s0,0,0,0h0s0,0,0,0h0s0,0,0,0h0s0,0,0,0h0s0,0,0,0h0s0,0,0,0h0s0,0,0,0h0s0,0,0,0h0s0,0,0,0h0s0,0,0,0h0s0,0,0,0h0s0,0,0,0h0s0,0,0,0h0s0,0,0,0h0s0,0,0,0h0s0,0,0,0h0s0,0,0,0h0s0,0,0,0h0s0,0,0,0h0s0,0,0,0h0s0,0,0,0h0s0,0,0,0h0s0,0,0,0h0s0,0,0,0h0s0,0,0,0h0s0,0,0,0h0s0,0,0,0h0s0,0,0,0h0s0,0,0,0h0s0,0,0,0h0s0,0,0,0h0s0,0,0,0h0s0,0,0,0h0c1.6-1.4,2-3,2-4.1s-.1-1.4-.4-2.1h0c-.5-1.2-1.2-2.2-2.2-2.9-2.6-2.1-5.6-3.5-8.7-4-3-.5-5.3-.7-7-.7-2.9,0-6,.4-9.2,1.2-5.2,1.2-10.4,3.8-15.6,7.7h-.2c-3.3-.5-7.3-1.1-12.3-1.7-.2-.7-.9-1.7-2.7-2h-.4c0,0-.1,0-.1,0-.7,0-1.4.2-1.9.7,0,0,0,0,0,0,0,0,0,0,0,0,0,0,0,0,0,0,0,0,0,0,0,0,0,0,0,0,0,0,0,0,0,0,0,0,0,0,0,0,0,0,0,0,0,0,0,0,0,0,0,0,0,0,0,0,0,0,0,0,0,0,0,0,0,0,0,0,0,0,0,0,0,0,0,0,0,0,0,0,0,0,0,0,0,0,0,0,0,0,0,0,0,0,0,0,0,0,0,0,0,0,0,0,0,0,0,0,0,0,0,0,0,0,0,0,0,0,0,0,0,0,0,0,0,0,0,0,0,0,0,0,0,0,0,0,0,0,0,0,0,0,0,0,0,0,0,0,0,0,0,0,0,0,0,0,0,0,0,0,0,0,0,0,0,0,0,0,0,0,0,0,0,0,0,0,0,0,0,0,0,0,0,0,0,0,0,0,0,0,0,0,0,0,0,0,0,0,0,0,0,0,0,0,0,0,0,0,0,0,0,0,0,0,0,0,0,0,0,0,0,0,0,0,0,0,0,0-2.9-.2-5.3-.3-7.1-.3-6.5,0-13,.8-19.3,2.3-5.9,1.4-11.4,3.8-16.4,7.2-.8.5-1.5,1.1-2.1,1.8,0,0,0,0,0,0,0,0,0,0,0,0,0,0,0,0,0,0s0,0,0,0c0,0,0,0,0,0,0,0,0,0,0,0,0,0,0,0,0,0s0,0,0,0,0,0,0,0c0,0,0,0,0,0s0,0,0,0c0,0,0,0,0,0,0,0,0,0,0,0s0,0,0,0c0,0,0,0,0,0,0,0,0,0,0,0s0,0,0,0c0,0,0,0,0,0,0,0,0,0,0,0,0,0,0,0,0,0s0,0,0,0,0,0,0,0c0,0,0,0,0,0s0,0,0,0c0,0,0,0,0,0,0,0,0,0,0,0s0,0,0,0c0,0,0,0,0,0,0,0,0,0,0,0s0,0,0,0c0,0,0,0,0,0,0,0,0,0,0,0,0,0,0,0,0,0,0,0,0,0,0,0s0,0,0,0c0,0,0,0,0,0s0,0,0,0,0,0,0,0c0,0,0,0,0,0s0,0,0,0c0,0,0,0,0,0,0,0,0,0,0,0s0,0,0,0c0,0,0,0,0,0,0,0,0,0,0,0s0,0,0,0c0,0,0,0,0,0,0,0,0,0,0,0,0,0,0,0,0,0s0,0,0,0,0,0,0,0c0,0,0,0,0,0s0,0,0,0c0,0,0,0,0,0,0,0,0,0,0,0s0,0,0,0c0,0,0,0,0,0,0,0,0,0,0,0s0,0,0,0c0,0,0,0,0,0,0,0,0,0,0,0,0,0,0,0,0,0s0,0,0,0,0,0,0,0c0,0,0,0,0,0s0,0,0,0,0,0,0,0c0,0,0,0,0,0s0,0,0,0c0,0,0,0,0,0,0,0,0,0,0,0s0,0,0,0c0,0,0,0,0,0,0,0,0,0,0,0,0,0,0,0,0,0,0,0,0,0,0,0,0,0,0,0,0,0,0,0,0,0,0,0s0,0,0,0,0,0,0,0c0,0,0,0,0,0s0,0,0,0c0,0,0,0,0,0,0,0,0,0,0,0s0,0,0,0c0,0,0,0,0,0,0,0,0,0,0,0s0,0,0,0c0,0,0,0,0,0,0,0,0,0,0,0,0,0,0,0,0,0,0,0,0,0,0,0-.6.6-1.2,1.3-1.7,2-1,1.2-1.5,2.6-1.5,4.2s.7,2.5,1.9,3l.4.2h.4c.8,0,1.4-.3,1.7-.6,0,0,0,0,0,0,0,0,0,0,0,0,0,0,0,0,0,0,0,0,0,0,0,0,0,0,0,0,0,0,0,0,0,0,0,0,0,0,0,0,0,0,0,0,0,0,0,0,0,0,0,0,0,0,0,0,0,0,0,0,0,0,0,0,0,0,0,0,0,0,0,0,0,0,0,0,0,0,0,0,0,0,0,0,0,0,0,0,0,0,0,0,0,0,0,0,0,0,0,0,0,0,0,0,0,0,0,0,0,0,0,0,0,0,0,0,0,0,0,0,0,0,0,0,0,0,0,0,0,0,0,0,0,0,0,0,0,0,0,0,0,0,0,0,0,0,0,0,0,0,0,0,0,0,0,0,0,0,0,0,0,0,0,0,0,0,0,0,0,0,0,0,0,0,0,0,0,0,0,0,0,0,0,0,0,0,0,0,0,0,0,0,0,0,0,0,0,0,0,0,0,0,0,0,0,0,0,0,0,0,0,0,0,0,0,0,0,0,0,0,0,0,0,0,0,0,0,0,0,0,0,0,0,0,0,0,0,0,0,0,0,0,0,0,0,0,0,0,0,0,0,0,0,0,0,0,0,0,0,0,0,0,0,0,0,0,0,0,0,0,0,0,0,0,0,0,0,0,0,0,0,0,0,0,0,0,0,0,0,0,0,0,0,0,0,0,0,0,0,0,0,0,0,0,0,0,0,0,0,0,0,0,0,0,0,0,0,0,0,0,0,0,0,0,0,0,0,0,0,0,0,0,0,0,0,0,0,0,0,0,0,0,0,0,0,0,0,0,0,0,0,0,0,0,0,0,0,0,0,0,0,0,0,0,0,0,0,0,0,0,0,0,0,0,0,0,0,0,0,0,0,0,0,0,0,0,0,0,0,0,0,0,0,0,0,0,0,0,0,0,0,0,0,0,0,0,0,0,0,0,0,0,0,0,0,0,0,0,0,0,0,0,0,0,0,0,0,0,0,0,0,0,0,0,0,0,0,0,0,0,0,0,0,0,0,0,0,0,0,0,0,0,0,0,0,0,0,0,0,0,0,0,0,0,0,0,0,0,0,0,0,0,0,0,0,0,0,0,0,0,0,0,0,0,0,0,0,0,0,0,0,0,0,0,0,0,0,0,0,0,0,0,0,0,0,0,0,0,0,0,0,0,0,0,0,0,0,0,0,0,0,0,0,0,0,0,0,0,0,0,0,0,0,0,0,0,0,0,0,0,0,0,0,0,0,0,0,0,0,0,0,0,0,0,0,0,0,0,0,0,0,0,0,0,0,0,0,0,0,0,0,0,0,0,0,0,0,0,0,0,0,0,0,0,0,0,0,0,0,0,0,0,0,0,0,0,0,0,0,0,.1-.1.2-.2.3-.3.3-.4.4-.8.4-1.3v-.4c0-.4.1-.7.4-1.1h0c.2-.3.4-.5.5-.8,0,0,0,0,0,0,4.3-3.1,9.6-5.3,15.5-6.8,5.9-1.3,11.9-2,17.9-2s1.7,0,2.6,0c-4.3,5.9-8.3,12.8-11.9,20.4-1.5,3.1-3,6.3-4.4,9.5-1.4,3.2-2.6,6.6-3.6,9.9-1.1,3.4-1.6,6.1-1.6,8.4s0,1.1,0,1.6c0,1.7.6,3.3,1.5,4.7.7,1,1.7,1.6,3,1.6h.5c.6-.2,1-.5,1.3-.9,0,0,0,0,0,0s0,0,0,0c0,0,0,0,0,0,0,0,0,0,0,0,0,0,0,0,0,0,0,0,0,0,0,0,0,0,0,0,0,0,0,0,0,0,0,0s0,0,0,0,0,0,0,0c0,0,0,0,0,0s0,0,0,0,0,0,0,0c0,0,0,0,0,0s0,0,0,0c0,0,0,0,0,0,0,0,0,0,0,0,0,0,0,0,0,0,0,0,0,0,0,0,0,0,0,0,0,0,0,0,0,0,0,0,0,0,0,0,0,0,0,0,0,0,0,0,0,0,0,0,0,0s0,0,0,0,0,0,0,0c0,0,0,0,0,0s0,0,0,0c0,0,0,0,0,0,0,0,0,0,0,0s0,0,0,0c0,0,0,0,0,0,0,0,0,0,0,0,0,0,0,0,0,0,0,0,0,0,0,0,0,0,0,0,0,0,0,0,0,0,0,0s0,0,0,0,0,0,0,0c0,0,0,0,0,0s0,0,0,0c0,0,0,0,0,0,0,0,0,0,0,0s0,0,0,0c0,0,0,0,0,0,0,0,0,0,0,0,0,0,0,0,0,0,0,0,0,0,0,0,0,0,0,0,0,0,0,0,0,0,0,0s0,0,0,0,0,0,0,0c0,0,0,0,0,0s0,0,0,0,0,0,0,0c0,0,0,0,0,0s0,0,0,0,0,0,0,0c0,0,0,0,0,0s0,0,0,0c0,0,0,0,0,0,0,0,0,0,0,0,0,0,0,0,0,0,0,0,0,0,0,0,0,0,0,0,0,0,0,0,0,0,0,0s0,0,0,0,0,0,0,0c0,0,0,0,0,0s0,0,0,0c0,0,0,0,0,0,0,0,0,0,0,0s0,0,0,0c0,0,0,0,0,0,0,0,0,0,0,0,0,0,0,0,0,0,0,0,0,0,0,0,0,0,0,0,0,0,0,0,0,0,0,0s0,0,0,0,0,0,0,0c0,0,0,0,0,0s0,0,0,0,0,0,0,0c0,0,0,0,0,0s0,0,0,0c0,0,0,0,0,0,0,0,0,0,0,0,0,0,0,0,0,0,0,0,0,0,0,0,0,0,0,0,0,0,0,0,0,0,0,0,0,0,0,0,0,0,0,0,0,0,0,0,0,0,0,0,0,0s0,0,0,0,0,0,0,0c0,0,0,0,0,0s0,0,0,0,0,0,0,0c.3-.4.5-.9.5-1.5s-.2-1.2-.8-1.7c-.2-1-.2-1.9-.2-2.9,0-1.8.3-3.5.8-5.2,4.1-12.9,11.1-26.7,20.8-40.9,1.9.2,3.8.4,5.7.8l2.9.4c-3.8,3.8-7.3,8.5-10.4,14.1-4,7.1-6.2,13.8-6.7,20.1h0v.3c0,2.2,1.4,3.6,3.6,3.6s2.9-.7,4.1-2.2l1.2-1.1c-1.3,2.3-2.3,4.7-3,7.1-.3,1-.5,2.1-.5,3.2s0,1.2.2,1.8c.4,2,1.9,3.2,4,3.2s2.6-.4,3.6-1.3c.9-.6,1.7-1.4,2.5-2.2,0,0,0,0,0,0s0,0,0,0c0,0,0,0,0,0,0,0,0,0,0,0,0,0,0,0,0,0,0,0,0,0,0,0,0,0,0,0,0,0,0,0,0,0,0,0,0,0,0,0,0,0,0,0,0,0,0,0,0,0,0,0,0,0,0,0,0,0,0,0,0,0,0,0,0,0,0,0,0,0,0,0,0,0,0,0,0,0,0,0,0,0,0,0,0,0,0,0,0,0,0,0,0,0,0,0,0,0,0,0,0,0,0,0,0,0,0,0,0,0,0,0,0,0,0,0,0,0,0,0,0,0,0,0,0,0,0,0,0,0,0,0,0,0,0,0,0,0,0,0,0,0,0,0,0,0,0,0,0,0,0,0,0,0,0,0,0,0,0,0,0,0,0,0,0,0,0,0,0,0,0,0,0,0,0,0,0,0,0,0,0,0,0,0,0,0,0,0,0,0,0,0,0,0,0,0,0,0,0,0,0,0,0,0,0,0,0,0,0,0,0,0,0,0,0,0,0,0,0,0,0,0,0,0,0,0,0,0,0,0,0,0,0,0,0,0,0,0,0,0,0,0,0,0,0,0,0,0,0,0,0,0,0,0,0,0,0,0,0,0,0,0,0,0,0,0,0,0,0,0,0,0,0,0,0,0,0,0,0,0,0,0,0,0,0,0,0,0,0,0,0,0,0,0,0,0,0,0,0,0,0,0,0,0,0,0,0,0,0,0,0,0,0,0,0,0,0,0,0,0,0,0,0,0,0,0,0,0,0,0,0,0,0,0,0,0,0,0,0,0,0,0,0,0,0,0,0,0,0,0,0,0,0,0,0,0,0,0,0,0,0,0,0,0,0,0,0,0,0,0,0,0,0,0,0,0,0,0,0,0,0,0,0,0,0,0,0,0,0,0,0,0,0,0,0,0,0,0,0,0,0,0,0,0,0,0,0,0,0,0,0,0,0,0,0,0,0,0,0,0,0,0,0,0,0,0,0,0,0,0,0,0,0,0,0,0,0,0,0,0,0,0,0,0,0,0,0,0,0,0,0,0,0,0,0,0,0,0,0,0,0,0,0,0,0,0,0,0,0,0,0,0,0,0,0,0,0,0,0,0,0,0,0,0,0,0,0,0,0,0,0,0,0,0,0,0,0,0,0,0,0,0,0,0,0,0,0,0,0,0,0,0,0,0,0,0,0,0,0,0,0,0,0,0,0,0,0,0,0,0,0,0,0,0,0,0,0,0,0,0,0,0,0,0,0,0,0,0,0,0,0,0,0,0,0,0,0,0,0,0,0,0,0,0,0,0,0,0,0,0,0,0,0,0,0,0,0,0,0,0,0,0,0,0,0,0,0,0,0,0,0,0,0,0,0,0,0,0,0,0,0,0,0,0,0,0,0,0,0,0,0,0,0,0,0,0,0,0,0,0,0,0,0,0,0,0,0,0,0,0,0,0,0,0,0,0,0,0,0,0,0,0,0,0,0,0,0,0,0,0,0,0,0,0,0,0,0,0,0,0,0,0,0,0,0,0,0,0,0,0,0,0,0,0,0,0,0,0,0,0,0,0,0,0,0,0,0,0,0,0,0,0,0,0,0,0,0,0,0,0,0,0,0,0,0,0,0,0,0,0,0,0,0,0,0,0,0,0,0,0,0,0,0,0,0,0,0,0,0,0,0,0,0,0,0,0,0,0,0,0,0,0,0,0,0,0,0,0,0,0,0,0,0,0,0,0,0,0,0,0,0,0,0,0,0,0,0,0,0,0,0,0,0,0,0,0,0,0,0,0,0,0,0,0,0,0,0,0,0,0,0,0,0,0,0,0,0,0,0,0,0,0,0,0,0,0,0,0,0,0,0,0,0,0,0,0,0,0,0,0,0,0,0,0,0,0,0,0,0,0,0,0,0,0,0,0,0,0,0,0,0,0,0,0,0,0,0,0,0,0,0,0,0,0,0,0,0,0,0,0,0,0,0,0,0,0,0,0,0,0,0,0,0,0,0,0,0,0,0,0,0,0,0,0,0,0,0,0,0,0,0,0,0,0,0,0,0,0,0,0,0,0,0,0,0,0,0,0,0,0,0,0,0,0,0,0,0,0,0,0,0,0,0,0,0,0,0,0,0,0,0,0,0,0,0,0,0,0,0,0,0,0,0,0,0,0,0,0,0,0,0,0,0,0,0,0,0,0,0,0,0,0,0,0,0,0,0,0,0,0,0,0,0,0,0,0,0,0,0,0,0,0,0,0,0,0,0,0,0,0,0,0,0,0,0,0,0,0,0,0,0,0,0,0,0,0,0,0,0,0,0,0,0,0,0,0,0,0,0,0,0,0,0,0,0,0,0,0,0,0,0,0,0,0,0,0,0,0,0,0,0,0,0,0,0,0,0,0,0,0,0,0,0,0,0,0,0,0,0,0,0,0,0,0,0,0,0,0,0,0,0,0,0,0,0,0,0,0,0,0,0,0,0,0,0,0,0,0,0,0,0,0,0,0,0,0,0,0,0,0,0,0,0,0,0,0,0,0,0,0,0,0,0,0,0,0,0,0,0,0,0,0,0,0,0,0,0,0,0,0,0,0,0,0,0,0,0,0,0,0,0,0,0,0,0,0,0,0,0,0,0,0,0,0,0,0,0,0,0,0,0,0,0,0,0,0,0,0,0,0,0,0,0,0,0,0,0,0,0,0,0,0,0,0,0,0,0,0,0,0,0,0,0,0,0,0,0,0,0,0,1.5-1.5,3-3,4.5-4.6.7-.7,1.4-1.3,2.1-1.9.1.3.3.6.5.9,2.5,4.2,9.3,6.3,9.3,6.3,4.4,1.4,11.4,2.9,19.9,2,4.5-.5,12.2-2,19.9-7,2.3-1.5,4.7-3,6.7-5.2,0,0,0,0,0,0,0,0,0,0,0,0,0,0,0,0,0,0,0,0,0,0,0,0,0,0,0,0,0,0,0,0,0,0,0,0,0,0,0,0,0,0,0,0,0,0,0,0,0,0,0,0,0,0,0,0,0,0,0,0,0,0,0,0,0,0,0,0,0,0,0,0,0,0,0,0,0,0,0,0,0,0,0,0,0,0,0,0,0,0,0,0,0,0,0,0,0,0,0,0,0,0,0,0,0,0,0,0,0,0,0,0,0,0,0,0,0,0,0,0,0,0,0,0,0,0,0,0,0,0,0,0,0,0,0,0,0,0,0,0,0,0,0,0,0,0,0,0,0,0,0,0,0,0,0,0,0,0,0,0,0,0,0,0,0,0,0,0s0,0,0,0c0,0,0,0,0,0,0,0,0,0,0,0,0,0,0,0,0,0,0,0,0,0,0,0,0,0,0,0,0,0,0,0,0,0,0,0,0,0,0,0,0,0,0,0,0,0,0,0,0,0,0,0,0,0,0,0,0,0,0,0,0,0,0,0,0,0,0,0,0,0,0,0s0,0,0,0c0,0,0,0,0,0,0,0,0,0,0,0,0,0,0,0,0,0,0,0,0,0,0,0,0,0,0,0,0,0,0,0,0,0,0,0,0,0,0,0,0,0,0,0,0,0,0,0,0,0,0,0,0,0,0,0,0,0,0,0,0,0,0,0,0,0,0,0,0,0,0,0,0,0,0,0,0,0,0,0,0,0,0,0,0,0,0,0,0,0,0,0,0,0,0,0,0,0,0,0,0,0,0,0,0,0,0,0,0,0,0,0,0,0,0,0,0,0,0,0,0,0,0,0,0,0,0,0,0,0,0,0,0,0,0,0,0,0,0,0,0,0,0,0,0,0,0,0,0,0,0,0,0,0,0,0,0,0,0,0,0,0,0,0,0,0,0,0s0,0,0,0c0,0,0,0,0,0,0,0,0,0,0,0,0,0,0,0,0,0,0,0,0,0,0,0,0,0,0,0,0,0,0,0,0,0,0,0,0,0,0,0,0,0,0,0,0,0,0,0,0,0,0,0,0,0,0,0,0,0,0,0,0,0,0,0,0,0,0,0,0,0,0,0s0,0,0,0c0,0,0,0,0,0,0,0,0,0,0,0,0,0,0,0,0,0,0,0,0,0,0,0,0,0,0,0,0,0,0,0,0,0,0,0,0,0,0,0,0,0,0,0,0,0,0,0,0,0,0,0,0,0,0,0,0,0,0,0,0,0,0,0,0,0,0,0,0,0,0,0,0,0,0,0,0,0,0,0,0,0,0,0,0,0,0,0,0,0,0,0,0,0,0,0,1.2-1.3,2.4-2.9,3.3-4.8,1.7-3.5,2-6.9,2-9,0,0,0,0,0,0,0,0,0,0,0,0ZM526.3,210.7c-1.1,0-2.3,0-3.4,0-3.7,0-7.5-.3-11.3-.8-2.6-.4-4.6-.6-6.3-.9,1.8-.9,3.4-1.6,4.8-1.9,3.4-.9,6.2-1.3,8.3-1.3s2.1,0,3,.2c2.9.5,5.3,1.3,7.1,2.2h.1c.7.4,1.2.8,1.7,1.4,0,0,0,0,0,0-1.3.5-2.7.8-4.1.9Z"/>
            <path class="st0" d="M594.3,180.9s0,0,0,0h0s0,0,0,0h0s0,0,0,0h0s0,0,0,0h0s0,0,0,0h0s0,0,0,0h0s0,0,0,0h0s0,0,0,0h0s0,0,0,0h0s0,0,0,0h0s0,0,0,0h0s0,0,0,0h0s0,0,0,0h0s0,0,0,0h0s0,0,0,0h0s0,0,0,0h0s0,0,0,0h0s0,0,0,0h0s0,0,0,0h0s0,0,0,0h0s0,0,0,0h0s0,0,0,0h0s0,0,0,0h0s0,0,0,0h0s0,0,0,0h0s0,0,0,0h0s0,0,0,0h0s0,0,0,0h0s0,0,0,0h0s0,0,0,0h0s0,0,0,0h0s0,0,0,0h0s0,0,0,0h0s0,0,0,0h0s0,0,0,0h0s0,0,0,0h0s0,0,0,0h0s0,0,0,0h0s0,0,0,0h0s0,0,0,0h0s0,0,0,0h0s0,0,0,0h0s0,0,0,0h0s0,0,0,0h0s0,0,0,0h0s0,0,0,0h0s0,0,0,0h0s0,0,0,0h0s0,0,0,0h0s0,0,0,0h0s0,0,0,0h0s0,0,0,0h0s0,0,0,0h0s0,0,0,0h0s0,0,0,0h0s0,0,0,0h0s0,0,0,0h0s0,0,0,0h0s0,0,0,0h0s0,0,0,0h0s0,0,0,0h0s0,0,0,0h0s0,0,0,0h0s0,0,0,0h0s0,0,0,0h0s0,0,0,0h0s0,0,0,0h0s0,0,0,0h0s0,0,0,0h0s0,0,0,0h0s0,0,0,0h0s0,0,0,0h0s0,0,0,0h0s0,0,0,0h0s0,0,0,0h0s0,0,0,0h0s0,0,0,0h0s0,0,0,0h0s0,0,0,0h0s0,0,0,0h0s0,0,0,0h0s0,0,0,0h0s0,0,0,0h0s0,0,0,0h0s0,0,0,0h0s0,0,0,0h0s0,0,0,0h0s0,0,0,0h0s0,0,0,0h0s0,0,0,0h0s0,0,0,0h0s0,0,0,0h0s0,0,0,0h0s0,0,0,0h0s0,0,0,0h0s0,0,0,0h0s0,0,0,0h0s0,0,0,0h0s0,0,0,0h0s0,0,0,0h0c-3.7-3.4-4.6-12.5-4.6-12.5-1.4.8-2.5,1.6-3.5,2.4,0,0,0,0,0,0,0,0,0,0,0,0,0,0,0,0,0,0,0,0,0,0,0,0,0,0,0,0,0,0,0,0,0,0,0,0,0,0,0,0,0,0,0,0,0,0,0,0,0,0,0,0,0,0,0,0,0,0,0,0,0,0,0,0,0,0,0,0,0,0,0,0,0,0,0,0,0,0,0,0,0,0,0,0,0,0,0,0,0,0,0,0,0,0,0,0,0,0,0,0,0,0,0,0,0,0,0,0,0,0,0,0,0,0,0,0,0,0,0,0,0,0,0,0,0,0,0,0,0,0,0,0,0,0,0,0,0,0,0,0,0,0,0,0,0,0,0,0,0,0,0,0,0,0,0,0,0,0,0,0,0,0,0,0,0,0,0,0,0,0,0,0,0,0,0,0,0,0,0,0,0,0,0,0,0,0,0,0,0,0,0,0,0,0,0,0,0,0,0,0,0,0,0,0,0,0,0,0,0,0,0,0,0,0,0,0,0,0,0,0,0,0,0,0,0,0,0,0,0,0,0,0,0,0,0,0,0,0,0,0,0,0,0,0,0,0,0,0,0,0,0,0,0,0,0,0,0,0,0,0,0,0,0,0,0,0,0,0,0,0,0,0,0,0,0,0,0,0,0,0,0,0,0,0,0,0,0,0,0,0,0,0,0,0,0,0,0,0,0,0,0,0,0,0,0,0,0,0,0,0,0,0,0,0,0,0,0,0,0,0,0,0,0,0,0,0,0,0,0,0,0,0,0,0,0,0,0,0,0,0,0,0,0,0,0,0,0,0,0,0,0,0,0,0,0,0,0,0,0,0,0,0,0,0,0,0,0,0,0,0,0,0,0,0,0,0,0,0,0,0,0,0,0,0,0,0,0,0,0,0,0,0,0,0,0,0,0,0,0,0,0,0,0,0,0,0,0,0,0,0,0,0,0,0,0,0,0,0,0,0,0,0,0,0,0,0,0,0,0,0,0,0,0,0,0,0,0,0,0,0,0,0,0,0,0,0,0,0,0,0,0,0,0,0,0,0,0,0,0,0,0,0,0,0,0,0,0,0,0,0,0,0,0,0,0,0,0,0,0,0,0,0,0,0,0,0,0,0,0,0,0,0,0,0,0,0,0,0,0,0,0,0,0,0,0,0,0,0,0,0,0,0,0,0,0,0,0,0,0,0,0,0,0,0,0,0,0,0,0,0,0,0,0,0,0,0,0,0,0,0,0,0,0,0,0,0,0,0,0,0,0,0,0,0,0,0,0,0,0,0,0,0,0,0,0,0,0,0,0,0,0,0,0,0,0,0,0,0,0,0,0,0,0,0,0,0,0,0,0,0,0,0,0,0,0,0,0,0,0,0-3.6,3.2-3.8,6.6-3.3,8.9-6.4-5.3-10-13.6-10-13.6-.8.7-1.5,1.4-2.2,2.1,0,0,0,0,0,0,0,0,0,0,0,0s0,0,0,0c0,0,0,0,0,0,0,0,0,0,0,0s0,0,0,0c0,0,0,0,0,0s0,0,0,0c0,0,0,0,0,0,0,0,0,0,0,0s0,0,0,0c0,0,0,0,0,0s0,0,0,0c0,0,0,0,0,0,0,0,0,0,0,0s0,0,0,0c0,0,0,0,0,0,0,0,0,0,0,0s0,0,0,0c0,0,0,0,0,0s0,0,0,0c0,0,0,0,0,0,0,0,0,0,0,0s0,0,0,0c0,0,0,0,0,0,0,0,0,0,0,0s0,0,0,0c0,0,0,0,0,0s0,0,0,0c0,0,0,0,0,0,0,0,0,0,0,0s0,0,0,0c0,0,0,0,0,0,0,0,0,0,0,0s0,0,0,0c0,0,0,0,0,0s0,0,0,0c0,0,0,0,0,0,0,0,0,0,0,0s0,0,0,0c0,0,0,0,0,0s0,0,0,0c0,0,0,0,0,0,0,0,0,0,0,0s0,0,0,0c0,0,0,0,0,0,0,0,0,0,0,0s0,0,0,0c0,0,0,0,0,0s0,0,0,0c0,0,0,0,0,0,0,0,0,0,0,0s0,0,0,0c0,0,0,0,0,0s0,0,0,0c0,0,0,0,0,0,0,0,0,0,0,0s0,0,0,0c0,0,0,0,0,0,0,0,0,0,0,0s0,0,0,0c0,0,0,0,0,0s0,0,0,0c0,0,0,0,0,0,0,0,0,0,0,0s0,0,0,0c0,0,0,0,0,0,0,0,0,0,0,0s0,0,0,0c0,0,0,0,0,0s0,0,0,0c0,0,0,0,0,0,0,0,0,0,0,0s0,0,0,0c0,0,0,0,0,0,0,0,0,0,0,0s0,0,0,0c0,0,0,0,0,0s0,0,0,0c0,0,0,0,0,0,0,0,0,0,0,0s0,0,0,0c0,0,0,0,0,0s0,0,0,0c0,0,0,0,0,0,0,0,0,0,0,0s0,0,0,0c0,0,0,0,0,0,0,0,0,0,0,0s0,0,0,0c0,0,0,0,0,0s0,0,0,0c0,0,0,0,0,0,0,0,0,0,0,0s0,0,0,0c0,0,0,0,0,0,0,0,0,0,0,0s0,0,0,0c0,0,0,0,0,0s0,0,0,0c-10.3,10.7-7.5,25.7-7.5,25.7-10.4,18.5-1.1,33.4-1.1,33.4,0,0,0,0,0-.1,0,0,0,0,0,0,0,0,0,0,0-.1,0,0,0,0,0,0,0,0,0,0,0-.1,0,0,0,0,0,0,0,0,0,0,0-.1,0,0,0,0,0,0,0,0,0,0,0-.1,0,0,0,0,0,0,0,0,0,0,0-.1,0,0,0,0,0,0,0,0,0,0,0-.1,0,0,0,0,0,0,0,0,0,0,0-.1,0,0,0,0,0,0,0,0,0,0,0-.1,0,0,0,0,0,0,0,0,0,0,0-.1,0,0,0,0,0,0,0,0,0,0,0-.1,0,0,0,0,0,0,0,0,0,0,0-.1,0,0,0,0,0,0,0,0,0,0,0-.1,0,0,0,0,0,0,0,0,0,0,0-.1,0,0,0,0,0,0,0,0,0,0,0-.1,0,0,0,0,0,0,0,0,0,0,0-.1,0,0,0,0,0,0,0,0,0,0,0-.1,0,0,0,0,0,0,0,0,0,0,0-.1,0,0,0,0,0,0,0,0,0,0,0-.1,0,0,0,0,0,0,0,0,0,0,0-.1,0,0,0,0,0,0,0,0,0,0,0-.1,0,0,0,0,0,0,0,0,0,0,0-.1,0,0,0,0,0,0,0,0,0,0,0-.1,0,0,0,0,0,0,0,0,0,0,0-.1,0,0,0,0,0,0,0,0,0,0,0-.1,0,0,0,0,0,0,0,0,0,0,0-.1,0,0,0,0,0,0,0,0,0,0,0-.1,0,0,0,0,0,0,0,0,0,0,0-.1,0,0,0,0,0,0,0,0,0,0,0-.1,0,0,0,0,0,0,0,0,0,0,0-.1,0,0,0,0,0,0,0,0,0,0,0-.1,0,0,0,0,0,0,0,0,0,0,0-.1,0,0,0,0,0,0,0,0,0,0,0-.1,0,0,0,0,0,0,0,0,0,0,0-.1,0,0,0,0,0,0,0,0,0,0,0-.1,0,0,0,0,0,0,0,0,0,0,0-.1,0,0,0,0,0,0,0,0,0,0,0-.1,0,0,0,0,0,0,0,0,0,0,0-.1,0,0,0,0,0,0,0,0,0,0,0-.1,0,0,0,0,0,0,0,0,0,0,0-.1,0,0,0,0,0,0,0,0,0,0,0-.1,0,0,0,0,0,0,0,0,0,0,0-.1,0,0,0,0,0,0,0,0,0,0,0-.1,0,0,0,0,0,0,0,0,0,0,0-.1,0,0,0,0,0,0,0,0,0,0,0-.1,0,0,0,0,0,0,0,0,0,0,0-.1,0,0,0,0,0,0,0,0,0,0,0-.1,0,0,0,0,0,0,0,0,0,0,0-.1,0,0,0,0,0,0,0,0,0,0,0-.1,0,0,0,0,0,0,0,0,0,0,0-.1,0,0,0,0,0,0,0,0,0,0,0-.1,0,0,0,0,0,0,0,0,0,0,0-.1,0,0,0,0,0,0,0,0,0,0,0-.1,0,0,0,0,0,0,0,0,0,0,0-.1,0,0,0,0,0,0,0,0,0,0,0-.1,0,0,0,0,0,0,0,0,0,0,0-.1,0,0,0,0,0,0,0,0,0,0,0-.1,0,0,0,0,0,0,0,0,0,0,0-.1,0,0,0,0,0,0,0,0,0,0,0-.1,0,0,0,0,0,0,0,0,0,0,0-.1,0,0,0,0,0,0,0,0,0,0,0-.1,0,0,0,0,0,0,0,0,0,0,0-.1,0,0,0,0,0,0,0,0,0,0,0-.1,0,0,0,0,0,0,0,0,0,0,0-.1,0,0,0,0,0,0,0,0,0,0,0-.1,0,0,0,0,0,0,0,0,0,0,0-.1,0,0,0,0,0,0,0,0,0,0,0-.1,0,0,0,0,0,0,0,0,0,0,0-.1,0,0,0,0,0,0,0,0,0,0,0-.1,0,0,0,0,0,0,0,0,0,0,0-.1,0,0,0,0,0,0,0,0,0,0,0-.1,0,0,0,0,0,0,0,0,0,0,0-.1,0,0,0,0,0,0,0,0,0,0,0-.1,0,0,0,0,0,0,0,0,0,0,0-.1,0,0,0,0,0,0,0,0,0,0,0-.1,0,0,0,0,0,0,0,0,0,0,0-.1,0,0,0,0,0,0,0,0,0,0,0-.1,0,0,0,0,0,0,0,0,0,0,0-.1,0,0,0,0,0,0,0,0,0,0,0-.1,0,0,0,0,0,0,0,0,0,0,0-.1,0,0,0,0,0,0,0,0,0,0,0-.1,0,0,0,0,0,0,0,0,0,0,0-.1,0,0,0,0,0,0,0,0,0,0,0-.1,0,0,0,0,0,0,0,0,0,0,0-.1,0,0,0,0,0,0,0,0,0,0,0-.1,0,0,0,0,0,0,0,0,0,0,0-.1,0,0,0,0,0,0,0,0,0,0,0-.1,0,0,0,0,0,0,0,0,0,0,0-.1,0,0,0,0,0,0,0,0,0,0,0-.1,0,0,0,0,0,0,0,0,0,0,0-.1,0,0,0,0,0,0,0,0,0,0,0-.1,0,0,0,0,0,0,0,0,0,0,0-.1,0,0,0,0,0,0,0,0,0,0,0-.1,0,0,0,0,0,0,0,0,0,0,0-.1,0,0,0,0,0,0,0,0,0,0,0-.1,0,0,0,0,0,0,0,0,0,0,0-.1,0,0,0,0,0,0,0,0,0,0,0-.1,0,0,0,0,0,0,0,0,0,0,0-.1,0,0,0,0,0,0,0,0,0,0,0-.1,0,0,0,0,0,0,0,0,0,0,0-.1,0,0,0,0,0,0,0,0,0,0,0-.1,0,0,0,0,0,0-5.3-18.1,4.9-33.2,4.9-33.2-2.9-10.1.3-17.4,2.7-21.1,3.8,9.1,13.3,10.9,13.3,10.9,0,0,0,0,0,0,0,0,0,0,0,0,0,0,0,0,0,0,0,0,0,0,0,0,0,0,0,0,0,0,0,0,0,0,0,0,0,0,0,0,0,0,0,0,0,0,0,0,0,0,0,0,0,0,0,0,0,0,0,0,0,0,0,0,0,0,0,0,0,0,0,0,0,0,0,0,0,0,0,0,0,0,0,0,0,0,0,0,0,0,0,0,0,0,0,0,0,0,0,0,0,0,0,0,0,0,0,0,0,0,0,0,0,0,0,0,0,0,0,0,0,0,0,0,0,0,0,0,0,0,0,0,0,0,0,0,0,0,0,0,0,0,0,0,0,0,0,0,0,0,0,0,0,0,0,0,0,0,0,0,0,0,0,0,0,0,0,0,0,0,0,0,0,0,0,0,0,0,0,0,0,0,0,0,0,0,0,0,0,0,0,0,0,0,0,0,0,0,0,0,0,0,0,0,0,0,0,0,0,0,0,0,0,0,0,0,0,0,0,0,0,0,0,0,0,0,0,0,0,0,0,0,0,0,0,0,0,0,0,0,0,0,0,0,0,0,0,0,0,0,0,0,0,0,0,0,0,0,0,0,0,0,0,0,0,0,0,0,0,0,0,0,0,0,0,0,0,0,0,0,0,0,0,0,0,0,0,0,0,0,0,0,0,0,0,0,0,0,0,0,0,0,0,0,0,0,0,0,0,0,0,0,0,0,0,0,0,0,0,0,0,0,0,0,0,0,0,0,0,0,0,0,0,0,0,0,0,0,0,0,0,0,0,0,0,0,0,0,0,0,0,0,0,0,0,0,0,0,0,0,0,0,0,0,0,0,0,0,0,0,0,0,0,0,0,0,0,0,0,0,0,0,0,0,0,0,0,0,0,0,0,0,0,0,0,0,0,0,0,0,0,0,0,0,0,0,0,0,0,0,0,0,0,0,0,0,0,0,0,0,0,0,0,0,0,0,0,0,0,0,0,0,0,0,0,0,0,0,0,0,0,0,0,0,0,0,0,0,0,0,0,0,0,0,0,0,0,0,0,0,0,0,0,0,0,0,0,0,0,0,0,0,0,0,0,0,0,0,0,0,0,0,0,0,0,0,0,0,0,0,0,0,0,0,0,0,0,0,0,0,0,0,0,0,0,0,0,0,0,0,0,0,0,0,0,0,0,0,0,0,0,0,0,0,0,0,0,0,0,0,0,0,0,0,0,0,0,0,0,0,0,0,0,0,0,0,0,0,0,0,0,0,0,0,0,0,0,0,0,0,0,0,0,0,0,0,0,0,0,0,0,0,0,0,0,0,0,0,0,0,0,0,0,0,0,0,0,0,0,0,0,0,0,0,0,0,0,0,0,0,0,0,0,0,0,0,0,0,0,0,0,0,0,0,0,0,0,0,0,0,0,0,0,0,0,0,0,0,0,0,0,0,0,0,0,0,0,0,0,0,0,0,0,0,0,0,0,0,0,0,0,0,0,0,0,0,0,0,0,0,0,0,0,0,0,0,0,0,0,0,0,0,0,0,0,0,0,0,0,0,0,0,0,0,0,0,0,0,0,0,0,0,0,0,0,0,0,0,0,0,0,0,0,0,0,0,0,0,0,0,0,0,0,0,0,0,0,0,0,0,0,0,0,0,0,0,0,0,0,0,0,0,0,0,0,0,0,0,0,0,0,0,0,0,0,0,0,0,0,0,0,0,0,0,0,0,0,0,0,0,0,0,0,0,0,0,0,0,0,0,0,0,0,0,0,0,0,0,0,0,0,0,0,0,0,0,0,0,0,0,0,0,0,0,0,0,0,0,0,0,0,0,0,0,0,0,0,0,0,0,0,0,0,0,0,0,0,0,0,0,0,0,0,0,0,0,0,0,0,0,0,0,0,0,0,0,0,0,0,0,0,0,0,0,0,0,0,0,0,0,0,0,0,0,0,0,0,0,0,0,0,0,0,0,0,0,0,0,0,0,0,0,0,0,0,0,0,0,0,0,0,0,0,0,0,0,0,0,0,0,0,0,0,0,0,0,0,0,0,0,0,0,0,0,0,0,0,0,0,0,0,0,0,0,0,0,0,0,0,0,0,0,0,0,0,0,0,0,0,0,0,0,0,0,0,0,0,0,0,0,0,0,0,0,0,0,0,0,0,0,0,0,0,0,0,0,0,0,0,0,0,0,0,0,0,0,0,0,0,0,0,0,0,0,0,0,0,0,0,0,0,0,0,0,0,0,0,0,0,0,0,0,0,0,0,0,0,0,0,0,0,0,0,0,0,0,0,0,0,0,0,0,0,0,0,0,0,0,0,0,0,0,0,0,0,0,0,0,0,0,0,0,0,0,0,0,0,0,0,0,0,0,0,0,0,0,0,0,0,0,0,0,0,0,0,0,0,0,0,0,0,0,0,0,0,0,0,0,0,0,0,0,0,0,0,0,0,0,0,0,0,0,0,0,0,0,0,0,0,0,0,0,0,0,0,0,0,0,0,0,0,0,0,0,0,0,0,0,0,0,0,0,0,0,0,0,0,0,0,0,0,0,0,0,0,0,0,0,0,0,0,0,0,0,0,0,0,0,0,0,0,0,0,0,0,0,0,0,0,0,0,0,0,0,0,0,0,0,0,0,0,0,0,0,0,0,0,0,0,0,0,0,0,0,0,0,0,0,0,0,0,0,0,0,0,0,0,0,0,0,0,0,0,0,0,0,0,0,0,0,0,0,0,0,0,0,0,0,0,0,0,0,0,0,0,0-.1-.1,0,0,0,0,0,0,0,0,0,0,0,0,0,0,0,0,0,0,0,0,0,0,0,0,0,0,0,0,0,0,0,0,0,0,0,0,0,0,0,0,0,0,0,0,0,0,0,0,0,0,0,0,0,0,0,0,0,0,0,0,0,0,0,0,0,0,0,0,0,0,0,0,0,0,0,0,0,0,0,0,0,0,0,0,0,0,0,0,0,0,0,0,0,0,0,0,0,0,0,0,0,0,0,0,0,0,0,0,0,0,0,0,0,0,0,0,0,0,0,0,0,0,0,0,0,0,0,0,0,0,0,0,0,0,0,0,0,0,0,0,0,0,0,0,0,0,0,0,0,0,0,0,0,0,0,0,0,0,0,0,0,0,0,0,0,0,0,0,0,0,0,0,0,0,0,0,0,0,0,0,0,0,0,0,0,0,0,0,0,0,0,0,0,0,0,0,0,0,0,0,0,0,0,0,0,0,0,0,0,0,0,0,0,0,0,0,0,0,0,0,0,0,0,0,0,0,0,0,0,0,0,0,0,0,0,0,0,0,0,0,0,0,0,0,0,0,0,0,0,0,0,0,0,0,0,0,0,0,0,0,0,0,0,0,0,0,0,0,0,0,0,0,0,0,0,0,0,0,0,0,0,0,0,0,0,0,0,0,0,0,0,0,0,0,0,0,0,0,0,0,0,0,0,0,0,0,0,0,0,0,0,0,0,0,0,0,0,0,0,0,0,0,0,0,0,0,0,0,0,0,0,0,0,0,0,0,0,0,0,0,0,0,0,0,0,0,0,0,0,0,0,0,0,0,0,0,0,0,0,0,0,0,0,0,0,0,0,0,0,0,0,0,0,0,0,0,0,0,0,0,0,0,0,0,0,0,0,0,0,0,0,0,0,0,0,0,0,0,0,0,0,0,0,0,0,0,0,0,0,0,0,0,0,0,0,0,0,0,0,0,0,0,0,0,0,0,0,0,0,0,0,0,0,0,0,0,0,0,0,0,0,0,0,0,0,0,0,0,0,0,0,0,0,0,0,0,0,0,0,0,0,0,0,0,0,0,0,0,0,0,0,0,0,0,0,0,0,0,0,0,0,0,0,0,0,0,0,0,0,0,0,0,0,0,0,0,0,0,0,0,0,0,0,0,0,0,0,0,0,0,0,0,0,0,0,0,0,0,0,0,0,0,0,0,0,0,0,0,0,0,0,0,0,0,0,0,0,0,0,0,0,0,0,0,0,0,0,0,0,0,0,0,0,0,0,0,0,0,0,0,0,0,0,0,0,0,0,0,0,0,0,0,0,0,0,0,0,0,0,0,0,0,0,0,0,0,0,0,0,0,0,0,0,0,0,0,0,0,0,0,0,0,0,0,0,0,0,0,0,0,0,0,0,0,0,0,0,0,0,0,0,0,0,0,0,0,0,0,0,0,0,0,0,0,0,0,0,0,0,0,0,0,0,0,0,0,0,0,0,0,0,0,0,0,0,0,0,0,0,0,0,0,0,0,0,0,0,0,0,0,0,0-.2-3.7.7-6.2,1.7-7.8.6,4.1,3.3,8.5,3.3,8.5h2.8c0,0,0,0,0,0h0Z"/>
            <path class="st0" d="M643.2,199.3s0,0,0,0c0,0,0,0,0,0,0,0,0,0,0,0,0,0,0,0,0,0,0,0,0,0,0,0,0,0,0,0,0,0,0,0,0,0,0,0,0,0,0,0,0,0,0,0,0,0,0,0,0,0,0,0,0,0,0,0,0,0,0,0,0,0,0,0,0,0,0,0,0,0,0,0,0,0,0,0,0,0,0,0,0,0,0,0,0,0,0,0,0,0,0,0,0,0,0,0,0,0,0,0,0,0,0,0,0,0,0,0,0,0,0,0,0,0,0,0,0,0,0,0,0,0,0,0,0,0,0,0,0,0,0,0,0,0,0,0,0,0,0,0,0,0,0,0,0,0,0,0,0,0,0,0,0,0,0,0,0,0,0,0,0,0,0,0,0,0,0,0,0,0,0,0,0,0,0,0,0,0,0,0,0,0,0,0,0,0,0,0,0,0,0,0,0,0,0,0,0,0,0,0,0,0,0,0,0,0,0,0,0,0,0,0,0,0,0,0,0,0,0,0,0,0,0,0,0,0,0,0,0,0,0,0,0,0,0,0,0,0,0,0,0,0,0,0,0,0,0,0,0,0,0,0,0,0,0,0,0,0,0,0,0,0,0,0,0,0,0,0,0,0,0,0,0,0,0,0,0,0,0,0,0,0,0,0,0,0,0,0,0,0,0,0,0,0,0,0,0,0,0,0,0,0,0,0,0,0,0,0,0,0,0,0,0,0,0,0,0,0,0,0,0,0,0,0,0,0,0,0,0,0,0,0,0,0,0,0,0,0,0,0,0,0,0,0,0,0,0,0,0,0,0,0,0,0,0,0,0,0,0,0,0,0,0,0,0,0,0,0,0,0,0,0,0,0,0,0,0,0,0,0,0,0,0,0,0,0,0,0,0,0,0,0,0,0,0,0,0,0,0,0,0,0,0,0,0,0,0,0,0,0,0,0,0,0,0,0,0,0,0,0,0,0,0,0,0,0,0,0,0,0,0,0,0,0,0,0,0,0,0,0,0,0,0,0,0,0,0,0,0,0,0,0,0,0,0,0,0,0,0,0,0,0,0,0,0,0,0,0,0,0,0,0,0,0,0,0,0,0,0,0,0,0,0,0,0,0,0,0,0,0,0,0,0,0,0,0,0,0,0,0,0,0,0,0,0,0,0,0,0,0,0,0,0,0,0,0,0,0,0,0,0,0,0,0,0,0,0,0,0,0,0,0,0,0,0,0,0,0,0,0,0,0,0,0,0,0,0,0,0,0,0,0,0,0,0,0,0,0,0,0,0,0,0,0,0,0,0,0,0,0,0,0,0,0,0,0,0,0,0,0,0,0,0,0,0,0,0,0,0,0,0,0,0,0,.1,0,.2-.2.2-.4.2-1.5-.8-7.2-6.4-4.4,0,0,0,0-.1,0,0,0,0,0,0,0,0,0,0,0,0,0,0,0,0,0,0,0,0,0,0,0,0,0,0,0,0,0,0,0,0,0,0,0,0,0,0,0,0,0,0,0,0,0,0,0,0,0,0,0,0,0,0,0,0,0,0,0,0,0,0,0,0,0,0,0,0,0,0,0,0,0,0,0,0,0,0,0,0,0,0,0,0,0,0,0,0,0,0,0,0,0,0,0,0,0,0,0,0,0,0,0,0,0,0,0,0,0,0,0,0,0,0,0,0,0,0,0,0,0,0,0,0,0,0,0,0,0,0,0,0,0,0,0,0,0,0,0,0,0,0,0,0,0,0,0,0,0,0,0,0,0,0,0,0,0,0,0,0,0,0,0,0,0,0,0,0,0,0,0,0,0,0,0,0,0,0,0,0,0,0,0,0,0,0,0,0,0,0,0,0,0,0,0,0,0,0,0,0,0,0,0,0,0,0,0,0,0,0,0,0,0,0,0,0,0,0,0,0,0,0,0,0,0,0,0,0,0,0,0,0,0,0,0,0,0,0,0,0,0,0,0,0,0,0,0,0,0,0,0,0,0,0,0,0,0,0,0,0,0,0,0,0,0,0,0,0,0,0,0,0,0,0,0,0,0,0,0,0,0,0,0,0,0,0,0,0,0,0,0,0,0,0,0,0,0,0,0,0,0,0,0,0,0,0,0,0,0,0,0,0,0,0,0,0,0,0,0,0,0,0,0,0,0,0,0,0,0,0,0,0,0,0,0,0,0,0,0,0,0,0,0,0,0,0,0,0,0,0,0,0,0,0,0,0,0,0,0,0,0,0,0,0,0,0,0,0,0,0,0,0,0,0,0,0,0,0,0,0,0,0,0,0,0,0,0,0,0,0,0,0,0,0,0,0,0,0,0,0,0,0,0,0,0,0,0,0,0,0,0,0,0,0,0,0,0,0,0,0,0,0,0,0,0,0,0,0,0,0,0,0,0,0,0,0,0,0,0,0,0,0,0,0,0,0,0,0,0,0,0,0,0,0,0,0,0,0,0,0,0,0,0,0,0,0,0,0,0,0,0,0,0,0,0,0,0,0,0,0,0,0,0,0,0,0,0,0,0,0,0,0,0,0,0,0,0,0,0,0,0,0,0,0,0,0,0,0,0,0,0,0,0,0,0,0,0,0,0,0,0,0,0,0,0,0,0,0,0,0,0,0,0,0,0,0,0,0,0,0,0,0,0,0,0,0,0,0,0,0,0,0,0,0,0,0,0,0,0,0,0,0,0,0,0,0,0,0,0,0,0,0,0,0,0,0,0,0,0,0,0,0,0,0,0,0,0,0,0,0,0,0,0,0,0,0,0,0,0,0,0-.2.1-.4.6.9,2.1,1.5,1.7,4.5,3.3,5.4,2.6Z"/>
            <path class="st0" d="M634.4,195.3s0,0,0,0c0,0,0,0,0,0,0,0,0,0,0,0,0,0,0,0,0,0,0,0,0,0,0,0,0,0,0,0,0,0,0,0,0,0,0,0,0,0,0,0,0,0,0,0,0,0,0,0,0,0,0,0,0,0,0,0,0,0,0,0,0,0,0,0,0,0,0,0,0,0,0,0,0,0,0,0,0,0,0,0,0,0,0,0,0,0,0,0,0,0,0,0,0,0,0,0,0,0,0,0,0,0,0,0,0,0,0,0,0,0,0,0,0,0,0,0,0,0,0,0,0,0,0,0,0,0,0,0,0,0,0,0,0,0,0,0,0,0,0,0,0,0,0,0,0,0,0,0,0,0,0,0,0,0,0,0,0,0,0,0,0,0,0,0,0,0,0,0,0,0,0,0,0,0,0,0,0,0,0,0,0,0,0,0,0,0,0,0,0,0,0,0,0,0,0,0,0,0,0,0,0,0,0,0,0,0,0,0,0,0,0,0,0,0,0,0,0,0,0,0,0,0,0,0,0,0,0,0,0,0,0,0,0,0,0,0,0,0,0,0,0,0,0,0,0,0,0,0,0,0,0,0,0,0,0,0,0,0,0,0,0,0,0,0,0,0,0,0,0,0,0,0,0,0,0,0,0,0,0,0,0,0,0,0,0,0,0,0,0,0,0,0,0,0,0,0,0,0,0,0,0,0,0,0,0,0,0,0,0,0,0,0,0,0,0,0,0,0,0,0,0,0,0,0,0,0,0,0,0,0,0,0,0,0,0,0,0,0,0,0,0,0,0,0,0,0,0,0,0,0,0,0,0,0,0,0,0,0,0,0,0,0,0,0,0,0,0,0,0,0,0,0,0,0,0,0,0,0,0,0,0,0,0,0,0,0,0,0,0,0,0,0,0,0,0,0,0,0,0,0,0,0,0,0,0,0,0,0,0,0,0,0,0,0,0,0,0,0,0,0,0,0,0,0,0,0,0,0,0,0,0,0,0,0,0,0,0,0,0,0,0,0,0,0,0,0,0,0,0,0,0,0,0,0,0,0,0,0,0,0,0,0,0,0,0,0,0,0,0,0,0,0,0,0,0,0,0,0,0,0,0,0,0,0,0,0,0,0,0,0,0,0,0,0,0,0,0,0,0,0,0,0,0,0,0,0,0,0,0,0,0,0,0,0,0,0,0,0,0,0,0,0,0,0,0,0,0,0,0,0,0,0,0,0,0,0,0,0,0,0,0,0,0,0,0,0,0,0,0,0,0,0,0,0,0,0,0,0,0,0,0,0,0,0,0,0,0,0,0,0,0,0,0,0,0,0,0,0,0,0,0,0,0,0,0,0,0,0,0,0,0,0,0,0,0,0,0,0,0,0,0,0,0,0,0,0,0,0,0,0,0,0,0,0,0,0,0,0,0,0,0,0,0,0,0,0,0,0,0,0,0,0,0,0,0,0,0,0,0,0,0,0,0,0,0,0,0,0,0,0,0,0,0,0,0,0,0,0,0,0,0,0,0,0,0,0,0,0,0,0,0,0,0,0,0,0,0,0,0,0,0,0,0,0,0,0,0,0,0,0,0,0,0,0,0,0,0,0,0,0,0,0,0,0,0,0,0,0,0,0,0,0,0,0,0,0,0,0,0,0,0,0,0,0,0,0,0,0,0,0,0,0,0,0,0,0,0,0,0,0,0,0,0,0,0,0,0,0,0,0,0,0,0,0,0,0,0,0,0,0,0,0,0,0,0,0,0,0,0,0,0,0,0,0,0,0,0,0,0,0,0,0,0,0,0,0,0,0,0,0,0,0,0,0,0,0,0,0,0,0,0,0,0,0,0,0,0,0,0,0,0,0,0,0,0,0,0,0,0,0,0,0,0,0,0,0,0,0,0,0,0,0,0,0,0,0,0,0,0,0,0,0,0,0,0,0,0,0,0,0,0,0,0,0,0,0,0,0,0,0,0,0,0,0,0,0,0,0,0,0,0,0,0,0,0,0,0,0,0,0,0,0,0,0,0,0,0,0,0,0,0,0,0,0,0,0,0,0,0,0,0,0,0,0,0,0,0,0,0,0,0,0,0,0,0,0,0,0,0,0,0,0,0,0,0,0,0,0,0,0,0,0,0,0,0,0,0,0,0,0,0,0,0,0,0,0,0,0,0,0,0,0,0,0,0,0,0,0,0,0,0,0,0,0,0,0,0,0,0,0,0,0,0,0,0,0,0,0,0,0,0,0,0,0,0,0,0,0,0,0,0,0,0,0,0,0,0,0,0,0,0,0,0,0,0,0,0,0,0,0,0,0,0,0,0,0,0,0,0,0,0,0,0,0,0,0,0,0,0,0,0,0,0,0,0,0,0,0,0,0,0,0,0,0,0,0,0,0,0,0,0,0,0,0,0,0,0,0,0,0,0,0,0,0,0,0,0,0,0,0,0,0,0,0,0,0,0,0,0,0,0,0,0,0,0,0,0,0,0,0,0,0,0,0,0,0,0,0,0,0,0,0,0,0,0,0,0,0,0,0,0,0,0,0,0,0,0,0,0,0,0,0,0,0,0,0,0,0,0,0,0,0,0,0,0,0,0,0,0,0,0,0,0,0,0,0,0,0,0,0,0,0,0,0,0,0,0,0,0,0,0,0,0,0,0,0,0,0,0,0,0,0,0,0,0,0,0,0,0,0,0,0,0,0,0,0,0,0,0,0,0,0,0,0,0,0,0,0,0,0,0,0,0,0,0,0,0,0-7.8,2.2-10.1-2.8-.9-1.9-2.5-4.4-4.7-6.4,0,0,0,0,0,0,0,0,0,0,0,.1,0,0,0,0,0-.1,0,0,0,0,0,.1,0,0,0,0,0-.1,0,0,0,0,0,.1,0,0,0,0,0-.1,0,0,0,0,0,.1,0,0,0,0,0-.1,0,0,0,0,0,.1,0,0,0,0,0-.1,0,0,0,0,0,.1,0,0,0,0,0-.1,0,0,0,0,0,.1,0,0,0,0,0-.1,0,0,0,0,0,.1,0,0,0,0,0-.1,0,0,0,0,0,.1,0,0,0,0,0-.1,0,0,0,0,0,.1,0,0,0,0,0-.1,0,0,0,0,0,.1,0,0,0,0,0-.1,0,0,0,0,0,.1,0,0,0,0,0-.1,0,0,0,0,0,.1,0,0,0,0,0-.1,0,0,0,0,0,.1,0,0,0,0,0-.1,0,0,0,0,0,.1,0,0,0,0,0-.1,0,0,0,0,0,.1,0,0,0,0,0-.1,0,0,0,0,0,.1,0,0,0,0,0-.1,0,0,0,0,0,.1,0,0,0,0,0-.1,0,0,0,0,0,.1,0,0,0,0,0-.1,0,0,0,0,0,.1,0,0,0,0,0-.1,0,0,0,0,0,.1,0,0,0,0,0-.1,0,0,0,0,0,.1,0,0,0,0,0-.1,0,0,0,0,0,.1,0,0,0,0,0-.1,0,0,0,0,0,.1,0,0,0,0,0-.1,0,0,0,0,0,.1,0,0,0,0,0-.1,0,0,0,0,0,.1,0,0,0,0,0-.1,0,0,0,0,0,.1,0,0,0,0,0-.1,0,0,0,0,0,.1,0,0,0,0,0-.1,0,0,0,0,0,.1,0,0,0,0,0-.1,0,0,0,0,0,.1,0,0,0,0,0-.1,0,0,0,0,0,.1,0,0,0,0,0-.1,0,0,0,0,0,.1,0,0,0,0,0-.1,0,0,0,0,0,.1,0,0,0,0,0-.1,0,0,0,0,0,.1,0,0,0,0,0-.1,0,0,0,0,0,.1,0,0,0,0,0-.1,0,0,0,0,0,.1,0,0,0,0,0-.1,0,0,0,0,0,.1,0,0,0,0,0-.1,0,0,0,0,0,.1,0,0,0,0,0-.1,0,0,0,0,0,.1,0,0,0,0,0-.1,0,0,0,0,0,.1,0,0,0,0,0-.1,0,0,0,0,0,.1,0,0,0,0,0-.1,0,0,0,0,0,.1,0,0,0,0,0-.1,0,0,0,0,0,.1,0,0,0,0,0-.1,0,0,0,0,0,.1,0,0,0,0,0-.1,0,0,0,0,0,.1,0,0-9.2-18.5-26.4-4.2,0,0,0,0,0,0,0,0,0,0,0,0,0,0,0,0,0,0,0,0,0,0,0,0,0,0,0,0,0,0,0,0,0,0,0,0,0,0,0,0,0,0,0,0,0,0,0,0,0,0,0,0,0,0,0,0,0,0,0,0,0,0,0,0,0,0,0,0,0,0,0,0,0,0,0,0,0,0,0,0,0,0,0,0,0,0,0,0,0,0,0,0,0,0,0,0,0,0,0,0,0,0,0,0,0,0,0,0,0,0,0,0,0,0,0,0,0,0,0,0,0,0,0,0,0,0,0,0,0,0,0,0,0,0,0,0,0,0,0,0,0,0,0,0,0,0,0,0,0,0,0,0,0,0,0,0,0,0,0,0,0,0,0,0,0,0,0,0,0,0,0,0,0,0,0,0,0,0,0,0,0,0,0,0,0,0,0,0,0,0,0,0,0,0,0,0,0,0,0,0,0,0,0,0,0,0,0,0,0,0,0,0,0,0,0,0,0,0,0,0,0,0,0,0,0,0,0,0,0,0,0,0,0,0,0,0,0,0,0,0,0,0,0,0,0,0,0,0,0,0,0,0,0,0,0,0,0,0,0,0,0,0,0,0,0,0,0,0,0,0,0,0,0,0,0,0,0,0,0,0,0,0,0,0,0,0,0,0,0,0,0,0,0,0,0,0,0,0,0,0,0,0,0,0,0,0,0,0,0,0,0,0,0,0,0,0,0,0,0,0,0,0,0,0,0,0,0,0,0,0,0,0,0,0,0,0,0,0,0,0,0,0,0,0,0,0,0,0,0,0,0,0,0,0,0,0,0,0,0,0,0,0,0,0,0,0,0,0,0,0,0,0,0,0,0,0,0,0,0,0,0,0,0,0,0,0,0,0,0,0,0,0,0,0,0,0,0,0,0,0,0,0,0,0,0,0,0,0,0,0,0,0,0,0,0,0,0,0,0,0,0,0,0,0,0,0,0,0,0,0,0,0,0,0,0,0,0,0,0,0,0,0,0,0,0,0,0,0,0,0,0,0,0,0,0,0,0,0,0,0,0,0,0,0,0,0,0,0,0,0,0,0,0,0,0,0,0,0,0,0,0,0,0,0,0,0,0,0,0,0,0,0,0,0,0,0,0,0,0,0,0,0,0,0,0,0,0,0,0,0,0,0,0,0,0,0,0,0,0,0,0,0,0,0,0,0,0,0,0,0,0,0,0,0,0,0,0,0,0,0,0,0,0,0,0,0,0,0,0,0,0,0,0,0,0,0,0,0,0,0,0,0,0,0,0,0,0,0,0,0,0,0,0,0,0,0,0,0,0,0,0,0,0,0,0,0,0,0,0,0,0,0,0,0,0,0,0,0,0,0,0,0,0,0,0,0,0,0,0,0,0,0,0,0,0,0,0,0,0,0,0,0,0,0,0,0,0,0,0,0,0,0,0,0,0,0,0,0,0,0,0,0,0,0,0,0,0,0,0,0,0,0,0,0,0,0,0,0,0,0,0,0,0,0,0,0,0,0,0,0,0,0,0,0,0,0,0,0,0,0,0,0,0,0,0,0,0,0,0,0,0,0,0,0,0,0,0,0,0,0,0,0,0,0,0,0,0,0,0,0,0,0,0,0,0,0,0,0,0,0,0,0,0,0,0,0,0,0,0,0,0,0,0,0,0,0,0,0,0,0,0,0,0,0,0,0,0,0,0,0,0,0,0,0,0,0,0,0,0,0,0,0,0,0,0,0,0,0,0,0,0,0,0,0,0,0,0,0,0,0,0,0,0,0,0,0,0,0,0,0,0,0,0,0,0,0,0,0,0,0,0,0,0,0,0,0,0,0,0,0,0,0,0,0,0,0,0,0,0,0,0,0,0,0,0,0,0,0,0,0,0,0,0,0,0,0,0,0,0,0,0,0,0,0,0,0,0,0,0,0,0,0,0,0,0,0,0,0,0,0,0,0,0,0,0,0,0,0,0,0,0,0,0,0,0,0,0,0,0,0,0,0,0,0,0,0,0,0,0,0,0,0,0,0,0,0,0,0,0,0,0,0,0,0,0,0,0,0,0,0,0,0,0,0,0,0,0,0,0,0,0,0,0,0,0,0,0,0,0,0,0,0,0,0,0,0,0,0,0,0,0,0,0,0,0,0,0,0,0,0,0,0,0,0,0,0,0,0,0,0,0,0,0,0,0,0,0,0,0,0,0,0,0,0,0,0,0,0,0,0,0,0,0,0,0,0,0,0,0,0,0,0,0,0,0,0,0,0,0,0,0,0,0,0,0,0,0,0,0,0,0,0,0,0,0,0,0,0,0,0,0,0,0,0,0,0,0,0,0,0,0,0,0,0,0,0,0,0,0,0,0,0,0,0,0,0,0,0,0,0,0,0,0,0,0,0,0,0,0,0,0,0,0,0,0,0,0,0,0,0,0,0,0,0,0,0,0,0,0,0,0,0,0,0,0,0,0,0,0,0,0,0,0,0,0,0,0,0,0,0,0,0,0,0,0,0,0,0,0,0,0,0,0,0,0,0,0,0,0,0,0,0,0,0,0,0,0,0,0,0,0,0,0,0,0,0,0,0,0,0,0,0,0,0,0,0,0,0,0,0,0,0,0,0,0,0,0,0,0,0,0,0,0,0,0,0,0,0,0,0,0,0,0,0,0,0,0,0,0,0,0,0,0,0,0,0,0,0,0,0,0,0,0,0,0,0,0,0,0,0,0,0,0,0,0,0,0,0,0,0,0,0,0,0,10.5-5,19.4-1.3-2.2-.4-4.7-.4-7.5.2,0,0,0,0,.1,0,0,0,0,0-.1,0,0,0,0,0,.1,0,0,0,0,0-.1,0,0,0,0,0,.1,0,0,0,0,0-.1,0,0,0,0,0,.1,0,0,0,0,0-.1,0,0,0,0,0,.1,0,0,0,0,0-.1,0,0,0,0,0,.1,0,0,0,0,0-.1,0,0,0,0,0,.1,0,0,0,0,0-.1,0,0,0,0,0,.1,0,0,0,0,0-.1,0,0,0,0,0,.1,0,0,0,0,0-.1,0,0,0,0,0,.1,0,0,0,0,0-.1,0,0,0,0,0,.1,0,0,0,0,0-.1,0,0,0,0,0,.1,0,0,0,0,0-.1,0,0,0,0,0,.1,0,0,0,0,0-.1,0,0,0,0,0,.1,0,0,0,0,0-.1,0,0,0,0,0,.1,0,0,0,0,0-.1,0,0,0,0,0,.1,0,0,0,0,0-.1,0,0,0,0,0,.1,0,0,0,0,0-.1,0,0,0,0,0,.1,0,0,0,0,0-.1,0,0,0,0,0,.1,0,0,0,0,0-.1,0,0,0,0,0,.1,0,0,0,0,0-.1,0,0,0,0,0,.1,0,0,0,0,0-.1,0,0,0,0,0,.1,0,0,0,0,0-.1,0,0,0,0,0,.1,0,0,0,0,0-.1,0,0,0,0,0,.1,0,0,0,0,0-.1,0,0,0,0,0,.1,0,0,0,0,0-.1,0,0,0,0,0,.1,0,0,0,0,0-.1,0,0,0,0,0,.1,0,0,0,0,0-.1,0,0,0,0,0,.1,0,0,0,0,0-.1,0,0,0,0,0,.1,0,0,0,0,0-.1,0,0,0,0,0,.1,0,0,0,0,0-.1,0,0,0,0,0,.1,0,0,0,0,0-.1,0,0,0,0,0,.1,0,0,0,0,0-.1,0,0,0,0,0,.1,0,0,0,0,0-.1,0,0,0,0,0,.1,0,0,0,0,0-.1,0,0,0,0,0,.1,0,0,0,0,0-.1,0,0,0,0,0,.1,0,0,0,0,0-.1,0,0,0,0,0,.1,0,0,0,0,0-.1,0,0,0,0,0,.1,0,0,0,0,0-.1,0,0,0,0,0,.1,0,0,0,0,0-.1,0,0,0,0,0,.1,0,0,0,0,0-.1,0,0,0,0,0,.1,0,0,0,0,0-.1,0,0,0,0,0,.1,0,0,0,0,0-.1,0,0,0,0,0,.1,0,0,0,0,0-.1,0,0,0,0,0,.1,0,0,0,0,0-.1,0,0,0,0,0,.1,0,0,0,0,0-.1,0,0,0,0,0,.1,0,0,0,0,0-.1,0,0,0,0,0,.1,0,0,0,0,0-.1,0,0,0,0,0,.1,0,0,0,0,0-.1,0,0,0,0,0,.1,0,0,0,0,0-.1,0,0,0,0,0,.1,0,0,0,0,0-.1,0,0,0,0,0,.1,0,0,0,0,0-.1,0,0,0,0,0,.1,0,0,0,0,0-.1,0,0,0,0,0,.1,0,0,0,0,0-.1,0,0,0,0,0,.1,0,0,0,0,0-.1,0,0,0,0,0,.1,0,0,0,0,0-.1,0,0,0,0,0,.1,0,0,0,0,0-.1,0,0,0,0,0,.1,0,0,0,0,0-.1,0,0,0,0,0,.1,0,0,0,0,0-.1,0,0,0,0,0,.1,0,0,0,0,0-.1,0,0,0,0,0,.1,0,0,0,0,0-.1,0,0,0,0,0,.1,0,0,0,0,0-.1,0,0,0,0,0,.1,0,0,0,0,0-.1,0,0,0,0,0,.1,0,0,0,0,0-.1,0,0,0,0,0,.1,0,0,0,0,0-.1,0,0,0,0,0,.1,0,0,0,0,0-.1,0,0,0,0,0,.1,0,0,0,0,0-.1,0,0,0,0,0,.1,0,0,0,0,0-.1,0,0,0,0,0,.1,0,0,0,0,0-.1,0,0,0,0,0,.1,0,0,0,0,0-.1,0,0,0,0,0,.1,0,0,0,0,0-.1,0,0,0,0,0,.1,0,0,0,0,0-.1,0,0,0,0,0,.1,0,0,0,0,0-.1,0,0,0,0,0,.1,0,0,0,0,0-.1,0,0,0,0,0,.1,0,0,0,0,0-.1,0,0,0,0,0,.1,0,0,0,0,0-.1,0,0,0,0,0,.1,0,0,0,0,0-.1,0,0,0,0,0,.1,0,0,0,0,0-.1,0,0,0,0,0,.1,0,0,0,0,0-.1,0,0,0,0,0,.1,0,0,0,0,0-.1,0,0,0,0,0,.1,0,0,0,0,0-.1,0,0,0,0,0,.1,0,0,0,0,0-.1,0,0,0,0,0,.1,0,0,0,0,0-.1,0,0,0,0,0,.1,0,0,0,0,0-.1,0,0,0,0,0,.1,0,0,0,0,0-.1,0,0,0,0,0,.1,0,0,0,0,0-.1,0,0,0,0,0,.1,0,0,0,0,0-.1,0,0,0,0,0,.1,0,0,0,0,0-.1,0,0,0,0,0,.1,0,0,0,0,0-.1,0,0,0,0,0,.1,0,0,0,0,0-.1,0,0,0,0,0,.1,0,0,0,0,0-.1,0,0,0,0,0,.1,0,0,0,0,0-.1,0,0,0,0,0,.1,0,0,0,0,0-.1,0,0,0,0,0,.1,0,0,0,0,0-.1,0,0,0,0,0,.1,0,0,0,0,0-.1,0,0,0,0,0,.1,0,0,0,0,0-.1,0,0,0,0,0,.1,0,0,0,0,0-.1,0,0,0,0,0,.1,0,0,0,0,0-.1,0,0,0,0,0,.1,0,0,0,0,0-.1,0,0,0,0,0,.1,0,0,0,0,0-.1,0,0,0,0,0,.1,0,0,0,0,0-.1,0,0,0,0,0,.1,0,0,0,0,0-.1,0,0,0,12.6-.3,18.2,11.4,0,0,0,0,0,0,.2.4,3.4,6.2,12.3,1.8Z"/>
          </g>
          <g>
            <path class="st0" d="M637.1,194.5s-.9.3.8,2.2c1.6,1.9,5.4,3.7,5.6,2.2.2-1.5-.8-7.2-6.4-4.4ZM644.6,247.5c2.5.5,3,.8,3.1.9-2-3.6-8.2-7.5-8.2-7.5,0,0,0,0,0,0,0,0-.1-.1-.2-.2-6-6.2-8.2-7.6-7.3-13.2.5-2.9,2-4.3,7.8-8.1,8.4-5.5,4.9-16.4,4.9-16.4-.6,9.3-4.6,12.7-7.5,14.6-2.9,1.9-8.2,5.2-8.7,10.5,0,0-1.6,6.5,7.9,13.8l5.7,3.7c-.3,0-.9,0-1.5-.1,7.3,7.7,5.8,18,3.6,24.4,0,0,6.3-11,.4-22.3ZM614.8,195.6s-2.7.8-2.2,4.8c0,0,4.4,1.4,4.7-.2,0,0,0-3.7-2.5-4.6ZM624.3,192.5c-2.2-4.9-8.9-13-20.5-10.4,0,0,12.6-.3,18.2,11.4,0,0,0,0,0,0,.2.4,3.4,6.2,12.3,1.8,0,0-7.8,2.2-10.1-2.8ZM620.6,185.1s-9.2-18.5-26.4-4.2c0,0,17.3-8.3,26.4,4.2ZM589.7,168.4c-11.1,6.1-5.5,14.3-5.6,14-.5-7.7,4.1-10.3,4.1-10.3.6,4.2,3.3,8.6,3.3,8.6h2.8c-3.7-3.3-4.6-12.4-4.6-12.4ZM570.6,168.4c-12.9,10.7-9.8,27.8-9.8,27.8-10.4,18.5-1.1,33.4-1.1,33.4-5.3-18.1,4.9-33.2,4.9-33.2-4.3-15,4.9-23.9,4.9-23.9,3.7,9.5,13.5,11.3,13.5,11.3-7.9-5-12.4-15.4-12.4-15.4Z"/>
            <g>
              <path class="st0" d="M454.5,268.4c-1.3,0-2.3-.6-3-1.6-.9-1.4-1.5-3-1.5-4.7,0-.5,0-1.1,0-1.6,0-2.3.5-5.1,1.6-8.4,1-3.3,2.2-6.7,3.6-9.9,1.4-3.2,2.9-6.4,4.4-9.5,3.6-7.6,7.6-14.4,11.9-20.4-.9,0-1.7,0-2.6,0-6,0-12,.7-17.9,2-6,1.4-11.2,3.7-15.5,6.8-1.2.8-2.2,1.9-3,3.1h0c-.3.4-.4.8-.4,1.2v.4c0,.5-.1.9-.4,1.3-.3.4-.9.9-1.9.9h-.4l-.4-.2c-1.2-.5-1.9-1.6-1.9-3s.5-3,1.5-4.2c1-1.3,2.2-2.5,3.6-3.5,5-3.4,10.5-5.9,16.4-7.2,6.3-1.5,12.8-2.3,19.3-2.3s4.3,0,7.2.3c0,0,.1-.1.2-.2h0c0-.1,0-.2,0-.2.6-.7,1.4-1.2,2.4-1.2h.6c1.8.4,2.4,1.3,2.7,2.1,5,.7,9,1.2,12.3,1.7h.2c5.2-3.9,10.4-6.5,15.6-7.7,3.2-.8,6.3-1.2,9.2-1.2s4.1.2,7,.7c3.2.5,6.1,1.9,8.7,4,1,.7,1.7,1.7,2.2,2.8h0c.3.8.4,1.5.4,2.2,0,1.1-.3,2.7-2,4h0c0,0,0,.1,0,.1-2.4,1.6-5,2.5-7.9,2.7-2,.2-4,.2-6,.2-3,0-5.9-.2-8.9-.5-5.2-.7-10.5-1.4-15.7-2.3,0,0,0,0-.1,0-4.7,4.1-8.7,9.2-12.1,15.2-2.4,4.3-4.2,8.7-5.2,13,0,0,0,0,0,0,3.4-3.3,5.7-4.9,7.6-5.1h.1s.1,0,.1,0c2.5,0,3.6,1.7,3.6,3.3h0c0,.1,0,.8,0,.8h0c-.2,1.3-.6,2.5-1.2,3.6-.6,1.1-1.1,2.1-1.7,3.1-.5,1-1.1,2.1-1.6,3.1-1,1.8-1.8,3.7-2.5,5.5.4-.4.8-.8,1.2-1.2,2.2-2.6,4.5-5,7-7.3,2-1.8,4.2-3.3,6.6-4.5h0c.7-.4,1.2-.5,1.6-.5s.7,0,1,.2l1.5.4v1.6c0,.9-.5,1.7-1.4,2.1h0c-3,1.8-5.7,3.9-8.1,6.4-1.8,1.9-3.7,3.8-5.5,5.6-.8.8-1.6,1.5-2.5,2.2-1,.9-2.3,1.3-3.6,1.3-2.1,0-3.6-1.2-4-3.2-.1-.6-.2-1.2-.2-1.8,0-1.1.2-2.2.5-3.2.7-2.4,1.7-4.8,3-7.1l-1.2,1.1c-1.3,1.4-2.7,2.2-4.1,2.2-2.2,0-3.6-1.4-3.6-3.6v-.2h0c.5-6.3,2.7-13.1,6.7-20.1,3.1-5.5,6.6-10.3,10.4-14.1l-2.9-.4c-2.1-.4-4.3-.6-6.4-.8-10.6,15.1-18.1,29.7-22.4,43.4-.5,1.7-.8,3.4-.8,5.2s0,1.9.2,2.9c.6.5.8,1.1.8,1.7,0,1.1-.7,2-1.8,2.3h-.2c0,0-.3,0-.3,0ZM501.5,211.3c1.8.3,4.3.6,7.7,1.1,3.7.5,7.5.8,11.3.8s2.3,0,3.4,0c2.2,0,4.3-.7,6.2-1.8.4-.3.5-.5.5-.7s0-.4-.3-.8c-.4-.6-1-1-1.7-1.3h-.1c-1.8-1-4.2-1.8-7.1-2.3-.9-.2-2-.2-3-.2-2.2,0-5,.4-8.3,1.3-2.4.6-5.2,2-8.6,4.1Z"/>
              <path class="st0" d="M545.5,254.2c-7.7,5-15.5,6.5-19.9,7-8.5.9-15.6-.6-19.9-2,0,0-6.8-2.1-9.3-6.3-.7-1.1-.9-2.3-.9-2.3-.1-.5-.2-1.1-.2-1.7,0-.9.2-1.9.5-2.8,1.5-3.6,4.1-5.9,7.7-6.9.5-.1.9-.2,1.4-.2,1.3,0,2.4.4,3.5,1.3,1.1,1,1.3,1.9,1.3,2.6s0,.4,0,.8c-.5,2.1-2,3.5-2,3.5-2.3,2.1-5.5,1.9-5.8,1.8,0,0-.2,0-.5,0,0,0-.4,0-.7.2-.6.2-1.1,2.1-1,3,.3,3,10.9,6.7,21.9,6,1.9-.1,10.2-.8,18.9-6,.9-.5,5.3-3.2,10-8,3.2-3.3,5.4-6.5,7-9,0,2.1-.3,5.4-2,9-2.4,5-6.3,7.6-10,10Z"/>
            </g>
          </g>
        </g>
      </g>
    </g>
  </g>
  <text class="st1" transform="translate(-42.7 1195.5)"><tspan x="0" y="0">v</tspan></text>
</svg>