<?xml version="1.0" encoding="UTF-8"?>
<svg id="Layer_1" data-name="Layer 1" xmlns="http://www.w3.org/2000/svg" viewBox="0 0 850.394 850.394">
  <defs>
    <style>
      .cls-1 {
        fill: #231f20;
      }

      .cls-2 {
        fill: none;
        stroke: #231f20;
        stroke-miterlimit: 10;
        stroke-width: 7.18px;
      }
    </style>
  </defs>
  <g>
    <path class="cls-1" d="M180.164,152.255v16.828c6.916-6.918,14.396-12.106,22.437-15.566,8.038-3.457,16.64-5.189,25.802-5.189,19.913,0,36.833,7.526,50.763,22.577,13.928,15.053,20.894,34.356,20.894,57.915,0,22.717-7.199,41.719-21.595,57.004-14.399,15.285-31.459,22.928-51.184,22.928-8.79,0-16.968-1.566-24.54-4.698-7.572-3.131-15.1-8.25-22.577-15.355v71.938h-38.002v-208.382h38.002ZM220.41,183.667c-12.06,0-22.064,4.115-30.009,12.34-7.948,8.227-11.92,18.979-11.92,32.253,0,13.556,3.971,24.519,11.92,32.884,7.945,8.368,17.949,12.551,30.009,12.551,11.684,0,21.525-4.253,29.519-12.761,7.993-8.506,11.99-19.352,11.99-32.533,0-13.088-3.926-23.815-11.779-32.183-7.853-8.365-17.764-12.551-29.729-12.551Z"/>
    <path class="cls-1" d="M708.521,239.619h-122.982c1.775,10.846,6.521,19.47,14.233,25.873,7.713,6.404,17.551,9.606,29.519,9.606,14.304,0,26.596-5,36.881-15.005l32.253,15.145c-8.041,11.407-17.669,19.843-28.887,25.312s-24.54,8.203-39.966,8.203c-23.935,0-43.427-7.549-58.476-22.647-15.052-15.097-22.577-34.006-22.577-56.723,0-23.278,7.502-42.606,22.507-57.985,15.005-15.377,33.818-23.068,56.443-23.068,24.024,0,43.564,7.691,58.616,23.068,15.05,15.379,22.577,35.689,22.577,60.93l-.14,7.292ZM670.238,209.469c-2.53-8.506-7.516-15.425-14.963-20.754-7.443-5.329-16.082-7.993-25.915-7.993-10.674,0-20.042,2.993-28.094,8.975-5.057,3.74-9.738,10.331-14.045,19.772h83.016Z"/>
    <path class="cls-1" d="M179.735,510.447v16.828c6.919-6.918,14.396-12.106,22.437-15.566,8.041-3.458,16.64-5.189,25.802-5.189,19.913,0,36.833,7.526,50.763,22.577,13.93,15.052,20.894,34.356,20.894,57.915,0,22.717-7.199,41.719-21.595,57.004-14.396,15.285-31.459,22.928-51.184,22.928-8.787,0-16.968-1.566-24.54-4.698-7.572-3.131-15.097-8.25-22.577-15.355v71.938h-38.002v-208.382h38.002ZM219.981,541.858c-12.06,0-22.064,4.114-30.009,12.34-7.945,8.227-11.92,18.979-11.92,32.253,0,13.556,3.974,24.518,11.92,32.884,7.945,8.368,17.949,12.551,30.009,12.551,11.687,0,21.525-4.253,29.519-12.761,7.993-8.506,11.99-19.352,11.99-32.533,0-13.088-3.926-23.815-11.779-32.183-7.853-8.366-17.762-12.551-29.729-12.551Z"/>
    <line class="cls-2" x1="366" y1="358.26" x2="484.189" y2="467.032"/>
    <g>
      <polyline points="708.029 592.723 708.029 673.038 671.811 673.038 671.811 661.546"/>
      <path class="cls-1" d="M548.127,582.016h122.982c-1.775-10.845-6.521-19.47-14.233-25.873-7.713-6.404-17.551-9.606-29.519-9.606-14.304,0-26.596,5.001-36.881,15.005l-32.253-15.145c8.041-11.406,17.669-19.843,28.887-25.312,11.218-5.469,24.54-8.203,39.966-8.203,23.933,0,43.425,7.549,58.476,22.647,15.052,15.097,22.577,34.006,22.577,56.723,0,23.278-7.502,42.606-22.507,57.985-15.005,15.378-33.818,23.068-56.443,23.068-24.026,0-43.564-7.69-58.616-23.068-15.051-15.379-22.577-35.689-22.577-60.93l.14-7.292ZM586.41,612.165c2.528,8.506,7.515,15.425,14.961,20.754,7.445,5.329,16.083,7.993,25.916,7.993,10.674,0,20.04-2.993,28.092-8.975,5.057-3.74,9.739-10.331,14.047-19.772h-83.016Z"/>
    </g>
  </g>
  <path class="cls-1" d="M847.394,3v844.394H3V3h844.394M850.394,0H0v850.394h850.394V0h0Z"/>
</svg>