<?xml version="1.0" encoding="UTF-8"?>
<svg id="Layer_2" xmlns="http://www.w3.org/2000/svg" version="1.1" viewBox="0 0 1651.2 351.8">
  <!-- Generator: Adobe Illustrator 30.1.0, SVG Export Plug-In . SVG Version: 2.1.1 Build 136)  -->
  <defs>
    <style>
      .st0 {
        fill: #070707;
      }
    </style>
  </defs>
  <g id="Layer_3">
    <g>
      <path class="st0" d="M84.9,148.7c0,5.2.6,10.2,1.7,15s2.8,9.3,4.9,13.5c6,23.8,26.9,23.8,41.6,27.9,8.8,0,17.1-2.7,24.3-7.6s6.8-5.4,9.7-8.8,5.4-7.3,7.5-11.4c15-34.8-6-80.9-43.4-84.6-7.9-.6-15.6,1.3-22.5,7.3-3.5,2.4-6.8,5.4-9.7,8.8-8.7,10.2-14.1,24.4-14.1,40h0Z"/>
      <path class="st0" d="M251.9,285.9c-9.1-7.8-16-13.7-16-13.7-6.6-5.6-7.2-15.3-1.4-21.4,3.5-3.7,6.7-7.5,9.7-11.6,8.9-12.2,15.4-26.2,19.5-41.6,1.9-7,3.2-14.3,4-21.9.8-6.6,1.2-13.3,1.4-19.9.2-6.7,0-13.4-.4-20.1,3.2-54.7-35.1-108.5-88.3-126.1-6.7-2.3-13.6-4.1-20.9-5.3-14.5-2.4-30.2-2.5-47-.2C29.4,15.9-10.3,80.3,2.3,164.9c5,33.3,16.7,61.5,34.2,82.8,3.5,4.3,7.2,8.2,11.2,11.8,33.1,29.5,79.1,33.7,122.7,25.3,4.5-.4,9-.7,13.6-.7,4.6,0,9.2.2,13.9.7,33.5,4.2,33.5,67,71.2,67,50.2-4.2,4.2-50.2-17.3-65.9h0ZM24.8,97.6l-4.5-5.1,8.9,2.5-4.4,2.5h0ZM192.5,49.7l-3.4,7.2v-3.9l-3.4-10.1,6.8,6.8ZM52.5,232.5l6.2-6.6,1.7,8.9-7.9-2.3h0ZM184.5,264.6l10.3-.5,3.3,9.7-13.6-9.2ZM186.7,239.7c-4.7,4-10,8-16.1,11.8-5.7,1.8-11.2,2.9-16.6,3.2-5.4.4-10.7,0-15.8-.9-6.3-2.7-12.3-5.7-17.9-9s-10.8-6.8-15.7-10.6c-48.9-37.8-62.1-99.6-37.8-156.8,2.6-4.5,5.7-8.5,9.3-12.2,7.3-7.3,16.6-12.9,28-16.5,8.5-2.7,16.7-3.7,24.6-3.3,7.9.4,15.5,2.4,22.6,5.8,32.3,29,44.1,64.9,59.3,101.9,2,6.9,3.4,13.8,4,20.7,2.1,23-4.5,45.6-27.9,65.8h0ZM227,159.5l-12.4-4.1v-4.1l8.3,4.1,5.9-4.1,1.6,2.1-3.4,6.2h0Z"/>
      <path class="st0" d="M551,102.6c-1.5-6.7-3.4-13.2-5.7-19.3-.6-1.5-1.2-3-1.8-4.5l-7,7.9-3.4-2.6,8.1-8.5,1.3.5c-16.8-39.1-49.2-65.4-94.1-72.1-7.6-1.1-15.5-1.7-23.8-1.8-80-6.3-126.1,77.4-128.7,143.9-.3,8.5,0,16.7.8,24.6.8,8,2.2,15.7,4.1,23,1.8,7.4,4.1,14.4,6.8,21.1,19,46.8,59.2,75.9,115.9,75.9s111.3-38,126.5-97c1.9-7.4,3.3-15.1,4.3-23.1-.3-24.1,3.9-45-3.2-68.1h0ZM475.6,81.4l1.7,8.9-7.9-2.3,6.2-6.6ZM433.4,35.7l-4.1,8.8v-4.7l-4.1-12.4,8.3,8.3h0ZM303.4,181.2l4.4-7.9,4.6,6.9-9,1.1ZM337.5,80.6l-1.1-11.6,8.8-4.2-3,3.6-4.8,12.2h0ZM345,206.8l3.7-4.4-1.6-4.6,5.2.2,1.1,5.1-8.5,3.7h0ZM400.4,263.3v-4.7l-4.1-12.4,8.3,8.3-4.1,8.8h0ZM501.2,216.9c-.4,6.1-1.4,11.6-3.2,16.6-3.5,10-10,17.6-19.4,22.5-16.1,8.4-33.7,4.7-51.7-9.3-4.5-3.5-9-7.7-13.4-12.4-29.1-57.7-109.7-176.3-19.9-185.2,69.2-3,110.1,93.8,107.6,167.8h0ZM524.2,212.3l-4.1-3.2,4.1-8.3v5.7l4.1,2.5-4.1,3.2h0Z"/>
      <path class="st0" d="M1131.3,273.8c-16.3-30.9-33-56-57-83-2.9-3.8-5.7-7.8-8.3-11.8l-2.7-.2-12.7,3.1,8.9-7.5,5.3,3.1c0-.1-.2-.3-.3-.4-12.2-18.8-20.9-39.6-20.9-65.2.2-5.1,1.2-10.1,3-15.1,1.8-4.9,4.5-9.7,8.3-14.4,5.4-5.8,10.7-11.5,14.7-15.8,4-4.3,6.7-7.2,6.7-7.2,20.5-22,35.8-33.5,39.8-40.9,2.8-5.5,1.6-12.2-4.3-12.2h-67.3c-10.6,0-11,7.5-6.7,13.8,8.7,12.6,4.7,30.3-17.7,60.6-3.3,4.5-7.7,10-13,16.3-13.5,16.3-30.3,28.8-42.8,45.6-2.8-6.3-5-12.8-6.7-19.5-.6-13.1-1-26-.5-38.9.2-4.3.4-8.6.9-12.8,2.1-20.9,2.1-41.9,14.7-58.6-29.3-16.7-62.8-4.2-96.3-8.4,8.4,29.3,16.7,58.6,17.5,93.1,0,5.2,0,10.4,0,15.6-.1,15.6-.4,31-.2,46-.1,6.4-.3,12.9-.6,19.3-.3,6.4-.7,12.8-1.2,19.1v23c0,23.4-4.6,41.1-13.8,53.1-4.3,5.5-3.1,13.4,5.5,13.4h81.5c8.7,0,9.8-7.9,5.5-13.4-9.2-12.1-13.8-29.8-13.8-53.1v-13.8c-.9-22.2,15.9-47.3,35.8-46,5.5,7.2,10.8,14.6,16.1,22.3,2.6,3.9,5.2,7.8,7.7,11.9,6.6,10.6,14.9,27.4,22.3,40.6,4.5,9.2,6.6,15,6.3,20.3s-3.1,10.4-8.2,18.3c-3.9,6.3-2.8,13,6.7,13h83c6.7,0,8.3-7.5,4.9-13h0ZM916.4,113.2l-4.1-3.2,4.1-8.3v5.7l4.1,2.5-4.1,3.2h0ZM929.1,247.2l7.2-4,.3,9.1-7.5-5.1h0ZM1022.5,79.7l6.2-6.6,1.7,8.9-7.9-2.3h0Z"/>
      <path class="st0" d="M848.2,105.7c-1.1-5.3-2.6-10.6-4.4-15.7-5.1-31.3-30.2-48-48.3-64.4-4.5-3.1-9.2-5.9-14-8.4-6.1-3.2-12.6-5.9-19.4-8.1-13.7-4.4-28.8-6.7-45.4-6.7-81.9,0-129.5,58.2-129.5,143.7s47.2,144.8,128.3,144.8,99.8-29.1,119.4-75.9c2.8-6.7,5.2-13.7,7-21.1,1.7-6.4,3.1-12.9,4.2-19.5,1.1-6.6,1.9-13.3,2.5-19.9,3.3-16.1,3-32.7-.4-48.6h0ZM604.3,156l-12.7,3.1,8.9-7.5,8.5,4.9-4.7-.4h0ZM659.7,15l8.8,9.3-2.9,3.1-7.8-8.8,1.9-3.7h0ZM633.7,222.2l-3.4-9.2,3.4,3.3,11.7,5.8h-11.7c0,0,0,0,0,0ZM735.1,259.6l7.2-4,.3,9.1-7.5-5.1h0ZM790.9,184.6c-1.5,27.6-15.1,53-53.7,70.6-11.5,1.9-22,1.1-31.6-2.2-68.4-42.8-81.6-120.8-43.6-184.5,3.1-4.1,6.7-7.7,10.7-10.8,8-6.2,17.9-10.4,29.4-12.4,8.6-1.5,16.7-1.4,24.2.2s14.6,4.5,21,8.9c27,33.2,33.3,70.4,42.6,109.2.9,7.1,1.3,14.1.9,21h0ZM783.1,129.3l6.2-6.6,1.7,9-7.9-2.3ZM789,51.2l-7.9-4.8,5.7.5,2.9-3.9,2.9,4.4-3.6,3.8h0ZM818.3,73.1l1.7,8.9-7.9-2.3,6.2-6.6ZM828.1,174.7l-12.7,3.1,8.9-7.5,8.5,4.9-4.7-.4h0Z"/>
      <path class="st0" d="M1348.8,205.3c-6.3,0-8.7,5.5-18.9,22-4.8,8-9.3,14.2-13.9,19-4.5,4.9-9.1,8.3-14,10.8-15.8,10-45.2,11.5-62.5,1.7-4.3-2.4-7.9-5.6-10.2-9.4,7.2-31.7-17.9-65.2,3.8-93.8h1.2c27.9,0,44.1,4.7,65.3,24,6.7,5.9,14.6,4.3,14.6-5.9v-60.2c0-10.6-7.9-11.8-14.6-6.3-21.3,19.3-37.4,23.2-65.3,23.2h-1.2c-4.3,0-7.1-2.8-7.1-7.1v-45.2c0-11.6,0-20.9,0-20.9,6.3-40.6,60.7-28,86.1-11.3,4.4,4.5,8.7,10.1,13.1,17.2,10.2,16.1,11.8,20.5,18.1,20.5s5.6-1.2,7.2-3.8,2.3-6.6,1.9-12.3c-2.8-25.6,5.6-71.7-37.1-60.5-5.8.2-11.5.5-17.2.7-.6,0-1.2,0-1.8,0v.6l4.1,2.5-4.1,3.2-4.1-3.2,1.5-3c-44.2,1.8-87.2,3.2-133-1.7-4.9,0-7.7,0-7.7,0-8.7,0-9.8,7.9-5.5,13.4,10.3,13.6,12.9,17,13.6,32.6.2,5.2.2,11.8.2,20.5-1,5.5-1.8,10.9-2.4,16.4-.6,5.5-.9,11-1.2,16.5,0,5.6,0,11.2,0,16.8,3.7,49.3,7.8,99.6-9.8,151-4.5,5.5-3.5,13.4,5.2,13.4,12.5-2,20.8-2,32.6-1,5.4-.1,10.9-.2,16.3-.3,38.2-.6,76.6-.2,115.7,1.1,11.8.1,19.2.1,19.2.1,9.8,0,15.7-4.7,16.5-15l4.3-50.4c.8-11.4-2.4-16.1-8.7-16.1h0ZM1163.9,251.8l-3.4-2.6,8.1-8.5,3.8,1.6-8.5,9.5h0ZM1175.7,36.7l-11.3-6.5,11.7.7,2.8,9.3-3.1-3.5ZM1201.2,199.9l3.8-9,.2,4.7,4.6,12.2-8.5-8h0ZM1213.6,84.3l-4.1-3.2,4.1-8.3v5.7l4.1,2.5-4.1,3.2h0ZM1316.8,275.1l-12.4-4.1v-4.1l8.3,4.1,5.9-4.1,1.6,2.1-3.4,6.2h0Z"/>
      <path class="st0" d="M1630.5,69.6c-3.6-5.7-7.6-11.1-12.1-16.2-27.1-34.4-66-40.6-104.9-43.4-5.6-.4-11.1-.7-16.7-1.1-38.5-4.7-84.5-17.2-109.7-.5-16.8,16.7,16.7,54.4,10.8,87.3-.3,5.3-.5,10.6-.6,15.9-.8,37,2.2,73.5.6,108.6,0,8.8,0,15.3-.2,20.5-.6,15.6-3.2,19-13.6,32.6-4.3,5.5-3.1,13.4,5.5,13.4h113.7c82.8,0,126.3-38.3,140.4-95.7,1.8-7.2,3.1-14.7,3.9-22.4,8.3-35.4.8-70.5-17.3-99.1h0ZM1412.3,100.7l-7.9-4.8,5.7.5,2.9-3.9,2.9,4.4-3.6,3.8h0ZM1431.2,178.8l6.2-6.6,1.7,8.9-7.9-2.3ZM1578.2,153.3c-.4,5-1,10-1.7,14.9-.7,31.5-16,63.4-40.9,80.3v3.5l4.1,2.5-4.1,3.2-4.1-3.2,2.4-4.8c-3.9,2.5-7.9,4.6-12.2,6.3-4.3,1.6-8.9,2.8-13.7,3.6-4.9.8-10,1.2-15.5,1.2h-.2c-10.3,0-19.3-6.6-23-16.1-5.9-15.4-9.1-31.1-10.4-47.1-.9-10.4-1-21-.6-31.5,2.7-25.2-2.8-56-1.2-82.6.3-5.3.9-10.5,1.9-15.4,3.7-21.9,20.4-38.6,39.6-37,5.2-.1,10.7.6,16.2,2,27.3,6.9,54.8,31.4,58.5,61.7,2.6,9.1,4.3,18.7,5.1,28.6s.8,20,0,30h0ZM1571.6,54.4l-2.9-3.2,9.4-7,3.5,2.2s-10,7.9-10,7.9ZM1604.1,207.7l-12.7,3.1,8.9-7.5,8.5,4.9-4.7-.4h0Z"/>
    </g>
  </g>
</svg>