<?xml version="1.0" encoding="UTF-8"?>
<svg id="Layer_1" xmlns="http://www.w3.org/2000/svg" version="1.1" viewBox="0 0 500.7 500.7">
  <!-- Generator: Adobe Illustrator 30.1.0, SVG Export Plug-In . SVG Version: 2.1.1 Build 136)  -->
  <defs>
    <style>
      .st0 {
        fill: #070707;
      }

      .st1 {
        fill: #fff;
      }
    </style>
  </defs>
  <circle class="st0" cx="250.4" cy="250.4" r="250.4"/>
  <path class="st1" d="M235.1,340.1l44.7-135.7,21.5,7-15.4-50.8h132.9c24.1,0,36.7,21.6,28,48.1l-8.4,25.6c-.1.3-.2.6-.4,1l-.4.9c-2.3,6.3-5.5,12.3-9.5,17.7-12.6,17.2-31.9,28.4-49.1,28.5h-66.7l-18.9,57.7h-58.3ZM322.2,252.4h35.4c8.9,0,18.7-7.9,21.8-17.6l8.7-26.5c3.2-9.7-1.4-17.6-10.2-17.6h-35.4l-20.3,61.8ZM81.8,340.1c-1.5,0-3-.2-4.5-.4-2.5-.3-5-.9-7.3-1.8-4.7-1.8-8.8-4.2-12-8.2-1.9-2.4-3.4-5.2-4.5-8.1-.5-1.5-1-3-1.3-4.5-1.7-7.8-1-15.6,1.1-23.2.2-.7,1.1-3.5,1.1-3.5l42.7-129.8h58.8l-43.3,131.8c-2.4,7.2-.5,13.6,4.6,16.3,1.7.9,3.5,1.4,5.4,1.3h29.1l49.1-149.4h66.5l-48.7,50.8,26.3-7-44.7,135.7h-118.3Z"/>
</svg>