<?xml version="1.0" encoding="UTF-8"?>
<svg id="Layer_1" xmlns="http://www.w3.org/2000/svg" version="1.1" viewBox="0 0 256 256">
  <!-- Generator: Adobe Illustrator 30.1.0, SVG Export Plug-In . SVG Version: 2.1.1 Build 136)  -->
  <path d="M8,21h11c3.5,6.6,6.2,13.4,8.8,20.4,1.1,2.8,2.1,5.5,3.2,8.3.3.8.6,1.5.9,2.3,4.5,11.6,9.1,23.1,13.7,34.6,1.3,3.2,2.5,6.4,3.8,9.6.5,1.3,1,2.5,1.5,3.8.2.6.5,1.2.8,1.9.7,1.9,1.5,3.7,2.2,5.6,4,10.1,8,20.2,12,30.4.3.7.6,1.5.9,2.2.3.7.6,1.5.9,2.2.6,1.5,1.2,2.9,1.7,4.4q.4,1.1.9,2.2c2.4,6.1,4.8,12.2,7.2,18.2.4,1,.8,1.9,1.2,2.9q2.2,5.7,4.5,11.3c2,5,4,10.1,6,15.1.7,1.7,1.3,3.4,2,5.1,1,2.5,2,5,3,7.5.3.8.6,1.5.9,2.3q2.1,5.3,2.1,7.5h2c.2-.6.3-1.1.5-1.7,2.1-7.4,4.9-14.4,7.8-21.5,1.1-2.7,2.2-5.4,3.3-8.1.3-.7.6-1.4.9-2.1,3.3-8.2,6.6-16.5,9.8-24.7,1-2.4,1.9-4.8,2.9-7.2.7-1.6,1.3-3.3,2-4.9,3.5-8.8,7-17.6,10.4-26.4,5.4-13.7,10.9-27.5,16.3-41.2.9-2.3,1.8-4.6,2.7-7,2.9-7.4,5.8-14.7,8.7-22.1,1.4-3.6,2.8-7.1,4.2-10.7.7-1.7,1.3-3.4,2-5.1.9-2.4,1.8-4.7,2.8-7.1.3-.7.6-1.4.8-2.1q1.9-4.8,3-5.9c1.9,0,3.7,0,5.6,0,1,0,2,0,3.1,0,.8,0,1.6,0,2.4,0-2.4,8.8-5.8,17.2-9.2,25.7-1.8,4.5-3.6,8.9-5.4,13.4-.4.9-.7,1.8-1.1,2.8-3.7,9.1-7.3,18.2-10.8,27.3-.6,1.6-1.2,3.1-1.9,4.7-1.2,3.1-2.5,6.3-3.7,9.4-2.8,7.1-5.6,14.2-8.4,21.3-1.6,4-3.1,7.9-4.7,11.9-.3.8-.6,1.6-.9,2.4-2.2,5.5-4.3,11-6.5,16.4-2.8,7-5.6,14.1-8.3,21.1-1.8,4.4-3.5,8.9-5.3,13.3-1.9,4.9-3.9,9.9-5.8,14.8-.8,1.9-1.5,3.8-2.3,5.7-1,2.7-2.1,5.3-3.1,8-.3.8-.6,1.6-.9,2.4-1.8,4.5-3.6,8.9-5.5,13.4h-12c-9.3-23.1-18.5-46.3-27.6-69.4-3.9-9.8-7.8-19.7-11.7-29.5-5-12.7-10.1-25.4-15.1-38.1-.4-.9-.7-1.8-1.1-2.7-1.7-4.4-3.5-8.8-5.2-13.2-3.3-8.4-6.6-16.7-9.9-25.1-1.6-4-3.2-8-4.8-12.1-.8-1.9-1.5-3.9-2.3-5.8-1.1-2.7-2.1-5.3-3.2-8-.3-.8-.6-1.6-1-2.4q-2.2-5.5-2.2-7.7Z"/>
  <path d="M199.5,20.9q1.5,0,3.1,0c1,0,2,0,3.1,0,.8,0,1.6,0,2.4,0-2.3,8.7-5.7,17-9.1,25.4-1.8,4.5-3.6,8.9-5.4,13.4q-.6,1.4-1.1,2.8c-3.9,9.8-7.8,19.6-11.7,29.4-.7,1.8-1.4,3.6-2.1,5.4-1.1,2.7-2.2,5.5-3.2,8.2-4.3,10.8-8.6,21.6-12.8,32.4-4.7,11.8-9.4,23.7-14.1,35.5-8.1,20.5-16.2,41-24.4,61.5h-11c.6-4.2,1.5-7.7,3.1-11.6.5-1.1.9-2.2,1.4-3.4.5-1.2,1-2.4,1.5-3.7.8-2,1.6-4,2.4-6,.6-1.4,1.2-2.9,1.8-4.3,3.8-9.3,7.4-18.6,11.1-28,.7-1.8,1.5-3.7,2.2-5.5,1.8-4.6,3.6-9.2,5.4-13.8,1-2.6,2-5.1,3-7.7,4.3-11,8.7-22,13-33,7.6-19.4,15.3-38.7,22.9-58.1.7-1.9,1.5-3.7,2.2-5.6,2-5,4-10,5.9-15,.9-2.3,1.8-4.6,2.7-6.9.5-1.4,1.1-2.8,1.6-4.1q.7-1.8,1.4-3.6,1.5-3.7,4.6-3.8Z"/>
  <path d="M239.5,20.9q1.5,0,3.1,0c1,0,2,0,3.1,0,.8,0,1.6,0,2.4,0-2.1,8-5.1,15.6-8.2,23.2-1.6,3.9-3.1,7.8-4.7,11.6-.3.8-.7,1.6-1,2.5-3.8,9.4-7.5,18.9-11.3,28.3-.7,1.8-1.4,3.6-2.1,5.4-1.1,2.8-2.2,5.6-3.3,8.3-4.7,11.9-9.4,23.7-14.1,35.6-4.3,10.8-8.5,21.5-12.8,32.3-8.8,22.2-17.6,44.5-26.5,66.6h-11c.6-5,2.2-9.4,4.1-14,.3-.8.6-1.6.9-2.4.7-1.7,1.4-3.3,2-5,1.5-3.6,2.9-7.2,4.4-10.8.8-1.9,1.5-3.7,2.3-5.6,3.7-9.1,7.3-18.2,10.9-27.4.6-1.6,1.2-3.1,1.9-4.7,1.2-3.1,2.5-6.3,3.7-9.4,2.8-7.1,5.6-14.2,8.4-21.3,1.6-4,3.1-7.9,4.7-11.9.3-.8.6-1.6.9-2.4,1.9-4.7,3.7-9.4,5.6-14.1,6.8-17.1,13.5-34.3,20.3-51.4.7-1.9,1.5-3.8,2.2-5.7,2-5,3.9-9.9,5.9-14.9.7-1.8,1.4-3.6,2.1-5.4q.5-1.4,1.1-2.8t.9-2.2c1.1-2.5,1.3-2.6,4.2-2.7Z"/>
  <path d="M219.5,20.9q1.5,0,3.1,0c1,0,2,0,3.1,0,.8,0,1.6,0,2.4,0-2.3,8.7-5.7,17-9.1,25.4-1.8,4.5-3.6,8.9-5.4,13.4-.4.9-.7,1.9-1.1,2.8-4,9.9-7.9,19.8-11.8,29.7-.7,1.8-1.4,3.6-2.1,5.4-1.4,3.6-2.9,7.2-4.3,10.9-3.5,8.9-7,17.7-10.5,26.6-.3.9-.7,1.7-1,2.6-2.1,5.4-4.3,10.9-6.4,16.3-1.2,3-2.4,6-3.5,8.9-9.5,24-19,48-28.6,71.9h-11c.6-4.9,2.1-9.3,4-13.8.3-.8.6-1.5.9-2.3.7-1.7,1.3-3.3,2-5,1.5-3.6,2.9-7.2,4.3-10.7.8-1.9,1.5-3.8,2.3-5.7,4-9.8,7.9-19.7,11.7-29.5,1.1-2.7,2.1-5.4,3.2-8.1.7-1.8,1.4-3.7,2.2-5.5,3.9-9.8,7.7-19.6,11.6-29.4,6.2-15.6,12.3-31.2,18.5-46.8,1.1-2.7,2.1-5.3,3.2-8,3.3-8.4,6.6-16.8,9.9-25.2.6-1.6,1.2-3.1,1.8-4.7,1.1-2.9,2.3-5.8,3.4-8.7.5-1.3,1-2.6,1.5-3.8.4-1.1.9-2.2,1.3-3.3q1.4-3.4,4.5-3.6Z"/>
  <path d="M28,21h11c4.4,9.3,8.1,18.8,11.9,28.5,2,5.1,4,10.2,6,15.3.4,1.1.8,2.1,1.3,3.3,4.8,12.2,9.6,24.4,14.5,36.6.9,2.2,1.8,4.5,2.7,6.7,1.3,3.3,2.6,6.6,3.9,9.9,4.1,10.3,8.2,20.6,12.3,30.9.7,1.8,1.4,3.6,2.2,5.5.3.9.7,1.7,1,2.6.3.8.7,1.7,1,2.5.9,2.3,1.8,4.7,2.8,7,1.1,2.7,2.2,5.4,3.3,8.1.5,1.2.9,2.3,1.4,3.5.4,1,.8,2,1.2,3,1.3,4.7-.4,8.2-2.3,12.5-.4.8-.7,1.6-1.1,2.4q-.4.9-.8,1.8c-2.3-2.1-3.5-3.8-4.7-6.7-.3-.8-.6-1.5-.9-2.3-.3-.8-.6-1.6-.9-2.5-.3-.9-.7-1.7-1-2.6-.7-1.9-1.5-3.8-2.2-5.7-1.6-4.1-3.2-8.3-4.8-12.4-.8-2.2-1.7-4.4-2.5-6.6-4.8-12.4-9.7-24.8-14.6-37.2-1.8-4.5-3.6-9-5.3-13.4-.4-1.1-.9-2.2-1.3-3.3-4.5-11.2-8.9-22.5-13.3-33.7-.6-1.5-1.2-3-1.8-4.5-.3-.7-.6-1.5-.9-2.2-2-5-3.9-9.9-5.9-14.9-1.4-3.6-2.8-7.1-4.2-10.7-.7-1.7-1.4-3.4-2-5.1-.9-2.3-1.9-4.7-2.8-7-.3-.7-.6-1.4-.8-2.1q-1.9-4.8-1.9-7.1Z"/>
  <path d="M48,21h11c3.8,7,6.6,14.4,9.4,21.8,1.6,4.1,3.1,8.1,4.7,12.2.3.8.6,1.7,1,2.5,3,7.7,6,15.3,9,23,.9,2.3,1.8,4.5,2.7,6.8,3.2,8.2,6.5,16.4,9.7,24.6,2,5.1,4.1,10.2,6.1,15.3,1.3,3.2,2.5,6.4,3.8,9.5,1.4,3.6,2.8,7.1,4.2,10.7q.6,1.6,1.3,3.3c.4,1,.8,2,1.2,3,.3.9.7,1.7,1,2.6,1.9,5.7,2.1,9-.6,14.5-.5,1-.9,1.9-1.4,2.9-.4.7-.7,1.4-1.1,2.2-2.7-1.4-2.8-2.6-3.9-5.4-.4-1-.7-1.9-1.1-2.9-.4-1.1-.8-2.1-1.2-3.2q-.6-1.6-1.3-3.3c-1.2-3-2.3-6-3.5-9-1.2-3.2-2.5-6.3-3.7-9.5-.5-1.3-1-2.6-1.5-3.9-.3-.6-.5-1.3-.8-2-.8-2-1.5-4-2.3-6-4.7-12.1-9.5-24.1-14.2-36.1-1.3-3.3-2.6-6.6-3.9-9.9-3.6-9.2-7.3-18.3-10.9-27.5-1.4-3.6-2.8-7.1-4.2-10.7-.6-1.6-1.3-3.2-1.9-4.9-.9-2.2-1.7-4.4-2.6-6.6-.5-1.2-1-2.4-1.5-3.7-1.3-3.5-2.3-6.9-3.3-10.4Z"/>
  <path d="M68,21h11c3.3,7.1,6.3,14.1,9.1,21.4q.6,1.5,1.2,2.9c1.7,4.3,3.3,8.6,5,12.9,4.7,12,9.3,24,14.3,35.9,2,4.8,4,9.6,5.9,14.5,1,2.3,1.9,4.6,2.9,6.9,1.4,3.2,2.7,6.5,4,9.7.4.9.8,1.9,1.2,2.9,2.7,6.9,2.2,11.2-.6,17.9-.4,1-.8,2.1-1.2,3.1-.3.6-.5,1.2-.8,1.9-2.7-1.3-2.8-2.5-3.8-5.2-.4-.9-.7-1.8-1.1-2.7q-.6-1.5-1.2-3c-.4-1-.8-2.1-1.2-3.1-1.3-3.4-2.6-6.8-3.9-10.2-.9-2.3-1.8-4.7-2.7-7-1.8-4.7-3.7-9.4-5.5-14.2-3.1-8.1-6.3-16.1-9.5-24.2-.9-2.3-1.8-4.5-2.7-6.8-2.9-7.2-5.7-14.4-8.6-21.7-1.4-3.6-2.8-7.1-4.2-10.7-.7-1.7-1.4-3.4-2-5.1-.9-2.3-1.9-4.7-2.8-7-.3-.7-.6-1.4-.8-2.1q-1.9-4.8-1.9-7.1Z"/>
</svg>