<?xml version="1.0" encoding="UTF-8"?>
<svg id="Layer_1" xmlns="http://www.w3.org/2000/svg" version="1.1" viewBox="0 0 24 24">
  <!-- Generator: Adobe Illustrator 30.1.0, SVG Export Plug-In . SVG Version: 2.1.1 Build 136)  -->
  <path d="M16.5,4.5h2.6c0,0,.1,0,.1,0v12.4c0,.2,0,.5,0,.8,0,.3,0,.5,0,.8,0,0,0,.2-.1.2-.7.3-1.4.5-2.1.6-.6.1-1.3.2-2,.2-1,0-1.9-.2-2.8-.6-.8-.4-1.5-1-2-1.8-.5-.8-.7-1.8-.7-3,0-1,.2-1.9.7-2.7.5-.8,1.2-1.5,2.1-2,.9-.5,2-.8,3.3-.8s.2,0,.3,0,.2,0,.4,0v-4.1c0,0,0-.1.1-.1M4.9,5.6h2.5c0,0,.2,0,.2.1,0,0,0,0,0,0v13.3c0,.1,0,.2-.2.2h-2.5c-.1,0-.2,0-.2-.2V5.8c0-.1,0-.2.2-.2M15.6,11.1c-.5,0-1,.1-1.5.3-.4.2-.8.5-1.1,1s-.4,1-.4,1.6c0,.5,0,.9.2,1.3.1.3.3.7.6.9.2.2.5.4.9.5.3.1.7.2,1.1.2s.4,0,.5,0c.2,0,.3,0,.5,0v-5.7c-.3,0-.5,0-.8,0"/>
</svg>