<?xml version="1.0" encoding="UTF-8"?>
<svg id="Layer_1" xmlns="http://www.w3.org/2000/svg" version="1.1" viewBox="0 0 24 24">
  <!-- Generator: Adobe Illustrator 30.1.0, SVG Export Plug-In . SVG Version: 2.1.1 Build 136)  -->
  <path d="M20.5,3.4h2.7c0,0,.1,0,.1,0v12.9c0,.2,0,.5,0,.8,0,.3,0,.6,0,.8,0,0,0,.2-.1.2-.7.3-1.4.5-2.2.6-.7.1-1.4.2-2.1.2-1,0-2-.2-2.9-.6-.9-.4-1.6-1-2-1.8-.5-.8-.7-1.9-.7-3.1,0-2.1,1.1-4,2.9-4.9.9-.5,2.1-.8,3.4-.8s.2,0,.3,0,.3,0,.4,0V3.5c0,0,0-.1.1-.1M.8,4.6h3.1c0,0,.1,0,.2,0,0,0,0,0,.1.1.3.6.6,1.2.9,1.7.3.6.6,1.1,1,1.7.3.6.6,1.1.9,1.7h0c.3-.6.6-1.2.9-1.7s.6-1.1.9-1.7.6-1.1.9-1.7c0,0,0-.1,0-.1,0,0,.1,0,.2,0h2.9c0,0,.1,0,.1,0,0,0,0,0,0,0l-4.1,6.7,4.3,7.1c0,0,0,.1,0,.2s0,0-.1,0h-3.1c-.2,0-.4,0-.5-.1-.3-.6-.6-1.1-.9-1.7-.3-.6-.6-1.1-.9-1.7s-.6-1.2-1-1.8h0c-.3.6-.6,1.2-.9,1.7s-.6,1.2-.9,1.7c-.3.6-.6,1.1-.9,1.7,0,.1-.2.1-.3.1H.6c0,0,0,0,0,0,0,0,0-.1,0-.1l4.2-6.9L.6,4.8c0,0,0-.1,0-.1,0,0,0,0,.1,0M19.6,10.3c-.5,0-1.1.1-1.5.4-.5.2-.9.6-1.1,1s-.4,1-.4,1.7c0,.5,0,.9.2,1.4.1.4.3.7.6,1,.3.2.6.4.9.5.4.1.7.2,1.1.2s.4,0,.6,0c.2,0,.3,0,.5,0v-5.9c-.3,0-.5,0-.8,0"/>
</svg>