<?xml version="1.0" encoding="UTF-8"?>
<svg id="Layer_1" xmlns="http://www.w3.org/2000/svg" version="1.1" viewBox="0 0 24 24">
  <!-- Generator: Adobe Illustrator 30.1.0, SVG Export Plug-In . SVG Version: 2.1.1 Build 136)  -->
  <path d="M8.1,10.9c-.1-.4-.2-.7-.3-1.1s-.2-.7-.3-1.1c0-.3-.2-.6-.3-.9h0c-.1.5-.2,1-.4,1.5-.2.6-.4,1.2-.5,1.8-.2.6-.3,1.2-.5,1.7h3c0-.3-.2-.5-.3-.9-.1-.3-.2-.7-.3-1M18.4,10.5c-.7,0-1.3.3-1.6.9-.1.3-.2.6-.3.9h2.5c.3,0,.5,0,.7,0,0,0,.2,0,.3,0h0c0-1-.7-1.7-1.6-1.7,0,0,0,0,0,0M13.1,18.1h-2.5c0,0-.2,0-.2-.1l-1-2.9h-4.4l-.9,2.8c0,.1-.1.2-.2.2H1.6c-.1,0-.2,0-.1-.2l3.8-11c0-.1,0-.2.1-.4,0-.3,0-.5,0-.8,0,0,0-.1,0-.1h3.1c0,0,.1,0,.2,0l4.4,12.2c0,.1,0,.2-.1.2M22.5,13.4c0,.2,0,.4,0,.5,0,0,0,.2-.2.2s-.2,0-.4,0c-.2,0-.4,0-.7,0-.3,0-.6,0-.9,0h-3.8c0,.4.2.7.4,1.1.2.3.5.6.9.7.5.2,1,.3,1.5.3.4,0,.8,0,1.2-.1.4,0,.7-.1,1.1-.3,0,0,0,0,0,0v1.8s0,0,0,.1c0,0,0,0,0,0-.4.2-.8.3-1.2.4-.6.1-1.1.2-1.7.1-.9,0-1.7-.1-2.3-.4-.6-.3-1.1-.6-1.5-1.1-.4-.5-.7-1-.8-1.6-.2-.6-.3-1.2-.2-1.7,0-.6,0-1.3.3-1.9.2-.6.5-1.1.9-1.6.4-.5.9-.9,1.4-1.1s1.2-.4,2-.4c.6,0,1.3.1,1.8.4.5.2.9.5,1.3,1,.3.4.6.9.7,1.4.2.5.2,1,.2,1.5s0,.5,0,.8"/>
</svg>