<?xml version="1.0" encoding="UTF-8"?>
<svg id="Layer_1" xmlns="http://www.w3.org/2000/svg" version="1.1" viewBox="0 0 24 24">
  <!-- Generator: Adobe Illustrator 30.1.0, SVG Export Plug-In . SVG Version: 2.1.1 Build 136)  -->
  <path d="M8.5,8c-.5-.2-1-.3-1.5-.2-.3,0-.6,0-.8,0-.2,0-.4,0-.5,0v4.2c.2,0,.3,0,.5,0h.7c.5,0,1,0,1.4-.2.4-.1.7-.3,1-.7.3-.3.4-.7.4-1.3,0-.4,0-.8-.3-1.1-.2-.3-.5-.6-.9-.7M11.7,12.4c-.5.7-1.2,1.2-2,1.5-.8.3-1.8.4-2.8.4s-.5,0-.6,0-.3,0-.5,0v4c0,0,0,.2-.1.2h-2.4c0,0-.1,0-.1-.2V5.5c0,0,0-.1.1-.1.2,0,.4,0,.7,0,.3,0,.6,0,.9,0s.7,0,1.1,0,.8,0,1.1,0c1,0,1.9.1,2.6.4.6.2,1.2.6,1.7,1,.4.4.7.9.9,1.4.2.5.3,1.1.3,1.6,0,1.1-.2,2-.7,2.7M20.5,17.2c-.3.5-.8.9-1.4,1.1-.6.3-1.4.4-2.3.4s-1.1,0-1.7-.2c-.4,0-.9-.2-1.3-.4,0,0-.2-.1-.1-.2v-2.2s0,0,0-.1c0,0,0,0,.1,0,.5.3,1,.5,1.5.6.5.1,1,.2,1.5.2s.8,0,1-.2c.2,0,.3-.3.3-.5s0-.3-.3-.5c-.2-.2-.6-.3-1.2-.6-.6-.2-1.2-.5-1.8-.9-.4-.3-.7-.6-.9-1.1-.2-.4-.3-.8-.3-1.3,0-.5.1-1,.4-1.5.3-.5.8-.9,1.3-1.1.6-.3,1.3-.4,2.2-.4s1,0,1.5.1c.4,0,.7.1,1.1.3,0,0,0,0,.1.1,0,0,0,0,0,.1v2s0,0,0,.1c-.1,0-.2,0-.2,0-.4-.2-.8-.3-1.2-.4-.5,0-.9-.2-1.4-.2-.2,0-.5,0-.7,0-.2,0-.3.1-.4.2,0,0,0,.2,0,.3s0,.2.1.3c.1.1.3.2.4.3.3.1.6.3.9.4.7.2,1.3.5,1.9.9.4.3.7.6,1,1,.2.4.3.8.3,1.3,0,.6-.2,1.2-.5,1.7"/>
</svg>