<?xml version="1.0" encoding="UTF-8"?>
<svg id="Layer_1" xmlns="http://www.w3.org/2000/svg" version="1.1" viewBox="0 0 24 24">
  <!-- Generator: Adobe Illustrator 30.1.0, SVG Export Plug-In . SVG Version: 2.1.1 Build 136)  -->
  <path d="M10.6,11.4c-.1-.4-.3-.8-.4-1.2s-.3-.8-.4-1.2c-.1-.4-.2-.7-.3-1.1h0c-.1.6-.3,1.2-.5,1.7-.2.7-.4,1.3-.6,2-.2.7-.4,1.3-.6,1.9h3.4c0-.3-.2-.6-.3-1-.1-.4-.2-.8-.4-1.2M16.2,19.7h-2.8c0,0-.2,0-.2-.1l-1.1-3.2h-5l-1,3.2c0,.1-.1.2-.3.2h-2.5c-.1,0-.2,0-.1-.2L7.4,6.9c0-.1,0-.3.1-.4,0-.3,0-.6,0-.9,0,0,0-.1.1-.1h3.5c.1,0,.2,0,.2.1l4.9,14c0,.1,0,.2-.1.2M20.8,19.5c0,.1,0,.2-.2.2h-2.7c-.1,0-.2,0-.2-.2v-10.4c0-.1,0-.2.2-.2h2.7c.1,0,.2,0,.2.2v10.4ZM20.5,7.2c-.3.3-.8.5-1.2.5-.4,0-.9-.2-1.2-.5-.3-.3-.5-.8-.5-1.2,0-.5.2-.9.5-1.2.3-.3.8-.5,1.2-.5s.9.2,1.2.5c.3.3.5.8.4,1.2,0,.5-.1.9-.5,1.2"/>
</svg>