<?xml version="1.0" encoding="UTF-8"?>
<svg id="Layer_2" data-name="Layer 2" xmlns="http://www.w3.org/2000/svg" viewBox="0 0 583.936 667.802">
  <defs>
    <style>
      .cls-1 {
        stroke: #231f20;
        stroke-width: 3px;
      }

      .cls-1, .cls-2 {
        fill: #fff;
      }

      .cls-1, .cls-3 {
        stroke-miterlimit: 10;
      }

      .cls-3 {
        fill: none;
        stroke: #000;
        stroke-width: 2.212px;
      }

      .cls-4 {
        fill: #161616;
      }
    </style>
  </defs>
  <g id="Layer_1-2" data-name="Layer 1">
    <g>
      <g>
        <g>
          <path d="M105.11,68.559c-15.915,3.763-30.516,11.971-41.537,24.054-4.779,5.24-9.371,11.626-13.121,19.341-24.966,57.365-5.279,147.072-50.452,182.516,29.833,17.08,61.294,25.256,91.831,27.848l-16.252-196.515,156.052-13.467c84.91,188.328-71.141,181.798-71.141,181.798l6.386,24.604c61.041-10.272,106.215-34.448,106.215-34.448,0,0,21.659-260.564-167.98-215.731Z"/>
          <path class="cls-2" d="M170.816,333.921l-10.327-39.788s156.052,6.529,71.141-181.798l-156.052,13.467,17.212,208.119c-3.513,9.8,78.805,6.821,78.026,0Z"/>
          <g>
            <path d="M159.035,160.402c-6.188-4.312-12.225-6.48-18.015-6.48-1.795,0-3.566.208-5.31.625-10.722,2.565-16.019,12.233-16.239,12.644-1.285,2.394-.389,5.362,1.997,6.662,2.386,1.3,5.381.417,6.697-1.96.035-.063,3.534-6.266,9.924-7.751,4.49-1.044,9.637.426,15.295,4.369,2.239,1.562,5.32,1.012,6.88-1.229,1.56-2.24,1.01-5.32-1.229-6.88Z"/>
            <path d="M226.44,152.202c-6.188-4.312-12.225-6.48-18.015-6.48-1.795,0-3.566.208-5.31.625-4.284,1.025-7.688,3.185-10.262,5.435,0,0,0,0,0,0-1.184-.526-2.573-.573-3.839.023-2.309,1.087-3.3,3.841-2.214,6.151l13.5,28.682c2.235,4.748.734,10.375-3.569,13.378l-3.908,2.728c-2.093,1.461-2.606,4.343-1.145,6.436.899,1.288,2.335,1.977,3.794,1.977.914,0,1.836-.27,2.642-.833l3.907-2.728c8.007-5.59,10.801-16.06,6.642-24.896l-13.5-28.682c-.127-.27-.282-.519-.452-.752.171.232.324.481.452.752l2.981,6.333c1.678-1.745,4.151-3.668,7.347-4.41,4.49-1.044,9.637.426,15.295,4.369,2.239,1.562,5.32,1.012,6.88-1.229,1.561-2.24,1.01-5.32-1.229-6.88ZM193.581,152.186c-.01-.007-.02-.015-.03-.022.01.007.02.015.03.022ZM194.169,152.653c.061.057.113.126.171.186-.058-.061-.11-.129-.171-.186Z"/>
            <path d="M191.659,229.192c-4.26.586-6.631,8.921-5.298,18.617,1.334,9.696,5.868,17.082,10.127,16.496,4.259-.586,6.631-8.921,5.297-18.617-1.334-9.696-5.868-17.082-10.127-16.496Z"/>
          </g>
        </g>
        <path class="cls-3" d="M300.937,634.799c-2.132-11.788-3.132-23.788-6.098-34.643-.735-2.992-1.482-5.97-2.179-8.957-1.819-7.43-3.314-14.914-3.964-22.572-.219-2.553-.344-5.125-.375-7.731,6.483-19.885-9.517-28.885-27.731-29.507-3.136-.413-6.468-.745-9.929-.974s-7.045-.35-10.715-.35c-6.047.315-12.635.304-19.1.777-3.233.237-6.435.595-9.524,1.172-21.518-.003-23.518,22.997-19.315,39.516-.247,4.038-.796,8.046-1.578,12.045s-1.818,7.996-2.969,11.995c-.872,3.31-1.82,6.616-2.728,10.026-.655,2.403-1.339,4.821-2,7.215-4.928,13.201-6.928,29.201,3.072,39.201,12,11,30,12,45.049,14.506,3.268.161,6.544.214,9.815.154,16.352-.3,32.568-3.44,46.998-10.219,2.316-1.237,4.496-2.704,6.495-4.468,1.999-1.763,3.818-3.822,5.414-6.229,1.508-3.391,2.045-7.235,1.362-10.956ZM191.994,546.899c4.811-6.888,12.811-9.888,21.813-11.337,2.928-.491,5.911-.813,8.887-1.053,5.952-.481,11.872-.639,17.253-1.21,2.54,0,5.003.057,7.385.166s4.682.269,6.897.473c9.576.072,19.576,2.072,28.576,6.072,3,1,4,4,4,7-1,6-6,10-12.329,10.7-2.192.483-4.532.823-6.893,1.108-4.722.571-9.527.927-13.401,1.795-2.179.198-4.473.358-6.849.467-2.382.109-4.845.166-7.385.166-5.08,0-9.854-.23-14.282-.639s-8.511-.999-12.21-1.717c-2.826-.44-5.488-1.409-8.164-2.487s-5.321-2.274-8.212-3.148c-3.454-2.179-5.225-4.435-5.086-6.355Z"/>
        <path d="M317.243,469.186c-5.438-1.175-11.438-3.175-16.719-4.343l.788-3.592-16.485-1.773-5.47-2.895-15.065-.185-10.513-2.15-13.833,1.079-13.833-1.079-10.512,2.15-15.065.185-5.47,2.895-16.485,1.773.788,3.592s-4.182,1.086-8.364,2.173c-4.182,1.086-8.364,2.173-8.364,2.173l11.294,4.602c-1.132,2.221-3.132,3.221-5.132,4.221,2,2.3,3.98,4.61,5.94,6.93,1.96,2.32,3.9,4.649,5.821,6.987,9.239,12.083,19.239,23.083,27.359,35.713,1.708,2.423,3.411,4.851,5.099,7.286,3.375,4.869,6.673,9.765,9.896,14.685l1.287,1.95,4.05.69.558.698,3.361.192,1.797.565,3.238-.101,2.737.363,2.737-.363,3.237.101,1.798-.565,3.36-.192.558-.698,4.045-.69c1.561-3.276,3.842-6.164,6.222-8.966,10.901-22.585,46.901-48.585,44.037-68.843l11.302-4.568ZM301.886,475.562c-6.082.449-11.082,3.449-16.082,4.449-9,2-17,5-26.453,3.605l-7.176-.225-12.229,1.622-12.228-1.622c-4.914-.38-8.914,1.62-13.914.62-7-2-14-2-20-4-5-2-10-4-16-4,1-1,3-2,4-3-2-1-5-2-7-3,3-1,6-1,9-2-2-4,3-5,5.988-4.022l6.444-.693,5.297-2.803,14.49-.179,10.336-2.114,13.588,1.059,13.588-1.059,10.336,2.114,14.49.179,5.297,2.803,6.444.693c3.222.346,6.444.693,6.444.693l-.668,3.004,9.015,2.337-6.559,2.667,3.553,2.872Z"/>
        <path d="M311.991,536.336c-14.187,9.676-31.187,8.676-47.517,9.55-3.29.118-6.547.25-9.722.474-2.39.066-4.823.116-7.292.15-2.471.034-4.977.051-7.514.051-3.171,0-6.295-.027-9.36-.081-5.196-.117-10.467-.267-15.765-.536-2.649-.134-5.298-.302-7.866-.524-12.151-1.408-24.151-2.408-35.151-8.408,11-9,26-9,39.98-9.647,3.171-.016,6.351.008,9.517.018,6.332.02,12.609-.017,18.645-.565,2.537,0,5.043.017,7.514.051,3.706.051,7.329.137,10.804.234,15.54-.091,31.54.909,47.767,5.245,3.818,1.235,5.958,2.586,5.961,3.988Z"/>
        <path class="cls-4" d="M533.932,368.318c7.075-9.625-2.825-26.595,4.954-28.717,13.435-2.121,21.213-15.556,32.227-22.298,2.345-2.373,4.438-4.863,6.272-7.401,5.518-7.6,8.877-15.555,4.634-24.747-4.243-8.485-10.375-18.86-17.762-27.656-2.462-2.932-5.064-5.689-7.782-8.141-8.397-9.458-23.953-13.7-36.681-6.629-1.414,0-3.536-.707-4.243-2.828-9.192-20.506-4.95-53.033-34.501-54.004-2.957-.45-6.182-.808-9.589-1.077l-14.629-7.797c-5.088-2.712-10.802-4.035-16.564-3.836h0c-6.102.21-12.025,2.119-17.102,5.512l-15.301,10.225c-3.684.759-7.167,1.591-10.413,2.485-3.246.893-6.254,1.847-8.986,2.849-7.265,1.802-14.336,6.045-15.044,10.994-5.657,29.698,7.071,73.539-17.678,82.731-5.185,2.357-10.057.471-14.529-3.798-2.236-2.135-4.369-4.868-6.333-8.009-13.787-25.669-15.201-62.439-49.85-68.803-2.121-.707-2.121,6.364-4.95,9.192,9.192,3.536,18.385,8.485,24.042,16.971,12.728,18.385,10.607,41.719,25.411,57.961,1.904,2.152,3.944,4.189,6.109,6.102l26.211,23.169s-.437,5.193-1.014,12.116c1.266,18.03-10.048,43.486,9.452,54.695,2.451,1.343,5.236,2.544,8.288,3.616,4.897,1.72,10.477,3.115,16.554,4.198,3.039.541,6.204,1.007,9.481,1.407,32.444,6.441,64.971,5.026,95.629-6.832,3.487-.948,6.839-1.946,10.031-3.013,7.395-2.099,15.173-7.049,20.067-13.269,1.405-1.754,2.6-3.55,3.588-5.369ZM539.407,327.438c-6.178-1.979-4.057-9.757-5.676-14.315-.549-2.869-1.104-5.678-1.662-8.446-2.79-13.838-5.649-26.641-8.059-40.652-.482-2.802-.946-5.653-1.388-8.57-1.414-5.657,3.536-7.778,7.778-9.192,3.536-.707,6.364,3.536,10.739,3.984,2.416,1.213,4.812,2.54,7.149,3.982,14.021,8.651,25.953,21.379,25.953,37.289.236,4.95-1.414,9.428-4.042,13.716-1.314,2.144-2.872,4.24-4.565,6.324-6.242,6.123-11.899,11.78-18.471,17.931l-7.755-2.052Z"/>
      </g>
      <path class="cls-1" d="M562.081,56.033c-4.062-37.956-74.55-61.535-157.44-52.666-82.89,8.87-146.794,46.829-142.733,84.785,2.215,20.699,24.188,37.121,57.152,46.338,4.744,1.326,7.53,6.228,6.171,10.963l-2.811,9.8c-.669,2.332,2.224,4.009,3.916,2.27l14.191-14.598c1.943-1.999,4.713-2.969,7.476-2.6,21.565,2.88,45.869,3.219,71.345.493,82.891-8.87,146.794-46.829,142.733-84.785Z"/>
      <g>
        <path d="M325.74,97.014l-2.71-25.324-8.328.892-.474-4.419,21.5-2.301.474,4.419-8.583.919,2.709,25.324-4.588.49Z"/>
        <path d="M340.908,95.391l-2.387-22.308,4.419-.473.75,7.011-.606-1.653c.196-1.109.623-2.145,1.279-3.104.656-.957,1.447-1.744,2.369-2.358.924-.614,1.908-.979,2.957-1.091.48-.052.945-.058,1.395-.02.447.038.806.101,1.072.187l-.638,4.882c-.354-.105-.743-.186-1.165-.241-.421-.056-.83-.062-1.227-.019-.766.081-1.479.308-2.141.679-.663.373-1.228.849-1.695,1.429s-.82,1.233-1.058,1.961c-.238.728-.312,1.502-.225,2.323l1.318,12.322-4.419.473Z"/>
        <path d="M362.816,102.931l3.392-10.891.415,3.479-13.824-23.963,5.099-.546,8.723,15.656c.173.269.389.683.648,1.241.261.559.492,1.115.694,1.666l-1.077.373c.163-.619.319-1.237.468-1.854.149-.617.291-1.234.425-1.852l4.098-16.726,5.185-.555-6.791,23.289-2.735,10.178-4.718.504Z"/>
        <path d="M394.616,89.645l-3.364-31.442,4.376-.469,1.469,13.724-.71.592c.176-1.021.631-1.994,1.363-2.919.731-.923,1.636-1.707,2.714-2.353,1.075-.645,2.21-1.031,3.399-1.159,1.699-.182,3.151,0,4.356.545,1.203.545,2.162,1.466,2.875,2.765.711,1.299,1.179,2.982,1.399,5.05l1.455,13.598-4.377.469-1.423-13.299c-.137-1.275-.419-2.313-.85-3.111-.43-.8-1.019-1.353-1.768-1.659-.748-.307-1.645-.375-2.687-.206-.85.091-1.614.309-2.294.652-.679.346-1.255.787-1.728,1.324-.473.538-.822,1.142-1.053,1.811-.229.669-.304,1.372-.225,2.108l1.445,13.512-2.167.232c-.368.039-.737.078-1.105.118-.368.039-.736.078-1.104.118Z"/>
        <path d="M429.971,86.292c-2.182.233-4.184-.062-6.005-.884-1.822-.821-3.32-2.051-4.498-3.687-1.179-1.638-1.887-3.573-2.126-5.811-.24-2.238.042-4.281.848-6.13.805-1.849,2.01-3.366,3.617-4.556,1.606-1.188,3.5-1.9,5.682-2.134,2.152-.23,4.139.066,5.961.888,1.82.823,3.32,2.051,4.499,3.688,1.177,1.637,1.886,3.573,2.126,5.812.239,2.237-.044,4.279-.848,6.129-.807,1.848-2.013,3.367-3.618,4.555-1.606,1.189-3.485,1.899-5.638,2.13ZM429.543,82.297c1.331-.143,2.486-.602,3.461-1.38.978-.778,1.702-1.772,2.174-2.984.474-1.21.617-2.536.435-3.978-.13-1.476-.552-2.758-1.271-3.84-.718-1.084-1.636-1.895-2.754-2.435-1.116-.539-2.342-.737-3.673-.595-1.332.143-2.492.604-3.483,1.382-.992.78-1.723,1.774-2.194,2.986-.473,1.21-.617,2.537-.434,3.979.126,1.447.548,2.713,1.265,3.796.718,1.084,1.644,1.902,2.777,2.454,1.133.553,2.365.757,3.697.614Z"/>
        <path d="M452.699,83.429l-11.819-21.298,4.717-.505,8.585,15.972-.767.469,5.438-17.859,4.504-.481-7.514,23.367-3.145.336Z"/>
        <path d="M479.556,80.986c-2.294.245-4.379-.026-6.254-.813-1.875-.788-3.406-1.978-4.594-3.57s-1.899-3.492-2.136-5.702c-.188-1.756-.075-3.388.336-4.893.412-1.505,1.063-2.842,1.955-4.012.893-1.17,2.01-2.12,3.349-2.852,1.341-.73,2.831-1.184,4.476-1.36,1.443-.154,2.818-.021,4.125.396,1.305.42,2.469,1.062,3.493,1.926,1.023.864,1.854,1.93,2.491,3.193.636,1.264,1.022,2.677,1.162,4.238l.157,1.873-18.229,1.95-1.35-3.38,15.424-1.65-.561.791-.108-1.02c-.186-.925-.586-1.728-1.203-2.406-.618-.679-1.359-1.188-2.227-1.524s-1.782-.453-2.744-.351c-1.53.164-2.788.592-3.773,1.285-.987.692-1.689,1.627-2.107,2.804s-.539,2.586-.363,4.229c.167,1.558.637,2.876,1.41,3.954.774,1.077,1.79,1.864,3.047,2.36s2.663.66,4.222.493c1.104-.118,2.111-.411,3.021-.883.909-.468,1.864-1.244,2.867-2.325l2.54,2.865c-.606.752-1.371,1.436-2.293,2.05-.924.614-1.915,1.13-2.973,1.543-1.06.414-2.113.678-3.161.79Z"/>
        <path d="M494,79.01l-2.387-22.308,4.418-.473.75,7.011-.606-1.654c.197-1.109.623-2.144,1.28-3.103.655-.957,1.446-1.744,2.368-2.358.923-.614,1.907-.979,2.956-1.091.482-.052.946-.058,1.395-.02.449.038.808.101,1.073.187l-.638,4.881c-.354-.104-.743-.185-1.165-.24-.421-.056-.83-.062-1.227-.02-.765.082-1.479.309-2.142.68-.662.372-1.227.849-1.693,1.428-.469.581-.821,1.234-1.059,1.962-.238.728-.312,1.502-.225,2.323l1.318,12.322-4.418.473Z"/>
      </g>
    </g>
  </g>
</svg>