<?xml version="1.0" encoding="UTF-8"?>
<svg id="Layer_2" data-name="Layer 2" xmlns="http://www.w3.org/2000/svg" viewBox="0 0 567.096 713.709">
  <defs>
    <style>
      .cls-1 {
        fill: #7c2300;
      }

      .cls-2 {
        stroke-width: 3px;
      }

      .cls-2, .cls-3, .cls-4 {
        fill: #fff;
      }

      .cls-2, .cls-4 {
        stroke: #231f20;
      }

      .cls-2, .cls-4, .cls-5 {
        stroke-miterlimit: 10;
      }

      .cls-5 {
        fill: none;
        stroke: #000;
        stroke-width: 2.212px;
      }

      .cls-6 {
        fill: #161616;
      }
    </style>
  </defs>
  <g id="Layer_1-2" data-name="Layer 1">
    <g>
      <g>
        <g>
          <path d="M105.11,114.466c-15.915,3.763-30.516,11.971-41.537,24.054-4.779,5.24-9.371,11.626-13.121,19.341-24.966,57.365-5.279,147.072-50.452,182.516,29.833,17.08,61.294,25.256,91.831,27.848l-16.252-196.515,156.052-13.467c84.91,188.328-71.141,181.798-71.141,181.798l6.386,24.604c61.041-10.272,106.215-34.448,106.215-34.448,0,0,21.659-260.564-167.98-215.731Z"/>
          <path class="cls-3" d="M170.816,379.829l-10.327-39.788s156.052,6.529,71.141-181.798l-156.052,13.467,17.212,208.119c-3.513,9.8,78.805,6.821,78.026,0Z"/>
          <g>
            <path d="M159.035,206.31c-6.188-4.312-12.225-6.48-18.015-6.48-1.795,0-3.566.208-5.31.625-10.722,2.565-16.019,12.233-16.239,12.644-1.285,2.394-.389,5.362,1.997,6.662,2.386,1.3,5.381.417,6.697-1.96.035-.063,3.534-6.266,9.924-7.751,4.49-1.044,9.637.426,15.295,4.369,2.239,1.562,5.32,1.012,6.88-1.229,1.56-2.24,1.01-5.32-1.229-6.88Z"/>
            <path d="M226.44,198.109c-6.188-4.312-12.225-6.48-18.015-6.48-1.795,0-3.566.208-5.31.625-4.284,1.025-7.688,3.185-10.262,5.435,0,0,0,0,0,0-1.184-.526-2.573-.573-3.839.023-2.309,1.087-3.3,3.841-2.214,6.151l13.5,28.682c2.235,4.748.734,10.375-3.569,13.378l-3.908,2.728c-2.093,1.461-2.606,4.343-1.145,6.436.899,1.288,2.335,1.977,3.794,1.977.914,0,1.836-.27,2.642-.833l3.907-2.728c8.007-5.59,10.801-16.06,6.642-24.896l-13.5-28.682c-.127-.27-.282-.519-.452-.752.171.232.324.481.452.752l2.981,6.333c1.678-1.745,4.151-3.668,7.347-4.41,4.49-1.044,9.637.426,15.295,4.369,2.239,1.562,5.32,1.012,6.88-1.229,1.561-2.24,1.01-5.32-1.229-6.88ZM193.581,198.093c-.01-.007-.02-.015-.03-.022.01.007.02.015.03.022ZM194.169,198.56c.061.057.113.126.171.186-.058-.061-.11-.129-.171-.186Z"/>
            <path d="M191.659,275.099c-4.26.586-6.631,8.921-5.298,18.617,1.334,9.696,5.868,17.082,10.127,16.496,4.259-.586,6.631-8.921,5.297-18.617-1.334-9.696-5.868-17.082-10.127-16.496Z"/>
          </g>
        </g>
        <path class="cls-5" d="M300.937,680.706c-2.132-11.788-3.132-23.788-6.098-34.643-.735-2.992-1.482-5.97-2.179-8.957-1.819-7.43-3.314-14.914-3.964-22.572-.219-2.553-.344-5.125-.375-7.731,6.483-19.885-9.517-28.885-27.731-29.507-3.136-.413-6.468-.745-9.929-.974s-7.045-.35-10.715-.35c-6.047.315-12.635.304-19.1.777-3.233.237-6.435.595-9.524,1.172-21.518-.003-23.518,22.997-19.315,39.516-.247,4.038-.796,8.046-1.578,12.045s-1.818,7.996-2.969,11.995c-.872,3.31-1.82,6.616-2.728,10.026-.655,2.403-1.339,4.821-2,7.215-4.928,13.201-6.928,29.201,3.072,39.201,12,11,30,12,45.049,14.506,3.268.161,6.544.214,9.815.154,16.352-.3,32.568-3.44,46.998-10.219,2.316-1.237,4.496-2.704,6.495-4.468,1.999-1.763,3.818-3.822,5.414-6.229,1.508-3.391,2.045-7.235,1.362-10.956ZM191.994,592.807c4.811-6.888,12.811-9.888,21.813-11.337,2.928-.491,5.911-.813,8.887-1.053,5.952-.481,11.872-.639,17.253-1.21,2.54,0,5.003.057,7.385.166s4.682.269,6.897.473c9.576.072,19.576,2.072,28.576,6.072,3,1,4,4,4,7-1,6-6,10-12.329,10.7-2.192.483-4.532.823-6.893,1.108-4.722.571-9.527.927-13.401,1.795-2.179.198-4.473.358-6.849.467-2.382.109-4.845.166-7.385.166-5.08,0-9.854-.23-14.282-.639s-8.511-.999-12.21-1.717c-2.826-.44-5.488-1.409-8.164-2.487s-5.321-2.274-8.212-3.148c-3.454-2.179-5.225-4.435-5.086-6.355Z"/>
        <path d="M317.243,515.093c-5.438-1.175-11.438-3.175-16.719-4.343l.788-3.592-16.485-1.773-5.47-2.895-15.065-.185-10.513-2.15-13.833,1.079-13.833-1.079-10.512,2.15-15.065.185-5.47,2.895-16.485,1.773.788,3.592s-4.182,1.086-8.364,2.173c-4.182,1.086-8.364,2.173-8.364,2.173l11.294,4.602c-1.132,2.221-3.132,3.221-5.132,4.221,2,2.3,3.98,4.61,5.94,6.93,1.96,2.32,3.9,4.649,5.821,6.987,9.239,12.083,19.239,23.083,27.359,35.713,1.708,2.423,3.411,4.851,5.099,7.286,3.375,4.869,6.673,9.765,9.896,14.685l1.287,1.95,4.05.69.558.698,3.361.192,1.797.565,3.238-.101,2.737.363,2.737-.363,3.237.101,1.798-.565,3.36-.192.558-.698,4.045-.69c1.561-3.276,3.842-6.164,6.222-8.966,10.901-22.585,46.901-48.585,44.037-68.843l11.302-4.568ZM301.886,521.47c-6.082.449-11.082,3.449-16.082,4.449-9,2-17,5-26.453,3.605l-7.176-.225-12.229,1.622-12.228-1.622c-4.914-.38-8.914,1.62-13.914.62-7-2-14-2-20-4-5-2-10-4-16-4,1-1,3-2,4-3-2-1-5-2-7-3,3-1,6-1,9-2-2-4,3-5,5.988-4.022l6.444-.693,5.297-2.803,14.49-.179,10.336-2.114,13.588,1.059,13.588-1.059,10.336,2.114,14.49.179,5.297,2.803,6.444.693c3.222.346,6.444.693,6.444.693l-.668,3.004,9.015,2.337-6.559,2.667,3.553,2.872Z"/>
        <path class="cls-4" d="M270.576,374.491s-2.737,3.542-5.474,7.084l-5.473,7.083-.015,10.559c-2.809,3.701-6.809,7.701-6.809,11.701,1,24,1,47-9.262,68.658l-3.595,8.757v9.53l.732,3.313.854,3.866,1.999,9.047-1.367,10.806-1.275,5.9,7.03-.932.599-8.389-3.294-16.719-.128-3.923v-10.15l5.865-10.264c7.842-8.5,4.842-21.5,6.842-29.5,4-12-2-25,1-34,3-8,6-13,7.226-23.168.653-2.067,1.539-4.046,2.568-5.987,3.089-5.823,7.471-11.301,10.736-17.756l-8.758,4.484Z"/>
        <path d="M311.991,582.243c-14.187,9.676-31.187,8.676-47.517,9.55-3.29.118-6.547.25-9.722.474-2.39.066-4.823.116-7.292.15-2.471.034-4.977.051-7.514.051-3.171,0-6.295-.027-9.36-.081-5.196-.117-10.467-.267-15.765-.536-2.649-.134-5.298-.302-7.866-.524-12.151-1.408-24.151-2.408-35.151-8.408,11-9,26-9,39.98-9.647,3.171-.016,6.351.008,9.517.018,6.332.02,12.609-.017,18.645-.565,2.537,0,5.043.017,7.514.051,3.706.051,7.329.137,10.804.234,15.54-.091,31.54.909,47.767,5.245,3.818,1.235,5.958,2.586,5.961,3.988Z"/>
        <path class="cls-1" d="M294.675,682.332c-.871-15.414-2.871-36.414-21.81-38.814-2.921-.865-5.979-1.523-9.068-2.028-3.089-.505-6.208-.859-9.251-1.117-2.267-.21-4.625-.374-7.066-.485-2.442-.111-4.967-.17-7.571-.17s-5.132.059-7.575.17c-2.443.11-4.803.273-7.074.48-3.557-.181-6.935.02-10.118.561s-6.17,1.422-8.946,2.601c-5.131,2.13-9.218,5.438-12.424,9.459-1.603,2.01-2.986,4.198-4.169,6.487-5.799,11.443-11.799,30.443,2.201,36.443,12,6,25,10,38.031,10.3,3.267.181,6.541.248,9.808.195,16.337-.265,32.512-3.535,46.863-10.574,2.635-1.693,5.069-3.749,7.223-6.315.988-2.21,1.366-4.733.945-7.193Z"/>
        <path class="cls-6" d="M565.608,307.727c-1.803-11.808-20.803-16.808-16.803-23.808,8-11,4-26,7.021-38.555-.019-3.336-.3-6.577-.799-9.669-1.472-9.276-4.722-17.276-14.222-20.776-9-3-20.672-6-32.115-6.996-3.814-.332-7.604-.441-11.26-.254-12.625-.75-26.625,7.25-30.625,21.25-1,1-3,2-5,1-21-8-41-34-62.583-13.791-2.409,1.773-4.943,3.8-7.541,6.019l-15.857,4.831c-5.516,1.68-10.491,4.785-14.425,9h0c-4.166,4.464-7.004,10.002-8.195,15.99l-3.589,18.05c-2.068,3.141-3.943,6.193-5.606,9.12-1.664,2.927-3.116,5.729-4.34,8.369-3.863,6.412-5.863,14.412-2.863,18.412,17,25,57,47,46,71-2,5.333-6.778,7.444-12.959,7.588-3.091.072-6.532-.353-10.141-1.186-27.9-8.402-54.9-33.402-83.9-13.402-2,1,3,6,3,10,9-4,19-7,29-5,22,4,37,22,58.953,23.017,2.868.175,5.751.173,8.635-.005l34.917-2.151s3.363,3.981,7.851,9.284c13.645,11.854,23.645,37.854,45.358,31.991,2.683-.783,5.501-1.904,8.418-3.304,4.679-2.246,9.611-5.206,14.674-8.737,2.531-1.766,5.099-3.675,7.699-5.709,27.496-18.387,49.496-42.387,62.789-72.451,1.795-3.136,3.46-6.211,4.962-9.223,3.745-6.713,5.745-15.713,4.807-23.571-.247-2.234-.671-4.349-1.259-6.333ZM540.572,274.949c-5.768,2.97-9.768-4.03-14.136-6.108-2.417-1.641-4.796-3.234-7.148-4.797-11.758-7.813-22.832-14.844-34.443-23.047-2.322-1.641-4.666-3.328-7.041-5.078-5-3-3-8-1-12,2-3,7-2,10.41-4.776,2.566-.851,5.199-1.606,7.871-2.239,16.031-3.797,33.469-3.234,44.719,8.016,3.667,3.333,5.667,7.667,6.84,12.557.587,2.445.967,5.029,1.244,7.7-.084,8.743-.084,16.743-.382,25.741l-6.934,4.033Z"/>
      </g>
      <path class="cls-2" d="M562.081,56.033c-4.062-37.956-74.55-61.535-157.44-52.666-82.89,8.87-146.794,46.829-142.733,84.785,2.215,20.699,24.188,37.121,57.152,46.338,4.744,1.326,7.53,6.228,6.171,10.963l-2.811,9.8c-.669,2.332,2.224,4.009,3.916,2.27l14.191-14.598c1.943-1.999,4.713-2.969,7.476-2.6,21.565,2.88,45.869,3.219,71.345.493,82.891-8.87,146.794-46.829,142.733-84.785Z"/>
      <g>
        <path d="M294.321,99.467l-3.426-32.007,4.938-.528,3.425,32.007-4.938.528ZM295.016,85.656l-.509-4.755,20.942-2.24.509,4.755-20.942,2.24ZM315.218,97.231l-3.426-32.007,4.938-.528,3.425,32.007-4.938.528Z"/>
        <path d="M337.214,95.34c-1.982.213-3.848-.143-5.595-1.066-1.749-.923-3.212-2.275-4.389-4.062-1.179-1.785-1.895-3.867-2.148-6.245-.258-2.407.008-4.602.799-6.583.789-1.98,1.974-3.596,3.552-4.844,1.577-1.247,3.418-1.983,5.521-2.209,1.25-.134,2.412-.073,3.488.182,1.074.254,2.036.669,2.884,1.241s1.569,1.258,2.163,2.057c.594.8,1.004,1.682,1.231,2.644l-1.092-.253-.665-6.218,4.756-.509,2.568,24.005-4.756.509-.611-5.715,1.063-.438c-.096.843-.384,1.683-.864,2.521s-1.123,1.607-1.926,2.312c-.804.702-1.712,1.292-2.725,1.771-1.013.479-2.098.78-3.256.903ZM337.983,90.863c1.433-.153,2.66-.638,3.683-1.458,1.022-.818,1.779-1.878,2.272-3.18.493-1.301.654-2.743.485-4.329-.167-1.555-.628-2.908-1.383-4.062-.756-1.151-1.719-2.02-2.892-2.604-1.173-.583-2.475-.799-3.908-.646-1.402.15-2.607.634-3.613,1.45-1.008.818-1.759,1.87-2.253,3.155-.495,1.287-.658,2.707-.492,4.262.17,1.586.633,2.962,1.39,4.129.757,1.168,1.715,2.044,2.872,2.63,1.156.586,2.437.803,3.839.652Z"/>
        <path d="M364.188,91.99l-12.72-22.918,5.075-.543,9.239,17.187-.825.504,5.853-19.218,4.847-.519-8.086,25.146-3.383.361Z"/>
        <path d="M393.091,89.361c-2.47.265-4.714-.028-6.731-.876-2.017-.848-3.665-2.128-4.942-3.842-1.279-1.712-2.045-3.758-2.299-6.136-.202-1.89-.082-3.645.361-5.265s1.145-3.061,2.104-4.318c.96-1.259,2.161-2.281,3.604-3.068,1.441-.786,3.046-1.273,4.815-1.463,1.555-.166,3.033-.024,4.439.427,1.404.45,2.657,1.143,3.759,2.071,1.102.931,1.995,2.076,2.681,3.437.685,1.361,1.102,2.881,1.251,4.562l.17,2.017-19.616,2.099-1.453-3.638,16.598-1.775-.603.851-.117-1.097c-.199-.996-.631-1.859-1.294-2.591-.665-.731-1.463-1.277-2.396-1.64-.935-.363-1.919-.488-2.954-.378-1.646.177-3.001.638-4.062,1.382-1.061.746-1.817,1.752-2.267,3.019-.45,1.266-.581,2.783-.392,4.551.179,1.677.685,3.095,1.519,4.254.833,1.16,1.926,2.007,3.277,2.54,1.353.534,2.867.711,4.543.531,1.189-.127,2.273-.442,3.252-.949.979-.504,2.008-1.339,3.086-2.504l2.734,3.084c-.653.81-1.477,1.545-2.47,2.206-.992.661-2.06,1.215-3.198,1.661-1.14.445-2.273.729-3.4.85Z"/>
        <path d="M430.723,85.335c-1.982.212-3.847-.144-5.595-1.067-1.749-.923-3.212-2.275-4.389-4.062-1.179-1.785-1.895-3.868-2.148-6.246-.258-2.407.008-4.602.799-6.583.789-1.98,1.974-3.595,3.552-4.844,1.577-1.247,3.418-1.983,5.521-2.208,1.25-.134,2.412-.074,3.489.181,1.074.254,2.036.669,2.884,1.241.848.573,1.568,1.258,2.163,2.057.595.8,1.004,1.682,1.231,2.645l-1.092-.254-.665-6.218,4.755-.509,2.568,24.005-4.755.509-.611-5.715,1.063-.438c-.096.843-.383,1.683-.864,2.52-.48.838-1.123,1.608-1.926,2.312-.805.702-1.712,1.292-2.724,1.771-1.014.479-2.099.78-3.257.904ZM431.491,80.858c1.434-.153,2.661-.638,3.684-1.457s1.779-1.879,2.272-3.18c.493-1.302.655-2.744.485-4.33-.167-1.555-.628-2.908-1.383-4.061-.756-1.152-1.719-2.021-2.892-2.604s-2.476-.8-3.908-.646c-1.401.15-2.607.634-3.613,1.451-1.008.817-1.759,1.869-2.253,3.154-.494,1.287-.658,2.707-.492,4.262.17,1.586.633,2.962,1.39,4.129.757,1.168,1.714,2.044,2.872,2.63,1.156.586,2.437.803,3.838.652Z"/>
        <path d="M471.234,81c-2.012.215-3.863.059-5.553-.47-1.692-.528-3.145-1.422-4.356-2.679l2.906-3.087c1.029.971,2.109,1.632,3.242,1.989,1.132.356,2.385.461,3.757.314.549-.059,1.052-.181,1.51-.369s.847-.438,1.169-.75c.32-.312.553-.667.694-1.068.142-.4.189-.829.14-1.287-.084-.792-.443-1.4-1.074-1.827-.327-.181-.833-.365-1.516-.554-.684-.189-1.559-.366-2.624-.53-1.816-.267-3.32-.631-4.51-1.089-1.19-.459-2.129-1.021-2.817-1.688-.52-.529-.922-1.126-1.209-1.789s-.474-1.405-.562-2.229c-.107-1.006.014-1.951.367-2.837.352-.886.884-1.682,1.594-2.391.711-.708,1.574-1.286,2.59-1.733s2.117-.735,3.307-.862c1.128-.121,2.265-.089,3.41.097,1.145.187,2.221.519,3.228.995,1.007.479,1.873,1.08,2.598,1.804l-2.379,3.261c-.642-.517-1.328-.96-2.062-1.328s-1.464-.638-2.19-.807c-.729-.169-1.382-.223-1.96-.16-.641.068-1.213.192-1.718.369-.506.178-.921.407-1.244.688-.326.28-.56.615-.702,1-.145.385-.192.807-.144,1.264.072.393.212.756.417,1.089s.474.604.805.814c.361.21.892.414,1.592.617.7.202,1.581.37,2.644.503,1.567.232,2.87.533,3.912.899,1.041.367,1.884.824,2.529,1.371.672.515,1.169,1.14,1.495,1.875.325.736.538,1.577.64,2.521.146,1.372-.11,2.641-.771,3.806-.662,1.166-1.616,2.123-2.861,2.873s-2.676,1.212-4.292,1.385Z"/>
        <path d="M485.014,49.417c-1.006.107-1.811-.068-2.415-.528-.604-.459-.957-1.16-1.059-2.106-.095-.884.11-1.63.616-2.239.505-.609,1.245-.966,2.222-1.07,1.006-.107,1.811.069,2.415.527.604.46.957,1.163,1.058,2.106.095.885-.111,1.631-.615,2.241-.507.608-1.247.965-2.222,1.069ZM485.864,78.971l-2.569-24.004,4.709-.504,2.569,24.004-4.709.504Z"/>
        <path d="M498.874,87.755l-3.646-34.065,4.756-.509.587,5.486-.775-.333c.086-.935.51-1.865,1.273-2.796.764-.93,1.734-1.727,2.912-2.394,1.178-.664,2.421-1.067,3.732-1.208,2.164-.231,4.143.097,5.933.984s3.273,2.209,4.447,3.964c1.175,1.755,1.891,3.838,2.148,6.245.254,2.378.002,4.555-.757,6.531-.761,1.979-1.921,3.599-3.48,4.86-1.562,1.262-3.393,2.004-5.497,2.229-1.402.15-2.789.013-4.16-.41-1.371-.424-2.561-1.028-3.57-1.814-1.009-.786-1.671-1.641-1.985-2.563l1.12-.768,1.718,16.051-4.756.509ZM509.266,72.489c1.4-.149,2.613-.633,3.636-1.452,1.022-.818,1.788-1.872,2.298-3.16.511-1.286.682-2.708.516-4.263-.167-1.555-.627-2.9-1.381-4.038-.754-1.137-1.716-1.997-2.89-2.582-1.171-.582-2.475-.799-3.906-.646-1.434.153-2.661.633-3.686,1.436s-1.791,1.849-2.301,3.137-.682,2.709-.516,4.264c.167,1.555.636,2.908,1.406,4.058.771,1.15,1.741,2.019,2.914,2.603s2.476.798,3.909.645Z"/>
        <path d="M526.156,63.514c-.419-1.897-.822-3.865-1.21-5.905s-.735-4.061-1.042-6.063c-.307-2.002-.556-3.901-.748-5.7l-.343-3.2,4.938-.528.343,3.2c.202,1.891.368,3.876.499,5.959s.22,4.146.27,6.191c.049,2.046.062,3.963.037,5.754l-2.743.293ZM528.624,74.905c-1.006.107-1.814-.106-2.427-.642-.612-.536-.978-1.354-1.095-2.45-.107-1.007.094-1.86.604-2.562.511-.702,1.239-1.104,2.184-1.205,1.006-.107,1.816.107,2.428.643.612.535.979,1.352,1.096,2.449.107,1.006-.096,1.86-.605,2.562-.512.701-1.238,1.104-2.184,1.205Z"/>
      </g>
    </g>
  </g>
</svg>