<?xml version="1.0" encoding="UTF-8"?>
<svg id="Layer_2" data-name="Layer 2" xmlns="http://www.w3.org/2000/svg" viewBox="0 0 186.848 255.67">
  <g id="Layer_1-2" data-name="Layer 1">
    <path d="M168.956.009s-2.582,0-7.078.024C127.481,2.186,93.481,2.186,59.836.009H26.732C-11.519-.814,7.481,53.186,2.126,78.562c-.003,2.514-.005,5.07-.007,7.661v86.664c2.362,25.3-9.638,56.3,6.362,74.3,6,6,13.969,8.062,22.808,8.424,2.946.119,5.989.05,9.09-.129,33.102-5.295,66.102-2.295,98.727-1.877h29.85c4.493,0,8.561-1.821,11.505-4.766,1.472-1.472,2.664-3.225,3.489-5.172,5.531-31.481,1.531-62.481,1.057-93.803-.127-3.214-.23-6.412-.331-9.602-.101-3.19-.203-6.372-.304-9.548-2.892-31.527-1.892-62.527.79-94.869.052-3.033.06-5.773.064-8.176v-11.389C185.227,7.294,177.942.009,168.956.009ZM68.897,191.448c-4.416-.262-10.416-1.262-12.416.738s0,9-2,11c-3,3-11,3-14,0-2-2,0-9-2-11s-9,0-11-2c-3-3-3-11,0-14,2-2,8,0,12-2,1,0,0-3,.057-5.376-.011-3.317-.012-6.643-.012-6.643,4.955.019,11.955-1.981,14.955,1.019,2,2,.011,8.989,2.014,10.986,5.986,2.014,14.986.014,12.373,9.184.013,4.074.028,8.092.028,8.092ZM121.332,193.423c-2.74,0-5.224-1.115-7.024-2.914-3.827-4.323-3.827-10.323.173-14.323s10-4,13.875.275c1.799,1.8,2.914,4.284,2.914,7.024,0,5.479-4.458,9.938-9.938,9.938ZM129.869,165c0-2.748,1.115-5.23,2.914-7.022s4.284-2.905,7.024-2.905c5.48,0,9.938,4.458,9.938,9.938s-4.458,9.938-9.938,9.938c-2.74,0-5.224-1.115-7.024-2.914s-2.914-4.286-2.914-7.035ZM139.807,211.899c-5.48,0-9.938-4.458-9.938-9.938s4.458-9.938,9.938-9.938c2.74,0,5.224,1.115,7.024,2.914,1.8,1.8,2.917,4.284,2.916,7.024s-1.116,5.225-2.916,7.024-4.284,2.914-7.024,2.914ZM158.456,193.443c-4.975-.257-9.975-5.257-9.975-10.257s5-10,10-10,10,5,10,10c0,3-1,5-2.744,7.382-1.87,1.788-4.454,2.887-7.281,2.875ZM174.755,129.604c-.136,3.291-2.205,4.436-4.799,4.738s-5.713-.241-7.951-.327c-2.656-.005-5.903-.006-9.601-.006h-11.215c-2.029-.006-4.13-.009-6.293-.019-31.415-.805-61.415-1.805-91.992-.045-3.893.051-7.472.059-10.65.064h-15.469c-2.577,0-4.665-2.003-4.665-4.475v-50.352c0-2.38,0-4.777,0-7.174,1.362-19.823-4.638-41.823,3.362-59.823,2-4,12-2,19.462-2.177h24.172c2.069.005,4.18.007,6.323.013,33.044,2.164,66.044,2.164,99.106-.013h6.019c2.576,0,4.665,2.003,4.665,4.474v12.9c-.005,2.635-.019,5.594-.082,8.799-1.664,28.003-3.664,57.003-.782,84.931.262,5.309.392,8.491.392,8.491Z"/>
  </g>
</svg>