<?xml version="1.0" encoding="UTF-8"?>
<svg id="Layer_2" data-name="Layer 2" xmlns="http://www.w3.org/2000/svg" viewBox="0 0 369.087 388.148">
  <g id="Layer_1-2" data-name="Layer 1">
    <g>
      <path d="M318.606-4.133c-.689.002-151.019,21.281-238.702,29.738-2.388.255-4.732.507-7.026.75-20.357,3.689-44.58-.562-61.228,10.093-20.937,13.072-7.307,43.704-6.878,65.243.432,3.486.783,6.957.976,10.4.196,3.442.235,6.86.041,10.242.234,2.324.479,4.681.721,7.077,5.235,48.268,11.066,110.026,15.041,158.68.273,3.243.539,6.427.8,9.543,4.031,24.543-.8,50.975,7.981,74.557,1.258,2.416,2.952,4.565,4.969,6.348,4.031,3.561,9.353,5.651,14.969,5.282,0-.001,4.01-.263,11.094-.745,2.361-.161,5.064-.347,8.074-.555,31.775-4.681,64.217-7.118,96.182-6.758,2.793-.182,5.603-.364,8.425-.549,25.571-1.678,52.136-3.251,76.789-4.62,2.417-.211,4.839-.386,7.243-.558,32.541-1.908,66.541-3.628,100.888-7.302,2.446-1.213,4.597-2.905,6.359-4.936,10.588-29.031-4.66-61.867-2.618-91.409-.22-2.19-.442-4.411-.666-6.657-4.32-42.729-9.105-94.669-12.731-139.925-.222-2.724-.441-5.424-.656-8.096-4.215-31.589-7.564-63.306-7.814-96.693-.237-2.994-1.048-5.761-2.3-8.224-3.757-7.369-11.505-12.036-19.933-10.926ZM314.412,346.637c-11.178,18.761-46.015,8.255-66.813,11.554-2.147.106-4.329.218-6.543.329-24.352,1.222-52.432,2.722-79.562,4.44-2.656.168-5.304.337-7.938.505-25.182,1.362-50.661,3.24-75.942,5.478-3.56.278-6.86.539-9.863.777-12.011.951-19.245,1.529-19.243,1.528-4.314.335-8.15-3.044-8.547-7.509,0,0-.118-1.331-.337-3.807-1.433-16.037-2.736-32.103-3.97-48.072-.3-3.815-.61-7.773-.928-11.855-3.985-53.167-9.944-126.183-15.84-179.666-.246-2.317-.489-4.602-.729-6.839.38-2.845.423-5.793.262-8.808-.26-20.312-13.927-47.005,2.975-57.616,15.939-8.545,39.771-8.055,59.767-9.583,2.357-.233,4.757-.472,7.193-.712,77.568-6.865,190.804-21.676,191.298-22.139,4.29-.593,8.154,2.806,8.593,7.55.466.479,6.241,75.191,9.967,147.914.175,2.829.348,5.664.529,8.498,2.123,24.894,3.815,49.402,5.351,74.544.225,2.6.452,5.173.681,7.719.817,9.062,1.659,17.725,2.499,25.843.28,2.703.559,5.351.834,7.927.126,14.573,6.182,30.344,5.566,45.649.468,4.101.741,6.355.74,6.354ZM341.3,237.184c.256,2.774-1.949,5.313-4.908,5.645-2.959.335-5.542-1.65-5.787-4.404-.79-8.875-1.543-17.74-2.263-26.607-.222-2.753,1.945-5.285,4.858-5.675,2.912-.392,5.482,1.518,5.72,4.288.765,8.913,1.557,17.829,2.379,26.754ZM334.411,154.028c.21,2.781-1.939,5.417-4.784,5.86-2.846.446-5.295-1.458-5.488-4.228-.622-8.923-1.229-17.874-1.835-26.869-.187-2.794,1.912-5.428,4.701-5.9,2.789-.472,5.225,1.4,5.428,4.201.65,9.01,1.306,17.984,1.977,26.936Z"/>
      <path d="M60.524,145.663c2.984-.286,5.954-.56,8.911-.823,3.121,4.238,6.203,8.48,9.248,12.732,2.394-.183,4.78-.358,7.157-.525-3.303-4.553-6.648-9.097-10.039-13.633.45-.223.888-.47,1.31-.748,1.752-1.153,3.106-2.61,4.064-4.367.958-1.757,1.352-3.604,1.183-5.549-.187-2.149-.908-4.041-2.166-5.678-1.259-1.635-2.866-2.885-4.825-3.739-1.96-.854-4.053-1.187-6.282-.996-5.535.475-11.116.985-16.749,1.536,1.195,11.967,2.284,23.907,3.288,35.849,2.02-.209,4.033-.414,6.04-.61-.367-4.484-.746-8.966-1.14-13.45ZM58.96,128.619c3.226-.303,6.436-.592,9.63-.869,1.374-.12,2.63.031,3.769.451,1.138.42,2.053,1.058,2.743,1.911.691.853,1.088,1.88,1.194,3.07.094,1.058-.062,2.04-.464,2.949-.403.909-1.007,1.645-1.812,2.21-.806.568-1.744.893-2.815.987-3.697.319-7.414.656-11.154,1.013-.353-3.905-.716-7.813-1.091-11.723Z"/>
      <path d="M115.172,151.372c-1.188-.825-2.299-2.652-3.348-3.535-.856,1.946-2.693,3.951-7.014,3.507-1.966.128-3.73-.133-5.291-.779-1.562-.645-2.809-1.63-3.74-2.95-.704-1-1.182-2.153-1.437-3.468.001,0,5.441-.387,10.713-.724,3.485-.125,8.477.519,9.325-1.427,4.401-7.849-8.177-16.626-18.087-12.308-1.731.827-3.189,1.924-4.369,3.296-1.181,1.372-2.064,2.957-2.648,4.745-.585,1.792-.792,3.744-.626,5.855.209,2.656,1.034,4.954,2.47,6.904,1.435,1.947,3.32,3.427,5.649,4.444,2.329,1.019,4.94,1.431,7.832,1.244,1.32-.088,2.654-.349,3.997-.792,1.342-.443,2.589-1.005,3.737-1.69,1.148-.683,2.09-1.459,2.836-2.323ZM97.589,134.49c5.053-3.15,10.318.313,12.572,3.97-2.965.185-4.947.313-8.054.944-3.891.257-7.872.538-7.873.539.11-.788.295-1.516.568-2.173.579-1.395,1.508-2.488,2.787-3.279Z"/>
      <path d="M126.436,153.05c5.539,3.125,13.212,1.81,14.81-3.964.112,1.892-.744,3.833.275,4.733,1.983.854,3.857-.184,5.782-.274-.529-9.474-2.02-17.977-4.647-27.415,0-.002-2.98-.796-3.883.211-.902,1.007.209,2.859.342,4.762-2.275-4.657-8.2-5.284-12.043-4.109-3.768,2.124-8.46,5.258-8.115,9.987.273,3.786-.441,7.616,2.603,11.304,1.311,2.051,2.935,3.635,4.878,4.764ZM124.839,136.222c.635-4.367,6.363-6.601,10.455-3.959,5.134,3.541,7.548,11.05,2.026,16.069-6.544,4.12-11.824-2.227-12.969-7.398-.2-1.739-.036-3.308.488-4.712Z"/>
      <path d="M173.655,128.205c-6.098-6.312-17.521-3.733-21.836,4.148-3.287,8.786,2.08,18.02,10.832,20.494,4.832.738,9.555-.42,13.174-4.418.05.957.147,2.866.194,3.82,1.001.91,3.812-.171,3.812-.173,1.293-12.505.539-25.992-2.276-38.527.001-.002-3.907-.741-4.799.285-.82,1.998.343,4.849.449,7.051.206,3.669.449,7.321.449,7.32ZM174.054,143.394c-3.851,7.217-11.592,5.638-15.703,1.066-2.136-3.716-2.43-8.479.209-12.451,5.467-5.087,17.224-1.848,16.166,6.434.165,1.832-.06,3.483-.672,4.951Z"/>
      <path d="M189.53,151.426c1.77-.084,3.541-.169,5.311-.256,0,.001-.322-6.829-.689-13.699-.364-6.866-.786-13.788-.787-13.788-1.821.109-3.642.215-5.464.321.001,0,.447,6.905.868,13.754.426,6.853.762,13.669.762,13.669Z"/>
      <path d="M189.763,110.842c-2.761.169-4.404,4.194-2.364,6.024,2.04,1.833,3.888.742,5.394-.254.602-.675.868-1.526.8-2.552-.072-1.095-.44-1.925-1.104-2.489-.663-.56-1.569-.804-2.727-.73Z"/>
      <path d="M220.966,122.544c-1.427-.735-3.174-1.03-5.243-.885-1.448.101-2.843.529-4.183,1.276-1.341.747-2.482,1.677-3.422,2.781-.4.471-.727.958-1.007,1.455-.081-1.441-.163-2.883-.247-4.327-1.775.116-3.55.229-5.324.34.546,9.26,1.017,18.443,1.446,27.578,1.77-.091,3.54-.185,5.311-.28-.258-5.544-.532-11.106-.827-16.693-.048-.913.087-1.779.406-2.591.319-.814.78-1.541,1.384-2.181.605-.64,1.328-1.155,2.171-1.548.842-.391,1.781-.623,2.814-.691,1.27-.156,2.35-.025,3.238.394.887.419,1.566,1.137,2.035,2.153.469,1.018.746,2.32.827,3.91.285,5.529.551,11.033.804,16.516,1.774-.108,3.549-.217,5.325-.329-.26-5.618-.531-11.257-.822-16.924-.133-2.584-.592-4.713-1.374-6.364-.782-1.655-1.888-2.854-3.313-3.589Z"/>
      <path d="M253.419,123.073c-.382-.434-.809-.855-1.323-1.238-.692-.512-1.467-.975-2.326-1.383-.859-.411-1.783-.705-2.768-.886-.986-.181-1.998-.226-3.038-.134-2.529.225-4.77,1.057-6.724,2.497-1.954,1.44-3.45,3.298-4.492,5.579-1.043,2.28-1.491,4.818-1.351,7.618.14,2.799.847,5.24,2.127,7.329,1.278,2.089,2.957,3.688,5.041,4.796,2.084,1.109,4.425,1.563,7.028,1.365,1.492-.113,2.936-.548,4.332-1.301,1.395-.753,2.547-1.679,3.455-2.771.445-.536.793-1.077,1.049-1.62.055,1.122.109,2.243.163,3.363.089,1.849-.169,3.419-.771,4.714-.603,1.293-1.535,2.313-2.793,3.049-1.258.736-2.844,1.178-4.754,1.32-1.008.075-2.037.033-3.088-.119-1.051-.154-2.054-.404-3.008-.74-.954-.339-1.789-.748-2.505-1.229-.593,1.453-1.187,2.903-1.781,4.351,1.22.904,2.806,1.603,4.758,2.086,1.952.483,3.901.657,5.848.515,2.19-.16,4.143-.615,5.857-1.367,1.714-.751,3.155-1.775,4.321-3.059,1.165-1.288,2.03-2.819,2.594-4.597.563-1.779.79-3.792.68-6.034-.431-8.78-.878-17.616-1.367-26.529-1.793.181-3.584.357-5.374.528.071,1.3.141,2.6.211,3.897ZM250.398,141.93c-1.282.928-2.773,1.458-4.473,1.594-1.665.132-3.167-.161-4.505-.877-1.338-.715-2.413-1.764-3.227-3.143-.814-1.382-1.265-2.971-1.356-4.785-.091-1.813.198-3.467.867-4.97.669-1.503,1.63-2.729,2.883-3.677,1.254-.949,2.712-1.495,4.375-1.641,1.698-.149,3.221.131,4.566.838,1.346.709,2.429,1.753,3.253,3.138.822,1.383,1.282,3.008,1.376,4.868.094,1.862-.189,3.537-.849,5.027-.66,1.489-1.631,2.699-2.912,3.628Z"/>
      <path d="M60.152,188.116c1.18-.125,2.085-.532,2.722-1.217.636-.684.918-1.526.846-2.514-.077-1.06-.468-1.845-1.174-2.358-.705-.513-1.669-.705-2.889-.576-1.183.126-2.096.534-2.734,1.223-.639.688-.921,1.534-.845,2.523.08,1.061.476,1.844,1.184,2.352.71.51,1.672.697,2.889.567Z"/>
      <path d="M59.699,221.424c1.875-.216,3.744-.425,5.609-.627-.581-9.049-1.178-18.056-1.808-27.039-1.888.198-3.781.402-5.679.612.653,8.99,1.274,18.001,1.878,27.053Z"/>
      <path d="M81.291,191.49c-1.406.123-2.722.425-3.946.917-1.224.491-2.276,1.13-3.155,1.916-.879.79-1.552,1.68-2.016,2.671-.465.99-.66,2.052-.587,3.183.06.926.242,1.76.545,2.507.303.747.746,1.419,1.33,2.018.775.753,1.851,1.393,3.223,1.917,1.372.527,3.117.953,5.226,1.281,1.236.2,2.246.414,3.032.639.785.226,1.363.445,1.733.653.709.492,1.088,1.183,1.139,2.076.029.516-.052.994-.241,1.443-.189.447-.481.844-.873,1.187-.393.346-.861.616-1.404.82-.545.204-1.137.334-1.78.39-1.607.145-3.063.006-4.367-.407-1.304-.413-2.532-1.171-3.685-2.269-1.197,1.152-2.394,2.307-3.592,3.467,1.358,1.422,3.012,2.434,4.961,3.045,1.947.609,4.099.806,6.453.595,1.89-.168,3.579-.663,5.069-1.479,1.489-.815,2.653-1.87,3.491-3.164.838-1.293,1.214-2.711,1.13-4.255-.058-1.062-.254-2.012-.585-2.847-.332-.833-.871-1.548-1.62-2.143-.715-.63-1.667-1.164-2.858-1.6-1.191-.433-2.694-.8-4.513-1.089-1.235-.169-2.258-.372-3.068-.607-.81-.236-1.422-.477-1.835-.713-.377-.242-.678-.55-.9-.925-.223-.375-.367-.784-.43-1.225-.033-.514.047-.985.238-1.417.191-.431.485-.802.883-1.112.397-.312.898-.564,1.503-.754.604-.191,1.285-.321,2.04-.386.684-.059,1.447.011,2.29.215.842.204,1.682.52,2.517.948.835.429,1.612.943,2.328,1.536.989-1.196,1.978-2.391,2.967-3.583-.801-.83-1.775-1.526-2.923-2.086-1.148-.56-2.388-.956-3.72-1.189-1.333-.232-2.666-.287-4-.175Z"/>
      <path d="M79.542,269.514c-.714-.642-1.662-1.178-2.845-1.608-1.184-.432-2.675-.783-4.478-1.053-1.224-.152-2.239-.346-3.041-.577-.802-.232-1.409-.464-1.818-.705-.375-.242-.673-.555-.894-.937-.222-.383-.365-.801-.429-1.253-.033-.526.044-1.015.231-1.46.188-.445.478-.829.87-1.157.392-.327.887-.594,1.485-.801.597-.207,1.27-.35,2.017-.431.676-.074,1.431-.014,2.267.183.834.196,1.666.507,2.494.934.829.429,1.599.942,2.312,1.543.976-1.249,1.952-2.493,2.928-3.736-.796-.843-1.764-1.539-2.901-2.096-1.139-.555-2.367-.944-3.685-1.158-1.319-.213-2.638-.253-3.957-.111-1.39.151-2.691.485-3.9,1.01-1.209.526-2.248,1.198-3.115,2.021-.867.824-1.53,1.75-1.987,2.776-.458,1.028-.647,2.119-.572,3.279.062.951.243,1.804.546,2.567.302.762.743,1.447,1.322,2.054.769.764,1.835,1.405,3.196,1.926,1.361.523,3.089.936,5.181,1.244,1.226.188,2.229.394,3.009.616.78.221,1.354.438,1.724.65.707.499,1.089,1.208,1.147,2.13.033.532-.042,1.033-.227,1.497-.184.467-.47.879-.855,1.241-.387.363-.849.651-1.386.868-.539.218-1.125.36-1.763.427-1.592.17-3.037.045-4.333-.364-1.296-.411-2.517-1.178-3.667-2.295-1.176,1.205-2.353,2.413-3.529,3.625,1.354,1.45,3.001,2.479,4.937,3.086,1.935.605,4.072.785,6.406.539,1.875-.198,3.547-.73,5.019-1.597,1.471-.864,2.616-1.974,3.436-3.326.819-1.35,1.18-2.827,1.082-4.423-.068-1.1-.269-2.078-.605-2.936-.336-.857-.877-1.589-1.624-2.19Z"/>
      <path d="M108.213,255.51c-1.196-1.111-2.58-1.95-4.153-2.52-1.573-.567-3.252-.783-5.038-.642-2.032.159-3.897.674-5.596,1.538-1.699.868-3.137,2.009-4.311,3.439-1.175,1.428-2.063,3.07-2.663,4.93-.601,1.86-.835,3.888-.706,6.078.164,2.756.936,5.146,2.312,7.165,1.374,2.018,3.198,3.548,5.462,4.59,2.264,1.046,4.81,1.448,7.637,1.224,1.29-.101,2.596-.393,3.915-.871,1.318-.479,2.558-1.081,3.72-1.811,1.162-.727,2.134-1.551,2.917-2.465-.982-1.235-1.962-2.467-2.943-3.697-1.287,1.303-2.5,2.24-3.64,2.786-1.14.554-2.39.88-3.751.989-1.92.152-3.638-.103-5.154-.76-1.516-.658-2.721-1.674-3.612-3.039-.674-1.034-1.124-2.232-1.354-3.594,7.045-.617,14.052-1.162,21.032-1.645-.027-.778-.053-1.556-.079-2.334-.074-1.942-.459-3.711-1.156-5.304-.698-1.594-1.644-2.944-2.84-4.056ZM94.572,258.814c1.257-.829,2.832-1.32,4.721-1.47,1.189-.095,2.304.086,3.347.534,1.041.449,1.919,1.104,2.631,1.972.712.866,1.153,1.875,1.323,3.031.007.124.014.246.021.37-5.115.376-10.247.786-15.401,1.237.12-.816.312-1.575.589-2.256.588-1.45,1.511-2.589,2.768-3.417Z"/>
      <path d="M140.91,250.38c-2.103.1-4.207.204-6.314.312-1.908,3.341-3.812,6.698-5.711,10.072-2.63-3.118-5.257-6.222-7.885-9.312-2.254.137-4.51.28-6.77.428,3.766,4.344,7.526,8.719,11.295,13.127-3.235,4.852-6.462,9.744-9.679,14.682,2.118-.145,4.234-.283,6.348-.417,2.201-3.495,4.407-6.967,6.618-10.418,2.683,3.171,5.372,6.357,8.071,9.559,2.177-.117,4.353-.229,6.528-.339-3.812-4.557-7.6-9.083-11.376-13.577,2.949-4.741,5.907-9.445,8.873-14.117Z"/>
      <path d="M160.104,269.541c-.196.75-.399,1.505-.612,2.256-.001.006-.003.009-.004.014-.033-.086-.055-.165-.089-.25-.286-.715-.526-1.246-.72-1.591-3.244-6.699-6.438-13.351-9.605-19.961-2.066.089-4.132.182-6.2.278,4.686,9.408,9.42,18.903,14.269,28.505-1.287,3.704-2.564,7.428-3.829,11.174,1.919-.09,3.837-.177,5.756-.263,1.235-4.192,2.486-8.359,3.751-12.502,3.109-9.466,6.289-18.811,9.521-28.079-2.098.072-4.196.146-6.293.22-2.01,6.687-3.995,13.414-5.945,20.198Z"/>
    </g>
  </g>
</svg>