<?xml version="1.0" encoding="UTF-8"?>
<svg id="Layer_2" data-name="Layer 2" xmlns="http://www.w3.org/2000/svg" viewBox="0 0 273.839 276.832">
  <defs>
    <style>
      .cls-1 {
        fill: #fff;
      }
    </style>
  </defs>
  <g id="Layer_1-2" data-name="Layer 1">
    <g>
      <path d="M105.11,5.187c-15.915,3.763-30.516,11.971-41.537,24.054-4.779,5.24-9.371,11.626-13.121,19.341C25.486,105.946,45.173,195.653,0,231.097c29.833,17.08,61.294,25.256,91.831,27.848l-16.252-196.515,156.052-13.467c84.91,188.328-71.141,181.798-71.141,181.798l6.386,24.604c61.041-10.272,106.215-34.448,106.215-34.448,0,0,21.659-260.564-167.98-215.731Z"/>
      <path class="cls-1" d="M170.816,270.549l-10.327-39.788s156.052,6.529,71.141-181.798l-156.052,13.467,17.212,208.119c-3.513,9.8,78.805,6.821,78.026,0Z"/>
      <g>
        <path d="M159.035,97.03c-6.188-4.312-12.225-6.48-18.015-6.48-1.795,0-3.566.208-5.31.625-10.722,2.565-16.019,12.233-16.239,12.644-1.285,2.394-.389,5.362,1.997,6.662,2.386,1.3,5.381.417,6.697-1.96.035-.063,3.534-6.266,9.924-7.751,4.49-1.044,9.637.426,15.295,4.369,2.239,1.562,5.32,1.012,6.88-1.229,1.56-2.24,1.01-5.32-1.229-6.88Z"/>
        <path d="M226.44,88.829c-6.188-4.312-12.225-6.48-18.015-6.48-1.795,0-3.566.208-5.31.625-4.284,1.025-7.688,3.185-10.262,5.435,0,0,0,0,0,0-1.184-.526-2.573-.573-3.839.023-2.309,1.087-3.3,3.841-2.214,6.151l13.5,28.682c2.235,4.748.734,10.375-3.569,13.378l-3.908,2.728c-2.093,1.461-2.606,4.343-1.145,6.436.899,1.288,2.335,1.977,3.794,1.977.914,0,1.836-.27,2.642-.833l3.907-2.728c8.007-5.59,10.801-16.06,6.642-24.896l-13.5-28.682c-.127-.27-.282-.519-.452-.752.171.232.324.481.452.752l2.981,6.333c1.678-1.745,4.151-3.668,7.347-4.41,4.49-1.044,9.637.426,15.295,4.369,2.239,1.562,5.32,1.012,6.88-1.229,1.561-2.24,1.01-5.32-1.229-6.88ZM193.581,88.813c-.01-.007-.02-.015-.03-.022.01.007.02.015.03.022ZM194.169,89.281c.061.057.113.126.171.186-.058-.061-.11-.129-.171-.186Z"/>
        <path d="M191.659,165.82c-4.26.586-6.631,8.921-5.298,18.617,1.334,9.696,5.868,17.082,10.127,16.496,4.259-.586,6.631-8.921,5.297-18.617-1.334-9.696-5.868-17.082-10.127-16.496Z"/>
      </g>
    </g>
  </g>
</svg>