<svg id="Layer_1" data-name="Layer 1" xmlns="http://www.w3.org/2000/svg" xmlns:xlink="http://www.w3.org/1999/xlink" viewBox="0 0 500.11 235.11"><defs><style>.cls-1,.cls-4,.cls-5,.cls-6{fill:none;}.cls-2{fill:#034ea2;}.cls-3{clip-path:url(#clip-path);}.cls-4{stroke:#231f20;}.cls-4,.cls-5,.cls-6{stroke-miterlimit:10;stroke-width:0.77px;}.cls-5{stroke:#0c4da2;}.cls-6{stroke:#ed0677;}.cls-7{fill:#ed0677;}.cls-8{fill:#231f20;}</style><clipPath id="clip-path" transform="translate(-7.36 -4.05)"><rect class="cls-1" x="7.63" y="26.78" width="268.31" height="214.86"/></clipPath></defs><path class="cls-2" d="M103.37,11.54V5.19h-2.45v-.7h5.74v.7H104.2v6.35Z" transform="translate(-7.36 -4.05)"/><path class="cls-2" d="M111.73,8.48v3.06h-.82v-3a1.47,1.47,0,0,0-.26-1,1,1,0,0,0-.84-.31,1.42,1.42,0,0,0-1.08.41,1.54,1.54,0,0,0-.4,1.11v2.79h-.81v-7h.81v3a1.6,1.6,0,0,1,.67-.67,2,2,0,0,1,1-.24C111.14,6.54,111.73,7.19,111.73,8.48Z" transform="translate(-7.36 -4.05)"/><path class="cls-2" d="M117.29,9.23h-3.56a1.88,1.88,0,0,0,.46,1.28,1.57,1.57,0,0,0,1.19.44,2.47,2.47,0,0,0,1.56-.58l.27.59a2.42,2.42,0,0,1-.82.47,3,3,0,0,1-1,.17,2.43,2.43,0,0,1-1.8-.66,2.54,2.54,0,0,1-.65-1.86,2.79,2.79,0,0,1,.29-1.32,2.12,2.12,0,0,1,.81-.89,2.21,2.21,0,0,1,1.2-.33,1.93,1.93,0,0,1,1.52.64,2.62,2.62,0,0,1,.55,1.75ZM114.2,7.58a1.75,1.75,0,0,0-.45,1.13h2.83a1.78,1.78,0,0,0-.37-1.14,1.26,1.26,0,0,0-1-.39A1.36,1.36,0,0,0,114.2,7.58Z" transform="translate(-7.36 -4.05)"/><path class="cls-2" d="M121.18,11.54v-7h4.36v.69H122V7.6h3.36v.69H122v3.25Z" transform="translate(-7.36 -4.05)"/><path class="cls-2" d="M127.34,11.29a2,2,0,0,1-.81-.88,3,3,0,0,1-.29-1.33,3,3,0,0,1,.29-1.34,2.12,2.12,0,0,1,.81-.89,2.54,2.54,0,0,1,2.43,0,2.08,2.08,0,0,1,.82.89,3,3,0,0,1,.28,1.34,3,3,0,0,1-.28,1.33,2,2,0,0,1-.82.88,2.54,2.54,0,0,1-2.43,0Zm2.32-.83A2.14,2.14,0,0,0,130,9.08a2.14,2.14,0,0,0-.39-1.38,1.32,1.32,0,0,0-1.1-.48,1.34,1.34,0,0,0-1.1.48,2.14,2.14,0,0,0-.39,1.38,2.14,2.14,0,0,0,.39,1.38,1.33,1.33,0,0,0,1.1.48A1.35,1.35,0,0,0,129.66,10.46Z" transform="translate(-7.36 -4.05)"/><path class="cls-2" d="M134.85,7.25l-.53,0a1.55,1.55,0,0,0-1.09.48,1.48,1.48,0,0,0-.33,1v2.78h-.81V6.67h.79v.85a1.79,1.79,0,0,1,1.61-1l.29,0Z" transform="translate(-7.36 -4.05)"/><path class="cls-2" d="M139.89,6.67v4.54a2.19,2.19,0,0,1-.57,1.64,2.25,2.25,0,0,1-1.66.56,3.43,3.43,0,0,1-2.14-.66l.26-.6a4.07,4.07,0,0,0,.92.45,2.93,2.93,0,0,0,1,.15,1.44,1.44,0,0,0,1.07-.38,1.51,1.51,0,0,0,.35-1.09v-.86a1.55,1.55,0,0,1-.64.72,2.09,2.09,0,0,1-1,.25,2.06,2.06,0,0,1-1.13-.31,2,2,0,0,1-.77-.84A2.86,2.86,0,0,1,135.23,9a2.83,2.83,0,0,1,.28-1.27,1.93,1.93,0,0,1,.77-.85,2.15,2.15,0,0,1,1.13-.31,2.08,2.08,0,0,1,1,.25,1.6,1.6,0,0,1,.64.72V6.67Zm-1.21,3.58A1.94,1.94,0,0,0,139.07,9a1.94,1.94,0,0,0-.39-1.28,1.36,1.36,0,0,0-1.11-.46,1.39,1.39,0,0,0-1.11.46,1.89,1.89,0,0,0-.4,1.28,1.89,1.89,0,0,0,.4,1.28,1.55,1.55,0,0,0,2.22,0Z" transform="translate(-7.36 -4.05)"/><path class="cls-2" d="M145.47,9.23H141.9a1.94,1.94,0,0,0,.47,1.28,1.57,1.57,0,0,0,1.19.44,2.47,2.47,0,0,0,1.56-.58l.27.59a2.37,2.37,0,0,1-.83.47,2.94,2.94,0,0,1-1,.17,2.43,2.43,0,0,1-1.8-.66,2.54,2.54,0,0,1-.65-1.86,2.79,2.79,0,0,1,.29-1.32,2.12,2.12,0,0,1,.81-.89,2.21,2.21,0,0,1,1.2-.33,1.93,1.93,0,0,1,1.52.64,2.62,2.62,0,0,1,.55,1.75Zm-3.09-1.65a1.75,1.75,0,0,0-.45,1.13h2.83a1.78,1.78,0,0,0-.37-1.14,1.27,1.27,0,0,0-1-.39A1.35,1.35,0,0,0,142.38,7.58Z" transform="translate(-7.36 -4.05)"/><path class="cls-2" d="M149.22,10.93l0,.63a2.74,2.74,0,0,1-.5,0,1.8,1.8,0,0,1-1.33-.45,1.77,1.77,0,0,1-.45-1.28V7.31H146V6.67h.94V5.19h.82V6.67h1.38v.64h-1.38v2.5c0,.76.35,1.15,1.05,1.15Z" transform="translate(-7.36 -4.05)"/><path class="cls-2" d="M152.64,10.93l0,.63a2.74,2.74,0,0,1-.5,0,1.8,1.8,0,0,1-1.33-.45,1.77,1.77,0,0,1-.45-1.28V7.31h-.94V6.67h.94V5.19h.82V6.67h1.38v.64h-1.38v2.5c0,.76.35,1.15,1.05,1.15A3.4,3.4,0,0,0,152.64,10.93Z" transform="translate(-7.36 -4.05)"/><path class="cls-2" d="M153.37,4.56h1v.91h-1Zm.08,7V6.67h.81v4.87Z" transform="translate(-7.36 -4.05)"/><path class="cls-2" d="M160,8.48v3.06h-.82v-3a1.47,1.47,0,0,0-.26-1,1,1,0,0,0-.84-.31,1.42,1.42,0,0,0-1.08.41,1.54,1.54,0,0,0-.4,1.11v2.79h-.81V6.67h.8v.8a1.71,1.71,0,0,1,.67-.69,2,2,0,0,1,1-.24C159.39,6.54,160,7.19,160,8.48Z" transform="translate(-7.36 -4.05)"/><path class="cls-2" d="M165.81,6.67v4.54a2.19,2.19,0,0,1-.56,1.64,2.25,2.25,0,0,1-1.66.56,3.46,3.46,0,0,1-2.15-.66l.27-.6a4.07,4.07,0,0,0,.92.45,2.93,2.93,0,0,0,1,.15,1.4,1.4,0,0,0,1.06-.38,1.47,1.47,0,0,0,.36-1.09v-.86a1.55,1.55,0,0,1-.64.72,2.09,2.09,0,0,1-1,.25,2.06,2.06,0,0,1-1.13-.31,2,2,0,0,1-.77-.84A2.86,2.86,0,0,1,161.16,9a2.83,2.83,0,0,1,.28-1.27,1.93,1.93,0,0,1,.77-.85,2.15,2.15,0,0,1,1.13-.31,2,2,0,0,1,1,.25,1.57,1.57,0,0,1,.65.72V6.67Zm-1.21,3.58A1.89,1.89,0,0,0,165,9a1.94,1.94,0,0,0-.39-1.28,1.36,1.36,0,0,0-1.11-.46,1.39,1.39,0,0,0-1.11.46A1.89,1.89,0,0,0,162,9a1.89,1.89,0,0,0,.41,1.28,1.4,1.4,0,0,0,1.11.47A1.36,1.36,0,0,0,164.6,10.25Z" transform="translate(-7.36 -4.05)"/><path class="cls-2" d="M171.28,11.18a2.86,2.86,0,0,1-1.13-1.25A4.39,4.39,0,0,1,169.76,8a4.46,4.46,0,0,1,.39-1.93,2.84,2.84,0,0,1,1.13-1.24A3.4,3.4,0,0,1,173,4.41a3.81,3.81,0,0,1,1.34.22,3,3,0,0,1,1.07.66l-.32.64a3.33,3.33,0,0,0-1-.62A2.85,2.85,0,0,0,173,5.12a2.21,2.21,0,0,0-1.79.75A3.23,3.23,0,0,0,170.6,8a3.25,3.25,0,0,0,.64,2.14,2.22,2.22,0,0,0,1.79.76,3.06,3.06,0,0,0,1.08-.19,3.79,3.79,0,0,0,1-.62l.32.63a3,3,0,0,1-1.07.66,3.8,3.8,0,0,1-1.34.23A3.41,3.41,0,0,1,171.28,11.18Z" transform="translate(-7.36 -4.05)"/><path class="cls-2" d="M180.66,6.67v4.87h-.79v-.83a1.59,1.59,0,0,1-.64.67,1.93,1.93,0,0,1-.93.22,1.72,1.72,0,0,1-1.32-.48,2.07,2.07,0,0,1-.43-1.43v-3h.8v3a1.46,1.46,0,0,0,.26.95,1.06,1.06,0,0,0,.83.31,1.36,1.36,0,0,0,1-.42,1.53,1.53,0,0,0,.38-1.09V6.67Z" transform="translate(-7.36 -4.05)"/><path class="cls-2" d="M184.93,7.25l-.53,0a1.52,1.52,0,0,0-1.08.48,1.49,1.49,0,0,0-.34,1v2.78h-.81V6.67H183v.85a1.81,1.81,0,0,1,1.61-1l.29,0Z" transform="translate(-7.36 -4.05)"/><path class="cls-2" d="M189.48,6.68h.81l-2.1,4.86h-.75l-2.1-4.86h.86l1.63,4Z" transform="translate(-7.36 -4.05)"/><path class="cls-2" d="M195.16,9.23H191.6a1.93,1.93,0,0,0,.46,1.28,1.58,1.58,0,0,0,1.19.44,2.43,2.43,0,0,0,1.56-.58l.27.59a2.24,2.24,0,0,1-.82.47,3,3,0,0,1-1,.17,2.41,2.41,0,0,1-1.79-.66,2.55,2.55,0,0,1-.66-1.86,2.92,2.92,0,0,1,.29-1.32,2.23,2.23,0,0,1,2-1.22,1.9,1.9,0,0,1,1.52.64,2.57,2.57,0,0,1,.55,1.75Zm-3.08-1.65a1.81,1.81,0,0,0-.46,1.13h2.83a1.68,1.68,0,0,0-.37-1.14,1.24,1.24,0,0,0-1-.39A1.35,1.35,0,0,0,192.08,7.58Z" transform="translate(-7.36 -4.05)"/><path class="cls-2" d="M198.45,6.45a1,1,0,0,1,.2.64,1.07,1.07,0,0,1-.37.85,1.5,1.5,0,0,1-1,.31,2.18,2.18,0,0,1-.76-.14,1.74,1.74,0,0,1-.62-.37l.18-.37a1.78,1.78,0,0,0,1.19.47,1,1,0,0,0,.67-.19.72.72,0,0,0,.22-.58c0-.5-.31-.75-.94-.75h-.47v-.4h.38a1.07,1.07,0,0,0,.69-.2.7.7,0,0,0,.25-.58.66.66,0,0,0-.2-.51.8.8,0,0,0-.56-.18,1.85,1.85,0,0,0-1.17.47L196,4.56a1.8,1.8,0,0,1,.61-.38,2.11,2.11,0,0,1,.75-.13,1.3,1.3,0,0,1,.89.28,1,1,0,0,1,.33.76,1.13,1.13,0,0,1-.17.62,1,1,0,0,1-.48.39A1,1,0,0,1,198.45,6.45Z" transform="translate(-7.36 -4.05)"/><path d="M96.05,237.36v-5.9H93.77v-.65h5.34v.65H96.82v5.9Z" transform="translate(-7.36 -4.05)"/><path d="M99.84,230.87h.92v.85h-.92Zm.08,6.49v-4.53h.75v4.53Z" transform="translate(-7.36 -4.05)"/><path d="M108.62,234.52v2.84h-.75v-2.8a1.52,1.52,0,0,0-.22-.92.82.82,0,0,0-.7-.28,1.08,1.08,0,0,0-.89.38,1.53,1.53,0,0,0-.33,1v2.58H105v-2.8a1.48,1.48,0,0,0-.23-.92.83.83,0,0,0-.7-.28,1.11,1.11,0,0,0-.9.38,1.58,1.58,0,0,0-.32,1v2.58h-.76v-4.53h.75v.72a1.47,1.47,0,0,1,.57-.61,1.54,1.54,0,0,1,.83-.22,1.34,1.34,0,0,1,1.39.9,1.51,1.51,0,0,1,.59-.66,1.75,1.75,0,0,1,.92-.24Q108.62,232.72,108.62,234.52Z" transform="translate(-7.36 -4.05)"/><path d="M113.79,235.22h-3.31a1.81,1.81,0,0,0,.43,1.19,1.47,1.47,0,0,0,1.11.41,2.23,2.23,0,0,0,1.45-.54l.25.55a2.24,2.24,0,0,1-.76.44,2.83,2.83,0,0,1-.95.16,2.25,2.25,0,0,1-1.67-.62,2.35,2.35,0,0,1-.61-1.72,2.73,2.73,0,0,1,.27-1.24,2,2,0,0,1,1.87-1.13,1.78,1.78,0,0,1,1.41.59,2.43,2.43,0,0,1,.51,1.63Zm-2.86-1.54a1.74,1.74,0,0,0-.43,1h2.63a1.55,1.55,0,0,0-.34-1,1.14,1.14,0,0,0-.91-.37A1.23,1.23,0,0,0,110.93,233.68Z" transform="translate(-7.36 -4.05)"/><path d="M119.87,233.37l-.5,0a1.29,1.29,0,0,0-1.32,1.36v2.58h-.75v-4.53H118v.8a1.65,1.65,0,0,1,1.49-.89l.27,0Z" transform="translate(-7.36 -4.05)"/><path d="M124.29,235.22H121a1.76,1.76,0,0,0,.42,1.19,1.47,1.47,0,0,0,1.11.41,2.23,2.23,0,0,0,1.45-.54l.25.55a2.24,2.24,0,0,1-.76.44,2.83,2.83,0,0,1-1,.16,2.25,2.25,0,0,1-1.67-.62,2.35,2.35,0,0,1-.61-1.72,2.73,2.73,0,0,1,.27-1.24,2,2,0,0,1,1.87-1.13,1.78,1.78,0,0,1,1.41.59,2.38,2.38,0,0,1,.52,1.63Zm-2.87-1.54a1.74,1.74,0,0,0-.43,1h2.64a1.61,1.61,0,0,0-.35-1,1.14,1.14,0,0,0-.91-.37A1.23,1.23,0,0,0,121.42,233.68Z" transform="translate(-7.36 -4.05)"/><path d="M131.94,234.52v2.84h-.75v-2.8a1.6,1.6,0,0,0-.22-.92.83.83,0,0,0-.7-.28,1.11,1.11,0,0,0-.9.38,1.58,1.58,0,0,0-.32,1v2.58h-.75v-2.8a1.48,1.48,0,0,0-.23-.92.83.83,0,0,0-.7-.28,1.11,1.11,0,0,0-.9.38,1.58,1.58,0,0,0-.32,1v2.58h-.76v-4.53h.75v.72a1.38,1.38,0,0,1,.56-.61,1.6,1.6,0,0,1,.84-.22,1.35,1.35,0,0,1,1.39.9,1.51,1.51,0,0,1,.59-.66,1.75,1.75,0,0,1,.92-.24Q131.94,232.72,131.94,234.52Z" transform="translate(-7.36 -4.05)"/><path d="M137.11,235.22H133.8a1.81,1.81,0,0,0,.43,1.19,1.47,1.47,0,0,0,1.11.41,2.25,2.25,0,0,0,1.45-.54l.25.55a2.19,2.19,0,0,1-.77.44,2.73,2.73,0,0,1-.94.16,2.23,2.23,0,0,1-1.67-.62,2.35,2.35,0,0,1-.61-1.72,2.73,2.73,0,0,1,.27-1.24,2,2,0,0,1,1.87-1.13,1.78,1.78,0,0,1,1.41.59,2.43,2.43,0,0,1,.51,1.63Zm-2.87-1.54a1.68,1.68,0,0,0-.42,1h2.63a1.61,1.61,0,0,0-.34-1,1.14,1.14,0,0,0-.91-.37A1.27,1.27,0,0,0,134.24,233.68Z" transform="translate(-7.36 -4.05)"/><path d="M144.77,234.52v2.84H144v-2.8a1.6,1.6,0,0,0-.21-.92.84.84,0,0,0-.71-.28,1.1,1.1,0,0,0-.89.38,1.53,1.53,0,0,0-.33,1v2.58h-.75v-2.8a1.48,1.48,0,0,0-.22-.92.85.85,0,0,0-.71-.28,1.09,1.09,0,0,0-.89.38,1.53,1.53,0,0,0-.33,1v2.58h-.75v-4.53H139v.72a1.47,1.47,0,0,1,.57-.61,1.55,1.55,0,0,1,.84-.22,1.33,1.33,0,0,1,1.38.9,1.47,1.47,0,0,1,.6-.66,1.74,1.74,0,0,1,.91-.24C144.27,232.72,144.77,233.32,144.77,234.52Z" transform="translate(-7.36 -4.05)"/><path d="M149.47,233a1.9,1.9,0,0,1,.71.82,2.79,2.79,0,0,1,.25,1.23,2.86,2.86,0,0,1-.25,1.24,1.93,1.93,0,0,1-.71.83,1.85,1.85,0,0,1-1.05.3,1.82,1.82,0,0,1-.92-.23,1.47,1.47,0,0,1-.6-.66v.82h-.76v-6.55h.76v2.81a1.38,1.38,0,0,1,.6-.66,1.73,1.73,0,0,1,.92-.24A1.92,1.92,0,0,1,149.47,233Zm-.17,3.34a2.06,2.06,0,0,0,.36-1.29,2,2,0,0,0-.36-1.26,1.26,1.26,0,0,0-1-.44,1.19,1.19,0,0,0-1,.44,2,2,0,0,0-.36,1.28,2,2,0,0,0,.36,1.28,1.2,1.2,0,0,0,1,.45A1.27,1.27,0,0,0,149.3,236.35Z" transform="translate(-7.36 -4.05)"/><path d="M155.35,235.22H152a1.76,1.76,0,0,0,.43,1.19,1.46,1.46,0,0,0,1.1.41,2.26,2.26,0,0,0,1.46-.54l.25.55a2.29,2.29,0,0,1-.77.44,2.77,2.77,0,0,1-.94.16,2.23,2.23,0,0,1-1.67-.62,2.35,2.35,0,0,1-.61-1.72,2.73,2.73,0,0,1,.27-1.24,2.08,2.08,0,0,1,.75-.83,2.11,2.11,0,0,1,1.12-.3,1.78,1.78,0,0,1,1.41.59,2.43,2.43,0,0,1,.51,1.63Zm-2.87-1.54a1.68,1.68,0,0,0-.42,1h2.63a1.61,1.61,0,0,0-.34-1,1.14,1.14,0,0,0-.91-.37A1.27,1.27,0,0,0,152.48,233.68Z" transform="translate(-7.36 -4.05)"/><path d="M159,233.37l-.5,0a1.28,1.28,0,0,0-1.32,1.36v2.58h-.75v-4.53h.73v.8a1.68,1.68,0,0,1,1.5-.89l.27,0Z" transform="translate(-7.36 -4.05)"/><path d="M163.44,235.22h-3.31a1.81,1.81,0,0,0,.43,1.19,1.47,1.47,0,0,0,1.11.41,2.25,2.25,0,0,0,1.45-.54l.25.55a2.24,2.24,0,0,1-.76.44,2.83,2.83,0,0,1-1,.16,2.23,2.23,0,0,1-1.67-.62,2.35,2.35,0,0,1-.61-1.72,2.73,2.73,0,0,1,.27-1.24,2,2,0,0,1,1.87-1.13,1.78,1.78,0,0,1,1.41.59,2.43,2.43,0,0,1,.51,1.63Zm-2.87-1.54a1.74,1.74,0,0,0-.42,1h2.63a1.55,1.55,0,0,0-.34-1,1.14,1.14,0,0,0-.91-.37A1.27,1.27,0,0,0,160.57,233.68Z" transform="translate(-7.36 -4.05)"/><path d="M168.57,230.81v6.55h-.76v-.82a1.51,1.51,0,0,1-.59.66,1.89,1.89,0,0,1-.93.23,1.85,1.85,0,0,1-1-.3,2,2,0,0,1-.71-.83,2.86,2.86,0,0,1-.25-1.24,2.79,2.79,0,0,1,.25-1.23,2,2,0,0,1,.71-.82,1.92,1.92,0,0,1,1-.29,1.79,1.79,0,0,1,.93.24,1.41,1.41,0,0,1,.59.66v-2.81Zm-1.11,5.55a2,2,0,0,0,.35-1.28,2,2,0,0,0-.35-1.28,1.22,1.22,0,0,0-1-.44,1.26,1.26,0,0,0-1,.44,2,2,0,0,0-.37,1.26,2.06,2.06,0,0,0,.37,1.29,1.27,1.27,0,0,0,1,.46A1.23,1.23,0,0,0,167.46,236.36Z" transform="translate(-7.36 -4.05)"/><path d="M172.88,237a8.69,8.69,0,0,1,0-4.22,9.7,9.7,0,0,1,.86-2.13l.52.21a10.7,10.7,0,0,0-.66,2.07,9.38,9.38,0,0,0-.2,2,9.22,9.22,0,0,0,.2,2,11,11,0,0,0,.66,2.08l-.52.21A9.33,9.33,0,0,1,172.88,237Z" transform="translate(-7.36 -4.05)"/><path d="M179.24,230.81v6.55h-.76v-.82a1.47,1.47,0,0,1-.6.66,1.82,1.82,0,0,1-.92.23,1.85,1.85,0,0,1-1.05-.3,1.93,1.93,0,0,1-.71-.83,2.86,2.86,0,0,1-.25-1.24,2.79,2.79,0,0,1,.25-1.23,1.9,1.9,0,0,1,.71-.82,1.92,1.92,0,0,1,1.05-.29,1.73,1.73,0,0,1,.92.24,1.38,1.38,0,0,1,.6.66v-2.81Zm-1.11,5.55a2.09,2.09,0,0,0,.35-1.28,2.05,2.05,0,0,0-.35-1.28,1.22,1.22,0,0,0-1-.44,1.24,1.24,0,0,0-1,.44,1.91,1.91,0,0,0-.37,1.26,2,2,0,0,0,.37,1.29,1.26,1.26,0,0,0,1,.46A1.23,1.23,0,0,0,178.13,236.36Z" transform="translate(-7.36 -4.05)"/><path d="M183.76,233.17a1.87,1.87,0,0,1,.43,1.34v2.85h-.74v-.77a1.31,1.31,0,0,1-.54.62,1.55,1.55,0,0,1-.84.22,1.77,1.77,0,0,1-.8-.18,1.4,1.4,0,0,1-.58-.49,1.16,1.16,0,0,1-.22-.7,1.14,1.14,0,0,1,.26-.79,1.58,1.58,0,0,1,.86-.41,8,8,0,0,1,1.66-.13h.2v-.3a1.25,1.25,0,0,0-.23-.83,1,1,0,0,0-.76-.25,2.92,2.92,0,0,0-1.55.48l-.25-.55a2.91,2.91,0,0,1,.85-.4,3,3,0,0,1,1-.16A1.68,1.68,0,0,1,183.76,233.17Zm-.67,3.29a1.35,1.35,0,0,0,.36-1v-.27h-.17a7.78,7.78,0,0,0-1.24.07,1.13,1.13,0,0,0-.61.23.62.62,0,0,0-.18.48.76.76,0,0,0,.26.6,1,1,0,0,0,.67.23A1.2,1.2,0,0,0,183.09,236.46Z" transform="translate(-7.36 -4.05)"/><path d="M188.81,232.84h.75l-2.68,6.2h-.77l.76-1.73L185,232.84h.8l1.51,3.71Z" transform="translate(-7.36 -4.05)"/><path d="M190,236.84l.25-.55a2.38,2.38,0,0,0,.74.41,2.76,2.76,0,0,0,.85.13,1.39,1.39,0,0,0,.77-.18.56.56,0,0,0,.26-.49.56.56,0,0,0-.17-.43,1.3,1.3,0,0,0-.59-.25l-.76-.18a1.79,1.79,0,0,1-.89-.45,1.09,1.09,0,0,1-.3-.78,1.15,1.15,0,0,1,.47-1,2,2,0,0,1,1.27-.38,2.51,2.51,0,0,1,.9.16,1.9,1.9,0,0,1,.71.44l-.25.55a2,2,0,0,0-1.36-.53,1.28,1.28,0,0,0-.74.18.58.58,0,0,0-.27.51.61.61,0,0,0,.16.43,1,1,0,0,0,.53.24l.77.19a2,2,0,0,1,.94.45,1,1,0,0,1,.31.79,1.14,1.14,0,0,1-.48,1,2.21,2.21,0,0,1-1.31.35A2.66,2.66,0,0,1,190,236.84Z" transform="translate(-7.36 -4.05)"/><path d="M194.36,239a11,11,0,0,0,.66-2.08,9.24,9.24,0,0,0,.21-2,9.4,9.4,0,0,0-.21-2,10.7,10.7,0,0,0-.66-2.07l.52-.21a9.7,9.7,0,0,1,.86,2.13,8.69,8.69,0,0,1,0,4.22,9.33,9.33,0,0,1-.86,2.13Z" transform="translate(-7.36 -4.05)"/><g class="cls-3"><path d="M7.36,128.7v-.63h6.55v.7H8.83l4,2.13v.54l-4,2.14h5v.71H7.36v-.64l4.75-2.48Z" transform="translate(-7.36 -4.05)"/><path d="M11.76,122.76v3.31a1.72,1.72,0,0,0,1.2-.43,1.44,1.44,0,0,0,.4-1.1,2.23,2.23,0,0,0-.54-1.45l.55-.25a2,2,0,0,1,.45.76,3.05,3.05,0,0,1,.16,1,2.23,2.23,0,0,1-.63,1.67,2.36,2.36,0,0,1-1.72.61,2.71,2.71,0,0,1-1.23-.27,2,2,0,0,1-1.13-1.87,1.78,1.78,0,0,1,.59-1.42,2.43,2.43,0,0,1,1.63-.51Zm-1.53,2.87a1.68,1.68,0,0,0,1,.42v-2.63a1.56,1.56,0,0,0-1,.35,1.13,1.13,0,0,0-.37.91A1.26,1.26,0,0,0,10.23,125.63Z" transform="translate(-7.36 -4.05)"/><path d="M11.07,115.11h2.84v.75H11.1a1.49,1.49,0,0,0-.91.22.82.82,0,0,0-.29.7,1.08,1.08,0,0,0,.39.89,1.53,1.53,0,0,0,1,.33h2.58v.75H11.1a1.46,1.46,0,0,0-.91.23.84.84,0,0,0-.29.7,1.12,1.12,0,0,0,.39.9,1.58,1.58,0,0,0,1,.32h2.58v.76H9.38v-.75h.72a1.47,1.47,0,0,1-.61-.57,1.54,1.54,0,0,1-.22-.83,1.34,1.34,0,0,1,.89-1.39,1.54,1.54,0,0,1-.65-.59,1.75,1.75,0,0,1-.24-.92Q9.27,115.11,11.07,115.11Z" transform="translate(-7.36 -4.05)"/><path d="M13.69,113a1.86,1.86,0,0,1-.82.75,2.73,2.73,0,0,1-1.24.27,2.74,2.74,0,0,1-1.25-.27,1.86,1.86,0,0,1-.82-.75,2.35,2.35,0,0,1,0-2.26,1.89,1.89,0,0,1,.82-.76,2.74,2.74,0,0,1,1.25-.27,2.73,2.73,0,0,1,1.24.27,1.89,1.89,0,0,1,.82.76,2.35,2.35,0,0,1,0,2.26Zm-.78-2.16a2,2,0,0,0-1.28-.35,2,2,0,0,0-1.28.36,1.38,1.38,0,0,0,0,2,1.93,1.93,0,0,0,1.28.37,2,2,0,0,0,1.28-.36,1.23,1.23,0,0,0,.44-1A1.24,1.24,0,0,0,12.91,110.82Z" transform="translate(-7.36 -4.05)"/><path d="M9.92,106l.05.49a1.41,1.41,0,0,0,.44,1,1.35,1.35,0,0,0,.92.31h2.58v.76H9.38v-.74h.79a1.66,1.66,0,0,1-.88-1.49l0-.27Z" transform="translate(-7.36 -4.05)"/><path d="M9.39,101.77V101l6.2,2.67v.78l-1.73-.77-4.47,1.92v-.8l3.7-1.52Z" transform="translate(-7.36 -4.05)"/></g><path d="M65.7,217.18h1.44v.64H63.49v-.64h1.44v-5l-1.15.73-.35-.59,1.72-1.08h.55Z" transform="translate(-7.36 -4.05)"/><path d="M109.69,217.18v.64h-4.22v-.57l2.3-2.53a4.51,4.51,0,0,0,.67-.94,1.79,1.79,0,0,0,.21-.83,1.07,1.07,0,0,0-.32-.83,1.29,1.29,0,0,0-.89-.29,2.88,2.88,0,0,0-1.86.76l-.29-.59a2.88,2.88,0,0,1,1-.59,3.34,3.34,0,0,1,1.19-.22,2.09,2.09,0,0,1,1.43.47,1.59,1.59,0,0,1,.52,1.25,2.45,2.45,0,0,1-.25,1.09,4.76,4.76,0,0,1-.85,1.16l-1.86,2Z" transform="translate(-7.36 -4.05)"/><path d="M149.71,215a1.87,1.87,0,0,1-.28,2.37,2.41,2.41,0,0,1-1.58.49,3.33,3.33,0,0,1-1.21-.22,2.87,2.87,0,0,1-1-.59l.29-.59a2.86,2.86,0,0,0,1.9.76,1.65,1.65,0,0,0,1.06-.31,1.16,1.16,0,0,0,.36-.92c0-.8-.5-1.2-1.51-1.2H147v-.64h.6a1.74,1.74,0,0,0,1.12-.32,1.15,1.15,0,0,0,.39-.93,1,1,0,0,0-.32-.81,1.3,1.3,0,0,0-.9-.29,2.88,2.88,0,0,0-1.86.76l-.29-.59a2.92,2.92,0,0,1,1-.59,3.23,3.23,0,0,1,1.2-.22,2.1,2.1,0,0,1,1.42.45,1.52,1.52,0,0,1,.52,1.22,1.79,1.79,0,0,1-.27,1,1.57,1.57,0,0,1-.77.61A1.65,1.65,0,0,1,149.71,215Z" transform="translate(-7.36 -4.05)"/><path d="M192.77,215.77v.63h-1v1.42H191V216.4h-3v-.58l3.16-4.55h.62v4.5Zm-4,0H191v-3.23Z" transform="translate(-7.36 -4.05)"/><path d="M229.28,214a1.78,1.78,0,0,1,.71.73,2.28,2.28,0,0,1,.25,1.09,2.15,2.15,0,0,1-.27,1.09,1.8,1.8,0,0,1-.78.74,2.41,2.41,0,0,1-1.17.27,3.24,3.24,0,0,1-1.18-.22,3.09,3.09,0,0,1-1-.59l.29-.59a2.89,2.89,0,0,0,1.87.76,1.46,1.46,0,0,0,1.08-.39,1.44,1.44,0,0,0,.39-1.06,1.42,1.42,0,0,0-.39-1.05,1.34,1.34,0,0,0-1-.41,1.76,1.76,0,0,0-1.5.77h-.53v-3.84H230v.63H226.8v2.33a2,2,0,0,1,.62-.38,2.32,2.32,0,0,1,1.86.12Z" transform="translate(-7.36 -4.05)"/><path d="M266,214a1.92,1.92,0,0,1,.73.74,2.37,2.37,0,0,1,0,2.18,1.89,1.89,0,0,1-.76.75,2.16,2.16,0,0,1-1.08.27,2.2,2.2,0,0,1-1.84-.83,3.77,3.77,0,0,1-.65-2.36,5.37,5.37,0,0,1,.3-1.9,2.64,2.64,0,0,1,.87-1.2,2.24,2.24,0,0,1,1.36-.42,3,3,0,0,1,1.11.21,3,3,0,0,1,.95.6l-.29.59a4.06,4.06,0,0,0-.89-.58,2.18,2.18,0,0,0-.86-.18,1.49,1.49,0,0,0-1.32.75,4,4,0,0,0-.46,2.12v.14a1.74,1.74,0,0,1,.68-.83,2,2,0,0,1,1.1-.31A2.16,2.16,0,0,1,266,214Zm-.15,2.9a1.65,1.65,0,0,0,0-2.11,1.36,1.36,0,0,0-1-.41,1.49,1.49,0,0,0-1,2.51,1.45,1.45,0,0,0,1.06.41A1.35,1.35,0,0,0,265.8,216.86Z" transform="translate(-7.36 -4.05)"/><polyline class="cls-4" points="17.61 27.12 17.61 200.78 257.94 200.78"/><g class="cls-3"><path class="cls-5" d="M148.45,31.17c14,4.36,27.56,9.25,42.06,11.93a444.22,444.22,0,0,0,54.61,7.08q9.9.59,19.84.51" transform="translate(-7.36 -4.05)"/><path class="cls-5" d="M108.65,31.17C131.91,51.61,158.27,69.69,186.72,82A320.6,320.6,0,0,0,265,104.52" transform="translate(-7.36 -4.05)"/><path class="cls-5" d="M66.1,31.42a490,490,0,0,0,95.23,81.91A520.38,520.38,0,0,0,265,165.85" transform="translate(-7.36 -4.05)"/><path class="cls-6" d="M29.75,33.28c1.59,43,20.53,81,52.42,108.59,24,20.74,53.88,33.43,84.31,42.26a410.79,410.79,0,0,0,98.41,16" transform="translate(-7.36 -4.05)"/></g><line class="cls-4" x1="58.75" y1="27.12" x2="58.75" y2="200.78"/><line class="cls-4" x1="101.29" y1="27.12" x2="101.29" y2="200.78"/><line class="cls-4" x1="141.1" y1="27.12" x2="141.1" y2="200.78"/><line class="cls-4" x1="183.34" y1="27.12" x2="183.34" y2="200.78"/><line class="cls-4" x1="221.62" y1="27.12" x2="221.62" y2="200.78"/><line class="cls-4" x1="257.94" y1="27.12" x2="257.94" y2="200.78"/><rect class="cls-7" x="278.32" y="37.95" width="19.66" height="2.52"/><rect class="cls-2" x="278.32" y="76.43" width="19.66" height="2.52"/><path class="cls-8" d="M317.36,42.46V36.11h-2.45v-.7h5.74v.7h-2.46v6.35Z" transform="translate(-7.36 -4.05)"/><path class="cls-8" d="M325.71,39.4v3.06h-.81v-3a1.47,1.47,0,0,0-.26-1,1.05,1.05,0,0,0-.85-.31,1.42,1.42,0,0,0-1.07.41,1.54,1.54,0,0,0-.4,1.11v2.79h-.8V35.41h.8v3a1.6,1.6,0,0,1,.67-.67,1.93,1.93,0,0,1,1-.23C325.13,37.47,325.71,38.11,325.71,39.4Z" transform="translate(-7.36 -4.05)"/><path class="cls-8" d="M331.28,40.15h-3.57a1.94,1.94,0,0,0,.47,1.28,1.57,1.57,0,0,0,1.19.44,2.47,2.47,0,0,0,1.56-.58l.27.59a2.42,2.42,0,0,1-.82.47,3,3,0,0,1-1,.18,2.44,2.44,0,0,1-1.8-.67,2.58,2.58,0,0,1-.65-1.85,2.83,2.83,0,0,1,.29-1.33,2.12,2.12,0,0,1,.81-.89,2.2,2.2,0,0,1,1.2-.32,1.93,1.93,0,0,1,1.52.63,2.62,2.62,0,0,1,.55,1.75Zm-3.09-1.65a1.75,1.75,0,0,0-.45,1.13h2.83a1.78,1.78,0,0,0-.37-1.14,1.27,1.27,0,0,0-1-.39A1.35,1.35,0,0,0,328.19,38.5Z" transform="translate(-7.36 -4.05)"/><path class="cls-8" d="M338.63,37.79a2.05,2.05,0,0,1,.75.89,3.11,3.11,0,0,1,.28,1.34,3.05,3.05,0,0,1-.28,1.32,2,2,0,0,1-.75.88,2.1,2.1,0,0,1-1.13.31,2,2,0,0,1-1-.25,1.63,1.63,0,0,1-.64-.71v2.69H335V37.59h.82v.84a1.53,1.53,0,0,1,.64-.71,1.9,1.9,0,0,1,1-.25A2,2,0,0,1,338.63,37.79Zm-.19,3.59a2.12,2.12,0,0,0,.39-1.36,2.18,2.18,0,0,0-.39-1.38,1.49,1.49,0,0,0-2.2,0,2.66,2.66,0,0,0,0,2.74,1.49,1.49,0,0,0,2.2,0Z" transform="translate(-7.36 -4.05)"/><path class="cls-8" d="M340.79,35.48h1v.91h-1Zm.08,7V37.59h.8v4.87Z" transform="translate(-7.36 -4.05)"/><path class="cls-8" d="M347.38,39.4v3.06h-.81v-3a1.47,1.47,0,0,0-.26-1,1.05,1.05,0,0,0-.85-.31,1.42,1.42,0,0,0-1.07.41,1.54,1.54,0,0,0-.4,1.11v2.79h-.8V37.59H344v.8a1.71,1.71,0,0,1,.67-.69,2,2,0,0,1,1-.23C346.8,37.47,347.38,38.11,347.38,39.4Z" transform="translate(-7.36 -4.05)"/><path class="cls-8" d="M353.21,42.46h-1.06l-2.48-2.33v2.33h-.8V35.41h.8V39.8L352,37.6h1l-2.42,2.33Z" transform="translate(-7.36 -4.05)"/><path class="cls-8" d="M356.45,42.46V35.41h.8v7.05Z" transform="translate(-7.36 -4.05)"/><path class="cls-8" d="M358.69,35.48h1v.91h-1Zm.08,7V37.59h.8v4.87Z" transform="translate(-7.36 -4.05)"/><path class="cls-8" d="M365.29,39.4v3.06h-.82v-3a1.47,1.47,0,0,0-.26-1,1,1,0,0,0-.84-.31,1.42,1.42,0,0,0-1.08.41,1.54,1.54,0,0,0-.4,1.11v2.79h-.8V37.59h.79v.8a1.71,1.71,0,0,1,.67-.69,2,2,0,0,1,1-.23C364.7,37.47,365.29,38.11,365.29,39.4Z" transform="translate(-7.36 -4.05)"/><path class="cls-8" d="M370.85,40.15h-3.56a1.84,1.84,0,0,0,.46,1.28,1.57,1.57,0,0,0,1.19.44,2.47,2.47,0,0,0,1.56-.58l.27.59a2.42,2.42,0,0,1-.82.47,3,3,0,0,1-1,.18,2.44,2.44,0,0,1-1.8-.67,2.54,2.54,0,0,1-.66-1.85,2.83,2.83,0,0,1,.3-1.33,2.12,2.12,0,0,1,.81-.89,2.2,2.2,0,0,1,1.2-.32,1.89,1.89,0,0,1,1.51.63,2.57,2.57,0,0,1,.56,1.75Zm-3.09-1.65a1.81,1.81,0,0,0-.46,1.13h2.83a1.73,1.73,0,0,0-.36-1.14,1.26,1.26,0,0,0-1-.39A1.36,1.36,0,0,0,367.76,38.5Z" transform="translate(-7.36 -4.05)"/><path class="cls-8" d="M374.31,41.9l.27-.6a2.63,2.63,0,0,0,1.71.58,1.57,1.57,0,0,0,.83-.19.59.59,0,0,0,.28-.53.56.56,0,0,0-.19-.46,1.24,1.24,0,0,0-.63-.27l-.81-.19a2,2,0,0,1-1-.48,1.21,1.21,0,0,1-.33-.84,1.25,1.25,0,0,1,.51-1.05,2.15,2.15,0,0,1,1.37-.4,2.76,2.76,0,0,1,1,.16,2.06,2.06,0,0,1,.78.48l-.28.59a2.19,2.19,0,0,0-1.46-.57,1.41,1.41,0,0,0-.8.19.62.62,0,0,0-.28.55.61.61,0,0,0,.17.46,1.12,1.12,0,0,0,.57.27l.83.2a2.07,2.07,0,0,1,1,.48,1.19,1.19,0,0,1,.33.85,1.23,1.23,0,0,1-.52,1,2.33,2.33,0,0,1-1.4.38A2.89,2.89,0,0,1,374.31,41.9Z" transform="translate(-7.36 -4.05)"/><path class="cls-8" d="M383.62,39.4v3.06h-.82v-3a1.47,1.47,0,0,0-.26-1,1,1,0,0,0-.84-.31,1.39,1.39,0,0,0-1.07.41,1.5,1.5,0,0,0-.41,1.11v2.79h-.81V35.41h.81v3a1.6,1.6,0,0,1,.67-.67,2,2,0,0,1,1-.23C383,37.47,383.62,38.11,383.62,39.4Z" transform="translate(-7.36 -4.05)"/><path class="cls-8" d="M385.9,42.22a2.12,2.12,0,0,1-.81-.89,3.22,3.22,0,0,1,0-2.67,2,2,0,0,1,.81-.88,2.29,2.29,0,0,1,1.21-.31,2.33,2.33,0,0,1,1.22.31,2,2,0,0,1,.82.88,3.32,3.32,0,0,1,0,2.67,2.08,2.08,0,0,1-.82.89,2.43,2.43,0,0,1-1.22.31A2.39,2.39,0,0,1,385.9,42.22Zm2.32-.84a2.67,2.67,0,0,0,0-2.76,1.32,1.32,0,0,0-1.1-.48,1.34,1.34,0,0,0-1.1.48,2.7,2.7,0,0,0,0,2.76,1.33,1.33,0,0,0,1.1.48A1.35,1.35,0,0,0,388.22,41.38Z" transform="translate(-7.36 -4.05)"/><path class="cls-8" d="M397.2,37.59h.8l-1.8,4.87h-.79L394,38.69l-1.38,3.77h-.77l-1.81-4.87h.84l1.38,3.91,1.41-3.91h.7l1.39,3.91Z" transform="translate(-7.36 -4.05)"/><path class="cls-8" d="M398.63,41.9l.26-.6a2.76,2.76,0,0,0,.8.44,2.85,2.85,0,0,0,.91.14,1.57,1.57,0,0,0,.83-.19.59.59,0,0,0,.28-.53.56.56,0,0,0-.19-.46,1.24,1.24,0,0,0-.63-.27l-.82-.19a1.9,1.9,0,0,1-.94-.48,1.14,1.14,0,0,1-.34-.84,1.25,1.25,0,0,1,.51-1.05,2.14,2.14,0,0,1,1.36-.4,2.82,2.82,0,0,1,1,.16,1.94,1.94,0,0,1,.77.48l-.27.59a2.19,2.19,0,0,0-1.47-.57,1.38,1.38,0,0,0-.79.19.63.63,0,0,0-.29.55.62.62,0,0,0,.18.46,1.13,1.13,0,0,0,.56.27l.83.2a2,2,0,0,1,1,.48,1.15,1.15,0,0,1,.33.85,1.22,1.22,0,0,1-.51,1,2.34,2.34,0,0,1-1.41.38A2.81,2.81,0,0,1,398.63,41.9Z" transform="translate(-7.36 -4.05)"/><path class="cls-8" d="M408.88,41.85l0,.64a3.75,3.75,0,0,1-.5,0,1.79,1.79,0,0,1-1.32-.46,1.77,1.77,0,0,1-.45-1.28V38.23h-.94v-.64h.94V36.11h.81v1.48h1.38v.64h-1.38v2.5c0,.76.36,1.15,1.06,1.15A3.15,3.15,0,0,0,408.88,41.85Z" transform="translate(-7.36 -4.05)"/><path class="cls-8" d="M413.9,39.4v3.06h-.81v-3a1.47,1.47,0,0,0-.26-1,1.05,1.05,0,0,0-.85-.31,1.42,1.42,0,0,0-1.07.41,1.54,1.54,0,0,0-.4,1.11v2.79h-.8V35.41h.8v3a1.6,1.6,0,0,1,.67-.67,1.93,1.93,0,0,1,1-.23C413.32,37.47,413.9,38.11,413.9,39.4Z" transform="translate(-7.36 -4.05)"/><path class="cls-8" d="M419.46,40.15H415.9a1.89,1.89,0,0,0,.47,1.28,1.55,1.55,0,0,0,1.18.44,2.48,2.48,0,0,0,1.57-.58l.26.59a2.24,2.24,0,0,1-.82.47,3,3,0,0,1-1,.18,2.43,2.43,0,0,1-1.79-.67,2.54,2.54,0,0,1-.66-1.85,3,3,0,0,1,.29-1.33,2.2,2.2,0,0,1,2-1.21,1.9,1.9,0,0,1,1.52.63,2.57,2.57,0,0,1,.55,1.75Zm-3.08-1.65a1.81,1.81,0,0,0-.46,1.13h2.83a1.68,1.68,0,0,0-.37-1.14,1.24,1.24,0,0,0-1-.39A1.35,1.35,0,0,0,416.38,38.5Z" transform="translate(-7.36 -4.05)"/><path class="cls-8" d="M427.43,39.4v3.06h-.81v-3a1.47,1.47,0,0,0-.26-1,1.05,1.05,0,0,0-.85-.31,1.42,1.42,0,0,0-1.07.41,1.54,1.54,0,0,0-.4,1.11v2.79h-.81V37.59h.8v.8a1.71,1.71,0,0,1,.67-.69,2,2,0,0,1,1-.23C426.85,37.47,427.43,38.11,427.43,39.4Z" transform="translate(-7.36 -4.05)"/><path class="cls-8" d="M432.28,37.94a2,2,0,0,1,.45,1.45v3.07H432v-.83a1.49,1.49,0,0,1-.58.66,1.72,1.72,0,0,1-.91.24,2,2,0,0,1-.86-.19,1.72,1.72,0,0,1-.63-.53,1.35,1.35,0,0,1-.23-.75,1.21,1.21,0,0,1,.29-.86,1.69,1.69,0,0,1,.92-.44,9,9,0,0,1,1.77-.13H432V39.3a1.33,1.33,0,0,0-.25-.89,1.08,1.08,0,0,0-.82-.27,3.11,3.11,0,0,0-1.67.52l-.26-.59a3.08,3.08,0,0,1,.91-.44,3.49,3.49,0,0,1,1-.16A1.83,1.83,0,0,1,432.28,37.94Zm-.72,3.54a1.44,1.44,0,0,0,.39-1v-.29h-.19a9.18,9.18,0,0,0-1.34.07,1.28,1.28,0,0,0-.65.25.67.67,0,0,0-.2.52.82.82,0,0,0,.29.64,1,1,0,0,0,.71.26A1.32,1.32,0,0,0,431.56,41.48Z" transform="translate(-7.36 -4.05)"/><path class="cls-8" d="M436.79,41.85l0,.64a3.75,3.75,0,0,1-.5,0,1.79,1.79,0,0,1-1.32-.46,1.77,1.77,0,0,1-.45-1.28V38.23h-.94v-.64h.94V36.11h.81v1.48h1.38v.64h-1.38v2.5c0,.76.36,1.15,1.06,1.15A3.15,3.15,0,0,0,436.79,41.85Z" transform="translate(-7.36 -4.05)"/><path class="cls-8" d="M441.71,37.59v4.87h-.79v-.83a1.65,1.65,0,0,1-.64.67,2,2,0,0,1-.94.23A1.7,1.7,0,0,1,438,42a2.07,2.07,0,0,1-.44-1.43v-3h.81v3a1.46,1.46,0,0,0,.26.95,1,1,0,0,0,.82.31,1.33,1.33,0,0,0,1-.42,1.53,1.53,0,0,0,.39-1.09V37.59Z" transform="translate(-7.36 -4.05)"/><path class="cls-8" d="M446,38.17l-.52,0a1.5,1.5,0,0,0-1.09.47,1.49,1.49,0,0,0-.34,1v2.78h-.81V37.59H444v.85a1.78,1.78,0,0,1,1.62-.95l.28,0Z" transform="translate(-7.36 -4.05)"/><path class="cls-8" d="M450.08,37.94a2,2,0,0,1,.46,1.45v3.07h-.8v-.83a1.43,1.43,0,0,1-.58.66,1.68,1.68,0,0,1-.9.24,2,2,0,0,1-.86-.19,1.72,1.72,0,0,1-.63-.53,1.35,1.35,0,0,1-.23-.75,1.25,1.25,0,0,1,.28-.86,1.76,1.76,0,0,1,.92-.44,9.18,9.18,0,0,1,1.78-.13h.22V39.3a1.28,1.28,0,0,0-.25-.89,1,1,0,0,0-.81-.27,3.13,3.13,0,0,0-1.67.52l-.27-.59a3.28,3.28,0,0,1,.92-.44,3.51,3.51,0,0,1,1-.16A1.82,1.82,0,0,1,450.08,37.94Zm-.72,3.54a1.44,1.44,0,0,0,.38-1v-.29h-.18a9.18,9.18,0,0,0-1.34.07,1.28,1.28,0,0,0-.65.25.67.67,0,0,0-.19.52.81.81,0,0,0,.28.64,1,1,0,0,0,.72.26A1.31,1.31,0,0,0,449.36,41.48Z" transform="translate(-7.36 -4.05)"/><path class="cls-8" d="M452,42.46V35.41h.81v7.05Z" transform="translate(-7.36 -4.05)"/><path class="cls-8" d="M316.62,49.59H318v.64h-1.38v4.23h-.82V50.23h-.94v-.64h.94v-.16a2,2,0,0,1,.49-1.47,2.15,2.15,0,0,1,1.5-.56l.4,0,.06.63-.46,0a1.24,1.24,0,0,0-.89.34,1.34,1.34,0,0,0-.28.94Z" transform="translate(-7.36 -4.05)"/><path class="cls-8" d="M319.58,54.22a2.12,2.12,0,0,1-.81-.89,3.32,3.32,0,0,1,0-2.67,2,2,0,0,1,.81-.88,2.32,2.32,0,0,1,1.21-.31,2.37,2.37,0,0,1,1.23.31,2,2,0,0,1,.81.88,3.22,3.22,0,0,1,0,2.67,2.12,2.12,0,0,1-.81.89,2.47,2.47,0,0,1-1.23.31A2.42,2.42,0,0,1,319.58,54.22Zm2.32-.84a2.64,2.64,0,0,0,0-2.76,1.35,1.35,0,0,0-1.11-.48,1.32,1.32,0,0,0-1.09.48,2.67,2.67,0,0,0,0,2.76,1.51,1.51,0,0,0,2.21,0Z" transform="translate(-7.36 -4.05)"/><path class="cls-8" d="M327.09,50.17l-.53,0a1.5,1.5,0,0,0-1.09.47,1.49,1.49,0,0,0-.34,1v2.78h-.8V49.59h.79v.85a1.77,1.77,0,0,1,1.61-.95l.29,0Z" transform="translate(-7.36 -4.05)"/><path class="cls-8" d="M332.12,49.59v4.54a2.19,2.19,0,0,1-.57,1.64,2.25,2.25,0,0,1-1.66.56,3.43,3.43,0,0,1-2.14-.66l.27-.6a4.15,4.15,0,0,0,.92.46,3.11,3.11,0,0,0,.95.14,1.44,1.44,0,0,0,1.07-.38,1.51,1.51,0,0,0,.35-1.09v-.86a1.49,1.49,0,0,1-.64.72,2.09,2.09,0,0,1-1,.25,2.15,2.15,0,0,1-1.13-.3,2,2,0,0,1-.77-.85,2.86,2.86,0,0,1-.28-1.27,2.83,2.83,0,0,1,.28-1.27,2,2,0,0,1,.77-.85,2.15,2.15,0,0,1,1.13-.3,2,2,0,0,1,1,.25,1.53,1.53,0,0,1,.64.71v-.84Zm-1.21,3.58a2.3,2.3,0,0,0,0-2.56,1.36,1.36,0,0,0-1.11-.46,1.39,1.39,0,0,0-1.11.46,2.25,2.25,0,0,0,0,2.56,1.55,1.55,0,0,0,2.22,0Z" transform="translate(-7.36 -4.05)"/><path class="cls-8" d="M337.7,52.15h-3.57a1.94,1.94,0,0,0,.47,1.28,1.57,1.57,0,0,0,1.19.44,2.47,2.47,0,0,0,1.56-.58l.27.59a2.37,2.37,0,0,1-.83.47,3,3,0,0,1-1,.18,2.44,2.44,0,0,1-1.8-.67,2.53,2.53,0,0,1-.65-1.85,2.83,2.83,0,0,1,.29-1.33,2.12,2.12,0,0,1,.81-.89,2.2,2.2,0,0,1,1.2-.32,1.93,1.93,0,0,1,1.52.63,2.62,2.62,0,0,1,.55,1.75Zm-3.09-1.65a1.75,1.75,0,0,0-.45,1.13H337a1.78,1.78,0,0,0-.37-1.14,1.27,1.27,0,0,0-1-.39A1.35,1.35,0,0,0,334.61,50.5Z" transform="translate(-7.36 -4.05)"/><path class="cls-8" d="M341.45,53.85l0,.64a3.9,3.9,0,0,1-.5,0,1.8,1.8,0,0,1-1.33-.46,1.77,1.77,0,0,1-.45-1.28V50.23h-.94v-.64h.94V48.11H340v1.48h1.38v.64H340v2.5c0,.76.35,1.15,1.06,1.15Z" transform="translate(-7.36 -4.05)"/><path class="cls-8" d="M344.87,53.85l0,.64a3.9,3.9,0,0,1-.5,0,1.8,1.8,0,0,1-1.33-.46,1.77,1.77,0,0,1-.45-1.28V50.23h-.94v-.64h.94V48.11h.82v1.48h1.38v.64h-1.38v2.5c0,.76.35,1.15,1.06,1.15Z" transform="translate(-7.36 -4.05)"/><path class="cls-8" d="M345.61,47.48h1v.91h-1Zm.08,7V49.59h.8v4.87Z" transform="translate(-7.36 -4.05)"/><path class="cls-8" d="M352.21,51.4v3.06h-.82v-3a1.47,1.47,0,0,0-.26-1,1,1,0,0,0-.84-.31,1.42,1.42,0,0,0-1.08.41,1.54,1.54,0,0,0-.4,1.11v2.79H348V49.59h.79v.8a1.71,1.71,0,0,1,.67-.69,2,2,0,0,1,1-.23C351.62,49.47,352.21,50.11,352.21,51.4Z" transform="translate(-7.36 -4.05)"/><path class="cls-8" d="M358,49.59v4.54a2.19,2.19,0,0,1-.56,1.64,2.25,2.25,0,0,1-1.66.56,3.43,3.43,0,0,1-2.14-.66l.27-.6a4.15,4.15,0,0,0,.92.46,3.11,3.11,0,0,0,.95.14,1.4,1.4,0,0,0,1.06-.38,1.47,1.47,0,0,0,.36-1.09v-.86a1.49,1.49,0,0,1-.64.72,2.09,2.09,0,0,1-1,.25,2.15,2.15,0,0,1-1.13-.3,2,2,0,0,1-.77-.85,2.86,2.86,0,0,1-.28-1.27,2.83,2.83,0,0,1,.28-1.27,2,2,0,0,1,.77-.85,2.15,2.15,0,0,1,1.13-.3,2,2,0,0,1,1,.25,1.53,1.53,0,0,1,.64.71v-.84Zm-1.2,3.58a2.3,2.3,0,0,0,0-2.56,1.36,1.36,0,0,0-1.11-.46,1.39,1.39,0,0,0-1.11.46,2.2,2.2,0,0,0,0,2.56,1.55,1.55,0,0,0,2.22,0Z" transform="translate(-7.36 -4.05)"/><path class="cls-8" d="M362.94,54.22a2.05,2.05,0,0,1-.82-.88,2.91,2.91,0,0,1-.28-1.32,2.85,2.85,0,0,1,.29-1.34,2.16,2.16,0,0,1,.83-.89,2.35,2.35,0,0,1,1.25-.32,2.72,2.72,0,0,1,1,.17,2.13,2.13,0,0,1,.76.47l-.27.6a2.18,2.18,0,0,0-1.4-.56,1.45,1.45,0,0,0-1.17.49,2,2,0,0,0-.42,1.38,2,2,0,0,0,.42,1.36,1.47,1.47,0,0,0,1.17.48,2.24,2.24,0,0,0,1.4-.56l.27.6a2.48,2.48,0,0,1-.78.46,3,3,0,0,1-1,.17A2.49,2.49,0,0,1,362.94,54.22Z" transform="translate(-7.36 -4.05)"/><path class="cls-8" d="M371,49.59v4.87h-.79v-.83a1.59,1.59,0,0,1-.64.67,2,2,0,0,1-.94.23,1.7,1.7,0,0,1-1.31-.49,2.07,2.07,0,0,1-.44-1.43v-3h.82v3a1.46,1.46,0,0,0,.25.95,1.06,1.06,0,0,0,.83.31,1.33,1.33,0,0,0,1-.42,1.54,1.54,0,0,0,.4-1.09V49.59Z" transform="translate(-7.36 -4.05)"/><path class="cls-8" d="M375.29,50.17l-.53,0a1.5,1.5,0,0,0-1.09.47,1.49,1.49,0,0,0-.34,1v2.78h-.8V49.59h.78v.85a1.8,1.8,0,0,1,1.62-.95l.28,0Z" transform="translate(-7.36 -4.05)"/><path class="cls-8" d="M379.84,49.6h.8l-2.1,4.86h-.75L375.7,49.6h.85l1.64,4Z" transform="translate(-7.36 -4.05)"/><path class="cls-8" d="M385.52,52.15H382a1.84,1.84,0,0,0,.46,1.28,1.57,1.57,0,0,0,1.19.44,2.47,2.47,0,0,0,1.56-.58l.27.59a2.42,2.42,0,0,1-.82.47,3,3,0,0,1-1,.18,2.44,2.44,0,0,1-1.8-.67,2.54,2.54,0,0,1-.66-1.85,2.83,2.83,0,0,1,.3-1.33,2.12,2.12,0,0,1,.81-.89,2.2,2.2,0,0,1,1.2-.32,1.89,1.89,0,0,1,1.51.63,2.57,2.57,0,0,1,.56,1.75Zm-3.09-1.65a1.81,1.81,0,0,0-.46,1.13h2.83a1.73,1.73,0,0,0-.36-1.14,1.26,1.26,0,0,0-1-.39A1.36,1.36,0,0,0,382.43,50.5Z" transform="translate(-7.36 -4.05)"/><path class="cls-8" d="M386.58,53.44h1v1h-1Z" transform="translate(-7.36 -4.05)"/><path class="cls-8" d="M317.36,74.37V68h-2.45v-.7h5.74V68h-2.46v6.35Z" transform="translate(-7.36 -4.05)"/><path class="cls-8" d="M325.71,71.31v3.06h-.81v-3a1.47,1.47,0,0,0-.26-1,1.05,1.05,0,0,0-.85-.31,1.42,1.42,0,0,0-1.07.41,1.54,1.54,0,0,0-.4,1.11v2.79h-.8V67.32h.8v3a1.6,1.6,0,0,1,.67-.67,1.93,1.93,0,0,1,1-.23C325.13,69.38,325.71,70,325.71,71.31Z" transform="translate(-7.36 -4.05)"/><path class="cls-8" d="M331.28,72.06h-3.57a1.94,1.94,0,0,0,.47,1.28,1.57,1.57,0,0,0,1.19.44,2.47,2.47,0,0,0,1.56-.58l.27.59a2.42,2.42,0,0,1-.82.47,3,3,0,0,1-1,.18,2.44,2.44,0,0,1-1.8-.67,2.58,2.58,0,0,1-.65-1.85,2.83,2.83,0,0,1,.29-1.33,2.12,2.12,0,0,1,.81-.89,2.2,2.2,0,0,1,1.2-.32,1.93,1.93,0,0,1,1.52.63,2.62,2.62,0,0,1,.55,1.75Zm-3.09-1.65a1.75,1.75,0,0,0-.45,1.13h2.83a1.78,1.78,0,0,0-.37-1.14,1.27,1.27,0,0,0-1-.39A1.35,1.35,0,0,0,328.19,70.41Z" transform="translate(-7.36 -4.05)"/><path class="cls-8" d="M338.63,69.69a2,2,0,0,1,.75.88,3.05,3.05,0,0,1,.28,1.32,3.1,3.1,0,0,1-.28,1.33,2.14,2.14,0,0,1-.75.9,2.07,2.07,0,0,1-1.13.32,2,2,0,0,1-1-.25,1.63,1.63,0,0,1-.64-.71v.89H335V67.32h.82v3a1.53,1.53,0,0,1,.64-.71,1.9,1.9,0,0,1,1-.25A2.06,2.06,0,0,1,338.63,69.69Zm-.19,3.58a2.18,2.18,0,0,0,.39-1.38,2.09,2.09,0,0,0-.39-1.35,1.5,1.5,0,0,0-2.2,0,2.66,2.66,0,0,0,0,2.74,1.47,1.47,0,0,0,2.2,0Z" transform="translate(-7.36 -4.05)"/><path class="cls-8" d="M340.87,74.37V67.32h.8v7.05Z" transform="translate(-7.36 -4.05)"/><path class="cls-8" d="M347.29,69.5v4.87h-.8v-.83a1.59,1.59,0,0,1-.64.67,1.94,1.94,0,0,1-.93.23,1.69,1.69,0,0,1-1.31-.49,2,2,0,0,1-.44-1.43v-3h.8v3a1.46,1.46,0,0,0,.26,1,1,1,0,0,0,.82.31,1.37,1.37,0,0,0,1-.42,1.53,1.53,0,0,0,.38-1.09V69.5Z" transform="translate(-7.36 -4.05)"/><path class="cls-8" d="M352.88,72.06h-3.57a1.94,1.94,0,0,0,.47,1.28,1.55,1.55,0,0,0,1.18.44,2.48,2.48,0,0,0,1.57-.58l.26.59a2.24,2.24,0,0,1-.82.47,3,3,0,0,1-1,.18,2.44,2.44,0,0,1-1.8-.67,2.53,2.53,0,0,1-.65-1.85,3,3,0,0,1,.28-1.33,2.2,2.2,0,0,1,2-1.21,1.93,1.93,0,0,1,1.53.63,2.62,2.62,0,0,1,.55,1.75Zm-3.09-1.65a1.75,1.75,0,0,0-.45,1.13h2.83a1.73,1.73,0,0,0-.38-1.14,1.23,1.23,0,0,0-1-.39A1.35,1.35,0,0,0,349.79,70.41Z" transform="translate(-7.36 -4.05)"/><path class="cls-8" d="M356.64,74.37V67.32h.82v7.05Z" transform="translate(-7.36 -4.05)"/><path class="cls-8" d="M358.88,67.39h1v.91h-1Zm.08,7V69.5h.82v4.87Z" transform="translate(-7.36 -4.05)"/><path class="cls-8" d="M365.48,71.31v3.06h-.81v-3a1.47,1.47,0,0,0-.26-1,1.05,1.05,0,0,0-.85-.31,1.42,1.42,0,0,0-1.07.41,1.54,1.54,0,0,0-.4,1.11v2.79h-.8V69.5h.79v.8a1.71,1.71,0,0,1,.67-.69,2,2,0,0,1,1-.23C364.9,69.38,365.48,70,365.48,71.31Z" transform="translate(-7.36 -4.05)"/><path class="cls-8" d="M371,72.06h-3.56a1.89,1.89,0,0,0,.47,1.28,1.55,1.55,0,0,0,1.18.44,2.48,2.48,0,0,0,1.57-.58l.26.59a2.24,2.24,0,0,1-.82.47,3,3,0,0,1-1,.18,2.44,2.44,0,0,1-1.8-.67,2.54,2.54,0,0,1-.66-1.85,3,3,0,0,1,.29-1.33,2.2,2.2,0,0,1,2-1.21,1.9,1.9,0,0,1,1.52.63,2.57,2.57,0,0,1,.55,1.75ZM368,70.41a1.81,1.81,0,0,0-.46,1.13h2.83A1.68,1.68,0,0,0,370,70.4a1.24,1.24,0,0,0-1-.39A1.35,1.35,0,0,0,368,70.41Z" transform="translate(-7.36 -4.05)"/><path class="cls-8" d="M371.94,73.81l.27-.6a2.59,2.59,0,0,0,.79.44,2.85,2.85,0,0,0,.91.14,1.54,1.54,0,0,0,.83-.19.6.6,0,0,0,.29-.53.57.57,0,0,0-.2-.46,1.24,1.24,0,0,0-.62-.27l-.83-.19a1.9,1.9,0,0,1-.94-.48,1.13,1.13,0,0,1-.33-.84,1.25,1.25,0,0,1,.51-1,2.11,2.11,0,0,1,1.35-.4,2.92,2.92,0,0,1,1,.16,2,2,0,0,1,.76.48l-.26.59A2.24,2.24,0,0,0,374,70a1.38,1.38,0,0,0-.79.19.63.63,0,0,0-.29.55.62.62,0,0,0,.18.46,1.17,1.17,0,0,0,.56.27l.83.2a2,2,0,0,1,1,.48,1.11,1.11,0,0,1,.33.85,1.22,1.22,0,0,1-.51,1,2.34,2.34,0,0,1-1.41.38A2.81,2.81,0,0,1,371.94,73.81Z" transform="translate(-7.36 -4.05)"/><path class="cls-8" d="M382.38,70.08l-.53,0a1.5,1.5,0,0,0-1.09.47,1.49,1.49,0,0,0-.34,1v2.78h-.8V69.5h.78v.85A1.78,1.78,0,0,1,382,69.4l.28,0Z" transform="translate(-7.36 -4.05)"/><path class="cls-8" d="M387.13,72.06h-3.57a1.89,1.89,0,0,0,.47,1.28,1.55,1.55,0,0,0,1.18.44,2.48,2.48,0,0,0,1.57-.58l.26.59a2.24,2.24,0,0,1-.82.47,3,3,0,0,1-1,.18,2.44,2.44,0,0,1-1.8-.67,2.54,2.54,0,0,1-.66-1.85,3,3,0,0,1,.29-1.33,2.2,2.2,0,0,1,2-1.21,1.9,1.9,0,0,1,1.52.63,2.57,2.57,0,0,1,.56,1.75ZM384,70.41a1.81,1.81,0,0,0-.46,1.13h2.83A1.68,1.68,0,0,0,386,70.4a1.24,1.24,0,0,0-1-.39A1.35,1.35,0,0,0,384,70.41Z" transform="translate(-7.36 -4.05)"/><path class="cls-8" d="M391.89,69.7a2.08,2.08,0,0,1,.76.89,3.11,3.11,0,0,1,.28,1.34,3.05,3.05,0,0,1-.28,1.32,2,2,0,0,1-1.88,1.19,2,2,0,0,1-1-.25,1.63,1.63,0,0,1-.64-.71v2.69h-.82V69.5h.82v.84a1.53,1.53,0,0,1,.64-.71,1.88,1.88,0,0,1,1-.25A1.94,1.94,0,0,1,391.89,69.7Zm-.18,3.59a2.18,2.18,0,0,0,.39-1.36,2.24,2.24,0,0,0-.39-1.38,1.49,1.49,0,0,0-2.2,0,2.66,2.66,0,0,0,0,2.74,1.49,1.49,0,0,0,2.2,0Z" transform="translate(-7.36 -4.05)"/><path class="cls-8" d="M396.89,70.08l-.52,0a1.5,1.5,0,0,0-1.09.47,1.49,1.49,0,0,0-.34,1v2.78h-.81V69.5h.79v.85a1.78,1.78,0,0,1,1.62-.95l.28,0Z" transform="translate(-7.36 -4.05)"/><path class="cls-8" d="M401.64,72.06h-3.56a1.93,1.93,0,0,0,.46,1.28,1.58,1.58,0,0,0,1.19.44,2.43,2.43,0,0,0,1.56-.58l.27.59a2.24,2.24,0,0,1-.82.47,3,3,0,0,1-1,.18,2.41,2.41,0,0,1-1.79-.67,2.54,2.54,0,0,1-.66-1.85,3,3,0,0,1,.29-1.33,2.2,2.2,0,0,1,2-1.21,1.9,1.9,0,0,1,1.52.63,2.57,2.57,0,0,1,.55,1.75Zm-3.08-1.65a1.81,1.81,0,0,0-.46,1.13h2.83a1.68,1.68,0,0,0-.37-1.14,1.24,1.24,0,0,0-1-.39A1.35,1.35,0,0,0,398.56,70.41Z" transform="translate(-7.36 -4.05)"/><path class="cls-8" d="M402.54,73.81l.26-.6a2.76,2.76,0,0,0,.8.44,2.85,2.85,0,0,0,.91.14,1.54,1.54,0,0,0,.83-.19.6.6,0,0,0,.29-.53.57.57,0,0,0-.2-.46,1.24,1.24,0,0,0-.63-.27l-.82-.19a1.9,1.9,0,0,1-.94-.48,1.13,1.13,0,0,1-.33-.84,1.27,1.27,0,0,1,.5-1,2.14,2.14,0,0,1,1.36-.4,2.82,2.82,0,0,1,1,.16,1.94,1.94,0,0,1,.77.48l-.27.59a2.19,2.19,0,0,0-1.47-.57,1.38,1.38,0,0,0-.79.19.63.63,0,0,0-.29.55.62.62,0,0,0,.18.46,1.13,1.13,0,0,0,.56.27l.83.2a2,2,0,0,1,1,.48,1.15,1.15,0,0,1,.33.85,1.22,1.22,0,0,1-.51,1,2.34,2.34,0,0,1-1.41.38A2.81,2.81,0,0,1,402.54,73.81Z" transform="translate(-7.36 -4.05)"/><path class="cls-8" d="M411.71,72.06h-3.56a1.89,1.89,0,0,0,.47,1.28,1.55,1.55,0,0,0,1.18.44,2.48,2.48,0,0,0,1.57-.58l.26.59a2.24,2.24,0,0,1-.82.47,3,3,0,0,1-1,.18,2.43,2.43,0,0,1-1.79-.67,2.54,2.54,0,0,1-.66-1.85,3,3,0,0,1,.29-1.33,2.2,2.2,0,0,1,2-1.21,1.9,1.9,0,0,1,1.52.63,2.57,2.57,0,0,1,.55,1.75Zm-3.08-1.65a1.81,1.81,0,0,0-.46,1.13H411a1.68,1.68,0,0,0-.37-1.14,1.24,1.24,0,0,0-1-.39A1.35,1.35,0,0,0,408.63,70.41Z" transform="translate(-7.36 -4.05)"/><path class="cls-8" d="M417.1,71.31v3.06h-.81v-3a1.47,1.47,0,0,0-.26-1,1.05,1.05,0,0,0-.85-.31,1.42,1.42,0,0,0-1.07.41,1.54,1.54,0,0,0-.4,1.11v2.79h-.81V69.5h.8v.8a1.71,1.71,0,0,1,.67-.69,2,2,0,0,1,1-.23C416.52,69.38,417.1,70,417.1,71.31Z" transform="translate(-7.36 -4.05)"/><path class="cls-8" d="M421.16,73.76l0,.64a4,4,0,0,1-.5,0A1.8,1.8,0,0,1,419.3,74a1.77,1.77,0,0,1-.45-1.28V70.14h-1V69.5h1V68h.81V69.5H421v.64h-1.38v2.5c0,.76.36,1.15,1.06,1.15A3.15,3.15,0,0,0,421.16,73.76Z" transform="translate(-7.36 -4.05)"/><path class="cls-8" d="M427.14,73.76l0,.64a3.75,3.75,0,0,1-.5,0,1.79,1.79,0,0,1-1.32-.46,1.77,1.77,0,0,1-.45-1.28V70.14h-.95V69.5h.95V68h.81V69.5H427v.64h-1.38v2.5c0,.76.36,1.15,1.06,1.15A3.15,3.15,0,0,0,427.14,73.76Z" transform="translate(-7.36 -4.05)"/><path class="cls-8" d="M432.16,71.31v3.06h-.81v-3a1.47,1.47,0,0,0-.26-1,1.05,1.05,0,0,0-.85-.31,1.42,1.42,0,0,0-1.07.41,1.54,1.54,0,0,0-.4,1.11v2.79H428V67.32h.81v3a1.6,1.6,0,0,1,.67-.67,1.93,1.93,0,0,1,1-.23C431.58,69.38,432.16,70,432.16,71.31Z" transform="translate(-7.36 -4.05)"/><path class="cls-8" d="M437.72,72.06h-3.56a1.89,1.89,0,0,0,.47,1.28,1.55,1.55,0,0,0,1.18.44,2.48,2.48,0,0,0,1.57-.58l.26.59a2.24,2.24,0,0,1-.82.47,3,3,0,0,1-1,.18,2.41,2.41,0,0,1-1.79-.67,2.54,2.54,0,0,1-.66-1.85,3,3,0,0,1,.29-1.33,2.2,2.2,0,0,1,2-1.21,1.9,1.9,0,0,1,1.52.63,2.57,2.57,0,0,1,.55,1.75Zm-3.08-1.65a1.81,1.81,0,0,0-.46,1.13H437a1.68,1.68,0,0,0-.37-1.14,1.24,1.24,0,0,0-1-.39A1.35,1.35,0,0,0,434.64,70.41Z" transform="translate(-7.36 -4.05)"/><path class="cls-8" d="M444.86,69.85a2,2,0,0,1,.45,1.45v3.07h-.79v-.83a1.43,1.43,0,0,1-.58.66,1.68,1.68,0,0,1-.9.24,2,2,0,0,1-.86-.19,1.72,1.72,0,0,1-.63-.53,1.35,1.35,0,0,1-.23-.75,1.25,1.25,0,0,1,.28-.86,1.76,1.76,0,0,1,.92-.44,9.18,9.18,0,0,1,1.78-.13h.22v-.33a1.28,1.28,0,0,0-.25-.89,1,1,0,0,0-.81-.27,3.11,3.11,0,0,0-1.67.52l-.27-.59a3.28,3.28,0,0,1,.92-.44,3.45,3.45,0,0,1,1-.16A1.84,1.84,0,0,1,444.86,69.85Zm-.72,3.54a1.48,1.48,0,0,0,.38-1v-.29h-.18a9.18,9.18,0,0,0-1.34.07,1.28,1.28,0,0,0-.65.25.67.67,0,0,0-.2.52.82.82,0,0,0,.29.64,1,1,0,0,0,.71.26A1.32,1.32,0,0,0,444.14,73.39Z" transform="translate(-7.36 -4.05)"/><path class="cls-8" d="M451.11,67.32v7.05h-.81v-.89a1.63,1.63,0,0,1-.64.71,2,2,0,0,1-1,.25,2.07,2.07,0,0,1-1.13-.32,2.24,2.24,0,0,1-.76-.9,3.1,3.1,0,0,1-.27-1.33,3.05,3.05,0,0,1,.27-1.32,2,2,0,0,1,1.89-1.19,1.9,1.9,0,0,1,1,.25,1.53,1.53,0,0,1,.64.71v-3Zm-1.19,6a2.66,2.66,0,0,0,0-2.74,1.5,1.5,0,0,0-2.2,0,2.09,2.09,0,0,0-.4,1.35,2.18,2.18,0,0,0,.4,1.38,1.47,1.47,0,0,0,2.2,0Z" transform="translate(-7.36 -4.05)"/><path class="cls-8" d="M453.42,74.32a1.83,1.83,0,0,1-.44,1.35,2,2,0,0,1-1.36.51l-.45,0-.06-.63.45,0a1,1,0,0,0,1.05-1.12V69.5h.81Zm-.89-6.93h1v.91h-1Z" transform="translate(-7.36 -4.05)"/><path class="cls-8" d="M459,69.5v4.87h-.79v-.83a1.59,1.59,0,0,1-.64.67,2,2,0,0,1-.94.23,1.7,1.7,0,0,1-1.31-.49,2.07,2.07,0,0,1-.44-1.43v-3h.81v3a1.46,1.46,0,0,0,.26,1,1,1,0,0,0,.82.31,1.33,1.33,0,0,0,1-.42,1.53,1.53,0,0,0,.39-1.09V69.5Z" transform="translate(-7.36 -4.05)"/><path class="cls-8" d="M460.24,73.81l.27-.6a2.76,2.76,0,0,0,.8.44,2.85,2.85,0,0,0,.91.14,1.57,1.57,0,0,0,.83-.19.59.59,0,0,0,.28-.53.56.56,0,0,0-.19-.46,1.24,1.24,0,0,0-.63-.27l-.82-.19a2,2,0,0,1-.95-.48,1.17,1.17,0,0,1-.33-.84,1.25,1.25,0,0,1,.51-1,2.14,2.14,0,0,1,1.36-.4,2.82,2.82,0,0,1,1,.16A1.94,1.94,0,0,1,464,70l-.27.59a2.19,2.19,0,0,0-1.47-.57,1.38,1.38,0,0,0-.79.19.63.63,0,0,0-.29.55.62.62,0,0,0,.18.46,1.09,1.09,0,0,0,.56.27l.83.2a2,2,0,0,1,1,.48,1.15,1.15,0,0,1,.33.85,1.22,1.22,0,0,1-.51,1,2.34,2.34,0,0,1-1.41.38A2.86,2.86,0,0,1,460.24,73.81Z" transform="translate(-7.36 -4.05)"/><path class="cls-8" d="M467.87,73.76l0,.64a3.75,3.75,0,0,1-.5,0,1.59,1.59,0,0,1-1.77-1.74V70.14h-.95V69.5h.95V68h.81V69.5h1.38v.64h-1.38v2.5c0,.76.36,1.15,1.06,1.15A3.15,3.15,0,0,0,467.87,73.76Z" transform="translate(-7.36 -4.05)"/><path class="cls-8" d="M472.77,72.06h-3.56a1.93,1.93,0,0,0,.46,1.28,1.58,1.58,0,0,0,1.19.44,2.43,2.43,0,0,0,1.56-.58l.27.59a2.24,2.24,0,0,1-.82.47,3,3,0,0,1-1,.18,2.41,2.41,0,0,1-1.79-.67,2.54,2.54,0,0,1-.66-1.85,3,3,0,0,1,.29-1.33,2.2,2.2,0,0,1,2-1.21,1.9,1.9,0,0,1,1.52.63,2.57,2.57,0,0,1,.55,1.75Zm-3.08-1.65a1.81,1.81,0,0,0-.46,1.13h2.83a1.68,1.68,0,0,0-.37-1.14,1.24,1.24,0,0,0-1-.39A1.35,1.35,0,0,0,469.69,70.41Z" transform="translate(-7.36 -4.05)"/><path class="cls-8" d="M478.28,67.32v7.05h-.81v-.89a1.63,1.63,0,0,1-.64.71,2,2,0,0,1-1,.25,2.07,2.07,0,0,1-1.13-.32,2.24,2.24,0,0,1-.76-.9,3.1,3.1,0,0,1-.27-1.33,3.05,3.05,0,0,1,.27-1.32,2,2,0,0,1,1.89-1.19,1.93,1.93,0,0,1,1,.25,1.53,1.53,0,0,1,.64.71v-3Zm-1.19,6a2.66,2.66,0,0,0,0-2.74,1.5,1.5,0,0,0-2.2,0,2.09,2.09,0,0,0-.4,1.35,2.18,2.18,0,0,0,.4,1.38,1.47,1.47,0,0,0,2.2,0Z" transform="translate(-7.36 -4.05)"/><path class="cls-8" d="M316.62,81.5H318v.64h-1.38v4.23h-.82V82.14h-.94V81.5h.94v-.16a2,2,0,0,1,.49-1.47,2.15,2.15,0,0,1,1.5-.56l.4,0,.06.63-.46,0a1.24,1.24,0,0,0-.89.34,1.34,1.34,0,0,0-.28.94Z" transform="translate(-7.36 -4.05)"/><path class="cls-8" d="M319.58,86.13a2.12,2.12,0,0,1-.81-.89,3.32,3.32,0,0,1,0-2.67,2,2,0,0,1,.81-.88,2.32,2.32,0,0,1,1.21-.31,2.37,2.37,0,0,1,1.23.31,2,2,0,0,1,.81.88,3.22,3.22,0,0,1,0,2.67,2.12,2.12,0,0,1-.81.89,2.47,2.47,0,0,1-1.23.31A2.42,2.42,0,0,1,319.58,86.13Zm2.32-.84a2.64,2.64,0,0,0,0-2.76,1.35,1.35,0,0,0-1.11-.48,1.32,1.32,0,0,0-1.09.48,2.67,2.67,0,0,0,0,2.76,1.51,1.51,0,0,0,2.21,0Z" transform="translate(-7.36 -4.05)"/><path class="cls-8" d="M327.09,82.08l-.53,0a1.5,1.5,0,0,0-1.09.47,1.49,1.49,0,0,0-.34,1v2.78h-.8V81.5h.79v.85a1.77,1.77,0,0,1,1.61-.95l.29,0Z" transform="translate(-7.36 -4.05)"/><path class="cls-8" d="M332.12,81.5V86a2.19,2.19,0,0,1-.57,1.64,2.25,2.25,0,0,1-1.66.56,3.43,3.43,0,0,1-2.14-.66L328,87a4.15,4.15,0,0,0,.92.46,3.11,3.11,0,0,0,.95.14A1.44,1.44,0,0,0,331,87.2a1.51,1.51,0,0,0,.35-1.09v-.86a1.49,1.49,0,0,1-.64.72,2.09,2.09,0,0,1-1,.25,2.15,2.15,0,0,1-1.13-.3,2,2,0,0,1-.77-.85,2.86,2.86,0,0,1-.28-1.27,2.83,2.83,0,0,1,.28-1.27,2,2,0,0,1,.77-.85,2.15,2.15,0,0,1,1.13-.3,2,2,0,0,1,1,.25,1.53,1.53,0,0,1,.64.71V81.5Zm-1.21,3.58a2.3,2.3,0,0,0,0-2.56,1.36,1.36,0,0,0-1.11-.46,1.39,1.39,0,0,0-1.11.46,2.25,2.25,0,0,0,0,2.56,1.55,1.55,0,0,0,2.22,0Z" transform="translate(-7.36 -4.05)"/><path class="cls-8" d="M337.7,84.06h-3.57a1.94,1.94,0,0,0,.47,1.28,1.57,1.57,0,0,0,1.19.44,2.47,2.47,0,0,0,1.56-.58l.27.59a2.37,2.37,0,0,1-.83.47,3,3,0,0,1-1,.18,2.44,2.44,0,0,1-1.8-.67,2.53,2.53,0,0,1-.65-1.85,2.83,2.83,0,0,1,.29-1.33,2.12,2.12,0,0,1,.81-.89,2.2,2.2,0,0,1,1.2-.32,1.93,1.93,0,0,1,1.52.63,2.62,2.62,0,0,1,.55,1.75Zm-3.09-1.65a1.75,1.75,0,0,0-.45,1.13H337a1.78,1.78,0,0,0-.37-1.14,1.27,1.27,0,0,0-1-.39A1.35,1.35,0,0,0,334.61,82.41Z" transform="translate(-7.36 -4.05)"/><path class="cls-8" d="M341.45,85.76l0,.64a3.9,3.9,0,0,1-.5,0,1.8,1.8,0,0,1-1.33-.46,1.77,1.77,0,0,1-.45-1.28V82.14h-.94V81.5h.94V80H340V81.5h1.38v.64H340v2.5c0,.76.35,1.15,1.06,1.15Z" transform="translate(-7.36 -4.05)"/><path class="cls-8" d="M344.87,85.76l0,.64a3.9,3.9,0,0,1-.5,0A1.8,1.8,0,0,1,343,86a1.77,1.77,0,0,1-.45-1.28V82.14h-.94V81.5h.94V80h.82V81.5h1.38v.64h-1.38v2.5c0,.76.35,1.15,1.06,1.15Z" transform="translate(-7.36 -4.05)"/><path class="cls-8" d="M345.61,79.39h1v.91h-1Zm.08,7V81.5h.8v4.87Z" transform="translate(-7.36 -4.05)"/><path class="cls-8" d="M352.21,83.31v3.06h-.82v-3a1.47,1.47,0,0,0-.26-1,1,1,0,0,0-.84-.31,1.42,1.42,0,0,0-1.08.41,1.54,1.54,0,0,0-.4,1.11v2.79H348V81.5h.79v.8a1.71,1.71,0,0,1,.67-.69,2,2,0,0,1,1-.23C351.62,81.38,352.21,82,352.21,83.31Z" transform="translate(-7.36 -4.05)"/><path class="cls-8" d="M358,81.5V86a2.19,2.19,0,0,1-.56,1.64,2.25,2.25,0,0,1-1.66.56,3.43,3.43,0,0,1-2.14-.66L354,87a4.15,4.15,0,0,0,.92.46,3.11,3.11,0,0,0,.95.14,1.4,1.4,0,0,0,1.06-.38,1.47,1.47,0,0,0,.36-1.09v-.86a1.49,1.49,0,0,1-.64.72,2.09,2.09,0,0,1-1,.25,2.15,2.15,0,0,1-1.13-.3,2,2,0,0,1-.77-.85,2.86,2.86,0,0,1-.28-1.27,2.83,2.83,0,0,1,.28-1.27,2,2,0,0,1,.77-.85,2.15,2.15,0,0,1,1.13-.3,2,2,0,0,1,1,.25,1.53,1.53,0,0,1,.64.71V81.5Zm-1.2,3.58a2.3,2.3,0,0,0,0-2.56,1.36,1.36,0,0,0-1.11-.46,1.39,1.39,0,0,0-1.11.46,2.2,2.2,0,0,0,0,2.56,1.55,1.55,0,0,0,2.22,0Z" transform="translate(-7.36 -4.05)"/><path class="cls-8" d="M362.94,86.13a2.05,2.05,0,0,1-.82-.88,2.91,2.91,0,0,1-.28-1.32,2.85,2.85,0,0,1,.29-1.34,2.16,2.16,0,0,1,.83-.89,2.35,2.35,0,0,1,1.25-.32,2.72,2.72,0,0,1,1,.17,2.13,2.13,0,0,1,.76.47l-.27.6a2.18,2.18,0,0,0-1.4-.56,1.45,1.45,0,0,0-1.17.49,2,2,0,0,0-.42,1.38,2,2,0,0,0,.42,1.36,1.47,1.47,0,0,0,1.17.48,2.24,2.24,0,0,0,1.4-.56l.27.6a2.48,2.48,0,0,1-.78.46,3,3,0,0,1-1,.17A2.49,2.49,0,0,1,362.94,86.13Z" transform="translate(-7.36 -4.05)"/><path class="cls-8" d="M371,81.5v4.87h-.79v-.83a1.59,1.59,0,0,1-.64.67,2,2,0,0,1-.94.23,1.7,1.7,0,0,1-1.31-.49,2.07,2.07,0,0,1-.44-1.43v-3h.82v3a1.46,1.46,0,0,0,.25,1,1.06,1.06,0,0,0,.83.31,1.33,1.33,0,0,0,1-.42,1.54,1.54,0,0,0,.4-1.09V81.5Z" transform="translate(-7.36 -4.05)"/><path class="cls-8" d="M375.29,82.08l-.53,0a1.5,1.5,0,0,0-1.09.47,1.49,1.49,0,0,0-.34,1v2.78h-.8V81.5h.78v.85a1.8,1.8,0,0,1,1.62-.95l.28,0Z" transform="translate(-7.36 -4.05)"/><path class="cls-8" d="M379.84,81.51h.8l-2.1,4.86h-.75l-2.09-4.86h.85l1.64,4Z" transform="translate(-7.36 -4.05)"/><path class="cls-8" d="M385.52,84.06H382a1.84,1.84,0,0,0,.46,1.28,1.57,1.57,0,0,0,1.19.44,2.47,2.47,0,0,0,1.56-.58l.27.59a2.42,2.42,0,0,1-.82.47,3,3,0,0,1-1,.18,2.44,2.44,0,0,1-1.8-.67,2.54,2.54,0,0,1-.66-1.85,2.83,2.83,0,0,1,.3-1.33,2.12,2.12,0,0,1,.81-.89,2.2,2.2,0,0,1,1.2-.32A1.89,1.89,0,0,1,385,82a2.57,2.57,0,0,1,.56,1.75Zm-3.09-1.65a1.81,1.81,0,0,0-.46,1.13h2.83a1.73,1.73,0,0,0-.36-1.14,1.26,1.26,0,0,0-1-.39A1.36,1.36,0,0,0,382.43,82.41Z" transform="translate(-7.36 -4.05)"/><path class="cls-8" d="M386.4,85.81l.27-.6a2.9,2.9,0,0,0,.8.44,2.85,2.85,0,0,0,.91.14,1.57,1.57,0,0,0,.83-.19.59.59,0,0,0,.28-.53.56.56,0,0,0-.19-.46,1.24,1.24,0,0,0-.63-.27l-.81-.19a2,2,0,0,1-1-.48,1.21,1.21,0,0,1-.33-.84,1.25,1.25,0,0,1,.51-1,2.15,2.15,0,0,1,1.37-.4,2.76,2.76,0,0,1,1,.16,2.06,2.06,0,0,1,.78.48l-.28.59a2.19,2.19,0,0,0-1.46-.57,1.41,1.41,0,0,0-.8.19.62.62,0,0,0-.28.55.61.61,0,0,0,.17.46,1.12,1.12,0,0,0,.57.27l.83.2a2.07,2.07,0,0,1,1,.48,1.19,1.19,0,0,1,.33.85,1.23,1.23,0,0,1-.52,1,2.33,2.33,0,0,1-1.4.38A2.89,2.89,0,0,1,386.4,85.81Z" transform="translate(-7.36 -4.05)"/><path class="cls-8" d="M397.45,81.85a2,2,0,0,1,.45,1.45v3.07h-.78v-.83a1.55,1.55,0,0,1-.58.66,1.72,1.72,0,0,1-.91.24,2,2,0,0,1-.86-.19,1.72,1.72,0,0,1-.63-.53,1.35,1.35,0,0,1-.23-.75,1.21,1.21,0,0,1,.29-.86,1.69,1.69,0,0,1,.92-.44,9,9,0,0,1,1.77-.13h.23v-.33a1.33,1.33,0,0,0-.25-.89,1.08,1.08,0,0,0-.82-.27,3.11,3.11,0,0,0-1.67.52l-.26-.59a3.08,3.08,0,0,1,.91-.44,3.49,3.49,0,0,1,1-.16A1.83,1.83,0,0,1,397.45,81.85Zm-.72,3.54a1.44,1.44,0,0,0,.39-1v-.29h-.19a9.18,9.18,0,0,0-1.34.07,1.28,1.28,0,0,0-.65.25.67.67,0,0,0-.2.52.82.82,0,0,0,.29.64,1,1,0,0,0,.71.26A1.32,1.32,0,0,0,396.73,85.39Z" transform="translate(-7.36 -4.05)"/><path class="cls-8" d="M400.46,81.5h1.38v.64h-1.38v4.23h-.81V82.14h-.94V81.5h.94v-.16a2,2,0,0,1,.49-1.47,2.15,2.15,0,0,1,1.49-.56l.41,0,0,.63-.46,0a1.28,1.28,0,0,0-.89.34,1.39,1.39,0,0,0-.28.94Z" transform="translate(-7.36 -4.05)"/><path class="cls-8" d="M405,85.76l0,.64a3.75,3.75,0,0,1-.5,0,1.79,1.79,0,0,1-1.32-.46,1.77,1.77,0,0,1-.45-1.28V82.14h-.94V81.5h.94V80h.82V81.5h1.37v.64h-1.37v2.5c0,.76.35,1.15,1.05,1.15A3.4,3.4,0,0,0,405,85.76Z" transform="translate(-7.36 -4.05)"/><path class="cls-8" d="M409.92,84.06h-3.56a1.93,1.93,0,0,0,.46,1.28,1.58,1.58,0,0,0,1.19.44,2.43,2.43,0,0,0,1.56-.58l.27.59a2.24,2.24,0,0,1-.82.47,3,3,0,0,1-1,.18,2.41,2.41,0,0,1-1.79-.67,2.54,2.54,0,0,1-.66-1.85,3,3,0,0,1,.29-1.33,2.2,2.2,0,0,1,2-1.21,1.93,1.93,0,0,1,1.53.63,2.62,2.62,0,0,1,.54,1.75Zm-3.08-1.65a1.81,1.81,0,0,0-.46,1.13h2.83a1.68,1.68,0,0,0-.37-1.14,1.23,1.23,0,0,0-1-.39A1.35,1.35,0,0,0,406.84,82.41Z" transform="translate(-7.36 -4.05)"/><path class="cls-8" d="M413.88,82.08l-.53,0a1.5,1.5,0,0,0-1.09.47,1.49,1.49,0,0,0-.34,1v2.78h-.8V81.5h.78v.85a1.78,1.78,0,0,1,1.62-.95l.28,0Z" transform="translate(-7.36 -4.05)"/><path class="cls-8" d="M421.3,84.06h-3.56a1.89,1.89,0,0,0,.47,1.28,1.55,1.55,0,0,0,1.18.44A2.48,2.48,0,0,0,421,85.2l.26.59a2.24,2.24,0,0,1-.82.47,3,3,0,0,1-1,.18,2.43,2.43,0,0,1-1.79-.67,2.54,2.54,0,0,1-.66-1.85,3,3,0,0,1,.29-1.33,2.2,2.2,0,0,1,2-1.21,1.9,1.9,0,0,1,1.52.63,2.57,2.57,0,0,1,.55,1.75Zm-3.08-1.65a1.81,1.81,0,0,0-.46,1.13h2.83a1.68,1.68,0,0,0-.37-1.14,1.24,1.24,0,0,0-1-.39A1.35,1.35,0,0,0,418.22,82.41Z" transform="translate(-7.36 -4.05)"/><path class="cls-8" d="M425.86,81.85a2,2,0,0,1,.45,1.45v3.07h-.78v-.83a1.49,1.49,0,0,1-.58.66,1.72,1.72,0,0,1-.91.24,2,2,0,0,1-.86-.19,1.72,1.72,0,0,1-.63-.53,1.35,1.35,0,0,1-.23-.75,1.21,1.21,0,0,1,.29-.86,1.69,1.69,0,0,1,.92-.44,9,9,0,0,1,1.77-.13h.23v-.33a1.33,1.33,0,0,0-.25-.89,1.08,1.08,0,0,0-.82-.27,3.11,3.11,0,0,0-1.67.52l-.26-.59a3.08,3.08,0,0,1,.91-.44,3.49,3.49,0,0,1,1-.16A1.83,1.83,0,0,1,425.86,81.85Zm-.72,3.54a1.44,1.44,0,0,0,.39-1v-.29h-.19a9.18,9.18,0,0,0-1.34.07,1.28,1.28,0,0,0-.65.25.67.67,0,0,0-.2.52.82.82,0,0,0,.29.64,1,1,0,0,0,.71.26A1.32,1.32,0,0,0,425.14,85.39Z" transform="translate(-7.36 -4.05)"/><path class="cls-8" d="M428.6,86.13a2.09,2.09,0,0,1-.81-.88,2.92,2.92,0,0,1-.29-1.32,2.85,2.85,0,0,1,.3-1.34,2.16,2.16,0,0,1,.83-.89,2.33,2.33,0,0,1,1.25-.32,2.63,2.63,0,0,1,1,.17,2,2,0,0,1,.76.47l-.27.6a2.14,2.14,0,0,0-1.4-.56,1.45,1.45,0,0,0-1.17.49,2,2,0,0,0-.42,1.38,2,2,0,0,0,.42,1.36,1.47,1.47,0,0,0,1.17.48,2.2,2.2,0,0,0,1.4-.56l.27.6a2.27,2.27,0,0,1-.78.46,2.87,2.87,0,0,1-1,.17A2.54,2.54,0,0,1,428.6,86.13Z" transform="translate(-7.36 -4.05)"/><path class="cls-8" d="M436.79,83.31v3.06H436v-3a1.47,1.47,0,0,0-.26-1,1,1,0,0,0-.84-.31,1.42,1.42,0,0,0-1.08.41,1.54,1.54,0,0,0-.4,1.11v2.79h-.81V79.32h.81v3a1.6,1.6,0,0,1,.67-.67,2,2,0,0,1,1-.23C436.2,81.38,436.79,82,436.79,83.31Z" transform="translate(-7.36 -4.05)"/><path class="cls-8" d="M443.6,82.08l-.53,0a1.38,1.38,0,0,0-1.42,1.46v2.78h-.81V81.5h.79v.85a1.78,1.78,0,0,1,1.61-.95l.3,0Z" transform="translate(-7.36 -4.05)"/><path class="cls-8" d="M448.35,84.06h-3.56a1.93,1.93,0,0,0,.46,1.28,1.58,1.58,0,0,0,1.19.44A2.43,2.43,0,0,0,448,85.2l.27.59a2.24,2.24,0,0,1-.82.47,3,3,0,0,1-1,.18,2.41,2.41,0,0,1-1.79-.67,2.54,2.54,0,0,1-.66-1.85,3,3,0,0,1,.29-1.33,2.2,2.2,0,0,1,2-1.21,1.9,1.9,0,0,1,1.52.63,2.57,2.57,0,0,1,.55,1.75Zm-3.08-1.65a1.81,1.81,0,0,0-.46,1.13h2.83a1.68,1.68,0,0,0-.37-1.14,1.24,1.24,0,0,0-1-.39A1.35,1.35,0,0,0,445.27,82.41Z" transform="translate(-7.36 -4.05)"/><path class="cls-8" d="M450.35,86.13a2.09,2.09,0,0,1-.81-.88,2.92,2.92,0,0,1-.29-1.32,2.85,2.85,0,0,1,.3-1.34,2.1,2.1,0,0,1,.83-.89,2.3,2.3,0,0,1,1.25-.32,2.63,2.63,0,0,1,1,.17,2,2,0,0,1,.76.47l-.27.6a2.16,2.16,0,0,0-1.4-.56,1.45,1.45,0,0,0-1.17.49,2,2,0,0,0-.42,1.38,2,2,0,0,0,.42,1.36,1.47,1.47,0,0,0,1.17.48,2.22,2.22,0,0,0,1.4-.56l.27.6a2.27,2.27,0,0,1-.78.46,2.87,2.87,0,0,1-1,.17A2.52,2.52,0,0,1,450.35,86.13Z" transform="translate(-7.36 -4.05)"/><path class="cls-8" d="M457.7,81.85a2,2,0,0,1,.45,1.45v3.07h-.79v-.83a1.43,1.43,0,0,1-.58.66,1.68,1.68,0,0,1-.9.24,2,2,0,0,1-.86-.19,1.72,1.72,0,0,1-.63-.53,1.35,1.35,0,0,1-.23-.75,1.25,1.25,0,0,1,.28-.86,1.76,1.76,0,0,1,.92-.44,9.18,9.18,0,0,1,1.78-.13h.22v-.33a1.28,1.28,0,0,0-.25-.89,1,1,0,0,0-.81-.27,3.11,3.11,0,0,0-1.67.52l-.27-.59a3.28,3.28,0,0,1,.92-.44,3.45,3.45,0,0,1,1-.16A1.84,1.84,0,0,1,457.7,81.85ZM457,85.39a1.48,1.48,0,0,0,.38-1v-.29h-.18a9.18,9.18,0,0,0-1.34.07,1.28,1.28,0,0,0-.65.25.67.67,0,0,0-.2.52.82.82,0,0,0,.29.64,1,1,0,0,0,.71.26A1.32,1.32,0,0,0,457,85.39Z" transform="translate(-7.36 -4.05)"/><path class="cls-8" d="M459.63,86.37V79.32h.81v7.05Z" transform="translate(-7.36 -4.05)"/><path class="cls-8" d="M462,86.37V79.32h.81v7.05Z" transform="translate(-7.36 -4.05)"/><path class="cls-8" d="M464,87l-.67-.22,2.55-8,.67.22Z" transform="translate(-7.36 -4.05)"/><path class="cls-8" d="M469.26,82.08l-.53,0a1.38,1.38,0,0,0-1.42,1.46v2.78h-.81V81.5h.79v.85a1.78,1.78,0,0,1,1.61-.95l.29,0Z" transform="translate(-7.36 -4.05)"/><path class="cls-8" d="M474,84.06h-3.56a1.93,1.93,0,0,0,.46,1.28,1.58,1.58,0,0,0,1.19.44,2.43,2.43,0,0,0,1.56-.58l.27.59a2.24,2.24,0,0,1-.82.47,3,3,0,0,1-1,.18,2.4,2.4,0,0,1-1.79-.67,2.54,2.54,0,0,1-.66-1.85,3,3,0,0,1,.29-1.33,2.2,2.2,0,0,1,2-1.21,1.9,1.9,0,0,1,1.52.63,2.57,2.57,0,0,1,.55,1.75Zm-3.08-1.65a1.81,1.81,0,0,0-.46,1.13h2.83a1.68,1.68,0,0,0-.37-1.14,1.24,1.24,0,0,0-1-.39A1.35,1.35,0,0,0,470.93,82.41Z" transform="translate(-7.36 -4.05)"/><path class="cls-8" d="M478.78,81.7a2.08,2.08,0,0,1,.76.89,3.11,3.11,0,0,1,.27,1.34,3.05,3.05,0,0,1-.27,1.32,2.09,2.09,0,0,1-.75.88,2.14,2.14,0,0,1-1.14.31,2,2,0,0,1-1-.25,1.72,1.72,0,0,1-.65-.71v2.69h-.81V81.5H476v.84a1.6,1.6,0,0,1,.65-.71,1.87,1.87,0,0,1,1-.25A2,2,0,0,1,478.78,81.7Zm-.19,3.59a2.12,2.12,0,0,0,.39-1.36,2.18,2.18,0,0,0-.39-1.38,1.48,1.48,0,0,0-2.19,0,2.6,2.6,0,0,0,0,2.74,1.48,1.48,0,0,0,2.19,0Z" transform="translate(-7.36 -4.05)"/><path class="cls-8" d="M485.1,84.06h-3.56a1.93,1.93,0,0,0,.46,1.28,1.58,1.58,0,0,0,1.19.44,2.43,2.43,0,0,0,1.56-.58l.27.59a2.24,2.24,0,0,1-.82.47,3,3,0,0,1-1,.18,2.4,2.4,0,0,1-1.79-.67,2.54,2.54,0,0,1-.66-1.85,3,3,0,0,1,.29-1.33,2.2,2.2,0,0,1,2-1.21,1.9,1.9,0,0,1,1.52.63,2.57,2.57,0,0,1,.55,1.75ZM482,82.41a1.81,1.81,0,0,0-.46,1.13h2.83A1.68,1.68,0,0,0,484,82.4a1.24,1.24,0,0,0-1-.39A1.35,1.35,0,0,0,482,82.41Z" transform="translate(-7.36 -4.05)"/><path class="cls-8" d="M488.85,85.76l0,.64a3.75,3.75,0,0,1-.5,0A1.79,1.79,0,0,1,487,86a1.77,1.77,0,0,1-.45-1.28V82.14h-1V81.5h1V80h.81V81.5h1.38v.64h-1.38v2.5c0,.76.36,1.15,1.06,1.15A3.15,3.15,0,0,0,488.85,85.76Z" transform="translate(-7.36 -4.05)"/><path class="cls-8" d="M489.59,79.39h1v.91h-1Zm.08,7V81.5h.81v4.87Z" transform="translate(-7.36 -4.05)"/><path class="cls-8" d="M494.57,85.76l0,.64a3.75,3.75,0,0,1-.5,0,1.59,1.59,0,0,1-1.77-1.74V82.14h-.95V81.5h.95V80h.81V81.5h1.38v.64h-1.38v2.5c0,.76.36,1.15,1.06,1.15A3.15,3.15,0,0,0,494.57,85.76Z" transform="translate(-7.36 -4.05)"/><path class="cls-8" d="M495.31,79.39h1v.91h-1Zm.08,7V81.5h.81v4.87Z" transform="translate(-7.36 -4.05)"/><path class="cls-8" d="M498.52,86.13a2.12,2.12,0,0,1-.81-.89,3.22,3.22,0,0,1,0-2.67,2,2,0,0,1,.81-.88,2.29,2.29,0,0,1,1.21-.31,2.33,2.33,0,0,1,1.22.31,2,2,0,0,1,.82.88,3.32,3.32,0,0,1,0,2.67,2.08,2.08,0,0,1-.82.89,2.43,2.43,0,0,1-1.22.31A2.39,2.39,0,0,1,498.52,86.13Zm2.32-.84a2.67,2.67,0,0,0,0-2.76,1.5,1.5,0,0,0-2.2,0,2.64,2.64,0,0,0,0,2.76,1.32,1.32,0,0,0,1.1.48A1.35,1.35,0,0,0,500.84,85.29Z" transform="translate(-7.36 -4.05)"/><path class="cls-8" d="M507.46,83.31v3.06h-.81v-3a1.53,1.53,0,0,0-.26-1,1.05,1.05,0,0,0-.85-.31,1.42,1.42,0,0,0-1.07.41,1.54,1.54,0,0,0-.4,1.11v2.79h-.81V81.5h.8v.8a1.71,1.71,0,0,1,.67-.69,2,2,0,0,1,1-.23C506.88,81.38,507.46,82,507.46,83.31Z" transform="translate(-7.36 -4.05)"/><path class="cls-8" d="M316.34,98.13a2.12,2.12,0,0,1-.81-.89,3.32,3.32,0,0,1,0-2.67,2,2,0,0,1,.81-.88,2.32,2.32,0,0,1,1.21-.31,2.37,2.37,0,0,1,1.23.31,2,2,0,0,1,.81.88,3.22,3.22,0,0,1,0,2.67,2.12,2.12,0,0,1-.81.89,2.47,2.47,0,0,1-1.23.31A2.42,2.42,0,0,1,316.34,98.13Zm2.32-.84a2.7,2.7,0,0,0,0-2.76,1.35,1.35,0,0,0-1.11-.48,1.31,1.31,0,0,0-1.09.48,2.67,2.67,0,0,0,0,2.76,1.51,1.51,0,0,0,2.21,0Z" transform="translate(-7.36 -4.05)"/><path class="cls-8" d="M322.16,93.5h1.38v.64h-1.38v4.23h-.81V94.14h-1V93.5h1v-.16a2,2,0,0,1,.48-1.47,2.15,2.15,0,0,1,1.5-.56l.4,0,.06.63-.46,0a1.24,1.24,0,0,0-.89.34,1.34,1.34,0,0,0-.28.94Z" transform="translate(-7.36 -4.05)"/><path class="cls-8" d="M329.52,97.76l0,.64a3.75,3.75,0,0,1-.5,0,1.79,1.79,0,0,1-1.32-.46,1.76,1.76,0,0,1-.44-1.28V94.14h-.95V93.5h.95V92H328V93.5h1.37v.64H328v2.5c0,.76.35,1.15,1.05,1.15A3.4,3.4,0,0,0,329.52,97.76Z" transform="translate(-7.36 -4.05)"/><path class="cls-8" d="M334.54,95.31v3.06h-.82v-3a1.47,1.47,0,0,0-.26-1,1,1,0,0,0-.84-.31,1.42,1.42,0,0,0-1.08.41,1.54,1.54,0,0,0-.4,1.11v2.79h-.8V91.32h.8v3a1.6,1.6,0,0,1,.67-.67,2,2,0,0,1,1-.23C334,93.38,334.54,94,334.54,95.31Z" transform="translate(-7.36 -4.05)"/><path class="cls-8" d="M340.1,96.06h-3.56a1.84,1.84,0,0,0,.46,1.28,1.57,1.57,0,0,0,1.19.44,2.47,2.47,0,0,0,1.56-.58l.27.59a2.42,2.42,0,0,1-.82.47,3,3,0,0,1-1,.18,2.44,2.44,0,0,1-1.8-.67,2.54,2.54,0,0,1-.66-1.85,2.83,2.83,0,0,1,.3-1.33,2.12,2.12,0,0,1,.81-.89,2.2,2.2,0,0,1,1.2-.32,1.89,1.89,0,0,1,1.51.63,2.57,2.57,0,0,1,.56,1.75ZM337,94.41a1.81,1.81,0,0,0-.46,1.13h2.83A1.73,1.73,0,0,0,339,94.4a1.26,1.26,0,0,0-1-.39A1.36,1.36,0,0,0,337,94.41Z" transform="translate(-7.36 -4.05)"/><path class="cls-8" d="M350.9,95.31v3.06h-.8v-3a1.58,1.58,0,0,0-.24-1,.88.88,0,0,0-.75-.31,1.2,1.2,0,0,0-1,.41,1.67,1.67,0,0,0-.35,1.12v2.78H347v-3a1.6,1.6,0,0,0-.24-1,.91.91,0,0,0-.76-.3,1.16,1.16,0,0,0-1,.41,1.62,1.62,0,0,0-.36,1.12v2.78h-.8V93.5h.79v.77a1.59,1.59,0,0,1,.62-.66,1.64,1.64,0,0,1,.89-.23,1.43,1.43,0,0,1,1.49,1,1.63,1.63,0,0,1,.64-.71,1.92,1.92,0,0,1,1-.25C350.37,93.38,350.9,94,350.9,95.31Z" transform="translate(-7.36 -4.05)"/><path class="cls-8" d="M355.75,93.85a2,2,0,0,1,.46,1.45v3.07h-.79v-.83a1.49,1.49,0,0,1-.58.66,1.68,1.68,0,0,1-.9.24,2.06,2.06,0,0,1-.87-.19,1.61,1.61,0,0,1-.62-.53,1.29,1.29,0,0,1-.24-.75,1.21,1.21,0,0,1,.29-.86,1.69,1.69,0,0,1,.92-.44,9.11,9.11,0,0,1,1.78-.13h.22v-.33a1.33,1.33,0,0,0-.25-.89,1.07,1.07,0,0,0-.81-.27,3.06,3.06,0,0,0-1.67.52l-.27-.59a3.08,3.08,0,0,1,.91-.44,3.51,3.51,0,0,1,1-.16A1.82,1.82,0,0,1,355.75,93.85ZM355,97.39a1.44,1.44,0,0,0,.39-1v-.29h-.19a9.18,9.18,0,0,0-1.34.07,1.28,1.28,0,0,0-.65.25.67.67,0,0,0-.2.52.82.82,0,0,0,.29.64,1,1,0,0,0,.71.26A1.3,1.3,0,0,0,355,97.39Z" transform="translate(-7.36 -4.05)"/><path class="cls-8" d="M360.27,97.76l0,.64a3.75,3.75,0,0,1-.5,0A1.79,1.79,0,0,1,358.4,98,1.76,1.76,0,0,1,358,96.7V94.14H357V93.5H358V92h.81V93.5h1.37v.64h-1.37v2.5c0,.76.35,1.15,1.05,1.15A3.4,3.4,0,0,0,360.27,97.76Z" transform="translate(-7.36 -4.05)"/><path class="cls-8" d="M365.17,96.06h-3.56a1.88,1.88,0,0,0,.46,1.28,1.57,1.57,0,0,0,1.19.44,2.47,2.47,0,0,0,1.56-.58l.27.59a2.42,2.42,0,0,1-.82.47,3,3,0,0,1-1,.18,2.44,2.44,0,0,1-1.8-.67,2.54,2.54,0,0,1-.66-1.85,2.83,2.83,0,0,1,.3-1.33,2.12,2.12,0,0,1,.81-.89,2.2,2.2,0,0,1,1.2-.32,1.93,1.93,0,0,1,1.52.63,2.62,2.62,0,0,1,.55,1.75Zm-3.09-1.65a1.75,1.75,0,0,0-.45,1.13h2.83a1.78,1.78,0,0,0-.37-1.14,1.26,1.26,0,0,0-1-.39A1.36,1.36,0,0,0,362.08,94.41Z" transform="translate(-7.36 -4.05)"/><path class="cls-8" d="M369.12,94.08l-.53,0a1.5,1.5,0,0,0-1.09.47,1.49,1.49,0,0,0-.34,1v2.78h-.8V93.5h.78v.85a1.8,1.8,0,0,1,1.62-.95l.28,0Z" transform="translate(-7.36 -4.05)"/><path class="cls-8" d="M369.8,91.39h1v.91h-1Zm.08,7V93.5h.82v4.87Z" transform="translate(-7.36 -4.05)"/><path class="cls-8" d="M375.57,93.85A2,2,0,0,1,376,95.3v3.07h-.8v-.83a1.43,1.43,0,0,1-.58.66,1.68,1.68,0,0,1-.9.24,2,2,0,0,1-.86-.19,1.72,1.72,0,0,1-.63-.53A1.34,1.34,0,0,1,372,97a1.25,1.25,0,0,1,.27-.86,1.76,1.76,0,0,1,.92-.44,9.18,9.18,0,0,1,1.78-.13h.22v-.33a1.28,1.28,0,0,0-.25-.89,1,1,0,0,0-.81-.27,3.13,3.13,0,0,0-1.67.52l-.27-.59a3.28,3.28,0,0,1,.92-.44,3.51,3.51,0,0,1,1-.16A1.82,1.82,0,0,1,375.57,93.85Zm-.72,3.54a1.44,1.44,0,0,0,.38-1v-.29h-.18a9.18,9.18,0,0,0-1.34.07,1.28,1.28,0,0,0-.65.25.67.67,0,0,0-.19.52.81.81,0,0,0,.28.64,1,1,0,0,0,.72.26A1.31,1.31,0,0,0,374.85,97.39Z" transform="translate(-7.36 -4.05)"/><path class="cls-8" d="M377.5,98.37V91.32h.81v7.05Z" transform="translate(-7.36 -4.05)"/><path class="cls-8" d="M379.71,97.35h1v1h-1Z" transform="translate(-7.36 -4.05)"/><path class="cls-2" d="M286.55,170.78v-7.05h.82v7.05Z" transform="translate(-7.36 -4.05)"/><path class="cls-2" d="M291.57,170.17l0,.64a3.75,3.75,0,0,1-.5,0,1.58,1.58,0,0,1-1.77-1.74v-2.56h-.95v-.64h.95v-1.48h.81v1.48h1.38v.64h-1.38v2.5c0,.76.35,1.15,1.06,1.15A3.25,3.25,0,0,0,291.57,170.17Z" transform="translate(-7.36 -4.05)"/><path class="cls-2" d="M298.55,166.1a2,2,0,0,1,.76.88,3.05,3.05,0,0,1,.27,1.32,3.1,3.1,0,0,1-.27,1.33,2.16,2.16,0,0,1-.76.9,2.14,2.14,0,0,1-2.13.07,1.69,1.69,0,0,1-.64-.71v.89H295v-7.05h.81v3a1.58,1.58,0,0,1,.64-.71,1.93,1.93,0,0,1,1-.25A2,2,0,0,1,298.55,166.1Zm-.19,3.58a2.18,2.18,0,0,0,.39-1.38,2.09,2.09,0,0,0-.39-1.35,1.5,1.5,0,0,0-2.2,0,2.66,2.66,0,0,0,0,2.74,1.35,1.35,0,0,0,1.1.49A1.33,1.33,0,0,0,298.36,169.68Z" transform="translate(-7.36 -4.05)"/><path class="cls-2" d="M304.87,168.47h-3.56a1.93,1.93,0,0,0,.46,1.28,1.58,1.58,0,0,0,1.19.44,2.45,2.45,0,0,0,1.56-.58l.27.59a2.42,2.42,0,0,1-.82.47,3,3,0,0,1-1,.18,2.44,2.44,0,0,1-1.8-.67,2.58,2.58,0,0,1-.65-1.85,3,3,0,0,1,.29-1.33,2.12,2.12,0,0,1,.81-.89,2.2,2.2,0,0,1,1.2-.32,1.91,1.91,0,0,1,1.52.63,2.57,2.57,0,0,1,.55,1.75Zm-3.09-1.65a1.86,1.86,0,0,0-.45,1.13h2.83a1.78,1.78,0,0,0-.37-1.14,1.26,1.26,0,0,0-1-.39A1.36,1.36,0,0,0,301.78,166.82Z" transform="translate(-7.36 -4.05)"/><path class="cls-2" d="M306.87,170.54a2.11,2.11,0,0,1-.82-.88,2.91,2.91,0,0,1-.28-1.32,3,3,0,0,1,.29-1.34,2.23,2.23,0,0,1,.83-.89,2.36,2.36,0,0,1,1.26-.32,2.66,2.66,0,0,1,1,.17,2,2,0,0,1,.76.47l-.27.6a2.18,2.18,0,0,0-1.4-.56A1.45,1.45,0,0,0,307,167a2,2,0,0,0-.42,1.38,2,2,0,0,0,.42,1.36,1.47,1.47,0,0,0,1.17.48,2.24,2.24,0,0,0,1.4-.56l.27.6a2.48,2.48,0,0,1-.78.46,2.91,2.91,0,0,1-1,.17A2.49,2.49,0,0,1,306.87,170.54Z" transform="translate(-7.36 -4.05)"/><path class="cls-2" d="M311.65,170.54a2.12,2.12,0,0,1-.81-.89,3.32,3.32,0,0,1,0-2.67,2,2,0,0,1,.81-.88,2.56,2.56,0,0,1,2.44,0,2,2,0,0,1,.81.88,3.22,3.22,0,0,1,0,2.67,2.12,2.12,0,0,1-.81.89,2.56,2.56,0,0,1-2.44,0Zm2.32-.84a2.64,2.64,0,0,0,0-2.76,1.5,1.5,0,0,0-2.2,0,2.14,2.14,0,0,0-.39,1.38,2.2,2.2,0,0,0,.38,1.38,1.35,1.35,0,0,0,1.11.48A1.32,1.32,0,0,0,314,169.7Z" transform="translate(-7.36 -4.05)"/><path class="cls-2" d="M323.44,167.72v3.06h-.81v-3a1.58,1.58,0,0,0-.24-1,.86.86,0,0,0-.75-.31,1.17,1.17,0,0,0-1,.41,1.67,1.67,0,0,0-.35,1.12v2.78h-.81v-3a1.6,1.6,0,0,0-.24-1,.91.91,0,0,0-.76-.3,1.17,1.17,0,0,0-1,.41,1.67,1.67,0,0,0-.35,1.12v2.78h-.81v-4.87h.8v.77a1.56,1.56,0,0,1,.61-.66,1.68,1.68,0,0,1,.9-.23,1.44,1.44,0,0,1,1.49,1,1.57,1.57,0,0,1,.64-.71,1.88,1.88,0,0,1,1-.25C322.9,165.79,323.44,166.43,323.44,167.72Z" transform="translate(-7.36 -4.05)"/><path class="cls-2" d="M329,168.47h-3.56a1.88,1.88,0,0,0,.46,1.28,1.57,1.57,0,0,0,1.19.44,2.45,2.45,0,0,0,1.56-.58l.27.59a2.33,2.33,0,0,1-.82.47,3,3,0,0,1-1,.18,2.44,2.44,0,0,1-1.8-.67,2.58,2.58,0,0,1-.65-1.85,2.83,2.83,0,0,1,.29-1.33,2.12,2.12,0,0,1,.81-.89,2.2,2.2,0,0,1,1.2-.32,1.93,1.93,0,0,1,1.52.63,2.62,2.62,0,0,1,.55,1.75Zm-3.09-1.65a1.86,1.86,0,0,0-.45,1.13h2.83a1.73,1.73,0,0,0-.37-1.14,1.24,1.24,0,0,0-1-.39A1.36,1.36,0,0,0,325.91,166.82Z" transform="translate(-7.36 -4.05)"/><path class="cls-2" d="M329.89,170.22l.27-.6a2.71,2.71,0,0,0,.79.44,2.91,2.91,0,0,0,.92.14,1.53,1.53,0,0,0,.82-.19.6.6,0,0,0,.29-.53.56.56,0,0,0-.19-.46,1.32,1.32,0,0,0-.63-.27l-.82-.19a2,2,0,0,1-.95-.48,1.17,1.17,0,0,1-.33-.84,1.25,1.25,0,0,1,.51-1.05,2.12,2.12,0,0,1,1.36-.4,2.86,2.86,0,0,1,1,.16,2,2,0,0,1,.77.48l-.27.59a2.23,2.23,0,0,0-1.47-.57,1.41,1.41,0,0,0-.8.19.62.62,0,0,0-.28.55.65.65,0,0,0,.17.46,1.17,1.17,0,0,0,.57.27l.83.2a2,2,0,0,1,1,.48,1.15,1.15,0,0,1,.33.85,1.21,1.21,0,0,1-.52,1,2.33,2.33,0,0,1-1.4.38A2.86,2.86,0,0,1,329.89,170.22Z" transform="translate(-7.36 -4.05)"/><path class="cls-2" d="M338.38,170.54a2.11,2.11,0,0,1-.82-.88,2.91,2.91,0,0,1-.28-1.32,3,3,0,0,1,.29-1.34,2.23,2.23,0,0,1,.83-.89,2.36,2.36,0,0,1,1.26-.32,2.66,2.66,0,0,1,1,.17,2,2,0,0,1,.76.47l-.27.6a2.18,2.18,0,0,0-1.4-.56,1.45,1.45,0,0,0-1.17.49,2,2,0,0,0-.42,1.38,2,2,0,0,0,.42,1.36,1.47,1.47,0,0,0,1.17.48,2.24,2.24,0,0,0,1.4-.56l.27.6a2.48,2.48,0,0,1-.78.46,2.91,2.91,0,0,1-1,.17A2.49,2.49,0,0,1,338.38,170.54Z" transform="translate(-7.36 -4.05)"/><path class="cls-2" d="M342.36,170.78v-7.05h.81v7.05Z" transform="translate(-7.36 -4.05)"/><path class="cls-2" d="M348.76,168.47H345.2a1.88,1.88,0,0,0,.46,1.28,1.57,1.57,0,0,0,1.19.44,2.45,2.45,0,0,0,1.56-.58l.27.59a2.42,2.42,0,0,1-.82.47,3,3,0,0,1-1,.18,2.44,2.44,0,0,1-1.8-.67,2.58,2.58,0,0,1-.65-1.85,2.83,2.83,0,0,1,.29-1.33,2.12,2.12,0,0,1,.81-.89,2.2,2.2,0,0,1,1.2-.32,1.93,1.93,0,0,1,1.52.63,2.62,2.62,0,0,1,.55,1.75Zm-3.09-1.65a1.86,1.86,0,0,0-.45,1.13h2.83a1.73,1.73,0,0,0-.37-1.14,1.24,1.24,0,0,0-1-.39A1.36,1.36,0,0,0,345.67,166.82Z" transform="translate(-7.36 -4.05)"/><path class="cls-2" d="M353.31,166.26a2,2,0,0,1,.46,1.45v3.07H353V170a1.49,1.49,0,0,1-.58.66,1.68,1.68,0,0,1-.9.24,2.09,2.09,0,0,1-.87-.19,1.61,1.61,0,0,1-.62-.53,1.28,1.28,0,0,1-.23-.75,1.2,1.2,0,0,1,.28-.86,1.69,1.69,0,0,1,.92-.44,9.11,9.11,0,0,1,1.78-.13H353v-.33a1.33,1.33,0,0,0-.25-.89,1.07,1.07,0,0,0-.81-.27,3.08,3.08,0,0,0-1.67.52l-.27-.59a3.21,3.21,0,0,1,.91-.44,3.51,3.51,0,0,1,1-.16A1.8,1.8,0,0,1,353.31,166.26Zm-.72,3.54a1.44,1.44,0,0,0,.39-1v-.29h-.18a9,9,0,0,0-1.34.07,1.28,1.28,0,0,0-.66.25.67.67,0,0,0-.19.52.81.81,0,0,0,.28.64,1,1,0,0,0,.72.26A1.28,1.28,0,0,0,352.59,169.8Z" transform="translate(-7.36 -4.05)"/><path class="cls-2" d="M358,166.49l-.53,0a1.52,1.52,0,0,0-1.09.47,1.48,1.48,0,0,0-.33,1v2.78h-.81v-4.87H356v.85a1.77,1.77,0,0,1,1.61-.95l.29,0Z" transform="translate(-7.36 -4.05)"/><path class="cls-2" d="M363.94,170.17l0,.64a3.9,3.9,0,0,1-.5,0,1.58,1.58,0,0,1-1.77-1.74v-2.56h-.95v-.64h.95v-1.48h.81v1.48h1.38v.64h-1.38v2.5c0,.76.35,1.15,1.06,1.15Z" transform="translate(-7.36 -4.05)"/><path class="cls-2" d="M369,167.72v3.06h-.81v-3a1.47,1.47,0,0,0-.27-1,1,1,0,0,0-.84-.31,1.39,1.39,0,0,0-1.07.41,1.5,1.5,0,0,0-.4,1.11v2.79h-.81v-7.05h.81v3a1.58,1.58,0,0,1,.66-.67,2,2,0,0,1,1-.23C368.38,165.79,369,166.43,369,167.72Z" transform="translate(-7.36 -4.05)"/><path class="cls-2" d="M373.8,166.26a2,2,0,0,1,.46,1.45v3.07h-.79V170a1.49,1.49,0,0,1-.58.66,1.68,1.68,0,0,1-.9.24,2.09,2.09,0,0,1-.87-.19,1.61,1.61,0,0,1-.62-.53,1.28,1.28,0,0,1-.23-.75,1.2,1.2,0,0,1,.28-.86,1.69,1.69,0,0,1,.92-.44,9.11,9.11,0,0,1,1.78-.13h.22v-.33a1.33,1.33,0,0,0-.25-.89,1.07,1.07,0,0,0-.81-.27,3.08,3.08,0,0,0-1.67.52l-.27-.59a3.21,3.21,0,0,1,.91-.44,3.51,3.51,0,0,1,1-.16A1.8,1.8,0,0,1,373.8,166.26Zm-.72,3.54a1.44,1.44,0,0,0,.39-1v-.29h-.18a9,9,0,0,0-1.34.07,1.28,1.28,0,0,0-.66.25.67.67,0,0,0-.19.52.81.81,0,0,0,.28.64,1,1,0,0,0,.72.26A1.28,1.28,0,0,0,373.08,169.8Z" transform="translate(-7.36 -4.05)"/><path class="cls-2" d="M378.32,170.17l0,.64a3.75,3.75,0,0,1-.5,0,1.58,1.58,0,0,1-1.77-1.74v-2.56h-.95v-.64H376v-1.48h.81v1.48h1.38v.64h-1.38v2.5c0,.76.35,1.15,1.06,1.15Z" transform="translate(-7.36 -4.05)"/><path class="cls-2" d="M388.33,165.91h.81l-1.81,4.87h-.78L385.18,167l-1.38,3.77H383l-1.81-4.87h.84l1.38,3.91,1.41-3.91h.7l1.39,3.91Z" transform="translate(-7.36 -4.05)"/><path class="cls-2" d="M390.06,163.8h1v.91h-1Zm.08,7v-4.87H391v4.87Z" transform="translate(-7.36 -4.05)"/><path class="cls-2" d="M395,170.17l0,.64a3.9,3.9,0,0,1-.5,0,1.58,1.58,0,0,1-1.77-1.74v-2.56h-1v-.64h1v-1.48h.81v1.48h1.38v.64h-1.38v2.5c0,.76.35,1.15,1.06,1.15Z" transform="translate(-7.36 -4.05)"/><path class="cls-2" d="M400.06,167.72v3.06h-.81v-3a1.47,1.47,0,0,0-.27-1,1,1,0,0,0-.84-.31,1.39,1.39,0,0,0-1.07.41,1.5,1.5,0,0,0-.4,1.11v2.79h-.81v-7.05h.81v3a1.58,1.58,0,0,1,.66-.67,2,2,0,0,1,1-.23C399.47,165.79,400.06,166.43,400.06,167.72Z" transform="translate(-7.36 -4.05)"/><path class="cls-2" d="M408.2,168.47h-3.56a1.88,1.88,0,0,0,.46,1.28,1.57,1.57,0,0,0,1.19.44,2.45,2.45,0,0,0,1.56-.58l.27.59a2.42,2.42,0,0,1-.82.47,3,3,0,0,1-1,.18,2.44,2.44,0,0,1-1.8-.67,2.58,2.58,0,0,1-.65-1.85,2.83,2.83,0,0,1,.29-1.33,2.12,2.12,0,0,1,.81-.89,2.2,2.2,0,0,1,1.2-.32,1.93,1.93,0,0,1,1.52.63,2.62,2.62,0,0,1,.55,1.75Zm-3.09-1.65a1.86,1.86,0,0,0-.45,1.13h2.83a1.78,1.78,0,0,0-.37-1.14,1.26,1.26,0,0,0-1-.39A1.36,1.36,0,0,0,405.11,166.82Z" transform="translate(-7.36 -4.05)"/><path class="cls-2" d="M412.75,166.26a2,2,0,0,1,.46,1.45v3.07h-.79V170a1.49,1.49,0,0,1-.58.66,1.68,1.68,0,0,1-.9.24,2.09,2.09,0,0,1-.87-.19,1.61,1.61,0,0,1-.62-.53,1.28,1.28,0,0,1-.23-.75,1.2,1.2,0,0,1,.28-.86,1.69,1.69,0,0,1,.92-.44,9.11,9.11,0,0,1,1.78-.13h.22v-.33a1.33,1.33,0,0,0-.25-.89,1.07,1.07,0,0,0-.81-.27,3.08,3.08,0,0,0-1.67.52l-.27-.59a3.08,3.08,0,0,1,.91-.44,3.51,3.51,0,0,1,1-.16A1.8,1.8,0,0,1,412.75,166.26ZM412,169.8a1.44,1.44,0,0,0,.39-1v-.29h-.18a9,9,0,0,0-1.34.07,1.28,1.28,0,0,0-.66.25.67.67,0,0,0-.19.52.81.81,0,0,0,.28.64,1,1,0,0,0,.72.26A1.28,1.28,0,0,0,412,169.8Z" transform="translate(-7.36 -4.05)"/><path class="cls-2" d="M415.5,170.54a2.05,2.05,0,0,1-.82-.88,2.91,2.91,0,0,1-.28-1.32,3,3,0,0,1,.29-1.34,2.23,2.23,0,0,1,.83-.89,2.36,2.36,0,0,1,1.26-.32,2.66,2.66,0,0,1,1,.17,2.13,2.13,0,0,1,.76.47l-.27.6a2.18,2.18,0,0,0-1.4-.56,1.45,1.45,0,0,0-1.17.49,2,2,0,0,0-.42,1.38,2,2,0,0,0,.42,1.36,1.47,1.47,0,0,0,1.17.48,2.24,2.24,0,0,0,1.4-.56l.27.6a2.48,2.48,0,0,1-.78.46,3,3,0,0,1-1,.17A2.49,2.49,0,0,1,415.5,170.54Z" transform="translate(-7.36 -4.05)"/><path class="cls-2" d="M423.68,167.72v3.06h-.81v-3a1.47,1.47,0,0,0-.27-1,1,1,0,0,0-.84-.31,1.39,1.39,0,0,0-1.07.41,1.5,1.5,0,0,0-.4,1.11v2.79h-.81v-7.05h.81v3A1.58,1.58,0,0,1,421,166a2,2,0,0,1,1-.23C423.09,165.79,423.68,166.43,423.68,167.72Z" transform="translate(-7.36 -4.05)"/><path class="cls-2" d="M430.5,166.49l-.53,0a1.52,1.52,0,0,0-1.09.47,1.48,1.48,0,0,0-.33,1v2.78h-.81v-4.87h.79v.85a1.77,1.77,0,0,1,1.61-.95l.29,0Z" transform="translate(-7.36 -4.05)"/><path class="cls-2" d="M435.25,168.47h-3.56a1.88,1.88,0,0,0,.46,1.28,1.57,1.57,0,0,0,1.19.44,2.47,2.47,0,0,0,1.56-.58l.27.59a2.42,2.42,0,0,1-.82.47,3,3,0,0,1-1,.18,2.44,2.44,0,0,1-1.8-.67,2.58,2.58,0,0,1-.65-1.85,2.83,2.83,0,0,1,.29-1.33,2.12,2.12,0,0,1,.81-.89,2.2,2.2,0,0,1,1.2-.32,1.93,1.93,0,0,1,1.52.63,2.62,2.62,0,0,1,.55,1.75Zm-3.09-1.65a1.8,1.8,0,0,0-.45,1.13h2.83a1.78,1.78,0,0,0-.37-1.14,1.26,1.26,0,0,0-1-.39A1.36,1.36,0,0,0,432.16,166.82Z" transform="translate(-7.36 -4.05)"/><path class="cls-2" d="M437.25,170.54a2.05,2.05,0,0,1-.82-.88,2.91,2.91,0,0,1-.28-1.32,3,3,0,0,1,.29-1.34,2.23,2.23,0,0,1,.83-.89,2.36,2.36,0,0,1,1.26-.32,2.7,2.7,0,0,1,1,.17,2.13,2.13,0,0,1,.76.47l-.27.6a2.18,2.18,0,0,0-1.4-.56,1.45,1.45,0,0,0-1.17.49,2,2,0,0,0-.42,1.38,2,2,0,0,0,.42,1.36,1.47,1.47,0,0,0,1.17.48,2.24,2.24,0,0,0,1.4-.56l.27.6a2.48,2.48,0,0,1-.78.46,3,3,0,0,1-1,.17A2.49,2.49,0,0,1,437.25,170.54Z" transform="translate(-7.36 -4.05)"/><path class="cls-2" d="M444.59,166.26a2,2,0,0,1,.46,1.45v3.07h-.79V170a1.49,1.49,0,0,1-.58.66,1.68,1.68,0,0,1-.9.24,2.09,2.09,0,0,1-.87-.19,1.61,1.61,0,0,1-.62-.53,1.28,1.28,0,0,1-.23-.75,1.2,1.2,0,0,1,.28-.86,1.69,1.69,0,0,1,.92-.44A9.11,9.11,0,0,1,444,168h.22v-.33a1.33,1.33,0,0,0-.25-.89,1.07,1.07,0,0,0-.81-.27,3.08,3.08,0,0,0-1.67.52l-.27-.59a3.08,3.08,0,0,1,.91-.44,3.51,3.51,0,0,1,1-.16A1.8,1.8,0,0,1,444.59,166.26Zm-.72,3.54a1.44,1.44,0,0,0,.39-1v-.29h-.18a9,9,0,0,0-1.34.07,1.28,1.28,0,0,0-.66.25.67.67,0,0,0-.19.52.81.81,0,0,0,.28.64,1,1,0,0,0,.72.26A1.28,1.28,0,0,0,443.87,169.8Z" transform="translate(-7.36 -4.05)"/><path class="cls-2" d="M446.53,170.78v-7.05h.81v7.05Z" transform="translate(-7.36 -4.05)"/><path class="cls-2" d="M448.85,170.78v-7.05h.81v7.05Z" transform="translate(-7.36 -4.05)"/><path class="cls-2" d="M452.07,169.76v.72a2.06,2.06,0,0,1-.14.76,2,2,0,0,1-.46.68l-.38-.29a1.63,1.63,0,0,0,.44-.85h-.48v-1Z" transform="translate(-7.36 -4.05)"/><path class="cls-2" d="M458.62,170.17l0,.64a3.9,3.9,0,0,1-.5,0,1.58,1.58,0,0,1-1.77-1.74v-2.56h-.95v-.64h.95v-1.48h.81v1.48h1.38v.64h-1.38v2.5c0,.76.35,1.15,1.06,1.15Z" transform="translate(-7.36 -4.05)"/><path class="cls-2" d="M463.64,167.72v3.06h-.81v-3a1.47,1.47,0,0,0-.27-1,1,1,0,0,0-.84-.31,1.39,1.39,0,0,0-1.07.41,1.5,1.5,0,0,0-.4,1.11v2.79h-.81v-7.05h.81v3a1.58,1.58,0,0,1,.66-.67,2,2,0,0,1,1-.23C463.05,165.79,463.64,166.43,463.64,167.72Z" transform="translate(-7.36 -4.05)"/><path class="cls-2" d="M469.2,168.47h-3.56a1.88,1.88,0,0,0,.46,1.28,1.57,1.57,0,0,0,1.19.44,2.47,2.47,0,0,0,1.56-.58l.27.59a2.42,2.42,0,0,1-.82.47,3,3,0,0,1-1,.18,2.44,2.44,0,0,1-1.8-.67,2.53,2.53,0,0,1-.65-1.85,2.83,2.83,0,0,1,.29-1.33,2.12,2.12,0,0,1,.81-.89,2.2,2.2,0,0,1,1.2-.32,1.93,1.93,0,0,1,1.52.63,2.62,2.62,0,0,1,.55,1.75Zm-3.09-1.65a1.8,1.8,0,0,0-.45,1.13h2.83a1.78,1.78,0,0,0-.37-1.14,1.26,1.26,0,0,0-1-.39A1.36,1.36,0,0,0,466.11,166.82Z" transform="translate(-7.36 -4.05)"/><path class="cls-2" d="M287.51,177.91h1.38v.64h-1.38v4.23h-.81v-4.23h-.95v-.64h.95v-.16a2,2,0,0,1,.48-1.47,2.19,2.19,0,0,1,1.5-.56l.4,0,.06.63-.46,0a1.26,1.26,0,0,0-.89.34,1.34,1.34,0,0,0-.28.94Z" transform="translate(-7.36 -4.05)"/><path class="cls-2" d="M290.47,182.54a2.18,2.18,0,0,1-.81-.89,3.32,3.32,0,0,1,0-2.67,2.1,2.1,0,0,1,.81-.88,2.56,2.56,0,0,1,2.44,0,2,2,0,0,1,.81.88,3.22,3.22,0,0,1,0,2.67,2.06,2.06,0,0,1-.81.89,2.56,2.56,0,0,1-2.44,0Zm2.32-.84a2.64,2.64,0,0,0,0-2.76,1.5,1.5,0,0,0-2.2,0,2.14,2.14,0,0,0-.39,1.38,2.2,2.2,0,0,0,.38,1.38,1.35,1.35,0,0,0,1.11.48A1.32,1.32,0,0,0,292.79,181.7Z" transform="translate(-7.36 -4.05)"/><path class="cls-2" d="M298,178.49l-.53,0a1.52,1.52,0,0,0-1.09.47,1.48,1.48,0,0,0-.33,1v2.78h-.81v-4.87H296v.85a1.77,1.77,0,0,1,1.61-.95l.29,0Z" transform="translate(-7.36 -4.05)"/><path class="cls-2" d="M303,177.91v4.54a2.23,2.23,0,0,1-.56,1.64,2.27,2.27,0,0,1-1.66.56,3.46,3.46,0,0,1-2.15-.66l.27-.6a4.38,4.38,0,0,0,.92.46,3.22,3.22,0,0,0,1,.14,1.4,1.4,0,0,0,1.06-.38,1.51,1.51,0,0,0,.36-1.09v-.86a1.57,1.57,0,0,1-.65.72,2.08,2.08,0,0,1-1,.25,2.16,2.16,0,0,1-1.14-.3,2.12,2.12,0,0,1-.77-.85,2.86,2.86,0,0,1-.27-1.27,2.83,2.83,0,0,1,.27-1.27,2.05,2.05,0,0,1,.77-.85,2.16,2.16,0,0,1,1.14-.3,1.94,1.94,0,0,1,1,.25,1.55,1.55,0,0,1,.65.71v-.84Zm-1.21,3.58a2.25,2.25,0,0,0,0-2.56,1.36,1.36,0,0,0-1.1-.46,1.4,1.4,0,0,0-1.12.46,2.25,2.25,0,0,0,0,2.56,1.41,1.41,0,0,0,1.12.47A1.38,1.38,0,0,0,301.8,181.49Z" transform="translate(-7.36 -4.05)"/><path class="cls-2" d="M308.59,180.47H305a1.93,1.93,0,0,0,.46,1.28,1.58,1.58,0,0,0,1.19.44,2.43,2.43,0,0,0,1.56-.58l.27.59a2.42,2.42,0,0,1-.82.47,3,3,0,0,1-1,.18,2.4,2.4,0,0,1-1.79-.67,2.54,2.54,0,0,1-.66-1.85,3,3,0,0,1,.29-1.33,2.12,2.12,0,0,1,.81-.89,2.2,2.2,0,0,1,1.2-.32,1.91,1.91,0,0,1,1.52.63,2.57,2.57,0,0,1,.55,1.75Zm-3.09-1.65a1.86,1.86,0,0,0-.45,1.13h2.83a1.73,1.73,0,0,0-.37-1.14,1.24,1.24,0,0,0-1-.39A1.36,1.36,0,0,0,305.5,178.82Z" transform="translate(-7.36 -4.05)"/><path class="cls-2" d="M312.34,182.17l0,.64a3.75,3.75,0,0,1-.5,0,1.58,1.58,0,0,1-1.77-1.74v-2.56h-.95v-.64H310v-1.48h.81v1.48h1.38v.64h-1.38v2.5c0,.76.35,1.15,1.06,1.15Z" transform="translate(-7.36 -4.05)"/><path class="cls-2" d="M315.76,182.17l0,.64a3.75,3.75,0,0,1-.5,0,1.58,1.58,0,0,1-1.77-1.74v-2.56h-.95v-.64h.95v-1.48h.81v1.48h1.38v.64h-1.38v2.5c0,.76.35,1.15,1.06,1.15Z" transform="translate(-7.36 -4.05)"/><path class="cls-2" d="M316.5,175.8h1v.91h-1Zm.08,7v-4.87h.81v4.87Z" transform="translate(-7.36 -4.05)"/><path class="cls-2" d="M323.1,179.72v3.06h-.81v-3a1.47,1.47,0,0,0-.27-1,1,1,0,0,0-.84-.31,1.4,1.4,0,0,0-1.07.41,1.5,1.5,0,0,0-.4,1.11v2.79h-.81v-4.87h.8v.8a1.65,1.65,0,0,1,.67-.69,2,2,0,0,1,1-.23C322.52,177.79,323.1,178.43,323.1,179.72Z" transform="translate(-7.36 -4.05)"/><path class="cls-2" d="M328.94,177.91v4.54a2.23,2.23,0,0,1-.56,1.64,2.27,2.27,0,0,1-1.66.56,3.46,3.46,0,0,1-2.15-.66l.27-.6a4.38,4.38,0,0,0,.92.46,3.18,3.18,0,0,0,1,.14,1.4,1.4,0,0,0,1.06-.38,1.51,1.51,0,0,0,.36-1.09v-.86a1.57,1.57,0,0,1-.65.72,2.08,2.08,0,0,1-1,.25,2.16,2.16,0,0,1-1.14-.3,2.12,2.12,0,0,1-.77-.85,2.86,2.86,0,0,1-.27-1.27,2.83,2.83,0,0,1,.27-1.27,2.05,2.05,0,0,1,.77-.85,2.16,2.16,0,0,1,1.14-.3,1.94,1.94,0,0,1,1,.25,1.55,1.55,0,0,1,.65.71v-.84Zm-1.21,3.58a2.25,2.25,0,0,0,0-2.56,1.36,1.36,0,0,0-1.1-.46,1.4,1.4,0,0,0-1.12.46,2.25,2.25,0,0,0,0,2.56,1.41,1.41,0,0,0,1.12.47A1.38,1.38,0,0,0,327.73,181.49Z" transform="translate(-7.36 -4.05)"/><path class="cls-2" d="M333.83,182.54a2.11,2.11,0,0,1-.82-.88,2.91,2.91,0,0,1-.28-1.32A3,3,0,0,1,333,179a2.23,2.23,0,0,1,.83-.89,2.36,2.36,0,0,1,1.26-.32,2.63,2.63,0,0,1,1,.17,2.13,2.13,0,0,1,.76.47l-.27.6a2.18,2.18,0,0,0-1.4-.56A1.45,1.45,0,0,0,334,179a2,2,0,0,0-.42,1.38,2,2,0,0,0,.42,1.36,1.47,1.47,0,0,0,1.17.48,2.24,2.24,0,0,0,1.4-.56l.27.6a2.48,2.48,0,0,1-.78.46,2.91,2.91,0,0,1-1,.17A2.49,2.49,0,0,1,333.83,182.54Z" transform="translate(-7.36 -4.05)"/><path class="cls-2" d="M341.91,177.91v4.87h-.79V182a1.68,1.68,0,0,1-.65.67,1.91,1.91,0,0,1-.93.23,1.69,1.69,0,0,1-1.31-.49,2.07,2.07,0,0,1-.44-1.43v-3h.81v3a1.46,1.46,0,0,0,.26,1,1,1,0,0,0,.82.31,1.33,1.33,0,0,0,1-.42,1.53,1.53,0,0,0,.39-1.09v-2.75Z" transform="translate(-7.36 -4.05)"/><path class="cls-2" d="M346.18,178.49l-.53,0a1.52,1.52,0,0,0-1.09.47,1.48,1.48,0,0,0-.33,1v2.78h-.81v-4.87h.79v.85a1.77,1.77,0,0,1,1.61-.95l.29,0Z" transform="translate(-7.36 -4.05)"/><path class="cls-2" d="M350.73,177.92h.81l-2.1,4.86h-.76l-2.09-4.86h.86l1.63,4Z" transform="translate(-7.36 -4.05)"/><path class="cls-2" d="M356.41,180.47h-3.56a1.93,1.93,0,0,0,.46,1.28,1.57,1.57,0,0,0,1.19.44,2.45,2.45,0,0,0,1.56-.58l.27.59a2.33,2.33,0,0,1-.82.47,3,3,0,0,1-1,.18,2.44,2.44,0,0,1-1.8-.67,2.58,2.58,0,0,1-.65-1.85,2.83,2.83,0,0,1,.29-1.33,2.12,2.12,0,0,1,.81-.89,2.2,2.2,0,0,1,1.2-.32,1.93,1.93,0,0,1,1.52.63,2.62,2.62,0,0,1,.55,1.75Zm-3.09-1.65a1.86,1.86,0,0,0-.45,1.13h2.83a1.73,1.73,0,0,0-.37-1.14,1.24,1.24,0,0,0-1-.39A1.36,1.36,0,0,0,353.32,178.82Z" transform="translate(-7.36 -4.05)"/><path class="cls-2" d="M363.76,178.1a2.06,2.06,0,0,1,.76.88,3.05,3.05,0,0,1,.27,1.32,3.1,3.1,0,0,1-.27,1.33,2.24,2.24,0,0,1-.76.9,2.07,2.07,0,0,1-1.13.32,2,2,0,0,1-1-.25,1.63,1.63,0,0,1-.64-.71v.89h-.81v-7.05H361v3a1.53,1.53,0,0,1,.64-.71,1.93,1.93,0,0,1,1-.25A2.06,2.06,0,0,1,363.76,178.1Zm-.19,3.58a2.18,2.18,0,0,0,.39-1.38,2.09,2.09,0,0,0-.39-1.35,1.5,1.5,0,0,0-2.2,0,2.66,2.66,0,0,0,0,2.74,1.47,1.47,0,0,0,2.2,0Z" transform="translate(-7.36 -4.05)"/><path class="cls-2" d="M370.08,180.47h-3.56a1.88,1.88,0,0,0,.46,1.28,1.57,1.57,0,0,0,1.19.44,2.47,2.47,0,0,0,1.56-.58l.27.59a2.42,2.42,0,0,1-.82.47,3,3,0,0,1-1,.18,2.44,2.44,0,0,1-1.8-.67,2.58,2.58,0,0,1-.65-1.85A2.83,2.83,0,0,1,366,179a2.12,2.12,0,0,1,.81-.89,2.2,2.2,0,0,1,1.2-.32,1.93,1.93,0,0,1,1.52.63,2.62,2.62,0,0,1,.55,1.75ZM367,178.82a1.8,1.8,0,0,0-.45,1.13h2.83a1.78,1.78,0,0,0-.37-1.14,1.26,1.26,0,0,0-1-.39A1.36,1.36,0,0,0,367,178.82Z" transform="translate(-7.36 -4.05)"/><path class="cls-2" d="M372.08,182.54a2.05,2.05,0,0,1-.82-.88,2.91,2.91,0,0,1-.28-1.32,3,3,0,0,1,.29-1.34,2.23,2.23,0,0,1,.83-.89,2.36,2.36,0,0,1,1.26-.32,2.66,2.66,0,0,1,1,.17,2.13,2.13,0,0,1,.76.47l-.27.6a2.18,2.18,0,0,0-1.4-.56,1.45,1.45,0,0,0-1.17.49,2,2,0,0,0-.42,1.38,2,2,0,0,0,.42,1.36,1.47,1.47,0,0,0,1.17.48,2.24,2.24,0,0,0,1.4-.56l.27.6a2.48,2.48,0,0,1-.78.46,3,3,0,0,1-1,.17A2.49,2.49,0,0,1,372.08,182.54Z" transform="translate(-7.36 -4.05)"/><path class="cls-2" d="M376.86,182.54a2.12,2.12,0,0,1-.81-.89,3.32,3.32,0,0,1,0-2.67,2,2,0,0,1,.81-.88,2.56,2.56,0,0,1,2.44,0,2,2,0,0,1,.81.88,3.22,3.22,0,0,1,0,2.67,2.12,2.12,0,0,1-.81.89,2.56,2.56,0,0,1-2.44,0Zm2.32-.84a2.64,2.64,0,0,0,0-2.76,1.5,1.5,0,0,0-2.2,0,2.14,2.14,0,0,0-.39,1.38,2.2,2.2,0,0,0,.38,1.38,1.35,1.35,0,0,0,1.11.48A1.32,1.32,0,0,0,379.18,181.7Z" transform="translate(-7.36 -4.05)"/><path class="cls-2" d="M388.65,179.72v3.06h-.81v-3a1.58,1.58,0,0,0-.24-1,.86.86,0,0,0-.75-.31,1.17,1.17,0,0,0-1,.41,1.62,1.62,0,0,0-.35,1.12v2.78h-.81v-3a1.6,1.6,0,0,0-.24-1,.92.92,0,0,0-.76-.3,1.17,1.17,0,0,0-1,.41,1.67,1.67,0,0,0-.35,1.12v2.78h-.81v-4.87h.8v.77A1.5,1.5,0,0,1,383,178a1.68,1.68,0,0,1,.9-.23,1.44,1.44,0,0,1,1.49,1,1.57,1.57,0,0,1,.64-.71,1.86,1.86,0,0,1,1-.25C388.11,177.79,388.65,178.43,388.65,179.72Z" transform="translate(-7.36 -4.05)"/><path class="cls-2" d="M394.21,180.47h-3.56a1.88,1.88,0,0,0,.46,1.28,1.57,1.57,0,0,0,1.19.44,2.47,2.47,0,0,0,1.56-.58l.27.59a2.42,2.42,0,0,1-.82.47,3,3,0,0,1-1,.18,2.44,2.44,0,0,1-1.8-.67,2.58,2.58,0,0,1-.65-1.85,2.83,2.83,0,0,1,.29-1.33,2.12,2.12,0,0,1,.81-.89,2.2,2.2,0,0,1,1.2-.32,1.93,1.93,0,0,1,1.52.63,2.62,2.62,0,0,1,.55,1.75Zm-3.09-1.65a1.8,1.8,0,0,0-.45,1.13h2.83a1.78,1.78,0,0,0-.37-1.14,1.26,1.26,0,0,0-1-.39A1.36,1.36,0,0,0,391.12,178.82Z" transform="translate(-7.36 -4.05)"/><path class="cls-2" d="M395.1,182.22l.27-.6a2.71,2.71,0,0,0,.79.44,2.91,2.91,0,0,0,.92.14,1.53,1.53,0,0,0,.82-.19.6.6,0,0,0,.29-.53A.56.56,0,0,0,398,181a1.32,1.32,0,0,0-.63-.27l-.82-.19a1.94,1.94,0,0,1-.95-.48,1.17,1.17,0,0,1-.33-.84,1.25,1.25,0,0,1,.51-1.05,2.12,2.12,0,0,1,1.36-.4,2.86,2.86,0,0,1,1,.16,2.1,2.1,0,0,1,.77.48l-.27.59a2.23,2.23,0,0,0-1.47-.57,1.41,1.41,0,0,0-.8.19.62.62,0,0,0-.28.55.65.65,0,0,0,.17.46,1.17,1.17,0,0,0,.57.27l.83.2a2,2,0,0,1,1,.48,1.15,1.15,0,0,1,.33.85,1.21,1.21,0,0,1-.52,1,2.33,2.33,0,0,1-1.4.38A2.86,2.86,0,0,1,395.1,182.22Z" transform="translate(-7.36 -4.05)"/><path class="cls-2" d="M402.78,182.78v-7.05h.81v7.05Z" transform="translate(-7.36 -4.05)"/><path class="cls-2" d="M409.18,180.47h-3.56a1.88,1.88,0,0,0,.46,1.28,1.57,1.57,0,0,0,1.19.44,2.47,2.47,0,0,0,1.56-.58l.27.59a2.42,2.42,0,0,1-.82.47,3,3,0,0,1-1,.18,2.44,2.44,0,0,1-1.8-.67,2.58,2.58,0,0,1-.65-1.85,2.83,2.83,0,0,1,.29-1.33,2.12,2.12,0,0,1,.81-.89,2.2,2.2,0,0,1,1.2-.32,1.93,1.93,0,0,1,1.52.63,2.62,2.62,0,0,1,.55,1.75Zm-3.09-1.65a1.8,1.8,0,0,0-.45,1.13h2.83a1.78,1.78,0,0,0-.37-1.14,1.26,1.26,0,0,0-1-.39A1.36,1.36,0,0,0,406.09,178.82Z" transform="translate(-7.36 -4.05)"/><path class="cls-2" d="M410.07,182.22l.27-.6a2.71,2.71,0,0,0,.79.44,2.91,2.91,0,0,0,.92.14,1.53,1.53,0,0,0,.82-.19.64.64,0,0,0,.1-1,1.32,1.32,0,0,0-.63-.27l-.82-.19a1.94,1.94,0,0,1-.95-.48,1.17,1.17,0,0,1-.33-.84,1.25,1.25,0,0,1,.51-1.05,2.12,2.12,0,0,1,1.36-.4,2.86,2.86,0,0,1,1,.16,2.1,2.1,0,0,1,.77.48l-.27.59a2.23,2.23,0,0,0-1.47-.57,1.41,1.41,0,0,0-.8.19.62.62,0,0,0-.28.55.65.65,0,0,0,.17.46,1.17,1.17,0,0,0,.57.27l.83.2a2,2,0,0,1,1,.48,1.15,1.15,0,0,1,.33.85,1.21,1.21,0,0,1-.52,1,2.33,2.33,0,0,1-1.4.38A2.86,2.86,0,0,1,410.07,182.22Z" transform="translate(-7.36 -4.05)"/><path class="cls-2" d="M414.87,182.22l.27-.6a2.71,2.71,0,0,0,.79.44,2.91,2.91,0,0,0,.92.14,1.53,1.53,0,0,0,.82-.19.64.64,0,0,0,.1-1,1.32,1.32,0,0,0-.63-.27l-.82-.19a1.94,1.94,0,0,1-.95-.48,1.17,1.17,0,0,1-.33-.84,1.25,1.25,0,0,1,.51-1.05,2.12,2.12,0,0,1,1.36-.4,2.86,2.86,0,0,1,1,.16,2.1,2.1,0,0,1,.77.48l-.27.59a2.23,2.23,0,0,0-1.47-.57,1.41,1.41,0,0,0-.8.19.62.62,0,0,0-.28.55.65.65,0,0,0,.17.46,1.17,1.17,0,0,0,.57.27l.83.2a2,2,0,0,1,1,.48,1.15,1.15,0,0,1,.33.85,1.21,1.21,0,0,1-.52,1,2.33,2.33,0,0,1-1.4.38A2.86,2.86,0,0,1,414.87,182.22Z" transform="translate(-7.36 -4.05)"/><path class="cls-2" d="M422.25,182.22l.27-.6a2.71,2.71,0,0,0,.79.44,2.91,2.91,0,0,0,.92.14,1.53,1.53,0,0,0,.82-.19.64.64,0,0,0,.1-1,1.32,1.32,0,0,0-.63-.27l-.82-.19a1.94,1.94,0,0,1-.95-.48,1.17,1.17,0,0,1-.33-.84,1.25,1.25,0,0,1,.51-1.05,2.12,2.12,0,0,1,1.36-.4,2.86,2.86,0,0,1,1,.16,2.1,2.1,0,0,1,.77.48l-.27.59a2.23,2.23,0,0,0-1.47-.57,1.41,1.41,0,0,0-.8.19.62.62,0,0,0-.28.55.65.65,0,0,0,.17.46,1.17,1.17,0,0,0,.57.27l.83.2a2,2,0,0,1,1,.48,1.15,1.15,0,0,1,.33.85,1.21,1.21,0,0,1-.52,1,2.33,2.33,0,0,1-1.4.38A2.86,2.86,0,0,1,422.25,182.22Z" transform="translate(-7.36 -4.05)"/><path class="cls-2" d="M429.88,182.17l0,.64a3.9,3.9,0,0,1-.5,0,1.8,1.8,0,0,1-1.33-.46,1.76,1.76,0,0,1-.44-1.28v-2.56h-.95v-.64h.95v-1.48h.81v1.48h1.38v.64h-1.38v2.5c0,.76.35,1.15,1.06,1.15Z" transform="translate(-7.36 -4.05)"/><path class="cls-2" d="M434.78,180.47h-3.56a1.88,1.88,0,0,0,.46,1.28,1.57,1.57,0,0,0,1.19.44,2.47,2.47,0,0,0,1.56-.58l.27.59a2.42,2.42,0,0,1-.82.47,3,3,0,0,1-1,.18,2.44,2.44,0,0,1-1.8-.67,2.58,2.58,0,0,1-.65-1.85,2.83,2.83,0,0,1,.29-1.33,2.12,2.12,0,0,1,.81-.89,2.2,2.2,0,0,1,1.2-.32,1.93,1.93,0,0,1,1.52.63,2.62,2.62,0,0,1,.55,1.75Zm-3.09-1.65a1.8,1.8,0,0,0-.45,1.13h2.83a1.78,1.78,0,0,0-.37-1.14,1.26,1.26,0,0,0-1-.39A1.36,1.36,0,0,0,431.69,178.82Z" transform="translate(-7.36 -4.05)"/><path class="cls-2" d="M440.05,180.47h-3.56a1.88,1.88,0,0,0,.46,1.28,1.57,1.57,0,0,0,1.19.44,2.47,2.47,0,0,0,1.56-.58l.27.59a2.42,2.42,0,0,1-.82.47,3,3,0,0,1-1,.18,2.44,2.44,0,0,1-1.8-.67,2.58,2.58,0,0,1-.65-1.85A2.83,2.83,0,0,1,436,179a2.12,2.12,0,0,1,.81-.89,2.2,2.2,0,0,1,1.2-.32,1.93,1.93,0,0,1,1.52.63,2.62,2.62,0,0,1,.55,1.75ZM437,178.82a1.8,1.8,0,0,0-.45,1.13h2.83a1.78,1.78,0,0,0-.37-1.14,1.26,1.26,0,0,0-1-.39A1.36,1.36,0,0,0,437,178.82Z" transform="translate(-7.36 -4.05)"/><path class="cls-2" d="M444.82,178.11a2.14,2.14,0,0,1,.76.89,3.11,3.11,0,0,1,.27,1.34,3.05,3.05,0,0,1-.27,1.32,2,2,0,0,1-1.89,1.19,2,2,0,0,1-1-.25,1.63,1.63,0,0,1-.64-.71v2.69h-.81v-6.67h.81v.84a1.53,1.53,0,0,1,.64-.71,1.9,1.9,0,0,1,1-.25A2,2,0,0,1,444.82,178.11Zm-.19,3.59a2.12,2.12,0,0,0,.39-1.36,2.18,2.18,0,0,0-.39-1.38,1.49,1.49,0,0,0-2.2,0,2.66,2.66,0,0,0,0,2.74,1.49,1.49,0,0,0,2.2,0Z" transform="translate(-7.36 -4.05)"/><path class="cls-2" d="M447.8,181.76v.72a2.06,2.06,0,0,1-.14.76,2,2,0,0,1-.46.68l-.38-.29a1.63,1.63,0,0,0,.44-.85h-.48v-1Z" transform="translate(-7.36 -4.05)"/><path class="cls-2" d="M455.13,178.26a2,2,0,0,1,.46,1.45v3.07h-.79V182a1.49,1.49,0,0,1-.58.66,1.68,1.68,0,0,1-.9.24,2.06,2.06,0,0,1-.87-.19,1.61,1.61,0,0,1-.62-.53,1.28,1.28,0,0,1-.23-.75,1.2,1.2,0,0,1,.28-.86,1.69,1.69,0,0,1,.92-.44,9.11,9.11,0,0,1,1.78-.13h.22v-.33a1.33,1.33,0,0,0-.25-.89,1.07,1.07,0,0,0-.81-.27,3.08,3.08,0,0,0-1.67.52l-.27-.59a3.21,3.21,0,0,1,.91-.44,3.51,3.51,0,0,1,1-.16A1.8,1.8,0,0,1,455.13,178.26Zm-.72,3.54a1.44,1.44,0,0,0,.39-1v-.29h-.18a9,9,0,0,0-1.34.07,1.28,1.28,0,0,0-.66.25.67.67,0,0,0-.19.52.81.81,0,0,0,.28.64,1,1,0,0,0,.72.26A1.28,1.28,0,0,0,454.41,181.8Z" transform="translate(-7.36 -4.05)"/><path class="cls-2" d="M461.27,179.72v3.06h-.81v-3a1.47,1.47,0,0,0-.27-1,1,1,0,0,0-.84-.31,1.39,1.39,0,0,0-1.07.41,1.5,1.5,0,0,0-.4,1.11v2.79h-.81v-4.87h.8v.8a1.65,1.65,0,0,1,.67-.69,2,2,0,0,1,1-.23C460.68,177.79,461.27,178.43,461.27,179.72Z" transform="translate(-7.36 -4.05)"/><path class="cls-2" d="M467.07,175.73v7.05h-.81v-.89a1.72,1.72,0,0,1-.65.71,2,2,0,0,1-1,.25,2,2,0,0,1-1.13-.32,2.16,2.16,0,0,1-.76-.9,3.1,3.1,0,0,1-.27-1.33,3.05,3.05,0,0,1,.27-1.32,2,2,0,0,1,.76-.88,2,2,0,0,1,1.13-.31,1.87,1.87,0,0,1,1,.25,1.6,1.6,0,0,1,.65.71v-3Zm-1.2,6a2.6,2.6,0,0,0,0-2.74,1.31,1.31,0,0,0-1.09-.48,1.36,1.36,0,0,0-1.11.48,2.09,2.09,0,0,0-.39,1.35,2.18,2.18,0,0,0,.39,1.38,1.35,1.35,0,0,0,1.11.5A1.32,1.32,0,0,0,465.87,181.69Z" transform="translate(-7.36 -4.05)"/><path class="cls-2" d="M293.47,191.72v3.06h-.81v-3a1.58,1.58,0,0,0-.24-1,.86.86,0,0,0-.75-.31,1.17,1.17,0,0,0-1,.41,1.67,1.67,0,0,0-.35,1.12v2.78h-.81v-3a1.6,1.6,0,0,0-.24-1,.91.91,0,0,0-.76-.3,1.17,1.17,0,0,0-1,.41,1.67,1.67,0,0,0-.35,1.12v2.78h-.81v-4.87h.8v.77a1.56,1.56,0,0,1,.61-.66,1.68,1.68,0,0,1,.9-.23,1.44,1.44,0,0,1,1.49,1,1.57,1.57,0,0,1,.64-.71,1.88,1.88,0,0,1,1-.25C292.93,189.79,293.47,190.43,293.47,191.72Z" transform="translate(-7.36 -4.05)"/><path class="cls-2" d="M295.75,194.54a2.12,2.12,0,0,1-.81-.89,3.32,3.32,0,0,1,0-2.67,2,2,0,0,1,.81-.88,2.56,2.56,0,0,1,2.44,0,2,2,0,0,1,.81.88,3.22,3.22,0,0,1,0,2.67,2.12,2.12,0,0,1-.81.89,2.56,2.56,0,0,1-2.44,0Zm2.32-.84a2.64,2.64,0,0,0,0-2.76,1.5,1.5,0,0,0-2.2,0,2.14,2.14,0,0,0-.39,1.38,2.2,2.2,0,0,0,.38,1.38,1.35,1.35,0,0,0,1.11.48A1.32,1.32,0,0,0,298.07,193.7Z" transform="translate(-7.36 -4.05)"/><path class="cls-2" d="M303.26,190.49l-.53,0a1.52,1.52,0,0,0-1.09.47,1.48,1.48,0,0,0-.33,1v2.78h-.81v-4.87h.79v.85a1.77,1.77,0,0,1,1.61-.95l.29,0Z" transform="translate(-7.36 -4.05)"/><path class="cls-2" d="M308,192.47h-3.56a1.93,1.93,0,0,0,.46,1.28,1.58,1.58,0,0,0,1.19.44,2.43,2.43,0,0,0,1.56-.58l.27.59a2.42,2.42,0,0,1-.82.47,3,3,0,0,1-1,.18,2.44,2.44,0,0,1-1.8-.67,2.58,2.58,0,0,1-.65-1.85,3,3,0,0,1,.29-1.33,2.12,2.12,0,0,1,.81-.89,2.2,2.2,0,0,1,1.2-.32,1.91,1.91,0,0,1,1.52.63,2.57,2.57,0,0,1,.55,1.75Zm-3.09-1.65a1.86,1.86,0,0,0-.45,1.13h2.83a1.73,1.73,0,0,0-.37-1.14,1.24,1.24,0,0,0-1-.39A1.36,1.36,0,0,0,304.92,190.82Z" transform="translate(-7.36 -4.05)"/><path class="cls-2" d="M311.7,187.8h1v.91h-1Zm.08,7v-4.87h.81v4.87Z" transform="translate(-7.36 -4.05)"/><path class="cls-2" d="M318.3,191.72v3.06h-.81v-3a1.47,1.47,0,0,0-.27-1,1,1,0,0,0-.84-.31,1.4,1.4,0,0,0-1.07.41,1.5,1.5,0,0,0-.4,1.11v2.79h-.81v-4.87h.8v.8a1.65,1.65,0,0,1,.67-.69,2,2,0,0,1,1-.23C317.71,189.79,318.3,190.43,318.3,191.72Z" transform="translate(-7.36 -4.05)"/><path class="cls-2" d="M320.86,189.91h1.38v.64h-1.38v4.23h-.81v-4.23h-.95v-.64h.95v-.16a2,2,0,0,1,.48-1.47,2.19,2.19,0,0,1,1.5-.56l.4,0,.06.63-.46,0a1.26,1.26,0,0,0-.89.34,1.34,1.34,0,0,0-.28.94Z" transform="translate(-7.36 -4.05)"/><path class="cls-2" d="M323.82,194.54a2.12,2.12,0,0,1-.81-.89,3.32,3.32,0,0,1,0-2.67,2,2,0,0,1,.81-.88,2.56,2.56,0,0,1,2.44,0,2,2,0,0,1,.81.88,3.22,3.22,0,0,1,0,2.67,2.12,2.12,0,0,1-.81.89,2.56,2.56,0,0,1-2.44,0Zm2.32-.84a2.64,2.64,0,0,0,0-2.76,1.5,1.5,0,0,0-2.2,0,2.14,2.14,0,0,0-.39,1.38,2.2,2.2,0,0,0,.38,1.38,1.35,1.35,0,0,0,1.11.48A1.32,1.32,0,0,0,326.14,193.7Z" transform="translate(-7.36 -4.05)"/><path class="cls-2" d="M331.33,190.49l-.53,0a1.52,1.52,0,0,0-1.09.47,1.48,1.48,0,0,0-.33,1v2.78h-.81v-4.87h.79v.85a1.77,1.77,0,0,1,1.61-.95l.29,0Z" transform="translate(-7.36 -4.05)"/><path class="cls-2" d="M339.14,191.72v3.06h-.81v-3a1.58,1.58,0,0,0-.24-1,.86.86,0,0,0-.75-.31,1.17,1.17,0,0,0-1,.41A1.62,1.62,0,0,0,336,192v2.78h-.81v-3a1.6,1.6,0,0,0-.24-1,.92.92,0,0,0-.76-.3,1.17,1.17,0,0,0-1,.41,1.67,1.67,0,0,0-.35,1.12v2.78h-.81v-4.87h.8v.77a1.5,1.5,0,0,1,.61-.66,1.68,1.68,0,0,1,.9-.23,1.44,1.44,0,0,1,1.49,1,1.57,1.57,0,0,1,.64-.71,1.86,1.86,0,0,1,1-.25C338.6,189.79,339.14,190.43,339.14,191.72Z" transform="translate(-7.36 -4.05)"/><path class="cls-2" d="M344,190.26a2,2,0,0,1,.46,1.45v3.07h-.79V194a1.49,1.49,0,0,1-.58.66,1.68,1.68,0,0,1-.9.24,2.13,2.13,0,0,1-.87-.19,1.61,1.61,0,0,1-.62-.53,1.35,1.35,0,0,1-.23-.75,1.2,1.2,0,0,1,.28-.86,1.72,1.72,0,0,1,.92-.44,9.18,9.18,0,0,1,1.78-.13h.22v-.33a1.33,1.33,0,0,0-.25-.89,1.07,1.07,0,0,0-.81-.27,3.08,3.08,0,0,0-1.67.52l-.27-.59a3.21,3.21,0,0,1,.91-.44,3.56,3.56,0,0,1,1-.16A1.8,1.8,0,0,1,344,190.26Zm-.72,3.54a1.44,1.44,0,0,0,.39-1v-.29h-.18a9.09,9.09,0,0,0-1.34.07,1.28,1.28,0,0,0-.66.25.67.67,0,0,0-.19.52.81.81,0,0,0,.28.64,1,1,0,0,0,.72.26A1.28,1.28,0,0,0,343.26,193.8Z" transform="translate(-7.36 -4.05)"/><path class="cls-2" d="M348.5,194.17l0,.64a3.9,3.9,0,0,1-.5,0,1.58,1.58,0,0,1-1.77-1.74v-2.56h-.95v-.64h.95v-1.48H347v1.48h1.38v.64H347v2.5c0,.76.35,1.15,1.06,1.15A3.25,3.25,0,0,0,348.5,194.17Z" transform="translate(-7.36 -4.05)"/><path class="cls-2" d="M349.24,187.8h1v.91h-1Zm.08,7v-4.87h.81v4.87Z" transform="translate(-7.36 -4.05)"/><path class="cls-2" d="M352.44,194.54a2.12,2.12,0,0,1-.81-.89,3.32,3.32,0,0,1,0-2.67,2,2,0,0,1,.81-.88,2.56,2.56,0,0,1,2.44,0,2,2,0,0,1,.81.88,3.22,3.22,0,0,1,0,2.67,2.12,2.12,0,0,1-.81.89,2.56,2.56,0,0,1-2.44,0Zm2.32-.84a2.64,2.64,0,0,0,0-2.76,1.5,1.5,0,0,0-2.2,0,2.14,2.14,0,0,0-.39,1.38,2.2,2.2,0,0,0,.38,1.38,1.35,1.35,0,0,0,1.11.48A1.32,1.32,0,0,0,354.76,193.7Z" transform="translate(-7.36 -4.05)"/><path class="cls-2" d="M361.39,191.72v3.06h-.81v-3a1.47,1.47,0,0,0-.27-1,1,1,0,0,0-.84-.31,1.39,1.39,0,0,0-1.07.41A1.5,1.5,0,0,0,358,192v2.79h-.81v-4.87h.8v.8a1.65,1.65,0,0,1,.67-.69,2,2,0,0,1,1-.23C360.8,189.79,361.39,190.43,361.39,191.72Z" transform="translate(-7.36 -4.05)"/><path class="cls-2" d="M365.37,187.8h1v.91h-1Zm.08,7v-4.87h.81v4.87Z" transform="translate(-7.36 -4.05)"/><path class="cls-2" d="M367.47,194.22l.27-.6a2.71,2.71,0,0,0,.79.44,2.91,2.91,0,0,0,.92.14,1.53,1.53,0,0,0,.82-.19.64.64,0,0,0,.1-1,1.32,1.32,0,0,0-.63-.27l-.82-.19a1.94,1.94,0,0,1-.95-.48,1.17,1.17,0,0,1-.33-.84,1.25,1.25,0,0,1,.51-1.05,2.12,2.12,0,0,1,1.36-.4,2.86,2.86,0,0,1,1,.16,2,2,0,0,1,.77.48L371,191a2.23,2.23,0,0,0-1.47-.57,1.41,1.41,0,0,0-.8.19.62.62,0,0,0-.28.55.65.65,0,0,0,.17.46,1.17,1.17,0,0,0,.57.27l.83.2a2,2,0,0,1,1,.48,1.15,1.15,0,0,1,.33.85,1.21,1.21,0,0,1-.52,1,2.33,2.33,0,0,1-1.4.38A2.86,2.86,0,0,1,367.47,194.22Z" transform="translate(-7.36 -4.05)"/><path class="cls-2" d="M377.91,190.49l-.53,0a1.52,1.52,0,0,0-1.09.47,1.48,1.48,0,0,0-.33,1v2.78h-.81v-4.87h.79v.85a1.77,1.77,0,0,1,1.61-.95l.29,0Z" transform="translate(-7.36 -4.05)"/><path class="cls-2" d="M382.66,192.47H379.1a1.93,1.93,0,0,0,.46,1.28,1.57,1.57,0,0,0,1.19.44,2.47,2.47,0,0,0,1.56-.58l.27.59a2.42,2.42,0,0,1-.82.47,3,3,0,0,1-1,.18,2.44,2.44,0,0,1-1.8-.67,2.58,2.58,0,0,1-.65-1.85,2.83,2.83,0,0,1,.29-1.33,2.12,2.12,0,0,1,.81-.89,2.2,2.2,0,0,1,1.2-.32,1.93,1.93,0,0,1,1.52.63,2.62,2.62,0,0,1,.55,1.75Zm-3.09-1.65a1.8,1.8,0,0,0-.45,1.13H382a1.78,1.78,0,0,0-.37-1.14,1.26,1.26,0,0,0-1-.39A1.36,1.36,0,0,0,379.57,190.82Z" transform="translate(-7.36 -4.05)"/><path class="cls-2" d="M386.41,194.17l0,.64a3.9,3.9,0,0,1-.5,0,1.58,1.58,0,0,1-1.77-1.74v-2.56h-1v-.64h1v-1.48h.81v1.48h1.38v.64h-1.38v2.5c0,.76.35,1.15,1.06,1.15Z" transform="translate(-7.36 -4.05)"/><path class="cls-2" d="M390.59,190.26a2,2,0,0,1,.46,1.45v3.07h-.79V194a1.49,1.49,0,0,1-.58.66,1.68,1.68,0,0,1-.9.24,2.09,2.09,0,0,1-.87-.19,1.61,1.61,0,0,1-.62-.53,1.28,1.28,0,0,1-.23-.75,1.2,1.2,0,0,1,.28-.86,1.72,1.72,0,0,1,.92-.44A9.18,9.18,0,0,1,390,192h.22v-.33a1.33,1.33,0,0,0-.25-.89,1.07,1.07,0,0,0-.81-.27,3.08,3.08,0,0,0-1.67.52l-.27-.59a3.21,3.21,0,0,1,.91-.44,3.56,3.56,0,0,1,1-.16A1.8,1.8,0,0,1,390.59,190.26Zm-.72,3.54a1.44,1.44,0,0,0,.39-1v-.29h-.18a9,9,0,0,0-1.34.07,1.28,1.28,0,0,0-.66.25.67.67,0,0,0-.19.52.81.81,0,0,0,.28.64,1,1,0,0,0,.72.26A1.28,1.28,0,0,0,389.87,193.8Z" transform="translate(-7.36 -4.05)"/><path class="cls-2" d="M392.45,187.8h1v.91h-1Zm.08,7v-4.87h.81v4.87Z" transform="translate(-7.36 -4.05)"/><path class="cls-2" d="M399.05,191.72v3.06h-.81v-3a1.47,1.47,0,0,0-.27-1,1,1,0,0,0-.84-.31,1.39,1.39,0,0,0-1.07.41,1.5,1.5,0,0,0-.4,1.11v2.79h-.81v-4.87h.8v.8a1.65,1.65,0,0,1,.67-.69,2,2,0,0,1,1-.23C398.46,189.79,399.05,190.43,399.05,191.72Z" transform="translate(-7.36 -4.05)"/><path class="cls-2" d="M404.61,192.47h-3.56a1.88,1.88,0,0,0,.46,1.28,1.57,1.57,0,0,0,1.19.44,2.45,2.45,0,0,0,1.56-.58l.27.59a2.42,2.42,0,0,1-.82.47,3,3,0,0,1-1,.18,2.44,2.44,0,0,1-1.8-.67,2.58,2.58,0,0,1-.65-1.85,2.83,2.83,0,0,1,.29-1.33,2.12,2.12,0,0,1,.81-.89,2.2,2.2,0,0,1,1.2-.32,1.93,1.93,0,0,1,1.52.63,2.62,2.62,0,0,1,.55,1.75Zm-3.09-1.65a1.86,1.86,0,0,0-.45,1.13h2.83a1.78,1.78,0,0,0-.37-1.14,1.26,1.26,0,0,0-1-.39A1.36,1.36,0,0,0,401.52,190.82Z" transform="translate(-7.36 -4.05)"/><path class="cls-2" d="M410.12,187.73v7.05h-.81v-.89a1.65,1.65,0,0,1-.65.71,2,2,0,0,1-1,.25,2,2,0,0,1-1.13-.32,2.16,2.16,0,0,1-.76-.9,3.1,3.1,0,0,1-.27-1.33,3.05,3.05,0,0,1,.27-1.32,2,2,0,0,1,.76-.88,2,2,0,0,1,1.13-.31,1.87,1.87,0,0,1,1,.25,1.55,1.55,0,0,1,.65.71v-3Zm-1.2,6a2.6,2.6,0,0,0,0-2.74,1.31,1.31,0,0,0-1.09-.48,1.36,1.36,0,0,0-1.11.48,2.09,2.09,0,0,0-.39,1.35,2.18,2.18,0,0,0,.39,1.38,1.35,1.35,0,0,0,1.11.5A1.32,1.32,0,0,0,408.92,193.69Z" transform="translate(-7.36 -4.05)"/><path class="cls-2" d="M411.5,193.76h1v1h-1Z" transform="translate(-7.36 -4.05)"/></svg>