<?xml version="1.0" encoding="UTF-8"?>
<svg id="Option_1" data-name="Option 1" xmlns="http://www.w3.org/2000/svg" viewBox="0 0 400 400">
  <defs>
    <style>
      .cls-1 {
        fill: none;
      }

      .cls-2 {
        fill: #231f20;
      }

      .cls-3 {
        fill: #fff;
      }
    </style>
  </defs>
  <g id="Logo_1" data-name="Logo 1">
    <g>
      <path class="cls-1" d="M238.838,162.614c10.942,11.243,24.95,21.034,42.877,27.778l47.395-118.051-90.272,90.272Z"/>
      <path class="cls-1" d="M118.228,190.253c17.864-6.783,31.825-16.594,42.723-27.849l-90.061-90.062,47.338,117.911Z"/>
      <path class="cls-1" d="M281.737,209.662c-17.921,6.739-31.925,16.521-42.867,27.755l90.24,90.241-47.373-117.996Z"/>
      <path class="cls-1" d="M162.367,160.915c11.769-12.594,19.85-26.853,25.384-40.617l-115.201-49.2,89.817,89.818Z"/>
      <path class="cls-1" d="M237.445,238.897c-11.837,12.593-19.961,26.871-25.529,40.663l115.534,49.343-90.005-90.005Z"/>
      <path class="cls-1" d="M211.894,120.45c5.564,13.796,13.686,28.083,25.521,40.684l90.035-90.036-115.556,49.352Z"/>
      <path class="cls-1" d="M160.919,237.628c-10.898-11.246-24.855-21.049-42.713-27.825l-47.316,117.855,90.03-90.03Z"/>
      <path class="cls-1" d="M187.728,279.712c-5.538-13.759-13.622-28.011-25.392-40.596l-89.787,89.787,115.179-49.191Z"/>
      <path d="M56.658,79.237v115.628c0,1.701,1.379,3.081,3.081,3.081s3.081-1.38,3.081-3.081v-118.468c0-1.701-1.379-3.081-3.081-3.081-7.486,0-13.576-6.092-13.576-13.578s6.09-13.576,13.576-13.576,13.577,6.09,13.577,13.576c0,1.701,1.379,3.081,3.081,3.081h118.468c1.702,0,3.081-1.38,3.081-3.081s-1.379-3.081-3.081-3.081h-115.627c-1.483-9.426-9.662-16.657-19.499-16.657-10.884,0-19.738,8.854-19.738,19.738,0,9.837,7.231,18.017,16.657,19.499Z"/>
      <path d="M194.865,337.181h-118.47c-1.702,0-3.081,1.38-3.081,3.081,0,7.486-6.09,13.576-13.576,13.576s-13.577-6.092-13.577-13.578,6.091-13.576,13.577-13.576c1.702,0,3.081-1.38,3.081-3.081v-118.468c0-1.701-1.379-3.081-3.081-3.081s-3.081,1.38-3.081,3.081v115.628c-9.427,1.482-16.658,9.662-16.658,19.499,0,10.884,8.855,19.738,19.739,19.738,9.836,0,18.015-7.231,19.498-16.657h115.629c1.702,0,3.081-1.38,3.081-3.081s-1.379-3.081-3.081-3.081Z"/>
      <path d="M205.136,62.819h118.468c1.702,0,3.081-1.38,3.081-3.081,0-7.486,6.091-13.576,13.577-13.576s13.576,6.09,13.576,13.576-6.09,13.578-13.576,13.578c-1.702,0-3.081,1.38-3.081,3.081v118.468c0,1.701,1.379,3.081,3.081,3.081s3.081-1.38,3.081-3.081v-115.628c9.426-1.482,16.657-9.662,16.657-19.499,0-10.884-8.854-19.738-19.738-19.738-9.837,0-18.016,7.231-19.499,16.657h-115.627c-1.702,0-3.081,1.38-3.081,3.081s1.379,3.081,3.081,3.081Z"/>
      <path d="M343.342,320.763v-115.628c0-1.701-1.379-3.081-3.081-3.081s-3.081,1.38-3.081,3.081v118.468c0,1.701,1.379,3.081,3.081,3.081,7.486,0,13.577,6.092,13.577,13.578s-6.091,13.576-13.577,13.576-13.576-6.09-13.576-13.576c0-1.701-1.379-3.081-3.081-3.081h-118.47c-1.702,0-3.081,1.38-3.081,3.081s1.379,3.081,3.081,3.081h115.629c1.483,9.425,9.662,16.657,19.498,16.657,10.884,0,19.739-8.856,19.739-19.74,0-9.837-7.231-18.015-16.658-19.497Z"/>
      <path d="M70.89,72.342l90.061,90.062c.478-.494.95-.99,1.416-1.489l-89.817-89.818,115.201,49.2c.257-.64.501-1.277.748-1.915l-120.028-51.261s-.005,0-.007,0c-.167-.07-.345-.079-.522-.057-.044.005-.081.013-.123.024-.163.041-.319.112-.45.234-.005.005-.013.005-.019.01-.001.001-.001.003-.002.004-.002.002-.004.002-.006.004-.132.132-.204.293-.249.461-.011.042-.017.079-.024.122-.025.176-.021.355.046.523,0,.001,0,.002,0,.003v.002s.001.002.002.003l49.191,122.524c.65-.235,1.282-.483,1.922-.726l-47.338-117.911Z"/>
      <path d="M327.45,71.097l-90.035,90.036c.467.497.944.989,1.423,1.481l90.272-90.272-47.395,118.051c.639.24,1.279.479,1.927.712l49.241-122.651s0-.002.001-.003v-.002s0-.002.001-.003c.067-.168.071-.347.046-.523-.006-.043-.012-.08-.024-.122-.045-.168-.117-.329-.249-.461-.001-.002-.004-.002-.005-.004-.001-.001-.001-.003-.003-.004-.005-.005-.013-.005-.019-.01-.132-.124-.289-.195-.454-.235-.042-.011-.078-.018-.12-.023-.176-.022-.354-.013-.521.057-.002.001-.005,0-.008.001l-120.387,51.414c.247.637.493,1.274.751,1.913l115.556-49.352Z"/>
      <path d="M72.55,328.903l89.787-89.787c-.467-.499-.939-.994-1.417-1.488l-90.03,90.03,47.316-117.855c-.639-.243-1.273-.49-1.922-.725l-49.168,122.468s0,.002-.001.003v.002s0,.003,0,.004c-.067.168-.071.346-.046.523.006.043.012.08.024.121.045.168.117.33.249.461.002.001.004.002.006.004.001.001.001.003.002.004.068.067.152.108.233.152.153.084.315.141.485.141.134,0,.268-.028.394-.08.003-.001.006,0,.009-.002l120.007-51.252c-.247-.638-.491-1.274-.749-1.914l-115.179,49.191Z"/>
      <path d="M329.11,327.658l-90.24-90.241c-.479.492-.957.983-1.424,1.48l90.005,90.005-115.534-49.343c-.258.639-.505,1.276-.752,1.913l120.366,51.406s.006,0,.009.002c.126.052.26.08.394.08.169,0,.332-.057.485-.141.081-.044.165-.085.233-.152.001-.001.001-.003.003-.004.002-.002.004-.002.005-.004.132-.132.204-.293.249-.461.011-.042.017-.079.024-.121.025-.177.021-.355-.046-.523,0-.001,0-.003,0-.004v-.002s-.001-.002-.002-.003l-49.219-122.595c-.649.232-1.289.471-1.928.711l47.373,117.996Z"/>
      <path class="cls-2" d="M205.874,279.213c-.522-.223-.764-.826-.542-1.348.223-.525.831-.764,1.348-.542l5.236,2.236c5.568-13.791,13.692-28.07,25.529-40.663l-33.036-33.036c-.401-.401-.401-1.051,0-1.452s1.051-.401,1.452,0l33.008,33.008c10.942-11.234,24.947-21.016,42.867-27.755l-1.664-4.144c-.212-.528.044-1.125.57-1.336.531-.211,1.125.044,1.336.57l1.686,4.199c15.636-5.601,34.173-8.919,56.178-8.919-22.016,0-40.56-3.322-56.201-8.927l-1.664,4.144c-.16.401-.546.644-.953.644-.127,0-.257-.024-.383-.074-.526-.211-.781-.808-.57-1.336l1.642-4.089c-17.927-6.745-31.934-16.536-42.877-27.778l-32.977,32.977c-.201.2-.463.301-.726.301s-.526-.1-.726-.301c-.401-.401-.401-1.051,0-1.452l33.006-33.006c-11.836-12.601-19.957-26.887-25.521-40.684l-5.214,2.227c-.519.221-1.125-.018-1.348-.542-.223-.522.02-1.125.542-1.348l5.269-2.25c-10.259-26.457-11.275-50.694-11.352-57.129-.077,6.422-1.089,30.579-11.292,56.975l5.628,2.403c.522.223.764.826.542,1.348-.223.526-.831.764-1.348.542l-5.569-2.378c-5.534,13.764-13.615,28.023-25.384,40.617l33.224,33.224c.401.401.401,1.051,0,1.452-.2.2-.463.301-.726.301s-.526-.1-.726-.301l-33.187-33.187c-10.898,11.255-24.859,21.066-42.723,27.849l1.698,4.229c.212.527-.044,1.125-.57,1.336-.126.05-.256.074-.383.074-.407,0-.792-.243-.953-.644l-1.714-4.27c-15.716,5.685-34.382,9.053-56.568,9.053,22.175,0,40.834,3.366,56.545,9.046l1.737-4.326c.21-.528.806-.78,1.336-.57.526.211.781.808.57,1.336l-1.72,4.284c17.858,6.777,31.815,16.579,42.713,27.825l33.219-33.219c.401-.401,1.051-.401,1.452,0s.401,1.051,0,1.452l-33.254,33.254c11.77,12.586,19.854,26.837,25.392,40.596l5.591-2.388c.515-.225,1.124.016,1.348.542.223.522-.02,1.125-.542,1.348l-5.649,2.413c10.223,26.418,11.237,50.603,11.314,57.03.077-6.439,1.094-30.705,11.373-57.183l-5.29-2.259Z"/>
      <path class="cls-2" d="M199.791,59.738s-.013.587,0,1.67c.013-1.083,0-1.67,0-1.67Z"/>
      <path class="cls-2" d="M199.791,340.325s.013-.587,0-1.67c-.013,1.083,0,1.67,0,1.67Z"/>
      <path class="cls-3" d="M193.32,122.676c.516.223,1.125-.016,1.348-.542.223-.522-.02-1.125-.542-1.348l-5.628-2.403c-.246.638-.49,1.275-.748,1.915l5.569,2.378Z"/>
      <path class="cls-3" d="M118.974,195.892c.127,0,.257-.024.383-.074.526-.211.781-.808.57-1.336l-1.698-4.229c-.64.243-1.272.491-1.922.726l1.714,4.27c.161.401.546.644.953.644Z"/>
      <path class="cls-3" d="M194.138,195.591c.201.2.463.301.726.301s.526-.1.726-.301c.401-.401.401-1.051,0-1.452l-33.224-33.224c-.466.499-.938.995-1.416,1.489l33.187,33.187Z"/>
      <path class="cls-3" d="M280.073,194.482c-.212.527.044,1.125.57,1.336.126.05.256.074.383.074.407,0,.792-.243.953-.644l1.664-4.144c-.649-.233-1.289-.472-1.927-.712l-1.642,4.089Z"/>
      <path class="cls-3" d="M205.332,122.135c.223.523.829.762,1.348.542l5.214-2.227c-.258-.639-.504-1.276-.751-1.913l-5.269,2.25c-.522.223-.764.826-.542,1.348Z"/>
      <path class="cls-3" d="M204.409,194.139c-.401.401-.401,1.051,0,1.452.201.2.463.301.726.301s.525-.1.726-.301l32.977-32.977c-.479-.492-.956-.984-1.423-1.481l-33.006,33.006Z"/>
      <path class="cls-3" d="M119.926,205.518c.212-.528-.044-1.125-.57-1.336-.53-.211-1.126.042-1.336.57l-1.737,4.326c.65.235,1.283.482,1.922.725l1.72-4.284Z"/>
      <path class="cls-3" d="M195.591,205.861c.401-.401.401-1.051,0-1.452s-1.051-.401-1.452,0l-33.219,33.219c.478.493.951.989,1.417,1.488l33.254-33.254Z"/>
      <path class="cls-3" d="M194.668,277.865c-.224-.525-.833-.766-1.348-.542l-5.591,2.388c.257.64.502,1.277.749,1.914l5.649-2.413c.522-.223.764-.826.542-1.348Z"/>
      <path class="cls-3" d="M280.643,204.182c-.526.211-.781.808-.57,1.336l1.664,4.144c.639-.24,1.279-.479,1.928-.711l-1.686-4.199c-.211-.526-.805-.78-1.336-.57Z"/>
      <path class="cls-3" d="M205.862,204.409c-.401-.401-1.051-.401-1.452,0s-.401,1.051,0,1.452l33.036,33.036c.467-.497.946-.989,1.424-1.48l-33.008-33.008Z"/>
      <path class="cls-3" d="M206.68,277.324c-.516-.223-1.125.016-1.348.542-.223.522.02,1.125.542,1.348l5.29,2.259c.247-.637.494-1.273.752-1.913l-5.236-2.236Z"/>
    </g>
  </g>
</svg>