<?xml version="1.0" encoding="UTF-8"?>
<svg id="Option_4" data-name="Option 4" xmlns="http://www.w3.org/2000/svg" viewBox="0 0 400 400">
  <defs>
    <style>
      .cls-1 {
        fill: #231f20;
      }
    </style>
  </defs>
  <g id="Logo_4" data-name="Logo 4">
    <g>
      <path class="cls-1" d="M377.486,285.816c-10.012,3.476-20.856,3.678-31.059.415l-74.386-23.806c-1.117-.357-2.241-.647-3.364-.939-4.432-1.154-8.906-1.798-13.35-1.965-13.295-.499-26.325,3.332-37.23,10.931-4.684,3.264-8.983,7.212-12.731,11.827l-4.724,5.815-.64.789h0s-.64-.788-.64-.788l-4.724-5.815c-3.749-4.613-8.047-8.561-12.73-11.824-10.907-7.6-23.938-11.431-37.232-10.932-4.445.167-8.918.812-13.351,1.966-1.123.292-2.247.582-3.363.939l-74.387,23.803c-10.202,3.268-21.047,3.065-31.059-.413-.977,4.08-1.816,8.212-2.514,12.394,12.114,3.839,25.129,3.853,37.385-.066l73.939-23.661.449-.144c6.449-2.062,13.051-2.726,19.472-2.153,12.921,1.153,25.089,7.404,33.681,17.98l8.309,10.228,1.911,2.352c.583.717,1.312,1.282,2.123,1.676.842.409,1.772.634,2.732.634h0c.959,0,1.89-.225,2.732-.634.811-.394,1.54-.959,2.123-1.676l1.911-2.352,8.309-10.227c8.592-10.577,20.759-16.83,33.681-17.982,6.42-.572,13.022.093,19.472,2.155l.448.143,73.938,23.663c12.263,3.923,25.274,3.904,37.385.065-.699-4.181-1.537-8.315-2.514-12.395Z"/>
      <g>
        <g>
          <path class="cls-1" d="M248.214,150.314c12.111,14.068,26.263,26.09,42.084,35.754,5.52-3.115,11.248-5.974,17.053-8.512.671-.297,1.398-.45,2.147-.45,1.155,0,2.3.382,3.222,1.077,2.392,1.797,4.771,3.677,7.115,5.624.07-2.578.242-5.226.523-8.042,1.601-16.058,6.707-31.527,14.89-45.296-9.778,2.791-19.916,4.202-30.256,4.202-10.519,0-20.983-1.506-31.104-4.476-2.611-.766-4.922-1.521-7.062-2.309-16.707-6.158-31.868-16.443-43.847-29.744-1.828-2.032-4.396-3.196-7.045-3.196-1.526,0-3.043.392-4.388,1.133-.521.288-1.007.617-1.44.977l-3.274,2.72c1.977,15.371,5.962,30.391,11.855,44.673,2.889,7.009,6.252,13.87,10.026,20.464,3.555-5.056,7.366-9.95,11.373-14.603,1.022-1.185,2.502-1.863,4.063-1.863s3.048.681,4.066,1.867Z"/>
          <path class="cls-1" d="M352.855,266.145c.294.094.589.183.885.267-1.966-1.894-3.871-3.866-5.705-5.908-12.863-14.311-21.781-31.783-25.789-50.528-.751-3.508-1.333-7.094-1.739-10.695-3.282,2.041-6.5,4.191-9.609,6.42-10.217,7.323-19.678,15.751-28.12,25.051-2.998,3.303-5.903,6.761-8.675,10.324,1.484.386,2.942.808,4.365,1.264l74.387,23.804Z"/>
        </g>
        <g>
          <path class="cls-1" d="M193.17,99.777l-3.279-2.724c-.434-.361-.914-.687-1.431-.971-1.348-.744-2.865-1.135-4.392-1.136-2.65,0-5.219,1.164-7.047,3.195-11.974,13.298-27.135,23.583-43.843,29.743-2.142.789-4.453,1.544-7.065,2.31-10.122,2.97-20.587,4.476-31.104,4.476-10.341,0-20.478-1.41-30.258-4.202,8.184,13.769,13.289,29.238,14.89,45.294.281,2.823.453,5.462.523,8.044,2.355-1.955,4.735-3.837,7.118-5.626.925-.693,2.067-1.075,3.219-1.075.749,0,1.476.154,2.161.456,5.782,2.526,11.509,5.385,17.041,8.507,15.821-9.664,29.973-21.686,42.088-35.758.999-1.164,2.481-1.834,4.062-1.834s3.058.667,4.062,1.831c4.008,4.654,7.82,9.549,11.375,14.605,3.774-6.592,7.137-13.454,10.026-20.462,5.894-14.287,9.879-29.306,11.854-44.674Z"/>
          <path class="cls-1" d="M125.898,241.078c-2.771-3.562-5.676-7.02-8.675-10.325-8.439-9.296-17.9-17.724-28.12-25.05-3.105-2.224-6.324-4.375-9.61-6.42-.407,3.607-.99,7.193-1.74,10.696-4.009,18.744-12.926,36.216-25.79,50.528-1.834,2.041-3.739,4.014-5.704,5.907.296-.084.59-.173.883-.267l74.389-23.805c1.42-.455,2.879-.877,4.365-1.263Z"/>
        </g>
      </g>
      <path class="cls-1" d="M212.5,148.197c-8.353-.569-16.642-.569-25,0-3.883,9.255-8.541,18.223-13.862,26.695,13.801,21.963,22.775,46.66,26.363,72.316,3.588-25.656,12.562-50.353,26.363-72.316-5.319-8.468-9.979-17.44-13.864-26.695Z"/>
      <path class="cls-1" d="M228.505,178.218c-15.29,24.846-24.332,53.176-26.297,82.353,8.429-7.171,18.033-12.366,28.609-15.469,8.009-11.585,17.346-22.25,27.78-31.733-11.478-10.435-21.586-22.241-30.092-35.15Z"/>
      <path class="cls-1" d="M141.402,213.368c10.436,9.485,19.773,20.15,27.782,31.735,10.428,3.063,20.229,8.372,28.609,15.475-1.963-29.18-11.005-57.511-26.297-82.359-8.504,12.906-18.613,24.714-30.094,35.15Z"/>
      <path class="cls-1" d="M236.167,243.734c9.061-1.981,18.475-2.358,27.817-1.044,3.78-5.286,7.857-10.4,12.148-15.234-5.129-3.632-10.112-7.557-14.85-11.698-9.314,8.431-17.743,17.82-25.115,27.976Z"/>
      <path class="cls-1" d="M188.996,144.521c3.682-.218,7.372-.328,11.003-.328s7.323.11,11.005.328c-5.309-13.468-9-27.529-11.003-41.897-2.005,14.372-5.696,28.429-11.005,41.897Z"/>
      <path class="cls-1" d="M138.72,215.759c-4.733,4.138-9.717,8.063-14.85,11.698,4.295,4.839,8.373,9.955,12.148,15.234,3.656-.513,7.342-.773,10.969-.773,5.679,0,11.326.611,16.848,1.817-7.372-10.155-15.799-19.543-25.115-27.976Z"/>
      <path class="cls-1" d="M244.163,156.547c-4.888,5.812-9.442,11.97-13.56,18.344,8.59,13.297,18.902,25.424,30.679,36.086,7.939-6.939,16.492-13.213,25.482-18.693-15.941-9.71-30.255-21.717-42.6-35.736Z"/>
      <path class="cls-1" d="M278.549,224.788c7.815-8.464,16.449-16.218,25.712-23.092-4.736-2.227-9.435-4.688-14.01-7.34-9.281,5.524-18.106,11.911-26.272,19.012,4.651,4.044,9.539,7.876,14.571,11.421Z"/>
      <path class="cls-1" d="M293.826,192.284c4.503,2.543,9.112,4.892,13.749,7.009,3.541-2.508,7.222-4.921,10.976-7.197-3.033-2.64-6.148-5.178-9.291-7.569-5.253,2.333-10.429,4.935-15.433,7.757Z"/>
      <path class="cls-1" d="M113.238,192.284c8.99,5.48,17.543,11.754,25.482,18.693,11.778-10.663,22.091-22.792,30.679-36.086-4.119-6.373-8.672-12.532-13.56-18.346-12.349,14.023-26.661,26.03-42.6,35.738Z"/>
      <path class="cls-1" d="M95.741,201.696c9.265,6.878,17.899,14.63,25.712,23.092,5.035-3.548,9.923-7.38,14.571-11.421-8.166-7.101-16.991-13.489-26.272-19.012-4.574,2.651-9.271,5.112-14.01,7.34Z"/>
      <path class="cls-1" d="M92.427,199.293c4.64-2.119,9.25-4.468,13.749-7.009-5.01-2.825-10.187-5.429-15.433-7.757-3.133,2.38-6.248,4.918-9.293,7.567,3.761,2.281,7.442,4.695,10.977,7.199Z"/>
    </g>
  </g>
</svg>