<?xml version="1.0" encoding="UTF-8"?>
<svg id="Option_5" data-name="Option 5" xmlns="http://www.w3.org/2000/svg" viewBox="0 0 400 400">
  <defs>
    <style>
      .cls-1 {
        fill: #231f20;
      }
    </style>
  </defs>
  <path class="cls-1" d="M201.854,207.473V40.427l-4.43,1.187v33.159l-18.834,5.046-1.056.283v10.998h0s-20.521-5.499-20.521-5.499h0l-1.055.283-20.521,5.499-1.055.283v14.799l-20.522,5.499v-13.705l20.521,5.499v-1.094l-20.521-5.499-1.055.283-20.521,5.499-1.056.283v14.799l-20.521,5.499-1.056.283v119.087l-29.219,7.829-.432.115v4.291l.006.023,157.418-42.181v146.599l4.43-1.187v-36.274l18.834,5.046c1.898-.514,10.313-2.759,16.995-4.554,2.705-.725,4.581-3.175,4.581-5.975v-101.8l2.111-.56v95.827c4.263,1.143,19.398,5.196,19.994,5.357,1.288-.346,10.303-2.761,16.468-4.413,2.705-.725,4.581-3.175,4.581-5.975v-101.8l2.111-.564v95.831c4.262,1.142,19.416,5.202,19.994,5.357,1.358-.364,11.39-3.052,17.526-4.696,2.705-.725,4.579-3.174,4.579-5.974v-115.67l29.214-7.828,1.158-.303v-4.318l-158.146,42.373ZM88.061,184.842l-14.188,3.802v-22.392l14.188-3.802v22.392ZM131.214,173.279l-14.189,3.802v-22.392l14.189-3.802v22.392ZM174.368,161.716l-14.188,3.802v-22.392l14.188-3.802v22.392ZM177.534,94.902l-20.521,5.499v-13.705l20.521,5.499h0v2.708Z"/>
</svg>