<?xml version="1.0" encoding="UTF-8"?>
<svg id="Layer_1" data-name="Layer 1" xmlns="http://www.w3.org/2000/svg" viewBox="0 0 800 800">
  <defs>
    <style>
      .cls-1 {
        fill: #fff;
      }
    </style>
  </defs>
  <path d="M307.403,388.599c-24.103,5.698-46.216,18.13-62.906,36.429-7.238,7.936-14.193,17.608-19.871,29.291-37.811,86.879-7.996,222.737-76.409,276.417,45.181,25.868,92.828,38.25,139.076,42.176l-24.613-297.619,236.337-20.395c128.595,285.219-107.742,275.33-107.742,275.33l9.671,37.262c92.445-15.557,160.861-52.17,160.861-52.17,0,0,32.802-394.619-254.403-326.72Z"/>
  <path class="cls-1" d="M406.914,790.485l-15.64-60.258s236.337,9.888,107.742-275.33l-236.337,20.395,26.067,315.193c-5.32,14.843,119.348,10.331,118.169,0Z"/>
  <g>
    <path d="M444.258,604.56c-2.21,0-4.385-1.044-5.746-2.994-2.213-3.17-1.437-7.534,1.733-9.747l5.918-4.131c6.517-4.549,8.79-13.07,5.405-20.261l-20.445-43.438c-1.646-3.498-.145-7.669,3.353-9.315,3.502-1.648,7.668-.144,9.315,3.353l20.445,43.438c6.298,13.382,2.067,29.238-10.06,37.704l-5.918,4.131c-1.221.852-2.617,1.261-4.001,1.261Z"/>
    <rect x="328.263" y="524.654" width="64.015" height="17.545" rx="8.773" ry="8.773" transform="translate(-52.193 39.248) rotate(-5.815)"/>
    <rect x="431.56" y="511.379" width="64.015" height="17.545" rx="8.773" ry="8.773" transform="translate(-50.317 49.646) rotate(-5.815)"/>
    <path d="M395.991,733.602c-.057,0-.112,0-.169-.003-2.76-.092-4.923-2.403-4.831-5.163l1.124-33.771c.645-19.341-3.733-38.641-12.66-55.812-11.347-21.828-15.856-46.283-13.042-70.723l4.516-39.208c.314-2.742,2.783-4.712,5.539-4.395,2.743.315,4.711,2.796,4.395,5.539l-4.516,39.208c-2.585,22.449,1.559,44.914,11.981,64.965,9.718,18.693,14.483,39.703,13.781,60.758l-1.124,33.77c-.09,2.703-2.31,4.834-4.994,4.834Z"/>
    <path d="M364.523,735.528c-.057,0-.112,0-.169-.003-2.761-.092-4.923-2.403-4.831-5.163l1.125-33.771c.644-19.344-3.734-38.643-12.66-55.812-11.347-21.827-15.857-46.283-13.043-70.723l4.516-39.208c.314-2.742,2.78-4.717,5.539-4.395,2.743.315,4.711,2.796,4.395,5.539l-4.516,39.208c-2.585,22.45,1.559,44.915,11.982,64.965,9.717,18.69,14.482,39.7,13.781,60.757l-1.125,33.771c-.09,2.703-2.31,4.834-4.994,4.834Z"/>
    <path d="M511.277,687.597c-2.745,0-4.979-2.215-4.999-4.965-.137-19.354-5.29-38.461-14.901-55.255-12.218-21.353-17.711-45.605-15.885-70.139l2.931-39.358c.205-2.754,2.603-4.809,5.357-4.615,2.754.205,4.82,2.604,4.615,5.357l-2.931,39.358c-1.678,22.536,3.368,44.815,14.592,64.43,10.463,18.282,16.072,39.082,16.222,60.151.02,2.761-2.203,5.016-4.965,5.035h-.036Z"/>
    <path d="M480.072,713.382c-2.745,0-4.979-2.216-4.999-4.965l-.159-22.591c-.136-19.352-5.288-38.459-14.9-55.255-5.868-10.254-10.221-21.285-12.937-32.785-.635-2.688,1.029-5.381,3.717-6.016,2.693-.634,5.381,1.03,6.016,3.717,2.495,10.564,6.493,20.697,11.884,30.117,10.463,18.284,16.072,39.085,16.221,60.151l.159,22.591c.02,2.762-2.203,5.016-4.965,5.035h-.036Z"/>
  </g>
</svg>