<?xml version="1.0" encoding="UTF-8"?>
<svg id="Layer_1" data-name="Layer 1" xmlns="http://www.w3.org/2000/svg" viewBox="0 0 800 800">
  <defs>
    <style>
      .cls-1 {
        fill: #fff;
      }
    </style>
  </defs>
  <path d="M307.403,388.599c-24.103,5.698-46.216,18.13-62.906,36.429-7.238,7.936-14.193,17.608-19.871,29.291-37.811,86.879-7.996,222.737-76.409,276.417,45.181,25.868,92.828,38.25,139.076,42.176l-24.613-297.619,236.337-20.395c128.595,285.219-107.742,275.33-107.742,275.33l9.671,37.262c92.445-15.557,160.861-52.17,160.861-52.17,0,0,32.802-394.619-254.403-326.72Z"/>
  <path class="cls-1" d="M406.914,790.485l-15.64-60.258s236.337,9.888,107.742-275.33l-236.337,20.395,26.067,315.193c-5.32,14.843,119.348,10.331,118.169,0Z"/>
  <g>
    <path d="M444.258,604.56c-2.21,0-4.385-1.044-5.746-2.994-2.213-3.17-1.437-7.534,1.733-9.747l5.918-4.131c6.517-4.549,8.79-13.07,5.405-20.261l-20.445-43.438c-1.646-3.498-.145-7.669,3.353-9.315,3.502-1.648,7.668-.144,9.315,3.353l20.445,43.438c6.298,13.382,2.067,29.238-10.06,37.704l-5.918,4.131c-1.221.852-2.617,1.261-4.001,1.261Z"/>
    <rect x="328.263" y="524.654" width="64.015" height="17.545" rx="8.773" ry="8.773" transform="translate(-52.193 39.248) rotate(-5.815)"/>
    <rect x="328.263" y="524.654" width="64.015" height="17.545" rx="8.773" ry="8.773" transform="translate(854.449 120.964) rotate(84.185)"/>
    <rect x="431.56" y="511.379" width="64.015" height="17.545" rx="8.773" ry="8.773" transform="translate(-50.317 49.646) rotate(-5.815)"/>
    <path d="M437.347,651.7c-20.561,0-40.349-9.681-52.965-25.92-3.049-3.926-2.339-9.579,1.586-12.629,3.926-3.049,9.579-2.339,12.629,1.586,9.256,11.915,23.79,19.042,38.879,18.963l31.921-.088h.025c4.959,0,8.985,4.013,8.999,8.976.014,4.97-4.005,9.011-8.976,9.024l-31.921.088h-.178Z"/>
  </g>
</svg>