<?xml version="1.0" encoding="UTF-8"?>
<svg id="Layer_1" data-name="Layer 1" xmlns="http://www.w3.org/2000/svg" viewBox="0 0 800 800">
  <defs>
    <style>
      .cls-1 {
        fill: #070707;
      }

      .cls-2 {
        fill: #fff;
      }
    </style>
  </defs>
  <path d="M307.403,388.599c-24.103,5.698-46.216,18.13-62.906,36.429-7.238,7.936-14.193,17.608-19.871,29.291-37.811,86.879-7.996,222.737-76.409,276.417,45.181,25.868,92.828,38.25,139.076,42.176l-24.613-297.619,236.337-20.395c128.595,285.219-107.742,275.33-107.742,275.33l9.671,37.262c92.445-15.557,160.861-52.17,160.861-52.17,0,0,32.802-394.619-254.403-326.72Z"/>
  <path class="cls-2" d="M406.914,790.485l-15.64-60.258s236.337,9.888,107.742-275.33l-236.337,20.395,26.067,315.193c-5.32,14.843,119.348,10.331,118.169,0Z"/>
  <g>
    <path class="cls-1" d="M444.3,604.753c-2.21,0-4.385-1.044-5.746-2.994-2.213-3.17-1.437-7.534,1.733-9.747l5.918-4.131c6.517-4.549,8.79-13.07,5.405-20.261l-20.445-43.438c-1.646-3.498-.145-7.669,3.353-9.315,3.502-1.648,7.668-.144,9.315,3.353l20.445,43.438c6.298,13.382,2.067,29.238-10.06,37.704l-5.918,4.131c-1.221.852-2.617,1.261-4.001,1.261Z"/>
    <ellipse class="cls-1" cx="373.138" cy="523.719" rx="10.202" ry="14.205" transform="translate(-88.605 76.162) rotate(-10.425)"/>
    <ellipse class="cls-1" cx="467.178" cy="514.198" rx="10.202" ry="14.205" transform="translate(-85.33 93.022) rotate(-10.425)"/>
    <path class="cls-1" d="M427.087,638.627c-27.876,0-59.63-9.104-94.913-27.265-3.438-1.769-4.79-5.989-3.021-9.427,1.768-3.438,5.989-4.794,9.427-3.021,49.49,25.472,90.834,32.064,122.883,19.597,33.388-12.99,44.815-43.073,44.927-43.376,1.335-3.619,5.347-5.487,8.974-4.162,3.623,1.323,5.496,5.319,4.184,8.946-.53,1.467-13.453,36.109-52.731,51.531-12.188,4.785-25.452,7.176-39.729,7.176Z"/>
  </g>
</svg>