<?xml version="1.0" encoding="UTF-8"?>
<svg id="Layer_1" xmlns="http://www.w3.org/2000/svg" version="1.1" viewBox="0 0 800 800">
  <!-- Generator: Adobe Illustrator 30.1.0, SVG Export Plug-In . SVG Version: 2.1.1 Build 136)  -->
  <defs>
    <style>
      .st0 {
        fill: #070707;
      }

      .st1 {
        fill: #fff;
      }
    </style>
  </defs>
  <g>
    <polygon points="260 362.7 247.3 342.5 192.6 390.1 204.5 410 260 362.7"/>
    <polygon points="241.2 332.9 154 169.8 50 251.5 185.7 380.1 241.2 332.9"/>
  </g>
  <path class="st1" d="M406.9,790.5l-15.6-60.3s236.3,9.9,107.7-275.3l-236.3,20.4,26.1,315.2c-5.3,14.8,119.3,10.3,118.2,0Z"/>
  <path d="M290.5,393c-9.9,2.8-20.5,1.1-26.5-7.2l-5.2-7.3-42.3,34.6,8.8,25.2c1.8,5.2,1.6,10.9-.6,16-37.8,86.9-8,222.7-76.4,276.4,45.2,25.9,92.8,38.2,139.1,42.2l-24.6-297.6,236.3-20.4c128.6,285.2-107.7,275.3-107.7,275.3l9.7,37.3c92.4-15.6,160.9-52.2,160.9-52.2,0,0,34.1-409.9-271.3-322.3Z"/>
  <g>
    <path class="st0" d="M444.3,604.8c-2.2,0-4.4-1-5.7-3-2.2-3.2-1.4-7.5,1.7-9.7l5.9-4.1c6.5-4.5,8.8-13.1,5.4-20.3l-20.4-43.4c-1.6-3.5-.1-7.7,3.4-9.3,3.5-1.6,7.7-.1,9.3,3.4l20.4,43.4c6.3,13.4,2.1,29.2-10.1,37.7l-5.9,4.1c-1.2.9-2.6,1.3-4,1.3Z"/>
    <ellipse class="st0" cx="436.5" cy="649.9" rx="20.4" ry="28.4" transform="translate(-110.4 89.7) rotate(-10.4)"/>
    <ellipse class="st0" cx="373.1" cy="523.7" rx="10.2" ry="14.2" transform="translate(-88.6 76.2) rotate(-10.4)"/>
    <ellipse class="st0" cx="467.2" cy="514.2" rx="10.2" ry="14.2" transform="translate(-85.3 93) rotate(-10.4)"/>
  </g>
</svg>