<?xml version="1.0" encoding="UTF-8"?>
<svg id="Layer_1" xmlns="http://www.w3.org/2000/svg" version="1.1" viewBox="0 0 800 800">
  <!-- Generator: Adobe Illustrator 30.1.0, SVG Export Plug-In . SVG Version: 2.1.1 Build 136)  -->
  <defs>
    <style>
      .st0 {
        fill: #fff;
      }
    </style>
  </defs>
  <path class="st0" d="M406.9,790.5l-15.6-60.3s236.3,9.9,107.7-275.3l-236.3,20.4,26.1,315.2c-5.3,14.8,119.3,10.3,118.2,0Z"/>
  <g>
    <path d="M358.7,549c-8.8,0-17.9-3.3-27.3-9.8-3.4-2.4-4.2-7-1.9-10.4,2.4-3.4,7-4.2,10.4-1.9,8.6,6,16.4,8.2,23.2,6.6,9.7-2.2,15-11.6,15-11.7,2-3.6,6.5-4.9,10.1-3,3.6,2,5,6.5,3,10.1-.3.6-8.4,15.3-24.6,19.1-2.6.6-5.3.9-8,.9Z"/>
    <path d="M460.8,536.6c-8.8,0-17.9-3.3-27.3-9.8-3.4-2.4-4.2-7-1.9-10.4,2.4-3.4,7-4.2,10.4-1.9,8.6,6,16.4,8.2,23.2,6.6,9.7-2.2,15-11.6,15-11.7,2-3.6,6.5-4.9,10.1-3,3.6,2,5,6.5,3,10.1-.3.6-8.4,15.3-24.6,19.1-2.6.6-5.3.9-8,.9Z"/>
    <path d="M444.3,604.6c-2.2,0-4.4-1-5.7-3-2.2-3.2-1.4-7.5,1.7-9.7l5.9-4.1c6.5-4.5,8.8-13.1,5.4-20.3l-20.4-43.4c-1.6-3.5-.1-7.7,3.4-9.3,3.5-1.6,7.7-.1,9.3,3.4l20.4,43.4c6.3,13.4,2.1,29.2-10.1,37.7l-5.9,4.1c-1.2.9-2.6,1.3-4,1.3Z"/>
  </g>
</svg>