<?xml version="1.0" encoding="UTF-8"?>
<svg id="Layer_2" xmlns="http://www.w3.org/2000/svg" version="1.1" viewBox="0 0 139.3 153">
  <!-- Generator: Adobe Illustrator 30.1.0, SVG Export Plug-In . SVG Version: 2.1.1 Build 136)  -->
  <defs>
    <style>
      .st0 {
        fill: #070707;
      }

      .st1 {
        fill: #fff;
      }
    </style>
  </defs>
  <g id="Working_Layer">
    <g>
      <g>
        <polygon class="st0" points="38.2 6.8 34 0 15.6 16 19.6 22.7 38.2 6.8"/>
        <path class="st0" d="M47.8,16.3c-3.3,1-6.9.4-8.9-2.4l-1.8-2.5-14.2,11.6,3,8.5c.6,1.8.5,3.7-.2,5.4-12.7,29.2-2.7,74.8-25.7,92.9,62.5,35.8,139-5.2,139-5.2,0,0,11.4-137.7-91.2-108.3h0Z"/>
      </g>
      <path class="st1" d="M86.9,149.8l-5.3-20.2s79.4,3.3,36.2-92.5l-79.4,6.9,8.8,105.9c-1.8,5,40.1,3.5,39.7,0h0Z"/>
      <g>
        <path class="st0" d="M70.7,68.7c-2.9,0-6-1.1-9.2-3.3-1.1-.8-1.4-2.4-.6-3.5s2.4-1.4,3.5-.6c2.9,2,5.5,2.8,7.8,2.2,3.3-.8,5-3.9,5.1-3.9.7-1.2,2.2-1.7,3.4-1s1.7,2.2,1,3.4c0,.2-2.8,5.1-8.3,6.4-.9.2-1.8.3-2.7.3Z"/>
        <path class="st0" d="M105,64.5c-2.9,0-6-1.1-9.2-3.3-1.1-.8-1.4-2.4-.6-3.5s2.4-1.4,3.5-.6c2.9,2,5.5,2.8,7.8,2.2,3.3-.8,5-3.9,5.1-3.9.7-1.2,2.2-1.7,3.4-1s1.7,2.2,1,3.4c0,.2-2.8,5.1-8.3,6.4-.9.2-1.8.3-2.7.3Z"/>
        <path class="st0" d="M91.8,106.8c-2.9,0-6-1.1-9.2-3.3-1.1-.8-1.4-2.4-.6-3.5s2.4-1.4,3.5-.6c2.9,2,5.5,2.8,7.8,2.2,3.3-.8,5-3.9,5.1-3.9.7-1.2,2.2-1.7,3.4-1,1.2.7,1.7,2.2,1,3.4,0,.2-2.8,5.1-8.3,6.4-.9.2-1.8.3-2.7.3Z"/>
        <path class="st0" d="M99.5,87.4c-.7,0-1.5-.4-1.9-1-.7-1.1-.5-2.5.6-3.3l2-1.4c2.2-1.5,3-4.4,1.8-6.8l-6.9-14.6c-.6-1.2,0-2.6,1.1-3.1,1.2-.6,2.6,0,3.1,1.1l6.9,14.6c2.1,4.5.7,9.8-3.4,12.7l-2,1.4c-.4.3-.9.4-1.3.4h0Z"/>
      </g>
    </g>
  </g>
</svg>