<?xml version="1.0" encoding="UTF-8"?>
<svg id="Layer_2" xmlns="http://www.w3.org/2000/svg" version="1.1" viewBox="0 0 139.3 153">
  <!-- Generator: Adobe Illustrator 30.1.0, SVG Export Plug-In . SVG Version: 2.1.1 Build 136)  -->
  <defs>
    <style>
      .st0 {
        fill: none;
        stroke-linecap: round;
        stroke-linejoin: round;
        stroke-width: 6px;
      }

      .st0, .st1 {
        stroke: #000;
      }

      .st2 {
        fill: #fff;
      }

      .st1 {
        stroke-miterlimit: 10;
        stroke-width: 4px;
      }
    </style>
  </defs>
  <g>
    <path d="M53.5,14.7c-8.1,1.9-15.5,6.1-21.1,12.2-2.4,2.7-4.8,5.9-6.7,9.8C12.9,66,23,111.7,0,129.7c15.2,8.7,31.2,12.9,46.7,14.2l-8.3-100,79.4-6.9c43.2,95.9-36.2,92.5-36.2,92.5l3.3,12.5c31.1-5.2,54.1-17.5,54.1-17.5,0,0,11-132.6-85.5-109.8Z"/>
    <path class="st2" d="M86.9,149.8l-5.3-20.3s79.4,3.3,36.2-92.5l-79.4,6.9,8.8,105.9c-1.8,5,40.1,3.5,39.7,0Z"/>
    <g>
      <path d="M99.5,87.3c-.7,0-1.5-.4-1.9-1-.7-1.1-.5-2.5.6-3.3l2-1.4c2.2-1.5,3-4.4,1.8-6.8l-6.9-14.6c-.6-1.2,0-2.6,1.1-3.1,1.2-.6,2.6,0,3.1,1.1l6.9,14.6c2.1,4.5.7,9.8-3.4,12.7l-2,1.4c-.4.3-.9.4-1.3.4Z"/>
      <line class="st0" x1="113.6" y1="93.4" x2="71.2" y2="97.8"/>
      <path d="M74.4,95.5h21.4v7.5c0,5.9-4.8,10.7-10.7,10.7h0c-5.9,0-10.7-4.8-10.7-10.7v-7.5h0Z" transform="translate(-10.2 9.2) rotate(-5.8)"/>
    </g>
  </g>
  <path d="M55.4,52.3l29.7-1.3c3.1-.1,5.4,2.8,4.5,5.8l-3.1,10.2c-.5,1.7-2,2.9-3.8,3.2l-18.7,2.2c-1.6.2-3.2-.5-4.2-1.9l-7.9-11.1c-2.1-2.9,0-6.9,3.5-7.1Z"/>
  <path d="M132.4,43.7l-29.3,5.4c-3,.6-4.6,4-3.1,6.6l5.3,9.3c.9,1.5,2.6,2.4,4.4,2.2l18.7-2c1.6-.2,3-1.2,3.7-2.7l5.2-12.6c1.4-3.3-1.5-6.8-5-6.1Z"/>
  <line class="st1" x1="54.3" y1="59" x2="35.9" y2="75.5"/>
</svg>