<?xml version="1.0" encoding="UTF-8"?>
<svg id="Layer_2" xmlns="http://www.w3.org/2000/svg" version="1.1" viewBox="0 0 139.3 153">
  <!-- Generator: Adobe Illustrator 30.1.0, SVG Export Plug-In . SVG Version: 2.1.1 Build 136)  -->
  <defs>
    <style>
      .st0 {
        fill: #070707;
      }

      .st1 {
        fill: #fff;
      }
    </style>
  </defs>
  <path d="M53.5,14.7c-8.1,1.9-15.5,6.1-21.1,12.2-2.4,2.7-4.8,5.9-6.7,9.8C12.9,66,23,111.7,0,129.7c15.2,8.7,31.2,12.9,46.7,14.2l-8.3-100,79.4-6.9c43.2,95.9-36.2,92.5-36.2,92.5l3.3,12.5c31.1-5.2,54.1-17.5,54.1-17.5,0,0,11-132.6-85.5-109.8Z"/>
  <path class="st1" d="M86.9,149.8l-5.3-20.3s79.4,3.3,36.2-92.5l-79.4,6.9,8.8,105.9c-1.8,5,40.1,3.5,39.7,0Z"/>
  <g>
    <path class="st0" d="M99.5,87.4c-.7,0-1.5-.4-1.9-1-.7-1.1-.5-2.5.6-3.3l2-1.4c2.2-1.5,3-4.4,1.8-6.8l-6.9-14.6c-.6-1.2,0-2.6,1.1-3.1,1.2-.6,2.6,0,3.1,1.1l6.9,14.6c2.1,4.5.7,9.8-3.4,12.7l-2,1.4c-.4.3-.9.4-1.3.4Z"/>
    <ellipse class="st0" cx="75.6" cy="60.1" rx="3.4" ry="4.8" transform="translate(-9.6 14.7) rotate(-10.4)"/>
    <ellipse class="st0" cx="107.2" cy="57" rx="3.4" ry="4.8" transform="translate(-8.5 20.3) rotate(-10.4)"/>
    <path class="st0" d="M93.7,98.8c-9.4,0-20-3.1-31.9-9.2-1.2-.6-1.6-2-1-3.2.6-1.2,2-1.6,3.2-1,16.6,8.6,30.5,10.8,41.3,6.6,11.2-4.4,15.1-14.5,15.1-14.6.4-1.2,1.8-1.8,3-1.4,1.2.4,1.8,1.8,1.4,3-.2.5-4.5,12.1-17.7,17.3-4.1,1.6-8.6,2.4-13.4,2.4Z"/>
  </g>
</svg>