<?xml version="1.0" encoding="UTF-8"?>
<svg id="Layer_1" data-name="Layer 1" xmlns="http://www.w3.org/2000/svg" viewBox="0 0 600 600">
  <defs>
    <style>
      .cls-1 {
        fill: #070707;
      }
    </style>
  </defs>
  <path class="cls-1" d="M414.843,368.269c5.081,0,9.199-4.119,9.199-9.2v-2.119h1.523c9.539,0,17.299-7.761,17.299-17.3s-7.76-17.3-17.299-17.3h-1.523v-6.938h-42.896v43.657c0,5.081,4.119,9.2,9.2,9.2H80.333v36.197h439.334v-36.197h-104.824ZM424.042,329.351h1.523c5.679,0,10.299,4.62,10.299,10.3s-4.62,10.3-10.299,10.3h-1.523v-20.6Z"/>
  <rect class="cls-1" x="110.947" y="409.406" width="27.562" height="190.594"/>
  <path class="cls-1" d="M345.303,590.536c0,5.227,4.237,9.464,9.464,9.464h124.823c5.227,0,9.463-4.237,9.463-9.464v-181.131h-143.75v181.131ZM357.154,459.463h120.049c2.213,0,4.007,1.794,4.007,4.007s-1.794,4.007-4.007,4.007h-120.049c-2.213,0-4.007-1.794-4.007-4.007s1.794-4.007,4.007-4.007ZM357.154,529.732h120.049c2.213,0,4.007,1.794,4.007,4.007s-1.794,4.007-4.007,4.007h-120.049c-2.213,0-4.007-1.794-4.007-4.007s1.794-4.007,4.007-4.007Z"/>
  <path class="cls-1" d="M139.595,343.245h175.945c9.98,0,18.071-8.09,18.071-18.07v-105.261c0-9.98-8.091-18.07-18.071-18.07h-175.945c-9.98,0-18.07,8.09-18.07,18.07v105.261c0,9.98,8.09,18.07,18.07,18.07ZM129.524,219.914c0-5.562,4.509-10.07,10.07-10.07h175.945c5.562,0,10.07,4.509,10.07,10.07v95.499h-196.086v-95.499Z"/>
  <rect class="cls-1" x="192.845" y="348.043" width="69.445" height="15.428"/>
</svg>