<?xml version="1.0" encoding="UTF-8"?>
<svg id="Layer_1" data-name="Layer 1" xmlns="http://www.w3.org/2000/svg" viewBox="0 0 600 600">
  <defs>
    <style>
      .cls-1 {
        fill: #070707;
      }

      .cls-2 {
        fill: #fff;
      }
    </style>
  </defs>
  <g>
    <rect class="cls-1" x="65.358" y="585.928" width="84.746" height="14.072"/>
    <rect class="cls-1" x="100.695" y="282.23" width="14.072" height="294.979"/>
    <polygon class="cls-1" points="150.104 183.796 63.636 183.796 43.234 274.618 170.505 274.618 150.104 183.796"/>
  </g>
  <g>
    <path class="cls-1" d="M226.365,442.119c.667,4.015,2.264,7.819,4.662,11.108l20.393,27.967c5.923,8.124,15.463,12.975,25.518,12.975h116.566c10.055,0,19.595-4.85,25.519-12.975l20.392-27.966c2.398-3.289,3.994-7.093,4.662-11.108l12.113-72.9c2.572-15.482-9.368-29.569-25.062-29.569h-191.814c-15.694,0-27.634,14.088-25.062,29.569l12.113,72.899Z"/>
    <path class="cls-1" d="M478.677,452.12h-19.544c-6.195,0-12.017,2.96-15.666,7.965l-18.533,25.417c-7.296,10.006-19.045,15.98-31.429,15.98h-116.566c-12.384,0-24.132-5.973-31.428-15.98l-18.533-25.417c-3.65-5.005-9.472-7.966-15.666-7.966h-19.545c-15.872,0-26.132,21.165-18.898,38.985l38.285,94.319c3.632,8.947,10.929,14.575,18.898,14.575h210.342c7.969,0,15.266-5.628,18.898-14.575l38.285-94.319c7.233-17.82-3.026-38.985-18.898-38.985Z"/>
  </g>
  <g>
    <path class="cls-1" d="M335.874,159.172v130.171h189.693v-130.171h-189.693ZM513.567,277.342h-165.693v-106.171h165.693v106.171Z"/>
    <g id="Working_Layer" data-name="Working Layer">
      <g>
        <g>
          <polygon class="cls-1" points="409.418 182.047 406.888 178.025 395.981 187.497 398.348 191.466 409.418 182.047"/>
          <path class="cls-1" d="M415.086,187.688c-1.974.566-4.081.228-5.279-1.441l-1.046-1.457-8.42,6.9,1.752,5.026c.362,1.04.31,2.174-.129,3.184-7.534,17.311-1.593,44.382-15.225,55.078,37.043,21.209,82.411-3.072,82.411-3.072,0,0,6.79-81.684-54.065-64.217h0Z"/>
        </g>
        <path class="cls-2" d="M438.288,266.883l-3.117-12.007s47.092,1.97,21.469-54.862l-47.092,4.064,5.194,62.805c-1.06,2.958,23.781,2.058,23.546,0h0Z"/>
        <g>
          <path class="cls-1" d="M428.691,218.76c-1.747,0-3.569-.654-5.437-1.956-.676-.471-.842-1.4-.371-2.076s1.401-.842,2.076-.371c1.707,1.19,3.261,1.633,4.616,1.318,1.929-.448,2.984-2.32,2.995-2.339.397-.718,1.301-.984,2.021-.591s.99,1.288.603,2.01c-.066.124-1.665,3.041-4.9,3.816-.527.126-1.061.189-1.602.189Z"/>
          <path class="cls-1" d="M449.033,216.285c-1.747,0-3.569-.654-5.437-1.956-.676-.471-.842-1.4-.371-2.076s1.401-.842,2.076-.371c1.707,1.19,3.261,1.633,4.616,1.318,1.929-.448,2.984-2.32,2.995-2.339.397-.718,1.301-.984,2.021-.591s.99,1.288.603,2.01c-.066.124-1.665,3.041-4.9,3.816-.527.126-1.061.189-1.602.189Z"/>
          <path class="cls-1" d="M441.157,241.385c-1.747,0-3.57-.654-5.437-1.956-.676-.471-.842-1.4-.371-2.076s1.401-.842,2.076-.371c1.707,1.19,3.261,1.633,4.616,1.318,1.929-.448,2.984-2.32,2.995-2.339.397-.718,1.301-.984,2.021-.591.72.393.99,1.288.603,2.01-.066.124-1.665,3.041-4.9,3.816-.527.126-1.061.189-1.602.189Z"/>
          <path class="cls-1" d="M445.729,229.836c-.441,0-.874-.208-1.145-.597-.441-.632-.286-1.501.345-1.942l1.179-.823c1.298-.906,1.751-2.604,1.077-4.037l-4.074-8.656c-.328-.697-.029-1.528.668-1.856.698-.329,1.528-.028,1.856.668l4.074,8.656c1.255,2.666.412,5.826-2.005,7.513l-1.179.823c-.243.17-.521.251-.797.251h0Z"/>
        </g>
      </g>
    </g>
  </g>
</svg>