<?xml version="1.0" encoding="UTF-8"?>
<svg id="Layer_1" data-name="Layer 1" xmlns="http://www.w3.org/2000/svg" viewBox="0 0 600 600">
  <defs>
    <style>
      .cls-1 {
        fill: #070707;
      }
    </style>
  </defs>
  <path class="cls-1" d="M473.85,189.412H126.15c-16.652,0-30.15,13.173-30.15,29.412v351.764c0,16.245,13.499,29.412,30.15,29.412h347.699c16.651,0,30.15-13.167,30.15-29.412V218.824c0-16.239-13.499-29.412-30.15-29.412ZM219.677,533.117h-61.625v-185.404h61.625v185.404ZM188.865,322.399h-.401c-20.681,0-34.053-14.237-34.053-32.029,0-18.192,13.782-32.034,34.863-32.034s34.057,13.842,34.458,32.034c0,17.792-13.376,32.029-34.865,32.029ZM441.885,533.117h-61.619v-99.187c0-24.924-8.92-41.926-31.219-41.926-17.024,0-27.164,11.466-31.619,22.538-1.627,3.961-2.028,9.497-2.028,15.038v103.537h-61.622s.809-168.007,0-185.404h61.624v26.253c8.189-12.634,22.84-30.604,55.537-30.604,40.544,0,70.947,26.499,70.947,83.446v106.308Z"/>
  <path class="cls-1" d="M315.402,374.601v-.635c-.137.212-.278.426-.411.635h.411Z"/>
</svg>