<?xml version="1.0" encoding="UTF-8"?>
<svg id="Layer_1" data-name="Layer 1" xmlns="http://www.w3.org/2000/svg" viewBox="0 0 600 600">
  <defs>
    <style>
      .cls-1 {
        fill: #070707;
      }
    </style>
  </defs>
  <path class="cls-1" d="M485.364,97.47H114.636c-10.495,0-19.003,8.508-19.003,19.003v464.525c0,10.495,8.508,19.003,19.003,19.003h370.728c10.495,0,19.003-8.508,19.003-19.003V116.473c0-10.495-8.508-19.003-19.003-19.003ZM135.128,153.154h179.3c1.973,0,3.571,1.599,3.571,3.571s-1.599,3.571-3.571,3.571h-179.3c-1.973,0-3.572-1.599-3.572-3.571s1.599-3.571,3.572-3.571ZM135.128,180.225h107.913c1.973,0,3.572,1.599,3.572,3.572s-1.599,3.572-3.572,3.572h-107.913c-1.973,0-3.572-1.599-3.572-3.572s1.599-3.572,3.572-3.572ZM219.874,521.037h-84.746c-2.209,0-4-1.791-4-4s1.791-4,4-4h84.746c2.209,0,4,1.791,4,4s-1.791,4-4,4ZM219.874,390.814h-84.746c-2.209,0-4-1.791-4-4s1.791-4,4-4h84.746c2.209,0,4,1.791,4,4s-1.791,4-4,4ZM219.874,304h-84.746c-2.209,0-4-1.791-4-4s1.791-4,4-4h84.746c2.209,0,4,1.791,4,4s-1.791,4-4,4ZM463.606,564.444h-224.9c-2.209,0-4-1.791-4-4s1.791-4,4-4h224.9c2.209,0,4,1.791,4,4s-1.791,4-4,4ZM463.606,521.037h-224.9c-2.209,0-4-1.791-4-4s1.791-4,4-4h224.9c2.209,0,4,1.791,4,4s-1.791,4-4,4ZM463.606,477.63h-224.9c-2.209,0-4-1.791-4-4s1.791-4,4-4h224.9c2.209,0,4,1.791,4,4s-1.791,4-4,4ZM463.606,434.223h-224.9c-2.209,0-4-1.791-4-4s1.791-4,4-4h224.9c2.209,0,4,1.791,4,4s-1.791,4-4,4ZM463.606,390.814h-224.9c-2.209,0-4-1.791-4-4s1.791-4,4-4h224.9c2.209,0,4,1.791,4,4s-1.791,4-4,4ZM463.606,347.407h-224.9c-2.209,0-4-1.791-4-4s1.791-4,4-4h224.9c2.209,0,4,1.791,4,4s-1.791,4-4,4ZM463.606,304h-224.9c-2.209,0-4-1.791-4-4s1.791-4,4-4h224.9c2.209,0,4,1.791,4,4s-1.791,4-4,4ZM470.949,260.442c0,3.503-2.839,6.342-6.342,6.342h-97.75c-3.503,0-6.342-2.839-6.342-6.342v-128.431c0-3.503,2.839-6.342,6.342-6.342h97.75c3.503,0,6.342,2.839,6.342,6.342v128.431Z"/>
  <polygon class="cls-1" points="394.213 154.34 391.292 149.696 378.701 160.631 381.433 165.214 394.213 154.34"/>
  <path class="cls-1" d="M400.756,160.852h0c-2.278.654-4.712.263-6.094-1.664l-1.207-1.682-9.72,7.965,2.023,5.802c.418,1.2.358,2.51-.149,3.675-8.698,19.984-1.839,51.235-17.576,63.583,10.393,5.95,21.353,8.793,31.991,9.696l.335,4.047c-1.223,3.414,27.45,2.377,27.182,0l-1.373-5.29c21.265-3.579,37.002-12,37.002-12,0,0,7.838-94.298-62.414-74.134Z"/>
  <polygon class="cls-1" points="427.541 252.275 427.541 252.275 427.541 252.276 427.541 252.275"/>
</svg>