<?xml version="1.0" encoding="UTF-8"?>
<svg id="Layer_1" data-name="Layer 1" xmlns="http://www.w3.org/2000/svg" viewBox="0 0 600 600">
  <defs>
    <style>
      .cls-1 {
        fill: #070707;
      }
    </style>
  </defs>
  <path class="cls-1" d="M503.344,327.294l-58.254,39.174v-10.846l54.27-36.495c-1.04-1.329-2.237-2.549-3.583-3.622l-50.687-40.401v-47.998c0-9.439-7.68-17.119-17.119-17.119h-64.575l-49.789-39.685c-7.961-6.346-19.253-6.346-27.214,0l-49.789,39.685h-64.575c-9.44,0-17.119,7.679-17.119,17.119v47.998l-50.687,40.401c-1.353,1.078-2.555,2.305-3.598,3.642l54.285,36.808v10.874l-58.262-39.504c-.422,1.702-.648,3.463-.648,5.252v232.67c0,19.193,15.559,34.752,34.752,34.752h338.495c19.193,0,34.752-15.559,34.752-34.752v-232.67c0-1.8-.229-3.571-.656-5.283ZM437.09,371.848l-135.436,91.077c-.759.511-1.635.766-2.511.766-.441,0-.882-.065-1.307-.194s-.837-.323-1.218-.581l-133.708-90.661v-145.147c0-5.028,4.091-9.119,9.119-9.119h255.941c5.028,0,9.119,4.091,9.119,9.119v144.741Z"/>
  <polygon class="cls-1" points="264.845 249.614 260.074 242.028 239.505 259.891 243.969 267.377 264.845 249.614"/>
  <path class="cls-1" d="M314.448,357.828c3.521,2.455,6.958,3.689,10.253,3.689,1.021,0,2.029-.119,3.022-.356,6.102-1.461,9.116-6.962,9.242-7.196.731-1.362.221-3.051-1.136-3.791-1.358-.74-3.062-.238-3.812,1.115-.02.036-2.011,3.567-5.648,4.411-2.556.594-5.485-.243-8.705-2.486-1.274-.889-3.028-.576-3.916.699-.888,1.275-.575,3.028.7,3.916Z"/>
  <polygon class="cls-1" points="333.324 339.737 333.323 339.736 333.323 339.737 333.324 339.737"/>
  <path class="cls-1" d="M342.576,313.826c6.102-1.461,9.116-6.962,9.242-7.196.731-1.362.221-3.051-1.136-3.791-1.358-.74-3.062-.238-3.812,1.115-.02.036-2.011,3.567-5.648,4.411-2.556.594-5.485-.243-8.705-2.486-1.274-.889-3.028-.576-3.916.699-.492.706-.603,1.556-.398,2.328.011.051.028.101.042.151.024.073.046.145.076.215.024.063.037.127.066.188l7.682,16.323c1.272,2.702.417,5.904-2.031,7.613l-2.223,1.552c-1.191.832-1.482,2.472-.651,3.663.512.732,1.328,1.125,2.159,1.125.52,0,1.044-.154,1.502-.474l2.223-1.552c4.558-3.181,6.147-9.14,3.78-14.168l-4.603-9.78c1.123.271,2.233.42,3.327.42,1.021,0,2.029-.119,3.022-.356Z"/>
  <path class="cls-1" d="M275.535,260.251c-3.722,1.068-7.697.43-9.955-2.718l-1.972-2.748-15.878,13.012,3.305,9.479c.683,1.961.585,4.1-.244,6.004-14.208,32.647-3.004,83.698-28.712,103.87,16.978,9.721,34.882,14.364,52.261,15.84l-9.248-111.829,88.809-7.663c48.323,107.177-40.487,103.462-40.487,103.462l3.634,14.001c34.738-5.846,60.447-19.603,60.447-19.603,0,0,12.805-154.046-101.96-121.105Z"/>
  <path class="cls-1" d="M312.32,307.506c-1.358-.74-3.062-.238-3.812,1.115-.02.036-2.011,3.567-5.648,4.411-2.556.594-5.485-.243-8.705-2.486-1.274-.889-3.028-.576-3.916.699-.888,1.275-.575,3.028.7,3.916,3.522,2.455,6.958,3.689,10.253,3.689,1.021,0,2.029-.119,3.022-.356,6.102-1.461,9.116-6.962,9.242-7.196.731-1.362.221-3.051-1.136-3.791Z"/>
</svg>